<svg width="639" height="455" viewBox="0 0 639 455" fill="none" xmlns="http://www.w3.org/2000/svg">
<g clip-path="url(#clip0_1717_611)">
<path d="M180.75 66.76C180.75 66.76 186.09 86.55 187.24 103.27C188.39 119.99 189.84 119.27 189.37 138.18C188.9 157.09 187.05 164.92 183.59 170C180.13 175.08 171.79 186.35 157.37 187.48C148.96 188.22 140.494 186.994 132.64 183.9C132.64 183.9 112.48 176.9 103.88 170.04C95.2796 163.18 93.7296 155.48 93.7296 155.48C93.7296 155.48 89.8396 146.66 87.7896 141.82C85.7396 136.98 77.2896 124.82 74.4896 121.71C71.6896 118.6 68.1796 114.5 68.1796 114.5C68.1796 114.5 69.6396 113.5 73.2996 114.72C76.9596 115.94 79.2996 119.97 80.8796 122.87C82.4596 125.77 84.3696 125.82 84.3696 125.82C84.3696 125.82 90.7095 125.82 90.8996 124.65C91.0896 123.48 88.5796 111.72 88.7496 108.8C88.9196 105.88 90.9496 102.54 91.8796 100.43C92.8096 98.32 93.8196 96.7 92.8796 93.43C91.9396 90.16 90.1196 85.43 90.4096 81.8C90.6996 78.17 91.2095 76.69 91.8996 76.55C92.5896 76.41 95.1696 76.98 96.3496 76.55C97.5296 76.12 101.15 75.11 102.49 73.15L102.81 72.86C102.81 72.86 107.57 74.55 110.71 73.86C113.85 73.17 116.71 71.86 118 69.6C118.1 69.35 118.24 69.06 118.24 69.06C118.24 69.06 122.07 71.53 124.34 71.64C126.61 71.75 129 71.45 130.08 70.19C131.16 68.93 130.93 68.48 130.93 68.48C130.93 68.48 134.1 72.22 138.59 72.48C143.08 72.74 143.96 71.48 144.46 70.65C144.743 69.9058 144.792 69.0927 144.6 68.32C144.6 68.32 149.9 72.48 154.98 71.49C160.06 70.5 160.59 68.68 160.53 67.92C160.47 67.16 160.42 66.92 160.42 66.92C160.42 66.92 166.66 69.79 170.5 68.6C174.34 67.41 174.97 66 174.97 66C174.97 66 177.92 66.83 178.69 66.49C179.351 66.2803 180.047 66.1955 180.74 66.24L180.75 66.76Z" fill="white"/>
<path d="M137.61 201.702C137.851 202.496 137.776 203.353 137.4 204.092C136.933 204.618 136.302 204.971 135.61 205.092C129.668 206.739 123.458 207.194 117.34 206.43C111.221 205.666 105.314 203.699 99.9595 200.642C99.0021 200.191 98.176 199.502 97.5595 198.642C96.7995 197.352 96.9895 195.732 97.1495 194.242C97.9595 186.942 97.5995 179.572 97.2395 172.242C102.77 173.592 107.79 176.472 112.72 179.322L126.15 187.002L132.86 190.882C134.08 191.582 135.7 192.102 136.15 193.572C136.466 194.846 136.703 196.139 136.86 197.442L137.61 201.702Z" fill="white"/>
<path d="M135.58 184.439L138.58 204.379C138.627 204.57 138.599 204.771 138.502 204.942C138.406 205.113 138.247 205.241 138.06 205.299C124.3 209.719 108.38 207.679 96.6297 199.089C95.8597 198.529 96.6297 197.229 97.3897 197.799C108.84 206.169 124.24 208.159 137.66 203.859L137.14 204.779L134.14 184.829C134 183.889 135.44 183.479 135.59 184.439H135.58Z" fill="black"/>
<path d="M104.28 180.06C102.624 178.678 101.048 177.202 99.5598 175.64C97.9332 174.331 96.6953 172.602 95.9798 170.64C95.2398 168.37 95.2998 166.07 94.9798 163.75C94.5684 161.438 94.341 159.098 94.2998 156.75C94.2998 157.34 95.5498 158.75 95.8698 159.31C96.3656 160.148 96.9238 160.946 97.5398 161.7C98.804 163.306 100.17 164.829 101.63 166.26C104.605 169.169 107.884 171.75 111.41 173.96C117.821 177.865 124.69 180.965 131.86 183.19C132.867 183.401 133.773 183.948 134.43 184.74C134.724 185.277 134.901 185.87 134.95 186.48C135.291 189.336 135.825 192.166 136.55 194.95C136.55 194.81 132.55 193.85 132.11 193.75C130.524 193.369 128.959 192.909 127.42 192.37C122.085 190.511 116.946 188.13 112.08 185.26C109.327 183.768 106.716 182.028 104.28 180.06Z" fill="black"/>
<path d="M406.939 262.328C406.939 262.328 422.079 269.558 421.939 270.998C421.799 272.438 421.839 273.648 419.669 273.698C417.499 273.748 417.879 273.178 417.879 273.178L417.979 275.078C417.979 275.078 417.109 276.528 414.449 276.288C411.789 276.048 382.979 264.888 377.259 265.818C371.539 266.748 374.949 268.128 374.949 268.128L382.689 271.858C382.689 271.858 384.619 275.548 382.339 276.178C380.059 276.808 378.049 276.288 375.939 275.628C373.829 274.968 367.369 272.038 367.369 272.038C367.369 272.038 361.199 271.398 358.179 269.738C356.503 268.847 354.918 267.792 353.449 266.588L351.539 265.588L304.859 264.158L278.909 263.158C278.909 263.158 237.239 261.518 220.539 258.158C203.839 254.798 208.859 224.498 208.859 224.498L209.709 220.328L227.379 228.248C227.379 228.248 269.379 245.608 306.679 248.348C327.179 250.208 333.779 252.348 343.319 251.638C352.859 250.928 356.459 247.988 365.029 249.098C373.344 250.144 381.499 252.21 389.309 255.248C395.559 257.868 406.939 262.328 406.939 262.328Z" fill="white"/>
<path d="M214.97 222.258C229.38 227.638 243.67 233.528 258.37 238.098C273.07 242.668 288.13 245.258 303.37 247.178C311.02 248.178 318.68 249.018 326.37 249.918C334.06 250.818 341.99 251.498 349.65 250.058C353.019 249.314 356.428 248.763 359.86 248.408C363.535 248.166 367.225 248.344 370.86 248.938C378.08 250.048 384.96 252.598 391.67 255.398C395.51 257.008 399.3 258.698 403.15 260.268C406.83 261.778 410.48 263.268 414.06 265.058C415.993 265.947 417.873 266.949 419.69 268.058C420.85 268.808 422.57 269.738 422.8 271.238C422.843 271.857 422.666 272.472 422.3 272.973C421.934 273.475 421.403 273.831 420.8 273.978C419.121 274.343 417.367 274.068 415.88 273.208C415.01 272.788 415.77 271.498 416.64 271.918C417.491 272.374 418.435 272.631 419.4 272.668C420.4 272.668 422.02 271.918 420.81 270.728C419.422 269.54 417.873 268.553 416.21 267.798C413.07 266.158 409.87 264.618 406.6 263.248C400.21 260.568 393.84 257.778 387.39 255.248C380.94 252.718 373.99 250.548 366.86 249.998C363.331 249.697 359.78 249.818 356.28 250.358C352.87 250.898 349.52 251.738 346.1 252.168C342.609 252.509 339.095 252.536 335.6 252.248C331.82 252.048 328.06 251.678 324.3 251.248C317.14 250.388 309.96 249.598 302.8 248.688C288.58 246.878 274.45 244.488 260.68 240.438C245 235.828 229.83 229.438 214.53 223.768C213.63 223.438 214.02 221.988 214.93 222.328L214.97 222.258Z" fill="black"/>
<path d="M218.71 257.211C227.36 258.211 236 259.271 244.66 260.141C253.32 261.011 261.95 261.501 270.61 261.981C288.19 262.961 305.783 263.741 323.39 264.321C333.25 264.641 343.116 264.904 352.99 265.111C353.189 265.111 353.379 265.19 353.52 265.331C353.661 265.471 353.74 265.662 353.74 265.861C353.74 266.06 353.661 266.251 353.52 266.391C353.379 266.532 353.189 266.611 352.99 266.611C335.49 266.251 318 265.698 300.52 264.951C282.96 264.201 265.34 263.581 247.84 261.951C238.11 261.051 228.42 259.811 218.71 258.721C217.71 258.621 217.71 257.111 218.71 257.221V257.211Z" fill="black"/>
<path d="M374.08 266.482C377.36 264.482 381.08 265.142 384.63 266.182C388.9 267.452 393.02 269.122 397.18 270.712C399.3 271.512 401.46 272.202 403.6 272.942C405.632 273.712 407.701 274.38 409.8 274.942C411.686 275.36 413.625 275.485 415.55 275.312C416.27 275.252 417.99 274.862 417.07 273.992C416.137 273.28 415.132 272.67 414.07 272.172C409.556 269.58 404.91 267.227 400.15 265.122C399.27 264.732 400.03 263.432 400.91 263.822C405.524 265.868 410.033 268.145 414.42 270.642C415.42 271.232 416.42 271.832 417.42 272.452C418.1 272.862 419.16 273.292 419.16 274.242C419.16 275.702 417.32 276.572 416.16 276.752C411.89 277.392 407.84 275.972 403.9 274.582C399.18 272.922 394.51 271.172 389.81 269.452C387.364 268.515 384.867 267.72 382.33 267.072C379.78 266.462 377.18 266.312 374.86 267.742C374.04 268.252 373.28 266.952 374.11 266.452L374.08 266.482Z" fill="black"/>
<path d="M375.39 264.899C374.81 265.649 374.47 266.779 375.33 267.469C376.405 268.157 377.556 268.721 378.76 269.149C379.84 269.639 380.95 270.069 382.02 270.589C382.888 270.942 383.599 271.6 384.02 272.439C384.351 273.253 384.376 274.16 384.089 274.992C383.802 275.823 383.223 276.522 382.46 276.959C380.19 278.169 377.65 276.959 375.46 276.139L366.92 272.829C366.03 272.489 366.41 271.039 367.31 271.389L374.31 274.099C375.46 274.549 376.61 275.019 377.78 275.439C378.86 275.939 380.074 276.076 381.24 275.829C381.668 275.732 382.054 275.503 382.345 275.175C382.636 274.847 382.816 274.435 382.86 273.999C382.884 273.566 382.768 273.137 382.528 272.777C382.288 272.416 381.938 272.143 381.53 271.999C379.53 270.999 377.38 270.209 375.36 269.209C374.868 269.022 374.43 268.718 374.081 268.325C373.733 267.931 373.485 267.459 373.36 266.949C373.282 266.454 373.307 265.95 373.434 265.466C373.562 264.982 373.788 264.53 374.1 264.139C374.68 263.389 375.98 264.139 375.39 264.899Z" fill="black"/>
<path d="M370.22 271.699C368.986 272.606 367.445 272.991 365.93 272.769C364.251 272.7 362.589 272.421 360.98 271.939C357.801 270.983 354.895 269.286 352.5 266.989C351.81 266.319 352.87 265.259 353.56 265.919C355.634 267.92 358.133 269.427 360.87 270.329C362.205 270.777 363.587 271.072 364.99 271.209C366.29 271.329 368.09 271.569 369.16 270.639C369.88 270.009 370.95 271.059 370.22 271.699Z" fill="black"/>
<path d="M349.86 337.533C349.86 337.533 348.24 336.673 348.71 333.953C349.18 331.233 351.46 286.703 351.71 271.363C351.96 256.023 352.56 227.003 348.4 217.363C344.24 207.723 340.24 200.313 332.69 197.363C325.14 194.413 314.69 191.423 305.34 199.663C295.99 207.903 278.86 226.863 275.34 230.993C271.82 235.123 257.86 252.403 257.86 252.403C257.86 252.403 275.96 272.103 281.2 276.893C286.44 281.683 304.2 294.543 309.2 297.203C314.2 299.863 321.2 301.143 321.99 303.683C322.78 306.223 321.35 332.383 321.35 332.383L349.86 337.533Z" fill="white"/>
<path d="M348.29 335.858C349.73 319.191 350.6 302.495 350.9 285.768C351.046 277.395 351.046 269.031 350.9 260.678C350.77 252.568 350.71 244.418 350.19 236.318C349.92 232.208 349.19 228.208 348.66 224.128C348.12 220.208 347.74 216.418 346.14 212.748C343.319 206.18 338.219 200.853 331.78 197.748C328.65 196.22 325.242 195.343 321.762 195.172C318.283 195 314.805 195.536 311.54 196.748C308.02 198.148 305.54 200.608 302.91 203.208C300.01 206.048 297.05 208.828 294.16 211.678C282.76 222.908 272.7 235.398 262.38 247.588C261.1 249.095 259.816 250.601 258.53 252.108C257.9 252.848 256.84 251.778 257.47 251.048C268.23 238.498 278.55 225.548 290.07 213.668C293 210.668 296.07 207.728 299.07 204.808C301.76 202.218 304.27 199.208 307.42 197.168C313.05 193.528 320.33 192.878 326.75 194.428C333.413 196.096 339.314 199.974 343.49 205.428C345.734 208.339 347.456 211.618 348.58 215.118C349.8 219.008 349.98 223.248 350.64 227.258C351.97 235.258 351.92 243.438 352.15 251.538C352.396 260.205 352.496 268.898 352.45 277.618C352.336 294.918 351.61 312.205 350.27 329.478C350.1 331.618 349.93 333.768 349.74 335.908C349.66 336.908 348.16 336.908 348.24 335.908L348.29 335.858Z" fill="black"/>
<path d="M318.25 301.272C317.283 283.939 317.16 266.605 317.88 249.272C318.093 244.312 318.37 239.362 318.71 234.422C318.78 233.422 320.28 233.422 320.21 234.422C318.996 251.755 318.633 269.089 319.12 286.422C319.26 291.375 319.47 296.329 319.75 301.282C319.8 302.282 318.3 302.282 318.25 301.282V301.272Z" fill="black"/>
<path d="M239.15 275.313L239.26 275.163C241.26 272.493 242.66 269.473 244.39 266.643C246.49 263.193 248.7 259.783 250.71 256.283C251.86 254.283 253.46 250.783 256.32 251.283C257.154 251.535 257.879 252.059 258.38 252.773C260.71 255.423 263.03 258.083 265.38 260.693C274.192 270.311 283.781 279.188 294.05 287.233C297.573 290.139 301.311 292.777 305.23 295.123C309.342 297.464 313.673 299.4 318.16 300.903C319.52 301.353 321.02 301.903 321.72 303.123C322.115 304.007 322.271 304.979 322.17 305.943L321.83 332.583C300.88 334.453 279.7 333.843 259.08 329.693C252.7 328.413 246.08 326.693 241.26 322.323C235.2 316.823 233.11 308.053 233.48 299.883C233.85 291.713 234.2 281.833 239.15 275.313Z" fill="#141414"/>
<path d="M238.5 274.93C239.894 272.979 241.154 270.934 242.269 268.81C243.539 266.54 244.919 264.34 246.269 262.13C247.619 259.92 248.929 257.87 250.169 255.68C250.839 254.302 251.697 253.023 252.719 251.88C253.207 251.338 253.829 250.934 254.522 250.709C255.216 250.485 255.957 250.447 256.669 250.6C257.498 250.891 258.226 251.411 258.769 252.1C259.669 253.1 260.539 254.1 261.429 255.1C264.789 258.92 268.219 262.67 271.789 266.3C278.787 273.408 286.225 280.067 294.06 286.24C297.935 289.463 302.073 292.357 306.429 294.89C308.564 296.07 310.757 297.142 313 298.1C315.25 299.1 317.61 299.72 319.84 300.68C320.811 301.036 321.641 301.7 322.202 302.569C322.763 303.439 323.026 304.468 322.949 305.5C322.949 308.43 322.869 311.37 322.829 314.3L322.599 332.55C322.592 332.747 322.511 332.933 322.372 333.073C322.232 333.212 322.046 333.293 321.849 333.3C301.967 335.213 281.919 334.449 262.239 331.03C254.239 329.56 245.32 327.85 239.53 321.61C234.25 315.93 232.469 307.79 232.739 300.23C233.039 291.76 233.209 282 238.479 274.9C239.049 274.14 240.349 274.9 239.769 275.66C235.159 281.89 234.709 290.15 234.359 297.61C234.009 305.07 234.669 313.13 239.549 319.33C244.749 325.94 253.369 327.82 261.209 329.33C270.668 331.116 280.243 332.215 289.859 332.62C300.532 333.063 311.222 332.799 321.859 331.83L321.109 332.58L321.31 317.29L321.399 309.89C321.399 308.66 321.399 307.42 321.449 306.19C321.499 304.96 321.449 303.55 320.359 302.69C319.565 302.177 318.694 301.792 317.78 301.55C316.62 301.15 315.48 300.74 314.34 300.29C312.22 299.45 310.143 298.52 308.109 297.5C303.98 295.374 300.062 292.859 296.409 289.99C288.993 284.314 281.898 278.228 275.159 271.76C271.786 268.514 268.516 265.18 265.349 261.76C263.719 260 262.129 258.21 260.539 256.41C259.739 255.51 258.949 254.6 258.159 253.7C257.369 252.8 256.629 251.82 255.359 252.06C253.649 252.38 252.639 254.4 251.869 255.77C250.66 257.91 249.39 260.02 248.09 262.11C246.63 264.46 245.09 266.79 243.78 269.21C242.593 271.471 241.257 273.649 239.78 275.73C239.22 276.45 237.92 275.7 238.5 274.93Z" fill="black"/>
<path d="M282.22 330.756C282.22 330.756 280.61 328.196 272.99 324.566C265.37 320.936 250.56 315.946 231.92 302.566C213.28 289.186 196.06 261.176 196.06 261.176L211.8 267.176C211.8 267.176 215.29 267.286 216.8 264.706C218.31 262.126 218.72 256.626 218.72 256.626L214.13 221.576C214.13 221.576 214.04 216.576 194.91 212.746C175.78 208.916 146.34 205.466 146.34 205.466L144.34 204.816C144.34 204.816 141 200.956 139.4 200.946C137.8 200.936 137.86 201.466 137.86 201.466V204.586C137.86 204.586 132.16 207.586 118.64 206.586C105.12 205.586 97.2797 198.656 97.2797 198.656L87.5897 242.396L89.8597 310.626L135.81 363.906L139.39 380.226L148.44 389.346C148.44 389.346 169.96 411.506 204.49 409.426C239.02 407.346 259.73 391.476 259.73 391.476L260.97 386.886C260.97 386.886 261.49 375.886 261.87 374.526C262.25 373.166 268.97 356.046 268.97 356.046C268.97 356.046 277.77 332.246 277.77 332.116C277.77 331.986 278.6 329.716 278.6 329.716L282.22 330.756Z" fill="#141414"/>
<path d="M147.4 387.441C159.232 398.19 173.949 405.243 189.74 407.731C197.662 409.087 205.763 409.016 213.66 407.521C221.44 405.931 228.81 402.881 235.95 399.461C244.16 395.541 252.15 391.151 260.54 387.601L260.19 388.441C258.76 378.841 262.26 369.721 266 361.061C270.1 351.571 273.48 341.871 276.71 332.061C276.92 331.441 277.12 330.811 277.33 330.181C277.54 329.551 277.91 328.931 277.67 328.491C277.43 328.051 276.58 327.781 276.16 327.491C275.74 327.201 275.27 326.731 274.75 326.411C272.315 324.99 269.75 323.805 267.09 322.871C266.19 322.551 266.58 321.101 267.49 321.431C269.781 322.236 272.008 323.216 274.15 324.361C275.086 324.836 275.971 325.405 276.79 326.061C277.51 326.661 278.79 327.001 279.18 327.911C279.386 328.681 279.289 329.5 278.91 330.201L277.71 333.841C276.86 336.411 276.01 338.971 275.14 341.531C273.41 346.601 271.6 351.631 269.55 356.581C267.55 361.341 265.37 366.001 263.73 370.901C261.88 376.421 260.73 382.251 261.64 388.071C261.681 388.232 261.669 388.401 261.606 388.554C261.543 388.707 261.432 388.836 261.29 388.921C246.29 395.291 232.29 404.651 216.29 408.511C200.66 412.281 183.67 409.621 169.06 403.261C160.733 399.637 153.063 394.659 146.36 388.531C145.65 387.881 146.71 386.821 147.42 387.471L147.4 387.441Z" fill="black"/>
<path d="M393.18 453.889C392.6 450.439 392.01 446.989 391.44 443.529C390.77 439.529 389.85 435.449 389.25 431.429L355.31 415.429L366.99 348.539C378.33 355.219 390.114 361.116 402.26 366.189C407.19 368.249 412.21 370.189 416.77 372.979C420.494 375.278 423.757 378.252 426.39 381.749C428.95 385.099 429.39 389.229 430.28 393.359C434.6 412.979 435.61 433.869 437.16 453.889H393.18Z" fill="white"/>
<path d="M392.459 454.093C391.629 449.183 390.859 444.263 389.919 439.363C389.699 438.233 389.479 437.113 389.269 435.973C389.149 435.333 389.029 434.693 388.919 434.043C388.902 433.388 388.795 432.739 388.599 432.113C388.119 431.373 386.599 430.993 385.739 430.603L382.169 428.923L354.929 416.083C354.787 415.999 354.676 415.87 354.615 415.716C354.553 415.562 354.544 415.393 354.589 415.233L358.529 392.683L364.859 356.593L366.299 348.343C366.332 348.234 366.388 348.133 366.464 348.048C366.541 347.963 366.635 347.897 366.741 347.853C366.847 347.81 366.961 347.791 367.075 347.798C367.189 347.805 367.3 347.838 367.399 347.893C375.639 352.733 384.099 357.167 392.779 361.193C397.169 363.193 401.619 365.103 406.089 366.963C410.316 368.577 414.381 370.586 418.229 372.963C421.598 375.214 424.563 378.016 426.999 381.253C429.529 384.583 430.099 388.733 430.949 392.703C432.909 402.068 434.361 411.532 435.299 421.053C436.419 431.963 437.099 442.923 437.939 453.853C437.939 454.052 437.86 454.243 437.72 454.384C437.579 454.524 437.388 454.603 437.189 454.603H393.189C392.991 454.603 392.8 454.524 392.659 454.384C392.518 454.243 392.439 454.052 392.439 453.853C392.439 453.654 392.518 453.464 392.659 453.323C392.8 453.182 392.991 453.103 393.189 453.103H437.189L436.439 453.853C434.979 434.933 434.059 415.853 430.359 397.213C429.929 395.023 429.439 392.833 428.999 390.643C428.654 388.553 428.067 386.509 427.249 384.553C425.549 380.903 422.179 377.703 418.979 375.323C415.382 372.797 411.499 370.706 407.409 369.093C403.139 367.263 398.819 365.533 394.579 363.623C385.015 359.302 375.688 354.472 366.639 349.153L367.749 348.703L363.809 371.263L357.499 407.353L356.059 415.593L355.719 414.753L383.859 428.003L387.439 429.693C388.219 430.063 389.609 430.373 390.009 431.193C390.195 431.821 390.299 432.469 390.319 433.123C390.399 433.603 390.489 434.123 390.579 434.573C390.809 435.863 391.069 437.153 391.309 438.443C392.309 443.443 393.089 448.583 393.949 453.653C394.069 454.643 392.619 455.003 392.459 454.093Z" fill="black"/>
<path d="M279.06 328.578C306.28 330.498 333.406 333.425 360.44 337.358C361.562 337.445 362.655 337.762 363.65 338.288C365.49 339.458 366.09 341.838 366.41 343.988C367.41 350.588 366.83 356.768 366.41 363.348C365.05 382.708 356.33 400.898 355.22 420.408C355.11 422.318 354.77 424.678 352.96 425.308C351.75 425.728 350.43 425.128 349.32 424.478C346.393 422.768 343.703 420.68 341.32 418.268C332.15 409.028 317.9 408.688 305.05 406.648C292.2 404.608 279.14 404.308 266.12 404.018C262.956 397.456 261.214 390.3 261.01 383.018C260.81 364.398 274.8 346.688 279.06 328.578Z" fill="#141414"/>
<path d="M279.059 327.826C298.493 329.206 317.879 331.09 337.219 333.476C341.939 334.063 346.653 334.68 351.359 335.326L358.679 336.326C360.619 336.606 362.859 336.676 364.459 337.936C367.279 340.156 367.389 344.776 367.599 348.026C367.783 352.653 367.656 357.287 367.219 361.896C366.443 370.672 364.863 379.359 362.499 387.846C360.219 396.546 357.719 405.246 356.499 414.176C356.209 416.356 356.039 418.526 355.879 420.706C355.891 422.212 355.448 423.686 354.609 424.936C351.999 428.156 347.309 424.266 345.009 422.526C341.839 420.136 339.279 417.066 335.869 414.966C332.607 413.039 329.074 411.61 325.389 410.726C317.869 408.806 310.009 408.066 302.389 406.986C292.77 405.746 283.088 405.055 273.389 404.916L266.059 404.746C265.93 404.747 265.802 404.713 265.689 404.648C265.577 404.583 265.484 404.489 265.419 404.376C260.969 394.596 258.959 384.096 261.239 373.476C263.399 363.396 268.239 354.136 272.429 344.786C274.895 339.501 276.874 334.001 278.339 328.356C278.559 327.416 280.009 327.816 279.779 328.756C277.469 338.426 272.829 347.316 268.829 356.346C264.829 365.376 261.139 375.116 261.779 385.236C262.295 391.611 263.966 397.839 266.709 403.616L266.059 403.246C275.329 403.456 284.619 403.656 293.859 404.506C301.859 405.236 309.919 406.506 317.859 407.706C324.759 408.786 331.859 410.386 337.719 414.376C340.959 416.576 343.479 419.616 346.669 421.886C348.099 422.886 351.039 425.436 352.889 424.466C354.419 423.656 354.349 421.186 354.449 419.706C355.579 402.566 362.449 386.526 364.909 369.616C365.559 365.186 365.849 360.696 366.069 356.226C366.417 351.856 366.222 347.459 365.489 343.136C365.129 341.306 364.489 339.346 362.589 338.596C360.689 337.846 358.169 337.756 356.069 337.466C351.329 336.8 346.589 336.16 341.849 335.546C323.263 333.166 304.623 331.256 285.929 329.816C283.629 329.636 281.339 329.466 279.039 329.306C278.099 329.256 278.089 327.756 279.059 327.826Z" fill="black"/>
<path d="M181.34 65.3165C185.234 80.4418 187.837 95.8706 189.12 111.436C189.746 119.096 190.08 126.763 190.12 134.436C190.12 141.766 190.12 149.196 188.86 156.436C187.71 162.876 185.54 169.316 181.5 174.536C177.482 179.635 172.126 183.517 166.03 185.746C152.16 190.926 137.54 187.016 124.49 181.416C117.78 178.536 111.12 175.716 105.3 171.216C99.8615 167.114 95.5311 161.722 92.6996 155.526C92.3096 154.646 93.5996 153.886 93.9896 154.766C98.9896 166.006 108.99 173.106 119.99 177.836C126.81 180.776 133.57 183.836 140.85 185.436C147.595 187.049 154.62 187.104 161.39 185.596C167.749 184.099 173.553 180.829 178.13 176.166C182.8 171.316 185.44 165.096 186.91 158.596C188.45 151.776 188.57 144.776 188.62 137.816C188.67 130.286 188.44 122.746 187.92 115.236C186.773 98.5099 184.096 81.9238 179.92 65.6865C179.867 65.4942 179.892 65.2887 179.991 65.1152C180.089 64.9418 180.252 64.8145 180.445 64.7615C180.637 64.7084 180.842 64.7339 181.016 64.8324C181.189 64.9308 181.317 65.0942 181.37 65.2865L181.34 65.3165Z" fill="black"/>
<path d="M167.16 17.688L168.07 17.188C168.11 16.9824 168.108 16.7707 168.063 16.566C168.019 16.3613 167.932 16.168 167.81 15.998C167.527 15.5939 167.162 15.2534 166.74 14.998C166.092 14.5966 165.405 14.2616 164.69 13.998C163.246 13.4617 161.774 13.0043 160.28 12.628C158.861 12.2608 157.479 11.7654 156.15 11.148C155.02 10.588 154.36 10.148 154.34 8.82803C154.34 8.07803 154.48 7.77803 153.75 7.36803C153.409 7.19457 153.045 7.07001 152.67 6.99803C151.875 6.88316 151.069 6.86302 150.27 6.93803C148.624 7.09157 146.963 6.92518 145.38 6.44803C144.04 6.00803 142.75 5.44803 141.38 4.99803C139.65 4.45803 137.88 3.99803 136.11 3.66803C122.23 0.82803 107.86 2.05803 94.3599 6.15803C90.7799 7.24803 87.2499 8.52803 83.7999 9.96803C80.6699 11.278 77.4799 12.358 75.0999 14.888C74.5299 15.498 73.4099 14.678 73.9299 13.978C74.4499 13.278 73.0398 12.828 72.5798 12.778C71.6698 12.668 71.0299 13.668 70.5099 14.298C69.1099 15.998 67.7499 18.298 68.9799 20.458C69.2699 20.978 68.7699 21.818 68.1299 21.558C66.0435 20.7077 63.7607 20.4583 61.5399 20.838C60.4669 20.9934 59.4285 21.3316 58.4699 21.838C57.8775 22.1248 57.3834 22.5806 57.0499 23.148C56.6599 23.928 56.7999 25.088 57.9099 25.148C58.1088 25.148 58.2995 25.227 58.4402 25.3677C58.5808 25.5084 58.6599 25.6991 58.6599 25.898C58.6599 26.0969 58.5808 26.2877 58.4402 26.4284C58.2995 26.569 58.1088 26.648 57.9099 26.648C55.1699 26.798 52.6599 28.438 50.7299 30.308C49.7998 31.2127 48.9959 32.2386 48.3399 33.358C48.0205 33.8818 47.7301 34.4226 47.4699 34.978C47.3153 35.2771 47.1848 35.5881 47.0798 35.908C47.0298 36.088 46.8699 37.398 47.3399 37.138L47.9199 38.508C45.9199 39.328 44.9699 41.438 44.3799 43.358C43.6712 45.7509 43.2383 48.2169 43.0899 50.708C42.76 55.7419 43.44 60.7908 45.0899 65.558C45.3998 66.478 43.9499 66.868 43.6399 65.958C41.7561 60.4776 41.1172 54.6463 41.7698 48.888C42.2598 44.708 43.1199 38.888 47.5299 37.068C48.3199 36.738 48.8399 38.068 48.1099 38.438C47.8303 38.5837 47.518 38.655 47.2029 38.6453C46.8879 38.6355 46.5806 38.545 46.3106 38.3824C46.0405 38.2198 45.8168 37.9905 45.6608 37.7166C45.5049 37.4426 45.4219 37.1332 45.4199 36.818C45.3199 34.998 46.8199 32.818 47.8399 31.398C50.1498 28.198 53.8399 25.398 57.9199 25.148V26.648C57.2515 26.6409 56.6113 26.3777 56.1313 25.9126C55.6513 25.4474 55.368 24.8158 55.3399 24.148C55.3689 23.3579 55.621 22.592 56.0669 21.9391C56.5128 21.2861 57.1345 20.7726 57.8599 20.458C59.5091 19.66 61.3075 19.2174 63.1387 19.1588C64.9699 19.1003 66.793 19.4271 68.4899 20.118L67.6399 21.218C67.2199 20.4395 66.9891 19.5729 66.9666 18.6886C66.944 17.8042 67.1301 16.927 67.5099 16.128C68.2554 14.3767 69.4403 12.8474 70.9499 11.688C72.6999 10.528 76.8099 12.518 75.1799 14.738L73.9999 13.828C76.1699 11.518 78.8899 10.378 81.7599 9.19803C85.3899 7.68803 89.0399 6.24803 92.7599 5.05803C100.177 2.68565 107.858 1.23804 115.63 0.74803C123.665 0.253617 131.728 1.0127 139.53 2.99803C141.31 3.47966 143.062 4.05717 144.78 4.72803C146.53 5.38851 148.404 5.65814 150.27 5.51803C151.79 5.43803 153.68 5.39803 154.95 6.39803C155.387 6.7069 155.708 7.15436 155.86 7.66803C155.875 7.94784 155.875 8.22822 155.86 8.50803C155.868 8.80501 155.968 9.0921 156.148 9.3289C156.327 9.56569 156.576 9.74026 156.86 9.82803C160.39 11.558 164.69 11.628 167.86 14.048C168.472 14.4261 168.948 14.9899 169.218 15.6572C169.488 16.3245 169.537 17.0605 169.36 17.758C169.257 18.0461 169.095 18.3092 168.884 18.5301C168.672 18.7511 168.416 18.9248 168.133 19.04C167.85 19.1552 167.545 19.2092 167.24 19.1985C166.934 19.1879 166.634 19.1127 166.36 18.978C165.48 18.578 166.24 17.288 167.11 17.688H167.16Z" fill="black"/>
<path d="M182.86 64.4692C182.22 65.1644 181.446 65.7229 180.584 66.111C179.723 66.4992 178.792 66.7089 177.847 66.7276C176.903 66.7463 175.964 66.5735 175.088 66.2198C174.212 65.866 173.416 65.3385 172.75 64.6692C172.06 63.9892 173.12 62.9292 173.81 63.6092C174.342 64.1323 174.975 64.543 175.669 64.8169C176.363 65.0908 177.106 65.2224 177.852 65.2037C178.598 65.1851 179.333 65.0166 180.013 64.7083C180.693 64.4 181.304 63.9582 181.81 63.4092C182.47 62.7092 183.53 63.7692 182.87 64.4692H182.86Z" fill="black"/>
<path d="M175.52 65.5624C174.06 69.1424 169.61 69.7524 166.22 69.3124C162.255 68.8018 158.639 66.786 156.12 63.6824C155.52 62.9424 156.58 61.8724 157.18 62.6224C159.286 65.2494 162.255 67.0456 165.56 67.6924C168.22 68.2124 172.83 68.2124 174.07 65.1724C174.43 64.2824 175.88 64.6724 175.52 65.5624Z" fill="black"/>
<path d="M92.2695 76.3312C89.5595 80.5112 91.2695 84.9712 92.0995 89.4212C92.3192 90.6081 92.5996 91.7829 92.9396 92.9412C93.2719 93.816 93.5067 94.7248 93.6396 95.6512C93.6854 97.547 93.2079 99.4189 92.2596 101.061C91.1302 102.924 90.2017 104.902 89.4895 106.961C89.0396 109.074 89.0396 111.258 89.4895 113.371C90.1895 117.451 91.5995 121.371 91.4895 125.601C91.4895 126.601 89.9595 126.601 89.9895 125.601C90.1195 121.191 88.4896 117.041 87.8896 112.731C87.5859 110.82 87.6231 108.87 87.9996 106.971C88.5971 104.895 89.4752 102.91 90.6095 101.071C91.7395 98.9612 92.6095 96.7912 91.8995 94.3912C91.2195 92.2212 90.7795 90.0512 90.3095 87.8212C89.6914 85.7054 89.3288 83.5232 89.2295 81.3212C89.3053 79.2796 89.9231 77.295 91.0195 75.5712C91.5495 74.7612 92.8496 75.5712 92.3196 76.3312H92.2695Z" fill="black"/>
<path d="M168.78 18.0011C175.12 22.0011 179.35 28.1111 183.21 34.3511C185.13 37.4811 187.05 41.0411 186.21 44.8411C186.01 45.7311 185.54 46.4911 185.21 47.3511C184.935 48.4503 184.955 49.6026 185.27 50.6911C185.702 52.7081 185.897 54.7689 185.85 56.8312C185.68 60.6212 184.1 64.4212 180.7 66.3712C180.527 66.4719 180.322 66.5001 180.129 66.4495C179.936 66.3988 179.771 66.2735 179.67 66.1011C179.569 65.9288 179.541 65.7234 179.591 65.5302C179.642 65.3371 179.767 65.1719 179.94 65.0711C184.21 62.6311 184.76 57.3311 184.13 52.9111C183.83 50.7811 183.06 48.6712 183.91 46.5812C184.443 45.5058 184.766 44.338 184.86 43.1411C184.871 41.9773 184.668 40.8213 184.26 39.7311C183.396 37.614 182.296 35.6013 180.98 33.7311C179.86 31.9411 178.7 30.1711 177.45 28.4711C174.901 24.8515 171.688 21.7496 167.98 19.3311C167.16 18.8111 167.91 17.5211 168.73 18.0311L168.78 18.0011Z" fill="black"/>
<path d="M160.48 66.4484C161.58 68.4484 160.17 70.5484 158.24 71.3184C155.828 72.1197 153.24 72.2271 150.77 71.6284C148.371 71.111 146.127 70.0393 144.217 68.4991C142.307 66.9588 140.784 64.9928 139.77 62.7584C139.37 61.8884 140.67 61.1284 141.07 62.0084C142.248 64.6991 144.235 66.9559 146.755 68.465C149.274 69.9741 152.202 70.6603 155.13 70.4284C156.143 70.4062 157.141 70.1746 158.06 69.7484C158.303 69.6589 158.526 69.5213 158.714 69.344C158.903 69.1666 159.054 68.9531 159.159 68.716C159.263 68.479 159.319 68.2234 159.323 67.9644C159.326 67.7054 159.278 67.4483 159.18 67.2084C158.72 66.3584 160.01 65.5984 160.48 66.4484Z" fill="black"/>
<path d="M143.48 65.6134C144.57 67.3734 145.64 69.7534 144.16 71.6134C142.86 73.2634 140.49 73.1834 138.62 72.8734C136.57 72.5043 134.62 71.7082 132.897 70.5367C131.174 69.3652 129.717 67.8445 128.62 66.0734C128.11 65.2534 129.4 64.4934 129.91 65.3134C131.693 68.1769 134.494 70.2596 137.75 71.1434C139.17 71.5234 141.09 71.9234 142.46 71.1434C144.37 70.0834 143.04 67.6334 142.23 66.3134C141.72 65.4934 143.02 64.7334 143.52 65.5634L143.48 65.6134Z" fill="black"/>
<path d="M131.22 68.9995C129.22 72.5195 124.77 72.6995 121.4 71.2295C117.993 69.6904 115.271 66.9538 113.75 63.5395C113.36 62.6695 114.65 61.8995 115.04 62.7795C116.285 65.5951 118.417 67.9266 121.11 69.4195C123.89 70.9495 128.11 71.4195 129.93 68.2395C130.4 67.3995 131.7 68.1595 131.22 68.9995Z" fill="black"/>
<path d="M118.529 68.2969C118.069 72.1469 113.749 73.7469 110.379 74.1569C106.682 74.6023 102.952 73.6422 99.9294 71.4669C99.1594 70.9069 99.9294 69.6069 100.689 70.1769C103.183 71.9893 106.22 72.8991 109.299 72.7569C111.959 72.6269 116.649 71.5369 117.029 68.2969C117.139 67.2969 118.639 67.2969 118.529 68.2969Z" fill="black"/>
<path d="M103.29 72.6395C101.68 76.0295 97.2197 77.1495 93.7797 76.9695C91.8838 76.9117 90.0486 76.2883 88.5097 75.1795C86.62 73.6443 85.2767 71.5398 84.6797 69.1795C84.3897 68.2595 85.8397 67.8595 86.1297 68.7795C86.6382 70.8396 87.8122 72.6745 89.4697 73.9995C90.7946 74.922 92.3653 75.427 93.9797 75.4495C96.8597 75.5495 100.64 74.7195 101.98 71.8595C102.39 70.9795 103.68 71.7495 103.27 72.6095L103.29 72.6395Z" fill="black"/>
<path d="M188.822 93.5283C191.804 93.3365 194.377 95.596 194.568 98.5749C194.76 101.554 192.498 104.124 189.516 104.316L170.984 105.508C168.003 105.7 165.43 103.44 165.239 100.461C165.047 97.4823 167.309 94.9119 170.291 94.7202L188.822 93.5283Z" fill="white"/>
<path d="M171 104.746L181.26 104.086L187.59 103.686C189.18 103.576 190.77 103.606 192.09 102.546C192.754 101.996 193.254 101.273 193.534 100.457C193.815 99.6412 193.866 98.7638 193.681 97.9211C193.496 97.0783 193.083 96.3027 192.486 95.6792C191.89 95.0558 191.133 94.6085 190.3 94.3864C188.973 94.195 187.626 94.195 186.3 94.3864L172.92 95.2464C171.23 95.3564 169.34 95.2464 167.92 96.2464C164.1 99.0164 166.5 104.816 171 104.666C172 104.666 172 106.136 171 106.166C170.137 106.33 169.249 106.308 168.396 106.1C167.543 105.892 166.744 105.504 166.053 104.962C165.363 104.419 164.796 103.736 164.392 102.956C163.988 102.176 163.755 101.319 163.71 100.443C163.664 99.5656 163.807 98.6891 164.129 97.872C164.45 97.0549 164.943 96.3162 165.574 95.7055C166.205 95.0948 166.96 94.6263 167.787 94.3315C168.614 94.0367 169.495 93.9225 170.37 93.9964C174.8 93.6264 179.24 93.4264 183.66 93.1364C185.36 93.0264 187.07 92.8864 188.77 92.8164C190.398 92.7157 192 93.2659 193.222 94.3461C194.445 95.4263 195.189 96.948 195.29 98.5764C195.39 100.205 194.84 101.807 193.76 103.029C192.68 104.252 191.158 104.996 189.53 105.096C188.18 105.216 186.81 105.276 185.45 105.356L171 106.286C170.03 106.306 170.04 104.806 171 104.746Z" fill="black"/>
<path d="M187.72 101.897C186.124 101.897 184.83 100.603 184.83 99.0072C184.83 97.4111 186.124 96.1172 187.72 96.1172C189.316 96.1172 190.61 97.4111 190.61 99.0072C190.61 100.603 189.316 101.897 187.72 101.897Z" fill="black"/>
<path d="M140.439 99.0522C143.411 98.7456 146.069 100.904 146.375 103.874C146.681 106.843 144.52 109.499 141.548 109.805L123.076 111.711C120.104 112.017 117.447 109.859 117.14 106.89C116.834 103.92 118.995 101.264 121.967 100.958L140.439 99.0522Z" fill="white"/>
<path d="M123.12 110.996L133.35 109.996L139.66 109.336C141.27 109.176 142.87 109.136 144.16 107.976C144.779 107.39 145.227 106.646 145.456 105.824C145.684 105.003 145.685 104.135 145.458 103.312C145.231 102.49 144.784 101.746 144.166 101.158C143.548 100.57 142.782 100.162 141.95 99.9764C140.614 99.8523 139.267 99.9196 137.95 100.176L124.61 101.546C122.88 101.726 120.97 101.696 119.61 102.876C116.02 105.876 118.75 111.396 123.16 111.076C124.16 111.006 124.16 112.506 123.16 112.576C122.355 112.642 121.545 112.549 120.776 112.301C120.007 112.054 119.294 111.657 118.679 111.134C118.063 110.612 117.556 109.973 117.188 109.254C116.819 108.536 116.595 107.751 116.53 106.946C116.464 106.141 116.557 105.331 116.805 104.562C117.052 103.794 117.449 103.081 117.971 102.465C118.494 101.85 119.133 101.343 119.852 100.974C120.57 100.606 121.355 100.382 122.16 100.316C126.57 99.8064 130.99 99.4064 135.41 98.9464C137.1 98.7764 138.8 98.5564 140.5 98.4264C141.313 98.329 142.138 98.3952 142.926 98.6212C143.714 98.8472 144.448 99.2283 145.087 99.7422C145.725 100.256 146.254 100.892 146.643 101.614C147.032 102.335 147.273 103.127 147.352 103.943C147.431 104.758 147.345 105.582 147.101 106.364C146.857 107.146 146.459 107.872 145.931 108.498C145.403 109.125 144.754 109.639 144.024 110.012C143.294 110.384 142.497 110.607 141.68 110.666C140.32 110.836 138.96 110.946 137.6 111.086L123.2 112.576C122.16 112.546 122.17 111.046 123.12 110.996Z" fill="black"/>
<path d="M138.81 107.538C137.214 107.538 135.92 106.244 135.92 104.648C135.92 103.052 137.214 101.758 138.81 101.758C140.406 101.758 141.7 103.052 141.7 104.648C141.7 106.244 140.406 107.538 138.81 107.538Z" fill="black"/>
<path d="M165.34 119.996C166.869 120.872 168.272 121.952 169.51 123.206C170.878 124.405 171.911 125.938 172.51 127.656C172.681 128.487 172.653 129.347 172.429 130.165C172.205 130.984 171.79 131.738 171.22 132.366C169.956 133.687 168.392 134.682 166.66 135.266C165.76 135.626 165.37 134.176 166.26 133.816C168.74 132.816 172.26 130.586 170.84 127.386C170.172 126.083 169.266 124.916 168.17 123.946C167.108 122.912 165.918 122.018 164.63 121.286C164.471 121.179 164.36 121.016 164.317 120.83C164.275 120.643 164.306 120.448 164.403 120.283C164.5 120.119 164.656 119.997 164.839 119.944C165.023 119.891 165.219 119.909 165.39 119.996H165.34Z" fill="black"/>
<path d="M183.709 145.502L151.199 148.002C150.199 148.072 150.199 146.572 151.199 146.502L183.709 144.002C184.709 143.932 184.709 145.432 183.709 145.502Z" fill="black"/>
<path d="M116.169 87.2101L142.459 86.1817C144.252 86.1116 145.763 87.5087 145.833 89.3022C145.903 91.0958 144.506 92.6066 142.713 92.6767L116.423 93.7051C114.629 93.7752 113.118 92.3782 113.048 90.5846C112.978 88.791 114.375 87.2802 116.169 87.2101Z" fill="black"/>
<path d="M163.515 84.7649L188.714 77.2001C190.433 76.684 192.245 77.6593 192.761 79.3784C193.277 81.0975 192.302 82.9095 190.583 83.4256L165.384 90.9905C163.665 91.5066 161.853 90.5313 161.337 88.8122C160.821 87.093 161.796 85.281 163.515 84.7649Z" fill="black"/>
<path d="M146.859 148.289C146.961 148.305 147.054 148.356 147.12 148.434C147.187 148.512 147.224 148.611 147.224 148.714C147.224 148.817 147.187 148.916 147.12 148.994C147.054 149.072 146.961 149.123 146.859 149.139C146.758 149.123 146.665 149.072 146.599 148.994C146.532 148.916 146.495 148.817 146.495 148.714C146.495 148.611 146.532 148.512 146.599 148.434C146.665 148.356 146.758 148.305 146.859 148.289Z" fill="black"/>
<path d="M136.93 201.361C137.209 201.035 137.549 200.768 137.932 200.574C138.315 200.381 138.733 200.266 139.161 200.235C139.589 200.204 140.019 200.259 140.425 200.395C140.832 200.532 141.207 200.748 141.53 201.031C143.385 202.638 145.147 204.347 146.81 206.151C150.62 209.851 154.48 213.501 158.35 217.151C166.13 224.491 173.92 231.831 181.29 239.591C183.29 241.711 185.29 243.831 187.16 246.101C189.03 248.371 190.78 250.731 192.69 252.971C193.31 253.701 192.26 254.761 191.63 254.031C188.48 250.341 185.63 246.441 182.32 242.881C179.01 239.321 175.52 235.751 172.01 232.291C164.95 225.291 157.66 218.611 150.48 211.771C148.48 209.831 146.42 207.881 144.41 205.911C143.46 204.981 142.51 204.051 141.57 203.111C140.63 202.171 139.23 200.991 137.99 202.431C137.36 203.161 136.3 202.091 136.93 201.371V201.361Z" fill="black"/>
<path d="M97.3397 219.558C103.021 214.834 110.133 212.17 117.52 211.998C121.208 211.884 124.882 212.502 128.33 213.818C132.397 215.553 136.333 217.578 140.11 219.878C148.21 224.578 155.94 229.878 163.88 234.878C172.11 240.038 180.49 244.938 188.75 250.058C191.86 251.978 195.25 254.528 195.24 258.558C195.23 262.588 192.53 266.298 190.6 269.558C186.04 277.158 180.3 283.838 174.52 290.508C171.772 293.821 168.762 296.907 165.52 299.738C162.27 302.468 158.64 304.878 154.38 305.608C145.8 307.068 138.51 301.828 131.91 297.108C118.63 287.598 106.34 276.518 97.0297 263.008C95.843 261.288 94.703 259.531 93.6097 257.738C93.1097 256.908 94.4097 256.158 94.9097 256.978C103.03 270.338 114.06 281.538 126.34 291.098C129.51 293.568 132.77 295.928 136.07 298.208C139.37 300.488 143.07 302.808 147.07 303.818C151.107 304.848 155.384 304.342 159.07 302.398C162.728 300.296 166.032 297.629 168.86 294.498C171.71 291.548 174.32 288.398 177 285.308C179.8 282.068 182.52 278.778 185 275.308C187.395 271.928 189.592 268.412 191.58 264.778C192.724 263.011 193.465 261.013 193.75 258.928C193.76 257.885 193.528 256.855 193.072 255.918C192.615 254.98 191.947 254.162 191.12 253.528C189.555 252.257 187.882 251.126 186.12 250.148L180.27 246.608C176.37 244.248 172.46 241.888 168.58 239.498C160.96 234.818 153.52 229.868 145.94 225.128C142.28 222.838 138.57 220.628 134.76 218.598C131.29 216.748 127.76 214.878 123.9 214.058C116.68 212.678 109.205 213.931 102.83 217.588C101.284 218.451 99.8206 219.455 98.4597 220.588C97.7197 221.198 96.6597 220.148 97.3997 219.528L97.3397 219.558Z" fill="black"/>
<path d="M326.38 453.891H155.09C154.6 453.023 154.013 452.215 153.34 451.48C150.5 448.42 146.34 446.96 142.9 444.66C135.9 440.04 131.81 432.23 128.54 424.53C127.958 423.451 127.72 422.219 127.86 421C128.046 420.343 128.392 419.741 128.866 419.249C129.341 418.757 129.929 418.39 130.58 418.18C132.148 417.609 133.812 417.347 135.48 417.41C151.37 419.29 168.19 416.89 183.79 414.35C196.672 412.246 209.261 408.634 221.3 403.59C233.5 398.48 245.49 392.87 258.3 389.33C271.038 385.763 284.248 384.168 297.47 384.6C309.6 385.04 324.11 388.81 332.58 398.01C342.21 408.46 343.99 426.87 338.58 439.75C336.039 445.59 331.784 450.521 326.38 453.891Z" fill="#070707"/>
<path d="M326.38 454.642H156.38C155.95 454.677 155.519 454.677 155.09 454.642C154.948 454.631 154.81 454.597 154.68 454.542C154.13 454.252 153.68 453.142 153.34 452.662C152.826 452.02 152.25 451.43 151.62 450.902C149.3 448.902 146.47 447.702 143.86 446.162C139.018 443.138 135.031 438.924 132.28 433.922C130.811 431.365 129.496 428.724 128.34 426.012C127.25 423.502 126.08 420.662 128.53 418.542C130.26 417.042 133.22 416.542 135.44 416.692C138.88 416.962 142.28 417.302 145.73 417.352C152.692 417.397 159.651 416.986 166.56 416.122C180.51 414.482 194.42 412.122 207.8 407.802C221.18 403.482 233.52 397.162 246.59 392.362C259.679 387.471 273.444 384.624 287.4 383.922C299.03 383.402 310.95 384.372 321.62 389.382C326.401 391.418 330.635 394.553 333.977 398.532C337.32 402.51 339.678 407.221 340.86 412.282C343.47 422.222 342.86 433.912 337.86 443.022C335.14 447.689 331.345 451.639 326.79 454.542C325.98 455.072 325.23 453.782 326.03 453.242C330.143 450.616 333.609 447.095 336.17 442.942C338.344 439.131 339.77 434.939 340.37 430.592C341.821 421.714 340.398 412.605 336.31 404.592C326.89 387.042 303.82 384.482 286.03 385.492C274.351 386.178 262.816 388.418 251.73 392.152C240.82 395.802 230.42 400.732 219.73 405.052C209.092 409.376 198.032 412.58 186.73 414.612C175.548 416.767 164.231 418.151 152.86 418.752C147.141 418.982 141.413 418.802 135.72 418.212C133.72 418.002 130.51 418.382 129.14 420.082C128.14 421.352 128.67 422.872 129.23 424.222C129.79 425.572 130.23 426.632 130.83 427.812C132.813 432.342 135.514 436.523 138.83 440.192C140.563 442.017 142.542 443.592 144.71 444.872C146.81 446.102 149.02 447.142 151.03 448.512C152.971 449.804 154.6 451.512 155.8 453.512L155.15 453.142H319.4C321.62 453.142 323.87 453.032 326.09 453.142H326.38C326.478 453.142 326.576 453.161 326.667 453.199C326.758 453.237 326.84 453.292 326.91 453.361C326.98 453.431 327.035 453.514 327.073 453.605C327.11 453.696 327.13 453.793 327.13 453.892C327.13 453.99 327.11 454.088 327.073 454.179C327.035 454.27 326.98 454.352 326.91 454.422C326.84 454.492 326.758 454.547 326.667 454.585C326.576 454.622 326.478 454.642 326.38 454.642Z" fill="black"/>
<path d="M128.25 421.323C135.25 418.703 140.74 412.673 143.65 405.753C146.56 398.833 147.1 391.093 146.27 383.633C144.6 368.683 137.68 354.813 129.51 342.193C121.34 329.573 111.81 317.853 104.05 304.973C98.2099 295.273 93.3399 284.773 91.2099 273.603C89.2121 263.514 89.0056 253.153 90.5999 242.993C93.8899 219.573 99.8099 195.993 96.8499 172.193C94.8858 156.587 89.143 141.696 80.1199 128.813C72.5499 118.023 61.3299 109.243 54.8399 97.8126C48.1299 86.0026 44.8399 72.5826 42.9799 59.2226C40.9799 44.6826 40.5499 29.9526 38.7899 15.3726C38.3799 12.0526 37.7899 8.54264 35.6099 6.04264C31.4299 1.32264 21.7799 0.392643 15.9599 1.00264C10.4099 1.57264 6.0999 4.00264 5.27989 9.51264C4.27989 16.4226 3.7699 23.5126 3.1599 30.4326C-1.7001 85.1026 1.4899 141.043 6.7299 195.583C8.06323 209.516 9.63988 223.423 11.4599 237.303C12.3665 244.243 13.3366 251.173 14.3699 258.093C15.1799 263.523 14.9699 269.093 16.1199 274.413C22.0499 301.713 28.5299 328.843 33.7699 356.293C35.9699 367.813 38.0532 379.356 40.0199 390.923C41.7499 401.073 43.4299 411.363 47.6099 420.763C49.3199 424.623 52.7799 428.143 55.8199 431.003C59.1167 434.105 62.8167 436.749 66.8199 438.863" fill="#070707"/>
<path d="M128.049 420.6C142.169 415.09 146.849 399.06 145.669 385.17C144.419 370.49 137.859 356.81 130.099 344.51C121.959 331.6 112.26 319.75 104.26 306.75C96.7195 294.49 91.1695 281.39 89.4195 267.02C87.5795 251.95 90.7195 237.08 93.1395 222.26C95.7295 206.44 97.9895 190.36 96.3395 174.31C94.8105 159.744 89.9741 145.721 82.1995 133.31C74.8695 121.63 63.9195 112.96 56.2695 101.56C39.0595 75.8996 42.0695 43.2696 37.8595 14.1296C37.3695 10.7496 36.4595 7.37957 33.5995 5.23957C31.2039 3.60814 28.4679 2.54451 25.5995 2.12957C20.4995 1.18957 13.4295 0.769574 9.09947 4.12957C6.29947 6.28957 5.9695 9.54957 5.55949 12.8296C5.06949 16.7296 4.72946 20.6496 4.39946 24.5596C3.71947 32.4696 3.04947 40.3796 2.58946 48.3096C0.729462 80.3096 1.38947 112.4 3.34947 144.38C5.30948 176.36 8.34947 208.12 12.5295 239.79C13.5295 247.51 15.0395 255.24 15.6295 263C15.8187 267.027 16.2831 271.036 17.0195 275C17.8595 278.94 18.7395 282.88 19.6195 286.81C23.1195 302.55 26.7095 318.26 30.0395 334.03C33.3695 349.8 36.3495 365.54 39.1295 381.37C40.4295 388.76 41.5395 396.2 43.1295 403.55C44.6295 410.64 46.3895 418.74 50.8895 424.55C55.328 430.168 60.8942 434.794 67.2295 438.13C68.0895 438.59 67.3295 439.88 66.4795 439.43C60.2424 436.106 54.7207 431.586 50.2295 426.13C45.7795 420.66 43.8595 413.36 42.2295 406.62C40.4395 398.97 39.3095 391.17 37.9595 383.43C36.5595 375.303 35.0828 367.16 33.5295 359C30.4295 342.6 26.8995 326.29 23.2695 310C21.4495 301.86 19.6095 293.71 17.8095 285.56C16.9095 281.56 15.8995 277.48 15.1595 273.4C14.4895 269.7 14.3795 265.93 14.0695 262.18C13.4095 254.18 11.8795 246.12 10.8195 238.12C9.7395 229.913 8.7395 221.696 7.8195 213.47C5.9895 197.03 4.48947 180.55 3.21947 164.06C0.669464 130.97 -0.72052 97.7396 0.359482 64.5496C0.889481 48.1296 1.94945 31.6696 3.76945 15.3396C4.38945 9.75957 4.76945 4.11957 10.5195 1.56957C15.1195 -0.470426 20.8595 -0.220426 25.7095 0.629574C30.7095 1.50957 35.9695 3.62957 38.0495 8.62957C39.3195 11.6296 39.5295 15.1196 39.8795 18.3596C40.3295 22.5096 40.6895 26.6696 41.0295 30.8396C42.3195 46.9596 43.2595 63.2696 47.8095 78.8396C49.8431 86.2415 52.9278 93.3135 56.9695 99.8396C60.8995 105.94 65.9695 111.18 70.8495 116.5C75.6324 121.524 79.9315 126.988 83.6895 132.82C87.4452 138.897 90.5203 145.369 92.8595 152.12C97.9895 166.77 99.0995 182.21 97.8595 197.6C96.5295 214.01 92.7195 230.04 90.8595 246.37C89.0144 262.052 91.5119 277.94 98.0795 292.3C104.609 306.5 114.199 318.95 123.169 331.65C131.659 343.65 139.779 356.26 144.169 370.42C148.169 383.47 149.389 399.16 141.589 411.11C138.442 416.047 133.825 419.873 128.389 422.05C127.489 422.4 127.099 420.95 127.989 420.6H128.049Z" fill="black"/>
<path d="M69.3396 453.89C67.9495 450.291 67.1689 446.486 67.0296 442.63C66.6396 435.89 67.3096 428.97 70.0296 422.81C71.0232 420.551 72.423 418.493 74.1596 416.74C75.8522 415.018 77.7498 413.51 79.8097 412.25L107.17 407.25C110.53 407.425 113.809 408.345 116.77 409.943C119.731 411.541 122.299 413.777 124.29 416.49C127.65 421.14 129.09 426.89 131.82 431.95C135.435 438.534 141.112 443.748 147.98 446.79C149.402 447.332 150.76 448.03 152.03 448.87C153.42 449.87 153.65 451 154.32 452.49C154.53 452.96 154.7 453.43 154.89 453.9L69.3396 453.89Z" fill="#070707"/>
<path d="M68.6198 454.093C66.0998 447.903 65.7598 440.663 66.4298 434.093C67.0498 428.013 68.7899 421.643 72.9499 417.003C73.9421 415.9 75.0223 414.88 76.1798 413.953C77.1988 412.974 78.3667 412.164 79.6399 411.553C80.1028 411.431 80.5741 411.344 81.0498 411.293L89.5498 409.733C95.2598 408.733 100.98 407.433 106.72 406.593C108.239 406.474 109.767 406.634 111.23 407.063C113.937 407.681 116.514 408.775 118.84 410.293C124.01 413.673 126.84 418.713 129.21 424.293C130.494 427.695 132.095 430.969 133.99 434.073C135.943 437.01 138.35 439.619 141.12 441.803C144.07 444.133 147.33 445.533 150.66 447.193C151.945 447.747 153.06 448.634 153.89 449.763C154.611 451.031 155.198 452.372 155.64 453.763C155.671 453.874 155.675 453.99 155.654 454.104C155.632 454.217 155.584 454.324 155.515 454.416C155.445 454.507 155.355 454.582 155.252 454.634C155.149 454.685 155.035 454.712 154.92 454.713H72.8598C71.7698 454.713 70.6198 454.813 69.5198 454.713H69.3698C69.1709 454.713 68.9802 454.634 68.8395 454.493C68.6989 454.352 68.6198 454.161 68.6198 453.963C68.6198 453.764 68.6989 453.573 68.8395 453.432C68.9802 453.292 69.1709 453.213 69.3698 453.213H153.62C154.002 453.168 154.388 453.168 154.77 453.213H154.92L154.19 454.163C153.795 452.96 153.286 451.798 152.67 450.693C151.728 449.447 150.436 448.511 148.96 448.003C146.162 446.822 143.502 445.336 141.03 443.573C136.407 440.126 132.702 435.597 130.24 430.383C127.69 425.003 126.04 419.013 121.8 414.633C119.861 412.643 117.569 411.032 115.04 409.883C112.658 408.698 110.048 408.043 107.39 407.963C105.812 408.136 104.248 408.42 102.71 408.813L92.9798 410.593L83.6399 412.303L80.8298 412.823C79.945 413.038 79.1252 413.463 78.4398 414.063C75.5649 416.046 73.1726 418.65 71.4398 421.683C69.8406 424.784 68.7661 428.13 68.2599 431.583C67.0699 438.733 67.3099 446.913 70.0699 453.683C70.4299 454.593 68.9798 455.003 68.6198 454.093Z" fill="black"/>
<path d="M168.27 328.763H258.1C264.67 328.763 268.98 322.883 266.1 317.813L263.03 312.413C262.188 311.06 261.007 309.951 259.603 309.196C258.199 308.442 256.623 308.068 255.03 308.113H171.32C169.727 308.07 168.151 308.445 166.748 309.199C165.345 309.953 164.163 311.061 163.32 312.413L160.26 317.813C157.38 322.883 161.69 328.763 168.27 328.763Z" fill="#070707"/>
<path d="M168.27 328.003H255.86C257.86 328.003 259.91 328.093 261.86 327.233C264.86 325.923 267.01 322.753 266.01 319.453C265.42 317.533 264.01 315.703 263.07 313.963C262.636 313.091 262.102 312.272 261.48 311.523C260.083 310.057 258.213 309.132 256.2 308.913C255.561 308.858 254.92 308.838 254.28 308.853H173.37C170.79 308.853 168.29 308.853 166.04 310.483C164.12 311.843 163.13 314.223 162.04 316.223C160.95 318.223 159.63 320.283 160.37 322.793C161.37 326.203 164.95 327.953 168.3 328.003C168.499 328.003 168.689 328.082 168.83 328.222C168.971 328.363 169.05 328.554 169.05 328.753C169.05 328.952 168.971 329.142 168.83 329.283C168.689 329.424 168.499 329.503 168.3 329.503C166.647 329.539 165.011 329.166 163.538 328.415C162.065 327.665 160.802 326.561 159.86 325.203C159.117 324.039 158.707 322.693 158.675 321.313C158.643 319.932 158.991 318.569 159.68 317.373C160.68 315.623 161.62 313.883 162.68 312.163C163.516 310.78 164.677 309.622 166.063 308.791C167.448 307.959 169.016 307.479 170.63 307.393C172.04 307.283 173.46 307.393 174.87 307.393H251.7C253.203 307.333 254.709 307.353 256.21 307.453C257.778 307.597 259.289 308.114 260.617 308.959C261.946 309.804 263.054 310.954 263.85 312.313C264.85 314.023 265.85 315.713 266.75 317.443C267.465 318.702 267.802 320.14 267.72 321.585C267.638 323.031 267.142 324.422 266.29 325.593C265.328 326.845 264.087 327.855 262.664 328.541C261.242 329.227 259.679 329.57 258.1 329.543C253.85 329.603 249.6 329.543 245.35 329.543H168.27C168.066 329.543 167.87 329.462 167.725 329.317C167.581 329.173 167.5 328.977 167.5 328.773C167.5 328.568 167.581 328.373 167.725 328.228C167.87 328.084 168.066 328.003 168.27 328.003Z" fill="black"/>
<path d="M206.43 382.718H219.94C221.545 382.717 223.094 382.131 224.3 381.072C225.505 380.012 226.283 378.549 226.49 376.958L232.74 328.758H193.62L199.86 376.998C200.075 378.586 200.861 380.041 202.069 381.093C203.278 382.145 204.827 382.723 206.43 382.718Z" fill="#070707"/>
<path d="M206.43 381.998C210.9 381.998 215.37 382.078 219.84 381.998C221.289 381.991 222.687 381.46 223.776 380.502C224.864 379.544 225.569 378.225 225.76 376.788C225.94 375.608 226.07 374.418 226.22 373.238L230.66 339.078L231.99 328.788L232.74 329.538H193.62L194.37 328.788L196.77 347.238L200.21 373.778C200.34 374.778 200.45 375.778 200.6 376.778C200.782 378.205 201.47 379.52 202.541 380.481C203.611 381.443 204.991 381.989 206.43 382.018C206.629 382.018 206.819 382.097 206.96 382.237C207.101 382.378 207.18 382.569 207.18 382.768C207.18 382.967 207.101 383.157 206.96 383.298C206.819 383.439 206.629 383.518 206.43 383.518C204.782 383.499 203.188 382.936 201.894 381.915C200.601 380.895 199.681 379.475 199.28 377.878C199.132 377.151 199.026 376.416 198.96 375.678L197.64 365.568L193.86 336.108L192.86 328.758C192.862 328.56 192.942 328.37 193.082 328.23C193.222 328.09 193.411 328.01 193.61 328.008H232.74C233.11 328.008 233.55 328.358 233.49 328.758L229.92 356.318L227.77 372.848C227.6 374.128 227.44 375.408 227.27 376.688C227.135 378.093 226.61 379.431 225.752 380.552C224.895 381.673 223.74 382.531 222.42 383.028C221.256 383.389 220.036 383.538 218.82 383.468H206.43C206.26 383.433 206.108 383.341 205.998 383.207C205.889 383.073 205.829 382.906 205.829 382.733C205.829 382.56 205.889 382.392 205.998 382.258C206.108 382.124 206.26 382.032 206.43 381.998Z" fill="black"/>
<path d="M204.22 382.492H221.65V430.052H204.22V382.492Z" fill="#070707"/>
<path d="M204.22 429.302H221.65L220.9 430.052V382.492L221.65 383.242H204.22L204.97 382.492V430.052C204.97 430.251 204.891 430.442 204.75 430.583C204.61 430.723 204.419 430.802 204.22 430.802C204.021 430.802 203.83 430.723 203.69 430.583C203.549 430.442 203.47 430.251 203.47 430.052V382.492C203.472 382.294 203.552 382.105 203.692 381.965C203.833 381.825 204.022 381.745 204.22 381.742H221.65C221.848 381.745 222.037 381.825 222.177 381.965C222.317 382.105 222.397 382.294 222.4 382.492V430.052C222.397 430.25 222.317 430.44 222.177 430.58C222.037 430.72 221.848 430.8 221.65 430.802H204.22C204.021 430.802 203.83 430.723 203.69 430.583C203.549 430.442 203.47 430.251 203.47 430.052C203.47 429.853 203.549 429.663 203.69 429.522C203.83 429.381 204.021 429.302 204.22 429.302Z" fill="black"/>
<path d="M199.859 443.747H225.959V434.107C225.959 433.032 225.533 432.001 224.774 431.24C224.015 430.478 222.984 430.05 221.909 430.047H203.959C203.427 430.047 202.899 430.152 202.407 430.356C201.915 430.56 201.468 430.859 201.092 431.237C200.716 431.614 200.418 432.061 200.215 432.554C200.012 433.046 199.908 433.574 199.909 434.107L199.859 443.747Z" fill="#070707"/>
<path d="M199.86 443.002H225.96L225.21 443.752V434.752C225.21 432.682 224.16 430.932 221.89 430.822C220.96 430.822 220.03 430.822 219.1 430.822H207.96C205.16 430.822 200.83 430.152 200.66 434.202C200.52 437.382 200.66 440.592 200.66 443.772C200.66 443.971 200.581 444.162 200.44 444.303C200.299 444.443 200.109 444.522 199.91 444.522C199.711 444.522 199.52 444.443 199.379 444.303C199.239 444.162 199.16 443.971 199.16 443.772C199.16 440.612 199.11 437.452 199.16 434.292C199.139 433.15 199.519 432.037 200.233 431.146C200.947 430.254 201.951 429.641 203.07 429.412C204.115 429.287 205.169 429.257 206.22 429.322H218.42C219.56 429.322 220.7 429.322 221.83 429.322C222.973 429.322 224.079 429.722 224.958 430.453C225.837 431.183 226.432 432.199 226.64 433.322C226.803 435.061 226.827 436.81 226.71 438.552V443.752C226.707 443.951 226.627 444.14 226.487 444.28C226.347 444.42 226.158 444.5 225.96 444.502H199.86C199.661 444.502 199.47 444.423 199.329 444.283C199.189 444.142 199.11 443.951 199.11 443.752C199.11 443.554 199.189 443.363 199.329 443.222C199.47 443.081 199.661 443.002 199.86 443.002Z" fill="black"/>
<path d="M191.129 453.89V451.28C191.129 449.283 191.923 447.368 193.335 445.955C194.747 444.543 196.662 443.75 198.659 443.75H227.199C229.197 443.75 231.112 444.543 232.524 445.955C233.936 447.368 234.729 449.283 234.729 451.28V453.89H191.129Z" fill="#070707"/>
<path d="M190.38 453.891C190.38 451.761 190.26 449.661 191.21 447.681C191.842 446.389 192.798 445.282 193.984 444.467C195.17 443.653 196.546 443.158 197.98 443.031C200.44 442.821 202.98 443.031 205.44 443.031C212.66 443.031 219.89 442.921 227.11 443.031C228.459 443.031 229.788 443.354 230.987 443.974C232.186 444.593 233.219 445.49 234 446.591C235.57 448.821 235.48 451.331 235.48 453.921C235.477 454.119 235.397 454.308 235.257 454.448C235.117 454.588 234.928 454.668 234.73 454.671H191.13C190.931 454.671 190.74 454.592 190.599 454.451C190.459 454.31 190.38 454.12 190.38 453.921C190.38 453.722 190.459 453.531 190.599 453.391C190.74 453.25 190.931 453.171 191.13 453.171H234.73L233.98 453.921C233.98 451.841 234.15 449.761 233.06 447.921C232.443 446.894 231.571 446.044 230.528 445.455C229.485 444.866 228.307 444.558 227.11 444.561C224.7 444.561 222.29 444.561 219.88 444.561C212.94 444.561 206 444.561 199.06 444.561C198.024 444.524 196.994 444.714 196.04 445.119C195.086 445.523 194.233 446.131 193.54 446.901C191.75 448.951 191.88 451.421 191.88 453.951C191.872 454.15 191.785 454.337 191.639 454.472C191.492 454.607 191.298 454.679 191.1 454.671C190.901 454.663 190.713 454.576 190.578 454.43C190.443 454.284 190.372 454.09 190.38 453.891Z" fill="black"/>
<path d="M92.0396 428.623L106.68 423.253L107.12 408.063L79.3396 332.333L68.6696 319.633L54.0296 325.003L54.1096 341.583L81.8896 417.323L92.0396 428.623Z" fill="#070707"/>
<path d="M91.8599 427.888L106.5 422.518L105.95 423.248L106.29 410.998C106.29 410.168 106.29 409.328 106.36 408.498C106.375 408.352 106.375 408.204 106.36 408.058C106.36 408.138 106.36 408.338 106.36 408.188C106.22 407.688 105.99 407.188 105.82 406.718L98.3398 386.318L87.3398 356.318L79.4099 334.708C79.1799 334.078 78.8798 333.438 78.7098 332.788C78.6198 332.468 78.4699 332.538 78.7999 332.868C78.4699 332.538 78.1998 332.138 77.8998 331.788L68.8599 320.998L68.1299 320.128L68.8599 320.318L54.2198 325.688L54.7698 324.968L54.8599 337.128C54.7548 338.609 54.7548 340.096 54.8599 341.578C54.7999 341.198 54.8599 341.508 54.9199 341.638C54.9799 341.768 55.1099 342.138 55.1999 342.388L62.1999 361.608L73.1999 391.608L81.5099 414.258L82.3699 416.608C82.4386 416.764 82.4987 416.925 82.5499 417.088C82.5499 417.298 82.3899 416.828 82.3799 416.818C82.3699 416.808 82.5998 417.068 82.7098 417.188C85.7898 420.448 88.7098 423.868 91.7098 427.188L92.5198 428.098C93.1698 428.808 92.1098 429.878 91.4598 429.158L83.2198 419.978C82.4048 419.247 81.6918 418.409 81.0999 417.488C80.8999 417.068 80.7699 416.578 80.5999 416.138L73.1498 395.808L62.0499 365.558L54.0499 343.868C53.549 342.75 53.277 341.543 53.2499 340.318L53.1899 326.218V324.998C53.1943 324.834 53.2511 324.676 53.3518 324.546C53.4525 324.417 53.592 324.323 53.7499 324.278L68.3799 318.908C68.5071 318.868 68.643 318.864 68.7722 318.898C68.9013 318.931 69.0183 319.001 69.1099 319.098L76.9899 328.478C78.2099 329.928 79.6399 331.218 80.2999 333.008L87.2999 352.138L98.3699 382.318L106.86 405.068C107.386 406.135 107.724 407.286 107.86 408.468C107.86 412.958 107.6 417.468 107.47 421.958V423.248C107.465 423.41 107.409 423.567 107.31 423.696C107.212 423.825 107.075 423.92 106.92 423.968L92.2798 429.338C91.3298 429.668 90.9399 428.218 91.8599 427.888Z" fill="black"/>
<path d="M79.7495 333.618L66.9995 338.418L65.1795 339.098C64.2795 339.438 63.8895 337.988 64.7795 337.648L77.5395 332.848L79.3495 332.168C80.2495 331.828 80.6495 333.278 79.7495 333.618Z" fill="black"/>
<path d="M106.12 408.117L93.3699 412.917L91.5499 413.597C90.6499 413.947 90.2599 412.497 91.1599 412.157L103.86 407.357L105.67 406.677C106.58 406.337 106.97 407.777 106.07 408.117H106.12Z" fill="black"/>
<path d="M212.28 266.421C215.55 266.211 217 262.881 217.62 260.071C218.48 256.191 217.62 252.071 217.08 248.161L215.52 236.001C215 231.901 214.69 227.711 213.9 223.661C213.653 221.922 212.812 220.321 211.52 219.131C210.249 218.112 208.792 217.351 207.23 216.891C203.59 215.661 199.79 214.781 196.06 213.891C188.213 211.958 180.29 210.364 172.29 209.111C163.176 207.678 154.013 206.678 144.8 206.111C143.8 206.051 143.8 204.551 144.8 204.611C162.38 205.666 179.829 208.317 196.93 212.531C200.911 213.366 204.832 214.462 208.67 215.811C211.74 217.011 214.22 218.951 215.12 222.241C215.56 224.218 215.864 226.223 216.03 228.241L216.87 234.811L218.58 248.201C219.16 252.701 220.14 257.451 218.69 261.881C217.69 264.981 215.79 267.731 212.28 267.961C211.28 268.021 211.28 266.521 212.28 266.461V266.421Z" fill="black"/>
<path d="M419.98 255.847C419.98 255.847 431.78 260.707 431.98 262.437C432.18 264.167 432.22 267.277 425.98 266.927L423.98 265.877C423.98 265.877 423.26 268.877 416.58 266.677C409.9 264.477 406.74 261.277 399.22 261.677C391.7 262.077 390.06 262.327 390.06 262.327L393.77 267.447C393.77 267.447 393.25 269.627 392.67 269.867C391.036 270.491 389.282 270.738 387.54 270.587C385.65 269.962 383.827 269.148 382.1 268.157L378.48 264.487L377.1 264.027C377.1 264.027 368.31 263.527 365.67 262.707C363.03 261.887 362.17 263.247 362.17 263.247C362.17 263.247 345.51 269.447 339.6 272.437C333.69 275.427 297.54 293.367 281.24 297.107C277.24 298.707 256.35 305.757 244.71 307.387C234.18 308.687 190.96 299.577 190.96 299.577L169.32 295.107L175.12 288.577C175.12 288.577 190.62 268.177 192.54 264.507C193.153 263.136 193.896 261.827 194.76 260.597L243.86 277.137L279.68 266.347L310.4 258.997C310.4 258.997 338.59 250.767 345.74 247.657C352.89 244.547 360.79 237.407 371.64 237.597C382.49 237.787 394.04 242.597 396.44 244.047C398.84 245.497 413.63 252.727 413.63 252.727L419.98 255.847Z" fill="white"/>
<path d="M194.69 259.786C210.8 266.354 227.306 271.908 244.11 276.416C244.205 276.443 244.294 276.487 244.372 276.548C244.45 276.609 244.515 276.684 244.564 276.77C244.612 276.856 244.644 276.951 244.656 277.049C244.668 277.147 244.661 277.246 244.635 277.341C244.608 277.437 244.564 277.526 244.503 277.604C244.442 277.682 244.367 277.747 244.281 277.796C244.195 277.844 244.1 277.876 244.002 277.888C243.904 277.9 243.805 277.893 243.71 277.866C226.907 273.354 210.402 267.799 194.29 261.236C193.41 260.866 193.8 259.416 194.69 259.786Z" fill="black"/>
<path d="M169.75 294.509C183.137 297.409 196.586 300.012 210.1 302.319C216.886 303.472 223.69 304.552 230.51 305.559C233.66 306.019 236.81 306.879 239.99 306.989C243.259 306.958 246.516 306.589 249.71 305.889C256.335 304.572 262.859 302.784 269.23 300.539C275.6 298.469 281.98 296.429 288.31 294.229C301.084 289.699 313.591 284.447 325.77 278.499C332.45 275.299 339 271.869 345.59 268.499C351.75 265.379 358.15 262.699 365.07 261.919C366.07 261.819 366.07 263.319 365.07 263.419C358.58 264.149 352.53 266.679 346.75 269.599C340.8 272.599 334.92 275.719 328.92 278.599C316.869 284.598 304.497 289.929 291.86 294.569C285.56 296.819 279.19 298.879 272.86 300.949C266.53 303.019 260.05 305.249 253.45 306.689C250.34 307.359 247.18 307.899 244.01 308.259C241.006 308.577 237.971 308.436 235.01 307.839C228.4 306.619 221.72 305.749 215.09 304.659C199.79 302.139 184.56 299.239 169.4 295.959C168.46 295.749 168.86 294.309 169.8 294.509H169.75Z" fill="black"/>
<path d="M237.17 279.309C264.66 267.049 294.73 263.149 323.42 254.719C330.734 252.608 337.927 250.101 344.97 247.209C348.369 245.729 351.675 244.042 354.87 242.159C357.929 240.264 361.224 238.778 364.67 237.739C371.67 235.899 379 237.289 385.76 239.399C389.054 240.403 392.253 241.695 395.32 243.259C398.47 244.889 401.25 246.979 404.59 248.259C408.25 249.669 411.82 251.039 415.35 252.759L427.23 258.539C429.77 259.779 434.09 261.229 432.76 264.899C431.43 268.569 426.97 267.979 424.15 266.899C423.26 266.549 423.65 265.099 424.55 265.449C426.12 266.069 427.88 266.659 429.55 266.079C431.5 265.409 432.22 263.079 430.39 261.859C428.996 261.023 427.542 260.291 426.04 259.669L420.75 257.099C417.48 255.509 414.24 253.839 410.93 252.329C408.05 250.999 404.93 250.169 402.06 248.869C399.19 247.569 396.38 245.449 393.38 243.999C390.251 242.522 387.002 241.311 383.67 240.379C376.92 238.439 369.67 237.449 362.94 239.899C359.736 241.193 356.651 242.762 353.72 244.589C350.819 246.242 347.812 247.702 344.72 248.959C338.04 251.689 331.19 254.019 324.27 256.069C310.66 260.069 296.77 263.069 282.98 266.379C267.65 270.059 252.35 274.199 237.92 280.639C237.04 281.029 236.28 279.739 237.16 279.349L237.17 279.309Z" fill="black"/>
<path d="M359.739 258.433C369.439 267.263 383.739 261.843 395.109 261.063C398.156 260.812 401.222 260.964 404.229 261.513C407.133 262.227 409.958 263.232 412.659 264.513C415.269 265.593 418.129 266.723 421.009 266.513C422.389 266.433 424.009 265.763 424.299 264.223C424.599 262.503 421.889 262.163 420.749 261.783C417.219 260.613 413.749 259.163 410.289 257.843L399.689 253.843C398.799 253.513 399.189 252.063 400.089 252.403L411.139 256.573C414.569 257.863 417.989 259.363 421.479 260.453C423.599 261.103 426.579 262.083 425.659 264.933C424.789 267.593 421.859 268.203 419.399 267.933C416.259 267.623 413.399 266.343 410.489 265.133C407.232 263.645 403.739 262.738 400.169 262.453C392.679 262.023 385.389 264.153 377.969 264.703C371.169 265.213 363.899 264.193 358.679 259.443C357.969 258.793 359.029 257.733 359.739 258.383V258.433Z" fill="black"/>
<path d="M390.86 262.256L393.44 265.706C394.1 266.596 395.08 267.576 394.75 268.776C394.2 270.836 391.07 271.366 389.29 271.466C384.39 271.746 380.48 268.306 377.87 264.466C377.32 263.666 378.62 262.916 379.17 263.706C381.27 266.766 384.3 269.646 388.17 269.906C389.139 269.965 390.112 269.867 391.05 269.616C391.68 269.466 393.15 269.116 393.29 268.336C393.36 267.916 392.91 267.466 392.68 267.156C392.45 266.846 392 266.256 391.68 265.796L389.56 262.956C388.98 262.186 390.28 261.436 390.85 262.206L390.86 262.256Z" fill="black"/>
<path d="M615.79 188.5H617.8C618.065 188.5 618.28 188.715 618.28 188.98V194.32C618.28 194.585 618.065 194.8 617.8 194.8H615.79C615.525 194.8 615.31 194.585 615.31 194.32V188.98C615.31 188.715 615.525 188.5 615.79 188.5Z" fill="black"/>
<path d="M616.07 189.001V193.951C616.07 194.011 616.07 194.301 616.07 194.341C616.07 194.381 615.88 194.001 615.8 194.081C615.72 194.161 616.03 194.081 616.06 194.081H617.11C617.18 194.081 617.77 194.021 617.8 194.081C617.73 193.961 617.47 194.331 617.53 194.351C617.525 194.304 617.525 194.257 617.53 194.211V189.591C617.51 189.411 617.51 189.23 617.53 189.051C617.4 189.121 617.79 189.391 617.8 189.331H615.8C615.87 189.331 616.04 189.171 616.06 189.051C616.055 189.248 615.974 189.436 615.835 189.575C615.695 189.715 615.507 189.796 615.31 189.801C615.111 189.801 614.92 189.722 614.779 189.581C614.639 189.44 614.56 189.25 614.56 189.051C614.554 188.878 614.584 188.707 614.647 188.547C614.711 188.386 614.806 188.241 614.928 188.119C615.05 187.997 615.196 187.902 615.356 187.838C615.516 187.775 615.688 187.745 615.86 187.751H616.86C617.16 187.751 617.46 187.751 617.76 187.751C617.926 187.748 618.09 187.778 618.244 187.84C618.398 187.902 618.538 187.993 618.657 188.11C618.775 188.226 618.869 188.365 618.933 188.518C618.997 188.671 619.03 188.835 619.03 189.001C619.03 190.271 619.03 191.551 619.03 192.831C619.03 193.321 619.03 193.831 619.03 194.321C619.03 194.647 618.902 194.961 618.674 195.194C618.446 195.428 618.136 195.563 617.81 195.571H617.05C616.19 195.571 614.96 195.771 614.62 194.711C614.533 194.226 614.516 193.731 614.57 193.241V189.001C614.57 188.802 614.649 188.611 614.789 188.47C614.93 188.33 615.121 188.251 615.32 188.251C615.519 188.251 615.709 188.33 615.85 188.47C615.991 188.611 616.07 188.802 616.07 189.001Z" fill="black"/>
<path d="M614.85 45.5703H618.65C618.942 45.5703 619.18 45.8076 619.18 46.1003V187.85C619.18 188.143 618.942 188.38 618.65 188.38H614.85C614.557 188.38 614.32 188.143 614.32 187.85V46.1003C614.32 45.8076 614.557 45.5703 614.85 45.5703Z" fill="black"/>
<path d="M615.06 46.0926V186.853C615.095 187.108 615.095 187.367 615.06 187.623C614.91 188.053 615.32 187.563 614.92 187.623C615.585 187.57 616.254 187.57 616.92 187.623H618.01C618.162 187.598 618.317 187.598 618.47 187.623C618.74 187.733 618.47 187.623 618.47 187.843C618.48 187.746 618.48 187.649 618.47 187.553C618.39 186.865 618.39 186.17 618.47 185.483V48.2426C618.37 47.5998 618.37 46.9454 618.47 46.3026C618.63 45.9026 618.17 46.3826 618.61 46.3026C617.96 46.3476 617.309 46.3476 616.66 46.3026H615.52C615.367 46.2826 615.212 46.2826 615.06 46.3026C614.74 46.3926 615.06 46.1926 615.06 46.3026C615.034 46.3978 614.99 46.487 614.93 46.5652C614.87 46.6434 614.795 46.7089 614.709 46.7581C614.624 46.8074 614.53 46.8393 614.432 46.852C614.334 46.8648 614.235 46.8582 614.14 46.8326C614.044 46.807 613.955 46.7629 613.877 46.7028C613.799 46.6427 613.733 46.5678 613.684 46.4824C613.635 46.3969 613.603 46.3027 613.59 46.2049C613.577 46.1071 613.584 46.0078 613.61 45.9126C614.03 44.3626 616.16 44.8326 617.38 44.8326C618.6 44.8326 619.78 44.6726 619.95 46.1126C619.95 46.5226 619.95 46.9526 619.95 47.3526V181.633C619.95 183.633 620.06 185.633 619.95 187.633C619.84 189.633 617.61 189.153 616.15 189.153C615.06 189.153 613.75 189.303 613.58 187.863C613.58 187.743 613.58 187.603 613.58 187.483C613.58 185.333 613.58 183.183 613.58 181.033V46.0926C613.609 45.9172 613.699 45.7578 613.834 45.6428C613.97 45.5278 614.142 45.4647 614.32 45.4647C614.497 45.4647 614.669 45.5278 614.805 45.6428C614.94 45.7578 615.031 45.9172 615.06 46.0926Z" fill="black"/>
<path d="M445.629 276.703H456.209L455.209 271.383H446.629L445.629 276.703Z" fill="black"/>
<path d="M445.629 276H456.209L455.489 276.95L454.489 271.63L455.209 272.18H446.629L447.349 271.63L446.349 276.95C446.169 277.95 444.729 277.5 444.899 276.55L445.899 271.23C445.943 271.072 446.037 270.933 446.167 270.834C446.297 270.734 446.456 270.68 446.619 270.68H455.199C455.364 270.68 455.525 270.733 455.656 270.833C455.788 270.932 455.884 271.071 455.929 271.23L456.929 276.55C456.958 276.662 456.961 276.778 456.938 276.892C456.915 277.005 456.867 277.111 456.796 277.203C456.726 277.294 456.636 277.369 456.532 277.42C456.429 277.472 456.315 277.499 456.199 277.5H445.619C445.521 277.499 445.424 277.479 445.333 277.441C445.242 277.402 445.16 277.347 445.091 277.276C445.021 277.206 444.967 277.123 444.93 277.032C444.893 276.941 444.874 276.843 444.874 276.745C444.875 276.646 444.895 276.549 444.933 276.458C444.972 276.367 445.028 276.285 445.098 276.216C445.168 276.147 445.251 276.092 445.342 276.055C445.433 276.018 445.531 275.999 445.629 276Z" fill="black"/>
<path d="M429.23 276.703H439.82L438.82 271.383H430.24L429.23 276.703Z" fill="black"/>
<path d="M429.24 276H439.86L439.14 276.95L438.14 271.63L438.86 272.18H430.28L431 271.63L430 276.95C429.82 277.95 428.37 277.5 428.55 276.55L429.55 271.23C429.595 271.071 429.691 270.932 429.823 270.833C429.955 270.733 430.115 270.68 430.28 270.68H438.86C439.023 270.68 439.182 270.734 439.312 270.834C439.442 270.933 439.536 271.072 439.58 271.23L440.58 276.55C440.609 276.661 440.612 276.777 440.589 276.889C440.567 277.002 440.519 277.108 440.45 277.199C440.38 277.29 440.291 277.365 440.189 277.417C440.087 277.469 439.974 277.497 439.86 277.5H429.28C429.081 277.505 428.888 277.431 428.744 277.294C428.599 277.157 428.515 276.969 428.51 276.77C428.505 276.571 428.578 276.378 428.715 276.234C428.852 276.089 429.041 276.005 429.24 276Z" fill="black"/>
<path d="M364.34 282.047H634.43C636.451 282.047 638.09 283.686 638.09 285.707V298.557C638.09 300.578 636.451 302.217 634.43 302.217H364.34C362.318 302.217 360.68 300.578 360.68 298.557V285.707C360.68 283.686 362.318 282.047 364.34 282.047Z" fill="black"/>
<path d="M364.34 301.466H630.95C632.05 301.466 633.16 301.466 634.25 301.466C634.666 301.479 635.08 301.405 635.466 301.25C635.853 301.094 636.202 300.859 636.493 300.561C636.783 300.263 637.009 299.908 637.155 299.518C637.3 299.128 637.363 298.711 637.34 298.296C637.41 295.476 637.34 292.646 637.34 289.836C637.34 287.296 638.09 283.016 634.43 282.836C634.243 282.826 634.056 282.826 633.87 282.836H365.62C363.48 282.836 361.48 283.346 361.43 286.096C361.38 288.846 361.43 291.586 361.43 294.336C361.43 296.856 360.65 301.336 364.34 301.506C365.34 301.506 365.34 303.056 364.34 303.006C363.306 302.991 362.31 302.62 361.519 301.955C360.728 301.29 360.191 300.371 360 299.356C359.901 298.473 359.878 297.583 359.93 296.696V287.256C359.857 286.318 359.921 285.375 360.12 284.456C360.406 283.558 360.967 282.773 361.725 282.213C362.483 281.653 363.398 281.346 364.34 281.336H621.79C625.84 281.336 629.88 281.336 633.92 281.336C634.253 281.315 634.587 281.315 634.92 281.336C635.931 281.453 636.872 281.914 637.584 282.643C638.296 283.371 638.736 284.322 638.83 285.336C638.91 286.156 638.83 286.996 638.83 287.826V297.236C638.914 298.249 638.795 299.269 638.48 300.236C638.145 301.039 637.583 301.727 636.864 302.217C636.145 302.707 635.3 302.978 634.43 302.996C631.56 303.106 628.67 302.996 625.8 302.996H364.34C364.137 302.996 363.942 302.915 363.799 302.772C363.655 302.628 363.575 302.434 363.575 302.231C363.575 302.028 363.655 301.833 363.799 301.69C363.942 301.546 364.137 301.466 364.34 301.466Z" fill="black"/>
<path d="M474.71 273.617H624.38C625.269 273.617 625.99 274.338 625.99 275.227V280.427C625.99 281.316 625.269 282.037 624.38 282.037H474.71C473.821 282.037 473.1 281.316 473.1 280.427V275.227C473.1 274.338 473.821 273.617 474.71 273.617Z" fill="black"/>
<path d="M474.71 281.297H623.86C624.03 281.307 624.2 281.307 624.37 281.297C625.57 281.107 625.27 279.677 625.27 278.787C625.27 277.787 625.84 274.627 624.41 274.367C624.31 274.367 624.2 274.367 624.1 274.367C623.38 274.317 622.63 274.367 621.9 274.367H479.86C478.159 274.237 476.451 274.237 474.75 274.367C473.55 274.567 473.85 275.987 473.85 276.877C473.85 277.767 473.31 281.157 474.71 281.297C475.71 281.387 475.71 282.887 474.71 282.797C472.61 282.577 472.35 280.957 472.35 279.227C472.245 277.789 472.245 276.345 472.35 274.907C472.6 273.317 473.95 272.907 475.35 272.907H603.7C610.49 272.907 617.31 272.747 624.11 272.907C624.32 272.907 624.49 272.907 624.71 272.907C626.6 273.197 626.71 274.907 626.71 276.447C626.71 278.617 627.49 282.647 624.29 282.807C622.44 282.887 620.56 282.807 618.71 282.807H474.71C474.509 282.807 474.317 282.728 474.176 282.586C474.034 282.444 473.955 282.252 473.955 282.052C473.955 281.852 474.034 281.66 474.176 281.518C474.317 281.377 474.509 281.297 474.71 281.297Z" fill="black"/>
<path d="M366.12 276.727H457.2C457.752 276.727 458.2 277.174 458.2 277.727V281.047C458.2 281.599 457.752 282.047 457.2 282.047H366.12C365.567 282.047 365.12 281.599 365.12 281.047V277.727C365.12 277.174 365.567 276.727 366.12 276.727Z" fill="black"/>
<path d="M366.12 281.297H455.06C455.62 281.297 456.2 281.297 456.75 281.297C457.3 281.297 457.45 281.137 457.45 280.297C457.45 279.457 457.84 277.647 457.01 277.447C456.565 277.397 456.115 277.397 455.67 277.447H367.22C366.889 277.397 366.551 277.397 366.22 277.447C365.82 277.627 365.91 278.027 365.91 278.447C365.91 279.037 365.55 281.197 366.36 281.327C367.17 281.457 366.91 282.927 365.96 282.777C363.87 282.437 364.29 279.307 364.41 277.777C364.421 277.529 364.482 277.285 364.59 277.06C364.697 276.835 364.849 276.634 365.035 276.469C365.222 276.304 365.44 276.178 365.676 276.099C365.912 276.019 366.162 275.988 366.41 276.007C367.84 275.947 369.28 276.007 370.71 276.007H444.48C448.65 276.007 452.88 275.797 457.04 276.007C457.308 276.003 457.573 276.056 457.819 276.162C458.065 276.268 458.285 276.425 458.466 276.622C458.646 276.82 458.783 277.053 458.866 277.308C458.95 277.562 458.978 277.831 458.95 278.097C458.95 279.697 459.49 282.657 457.2 282.827C456.2 282.897 455.2 282.827 454.2 282.827H366.12C365.917 282.827 365.722 282.747 365.579 282.603C365.436 282.46 365.355 282.265 365.355 282.062C365.355 281.859 365.436 281.665 365.579 281.521C365.722 281.378 365.917 281.297 366.12 281.297Z" fill="black"/>
<path d="M629.782 204.903L631.724 209.597C632.077 210.45 631.671 211.426 630.819 211.779L481.599 273.496C480.746 273.849 479.77 273.444 479.417 272.592L477.476 267.897C477.123 267.045 477.528 266.068 478.381 265.716L627.601 203.998C628.453 203.646 629.43 204.051 629.782 204.903Z" fill="black"/>
<path d="M481.4 272.747L497.25 266.197L534.86 250.627L579.55 232.167L616.38 216.937L627.22 212.447L629.95 211.327C630.152 211.258 630.35 211.175 630.54 211.077C631.45 210.477 630.92 209.597 630.6 208.827L629.53 206.237C629.18 205.387 629 204.437 627.8 204.707C627.7 204.707 627.6 204.797 627.5 204.827C626.77 205.107 626.04 205.427 625.32 205.737L615.32 209.847L579.54 224.647L534.95 243.087L496.37 259.087L483.97 264.217L480.29 265.737C479.713 265.915 479.154 266.146 478.62 266.427C477.71 267.027 478.23 267.907 478.55 268.677L479.62 271.267C479.96 272.077 480.18 273.157 481.36 272.797C482.29 272.517 482.68 273.967 481.76 274.247C479.57 274.897 478.76 273.107 478.09 271.457C477.56 270.177 476.28 268.217 476.62 266.747C476.9 265.517 477.92 265.107 478.94 264.687L486.76 261.447L501.41 255.387L520.89 247.337L543.19 238.117L566.19 228.607L588.19 219.517L606.99 211.747L620.63 206.107C622.79 205.217 624.93 204.277 627.11 203.427C627.304 203.341 627.504 203.271 627.71 203.217C629.83 202.747 630.51 204.787 631.14 206.307C632 208.387 633.82 211.307 630.87 212.597C628.87 213.447 626.93 214.227 624.95 215.047L611.75 220.507L593.34 228.117L571.55 237.117L548.44 246.677L526.13 255.897L506.38 263.997L491.3 270.237L482.88 273.717L481.8 274.167C480.86 274.567 480.52 273.117 481.4 272.747Z" fill="black"/>
<path d="M620.119 193.432L620.727 194.901C620.873 195.254 620.705 195.657 620.353 195.803L609.449 200.313C609.097 200.458 608.693 200.291 608.548 199.939L607.94 198.47C607.794 198.117 607.962 197.714 608.314 197.568L619.218 193.058C619.57 192.913 619.974 193.08 620.119 193.432Z" fill="black"/>
<path d="M609.24 199.576L619.86 195.186C619.944 195.163 620.024 195.129 620.1 195.086C620.23 195.016 620.1 195.166 620.02 195.086C619.72 194.756 619.67 194.086 619.45 193.726C619.38 193.586 619.51 193.726 619.45 193.786C619.387 193.823 619.32 193.85 619.25 193.866L618.39 194.216L611.67 196.996L608.86 198.136C608.766 198.168 608.676 198.208 608.59 198.256H608.53C608.68 198.016 608.64 198.256 608.7 198.256C608.86 198.526 608.978 198.819 609.05 199.126C609.11 199.256 609.17 199.386 609.22 199.516C609.27 199.646 609.22 199.516 609.22 199.516C609.404 199.481 609.595 199.517 609.755 199.616C609.914 199.716 610.03 199.871 610.081 200.052C610.131 200.233 610.111 200.426 610.026 200.594C609.941 200.761 609.796 200.89 609.62 200.956C608.62 201.236 608.04 200.646 607.7 199.816C607.366 199.265 607.181 198.639 607.16 197.996C607.34 196.996 608.39 196.766 609.16 196.436L616.86 193.226C617.57 192.936 618.28 192.576 619.01 192.336C620.5 191.846 621.12 193.566 621.47 194.686C621.82 195.806 620.77 196.426 619.85 196.816L616.47 198.206L609.67 201.016C608.75 201.386 608.36 199.936 609.24 199.576Z" fill="black"/>
<path d="M479.47 264.267L623.8 204.587C624.095 204.466 624.339 204.243 624.487 203.96C624.635 203.676 624.679 203.35 624.61 203.037L623.16 196.507C623.12 196.31 623.037 196.123 622.917 195.961C622.797 195.799 622.643 195.665 622.465 195.57C622.287 195.474 622.091 195.419 621.889 195.408C621.688 195.397 621.487 195.431 621.3 195.507L476.24 256.437C475.909 256.577 475.647 256.841 475.511 257.172C475.374 257.504 475.374 257.876 475.51 258.207L477.7 263.497C477.764 263.665 477.861 263.819 477.985 263.949C478.109 264.079 478.258 264.183 478.423 264.255C478.588 264.326 478.765 264.365 478.945 264.367C479.125 264.369 479.303 264.335 479.47 264.267Z" fill="black"/>
<path d="M479.269 263.551L494.939 257.071L532.029 241.731L575.479 223.731L610.959 209.091L620.959 204.951C621.699 204.641 622.519 204.391 623.229 204.011C623.35 203.975 623.467 203.928 623.579 203.871C624.019 203.491 623.819 203.061 623.719 202.591L623.159 200.001L622.609 197.541C622.459 196.881 622.429 196.161 621.499 196.301C621.399 196.301 621.299 196.401 621.199 196.431C620.469 196.691 619.759 197.041 619.039 197.341L609.239 201.451L574.169 216.191L530.859 234.361L493.359 250.111L481.439 255.111L477.979 256.561C477.464 256.702 476.97 256.91 476.509 257.181C475.829 257.731 476.639 258.961 476.889 259.581L477.889 262.091C478.149 262.721 478.329 263.801 479.249 263.541C479.434 263.507 479.625 263.543 479.784 263.642C479.944 263.741 480.06 263.897 480.11 264.078C480.161 264.259 480.141 264.452 480.056 264.619C479.971 264.787 479.826 264.916 479.649 264.981C477.649 265.571 476.979 263.781 476.359 262.291L475.279 259.681C474.993 259.133 474.785 258.547 474.659 257.941C474.519 256.521 475.659 255.941 476.709 255.461L484.169 252.331L517.169 238.471L561.289 220.001L601.179 203.201C607.719 200.451 614.179 197.531 620.829 194.941L621.099 194.831C623.099 194.191 623.789 195.931 624.099 197.471C624.469 199.171 624.899 200.861 625.229 202.571C625.397 203.108 625.357 203.688 625.119 204.197C624.88 204.706 624.459 205.107 623.939 205.321C622.299 206.071 620.599 206.701 618.939 207.391L588.709 219.891L545.109 237.891L503.859 255.001L480.739 264.561L479.639 265.011C478.779 265.361 478.389 263.911 479.269 263.551Z" fill="black"/>
<path d="M597.76 268.719H620.91C621.181 268.719 621.4 268.938 621.4 269.209V273.249C621.4 273.519 621.181 273.739 620.91 273.739H597.76C597.489 273.739 597.27 273.519 597.27 273.249V269.209C597.27 268.938 597.489 268.719 597.76 268.719Z" fill="black"/>
<path d="M597.76 272.997H620.41C620.51 272.997 620.75 272.947 620.84 272.997C620.93 273.047 621.05 272.857 620.78 273.117C620.51 273.377 620.68 273.047 620.65 272.857C620.61 272.317 620.61 271.776 620.65 271.237C620.58 270.672 620.58 270.101 620.65 269.537C620.7 269.377 620.53 269.127 620.78 269.357C621.03 269.587 620.91 269.437 620.85 269.477C620.691 269.502 620.529 269.502 620.37 269.477H603.98C602.09 269.477 600.11 269.637 598.22 269.477C598.077 269.492 597.933 269.492 597.79 269.477C597.87 269.477 597.91 269.147 598.02 269.327C598.13 269.507 598.02 269.817 598.02 269.937V271.937C598.02 272.247 598.02 272.567 598.02 272.877C598.02 273.187 598.1 273.077 597.96 273.037C598.055 273.062 598.144 273.106 598.222 273.167C598.301 273.227 598.366 273.302 598.415 273.387C598.465 273.472 598.496 273.567 598.509 273.664C598.522 273.762 598.515 273.862 598.49 273.957C598.464 274.052 598.42 274.141 598.36 274.219C598.3 274.298 598.225 274.363 598.14 274.412C598.054 274.462 597.96 274.493 597.862 274.506C597.764 274.519 597.665 274.512 597.57 274.487C596.3 274.147 596.52 272.867 596.52 271.827C596.52 270.787 596.22 269.427 596.69 268.607C597.27 267.607 599.43 267.997 600.36 267.997H616.44C617.89 267.997 619.44 267.857 620.85 267.997C621.85 268.087 622.14 268.747 622.15 269.627C622.21 270.803 622.21 271.981 622.15 273.157C622 274.847 620.27 274.517 619.05 274.517H597.76C597.558 274.517 597.365 274.437 597.222 274.294C597.08 274.152 597 273.958 597 273.757C597 273.555 597.08 273.362 597.222 273.219C597.365 273.077 597.558 272.997 597.76 272.997Z" fill="black"/>
<path d="M611.16 219.93C611.273 219.955 611.379 220.006 611.47 220.08C611.62 220.2 611.62 220.82 611.65 221.01L612.01 223.24L613.01 229.54L615.69 246.21L618.2 261.82L619.31 268.72H616.31C615.92 266.29 615.52 263.86 615.13 261.44L612.57 245.75L609.91 229.46L608.91 223.51C608.768 222.849 608.661 222.181 608.59 221.51C608.59 220.88 608.72 220.81 609.33 220.51C609.87 220.141 610.506 219.94 611.16 219.93Z" fill="black"/>
<path d="M611.529 219.286C611.777 219.382 611.989 219.552 612.137 219.771C612.286 219.991 612.363 220.251 612.359 220.516C612.499 221.436 612.629 222.366 612.769 223.286L613.859 229.826L615.859 242.576L620.029 268.516C620.067 268.631 620.078 268.752 620.06 268.871C620.042 268.99 619.995 269.103 619.925 269.201C619.855 269.298 619.762 269.378 619.655 269.433C619.548 269.488 619.43 269.516 619.309 269.516C618.309 269.516 617.309 269.516 616.309 269.516C616.146 269.514 615.988 269.46 615.859 269.36C615.729 269.261 615.635 269.123 615.589 268.966L610.909 240.246L608.669 226.496C608.476 225.316 608.276 224.136 608.069 222.956C607.857 222.287 607.813 221.577 607.939 220.886C608.309 219.816 610.109 219.206 611.119 219.236C612.129 219.266 612.119 220.766 611.119 220.736C610.667 220.738 610.225 220.874 609.849 221.126C609.329 221.476 609.329 221.416 609.439 222.126C609.549 222.836 609.749 223.836 609.889 224.696L610.889 230.696L612.889 243.166L617.029 268.526L616.299 267.976C617.299 267.976 618.299 267.976 619.299 267.976L618.569 268.926L614.569 244.216L612.569 231.956L611.569 225.876L611.109 223.006C611.059 222.696 610.969 220.726 610.669 220.586C609.859 220.186 610.659 218.886 611.529 219.286Z" fill="black"/>
<path d="M378.28 276.679H388.87L387.87 271.359H379.28L378.28 276.679Z" fill="black"/>
<path d="M378.28 275.929H388.86L388.13 276.879L387.13 271.559L387.86 272.109H379.27L380 271.559L379 276.879C378.83 277.829 377.38 277.429 377.56 276.479L378.56 271.159C378.603 271.002 378.697 270.863 378.827 270.763C378.957 270.664 379.116 270.61 379.28 270.609H387.86C388.023 270.612 388.181 270.666 388.311 270.765C388.44 270.864 388.535 271.003 388.58 271.159L389.58 276.479C389.609 276.59 389.612 276.706 389.589 276.819C389.567 276.931 389.519 277.037 389.45 277.129C389.38 277.22 389.291 277.295 389.189 277.347C389.087 277.399 388.974 277.427 388.86 277.429H378.27C378.071 277.428 377.881 277.348 377.741 277.206C377.601 277.065 377.524 276.873 377.525 276.674C377.526 276.475 377.606 276.285 377.748 276.146C377.89 276.006 378.081 275.928 378.28 275.929Z" fill="black"/>
<path d="M416.42 276.703H427L426 271.383H417.42L416.42 276.703Z" fill="black"/>
<path d="M416.409 276H426.999L426.279 276.95L425.279 271.63L425.999 272.18H417.419L418.139 271.63L417.139 276.95C416.959 277.95 415.509 277.5 415.689 276.55L416.689 271.23C416.735 271.071 416.831 270.932 416.963 270.833C417.094 270.733 417.255 270.68 417.419 270.68H425.999C426.163 270.68 426.322 270.734 426.452 270.834C426.582 270.933 426.676 271.072 426.719 271.23L427.719 276.55C427.748 276.661 427.751 276.777 427.729 276.889C427.706 277.002 427.659 277.108 427.589 277.199C427.52 277.29 427.431 277.365 427.329 277.417C427.227 277.469 427.114 277.497 426.999 277.5H416.409C416.311 277.5 416.213 277.48 416.122 277.443C416.031 277.405 415.949 277.35 415.879 277.28C415.81 277.21 415.754 277.128 415.717 277.037C415.679 276.946 415.659 276.848 415.659 276.75C415.659 276.651 415.679 276.554 415.717 276.463C415.754 276.372 415.81 276.289 415.879 276.219C415.949 276.15 416.031 276.094 416.122 276.057C416.213 276.019 416.311 276 416.409 276Z" fill="black"/>
<path d="M403.87 276.703H414.45L413.45 271.383H404.87L403.87 276.703Z" fill="black"/>
<path d="M403.859 276H414.449L413.729 276.95L412.729 271.63L413.449 272.18H404.859L405.579 271.63L404.579 276.95C404.399 277.95 402.959 277.5 403.129 276.55L404.129 271.23C404.173 271.072 404.267 270.933 404.397 270.834C404.527 270.734 404.686 270.68 404.849 270.68H413.429C413.594 270.68 413.755 270.733 413.886 270.833C414.018 270.932 414.114 271.071 414.159 271.23L415.159 276.55C415.188 276.662 415.191 276.778 415.168 276.892C415.145 277.005 415.097 277.111 415.026 277.203C414.956 277.294 414.866 277.369 414.762 277.42C414.659 277.472 414.545 277.499 414.429 277.5H403.859C403.661 277.5 403.47 277.421 403.329 277.28C403.188 277.139 403.109 276.949 403.109 276.75C403.109 276.551 403.188 276.36 403.329 276.219C403.47 276.079 403.661 276 403.859 276Z" fill="black"/>
<path d="M391.139 276.703H401.729L400.729 271.383H392.139L391.139 276.703Z" fill="black"/>
<path d="M391.14 276H401.73L401.01 276.95L400.01 271.63L400.74 272.18H392.15L392.88 271.63L391.88 276.95C391.7 277.95 390.25 277.5 390.43 276.55L391.43 271.23C391.473 271.072 391.567 270.933 391.697 270.834C391.827 270.734 391.986 270.68 392.15 270.68H400.74C400.903 270.682 401.061 270.737 401.191 270.836C401.32 270.935 401.415 271.073 401.46 271.23L402.46 276.55C402.488 276.661 402.492 276.777 402.469 276.889C402.447 277.002 402.399 277.108 402.33 277.199C402.26 277.29 402.171 277.365 402.069 277.417C401.967 277.469 401.854 277.497 401.74 277.5H391.15C390.951 277.501 390.76 277.423 390.618 277.284C390.476 277.144 390.396 276.954 390.395 276.755C390.393 276.556 390.471 276.364 390.611 276.223C390.751 276.081 390.941 276.001 391.14 276Z" fill="black"/>
<path d="M585.93 61.0007L564.86 48.7207C564.687 48.6213 564.561 48.4574 564.51 48.2652C564.458 48.073 564.485 47.8681 564.585 47.6957C564.684 47.5233 564.848 47.3975 565.04 47.3459C565.232 47.2944 565.437 47.3213 565.61 47.4207L586.69 59.6607C586.862 59.7615 586.987 59.9266 587.038 60.1198C587.089 60.313 587.06 60.5183 586.96 60.6907C586.859 60.8631 586.694 60.9884 586.5 61.0391C586.307 61.0897 586.102 61.0615 585.93 60.9607V61.0007Z" fill="black"/>
<path d="M584.209 110.82L554.209 111.18C554.011 111.18 553.82 111.101 553.679 110.961C553.538 110.82 553.459 110.629 553.459 110.43C553.459 110.231 553.538 110.041 553.679 109.9C553.82 109.759 554.011 109.68 554.209 109.68L584.209 109.32C584.408 109.32 584.599 109.399 584.74 109.54C584.88 109.681 584.959 109.871 584.959 110.07C584.959 110.269 584.88 110.46 584.74 110.601C584.599 110.741 584.408 110.82 584.209 110.82Z" fill="black"/>
<path d="M583.76 162L559.59 171.86C558.69 172.22 558.3 170.77 559.19 170.41L583.37 160.56C584.26 160.19 584.65 161.64 583.76 162Z" fill="black"/>
<path d="M82.0395 126.082C80.6595 122.962 79.2295 119.682 76.7295 117.272C74.4695 115.082 71.1295 113.752 68.0395 114.822C67.1295 115.132 66.7295 113.682 67.6395 113.372C71.0195 112.212 74.6395 113.502 77.2895 115.752C80.1995 118.252 81.8194 121.892 83.3394 125.332C83.7194 126.202 82.4295 126.972 82.0395 126.082Z" fill="black"/>
<path d="M182.24 64.9968C182.24 64.9968 179.79 66.6268 177.56 66.2668C176.548 66.1236 175.547 65.9199 174.56 65.6568C174.56 65.6568 171.12 69.9268 166 68.3468C160.88 66.7668 160 66.4568 160 66.4568C160 66.4568 160.69 68.6568 159.65 69.5268C158.61 70.3968 151.7 73.1968 145.49 68.5268L144.43 67.8668C144.43 67.8668 145.3 71.6968 142.59 72.0268C139.88 72.3568 134.72 71.2668 134.72 71.2668L130.65 67.7468C130.75 68.2798 130.672 68.831 130.428 69.3153C130.184 69.7997 129.788 70.1903 129.3 70.4268C127.61 71.1168 123.66 71.7068 120.81 70.1168C117.96 68.5268 118.14 69.1168 118.14 69.1168C118.14 69.1168 116.39 72.7168 113.07 73.3268C109.75 73.9368 104.49 73.5768 102.38 72.4568C102.06 72.9868 100.06 77.2368 92.5597 76.1568C91.4797 76.4768 91.1797 76.0368 90.9397 77.4068C90.6997 78.7768 89.0996 79.9968 91.6496 90.9968C94.1996 101.997 91.9697 99.1968 90.3596 103.067C89.1245 105.66 88.5508 108.518 88.6897 111.387C88.7597 113.787 90.6097 123.177 90.6897 124.387C90.7697 125.597 88.1897 128.687 82.6897 125.977C82.6897 125.977 79.8297 119.337 77.1997 117.077C74.5697 114.817 70.1397 112.637 67.4297 114.517C67.4297 114.517 60.9396 106.307 59.2796 103.967C57.6196 101.627 49.8596 90.1568 46.7796 77.9968C43.6996 65.8368 41.0097 55.2268 42.6397 47.9068C44.2697 40.5868 46.6396 38.4668 47.5196 38.2768C48.3996 38.0868 45.8696 37.6368 45.8996 36.9168C45.9296 36.1968 51.2796 25.6168 56.8596 26.1268C56.5104 25.7488 56.2673 25.2852 56.1549 24.7829C56.0425 24.2807 56.0648 23.7577 56.2196 23.2668C56.7396 21.5468 61.1396 18.6868 67.7696 20.6068C67.6896 19.0568 67.1196 17.5468 67.7696 16.3468C68.4196 15.1468 71.6496 11.1268 73.2896 11.8668C74.9296 12.6068 74.9396 13.4268 74.5896 13.9668C74.2396 14.5068 88.0596 5.34683 98.9696 4.10683C109.88 2.86683 120.31 -1.89317 144.52 5.37683C146.799 5.77515 149.1 6.04226 151.41 6.17683C152.96 6.09683 155.23 6.60683 154.97 7.45683C154.896 8.06849 154.979 8.68894 155.212 9.25942C155.444 9.8299 155.819 10.3315 156.3 10.7168C157.22 11.2068 166.46 13.4268 167.13 14.3868C167.8 15.3468 169.34 16.6668 168.41 17.6968C167.48 18.7268 170.09 19.8068 170.09 19.8068C170.09 19.8068 178.52 25.2968 185.21 40.0868C185.21 40.0868 185.99 44.3368 185.1 45.8868C184.335 47.3342 184.068 48.9927 184.34 50.6068C184.56 51.7568 185.4 58.0268 183.92 61.0768C183.564 62.4621 182.998 63.7843 182.24 64.9968Z" fill="#141414"/>
<path d="M133.94 120.29C133.865 120.284 133.79 120.305 133.73 120.35C133.688 120.393 133.657 120.446 133.642 120.503C133.626 120.561 133.625 120.622 133.64 120.68C133.661 120.798 133.712 120.909 133.79 121C133.846 121.078 133.917 121.145 134 121.194C134.082 121.244 134.174 121.277 134.27 121.29C134.369 121.288 134.464 121.252 134.541 121.188C134.617 121.125 134.669 121.037 134.69 120.94C134.79 120.49 134.18 120.3 133.94 120.29Z" fill="#828282"/>
<path d="M139.3 124.281C139.275 124.257 139.245 124.238 139.212 124.226C139.179 124.214 139.145 124.209 139.11 124.211C138.989 124.253 138.889 124.339 138.83 124.451C138.776 124.564 138.748 124.687 138.75 124.811C138.738 124.905 138.747 125.001 138.776 125.091C138.806 125.18 138.855 125.263 138.92 125.331C139.006 125.381 139.106 125.4 139.204 125.385C139.302 125.371 139.392 125.324 139.46 125.251C139.86 124.921 139.48 124.421 139.3 124.281Z" fill="#828282"/>
<path d="M128.63 121.266C128.605 121.242 128.575 121.223 128.542 121.211C128.509 121.199 128.474 121.194 128.44 121.196C128.378 121.213 128.322 121.244 128.273 121.285C128.225 121.327 128.186 121.378 128.16 121.436C128.107 121.549 128.077 121.671 128.07 121.796C128.061 121.889 128.072 121.983 128.103 122.071C128.134 122.159 128.184 122.239 128.25 122.306C128.333 122.36 128.433 122.383 128.532 122.37C128.631 122.357 128.723 122.31 128.79 122.236C129.14 121.906 128.81 121.396 128.63 121.266Z" fill="#828282"/>
<path d="M131.04 131.766C131.015 131.742 130.985 131.723 130.952 131.711C130.919 131.699 130.884 131.694 130.85 131.696C130.789 131.714 130.733 131.745 130.685 131.787C130.636 131.828 130.597 131.879 130.57 131.936C130.516 132.048 130.488 132.171 130.49 132.296C130.476 132.388 130.485 132.482 130.514 132.571C130.544 132.659 130.594 132.74 130.66 132.806C130.743 132.86 130.844 132.883 130.943 132.87C131.041 132.857 131.133 132.81 131.2 132.736C131.56 132.406 131.22 131.906 131.04 131.766Z" fill="#828282"/>
<path d="M136.429 130.299C136.381 130.241 136.313 130.203 136.239 130.189C136.188 130.184 136.137 130.194 136.092 130.219C136.048 130.244 136.012 130.283 135.989 130.329C135.943 130.422 135.926 130.526 135.939 130.629C135.945 130.821 136.024 131.003 136.159 131.139C136.226 131.206 136.312 131.251 136.406 131.265C136.5 131.279 136.596 131.263 136.679 131.219C136.989 130.999 136.619 130.469 136.429 130.299Z" fill="#828282"/>
<path d="M128.379 126.509C128.329 126.453 128.262 126.415 128.189 126.398C128.137 126.397 128.084 126.411 128.039 126.437C127.993 126.464 127.955 126.502 127.93 126.549C127.887 126.643 127.87 126.746 127.879 126.848C127.889 127.04 127.967 127.221 128.099 127.358C128.167 127.424 128.254 127.467 128.348 127.479C128.442 127.492 128.537 127.474 128.62 127.428C128.94 127.218 128.569 126.679 128.379 126.509Z" fill="#828282"/>
<path d="M133.65 125.717C133.622 125.636 133.569 125.566 133.5 125.517C133.443 125.485 133.379 125.469 133.315 125.469C133.25 125.469 133.186 125.485 133.13 125.517C133.02 125.592 132.934 125.696 132.88 125.817C132.825 125.913 132.79 126.019 132.778 126.13C132.766 126.24 132.777 126.351 132.81 126.457C132.853 126.562 132.929 126.65 133.026 126.707C133.123 126.765 133.237 126.79 133.35 126.777C133.86 126.737 133.75 125.997 133.65 125.717Z" fill="#828282"/>
<path d="M135.1 135.282C135.077 135.202 135.028 135.131 134.96 135.082C134.902 135.049 134.836 135.031 134.77 135.031C134.703 135.031 134.637 135.049 134.58 135.082C134.471 135.158 134.384 135.261 134.33 135.382C134.223 135.578 134.198 135.808 134.26 136.022C134.301 136.127 134.377 136.215 134.475 136.271C134.574 136.328 134.688 136.349 134.8 136.332C135.29 136.302 135.21 135.552 135.1 135.282Z" fill="#828282"/>
<path d="M427.41 445.117C428.015 445.363 428.538 445.776 428.918 446.307C429.298 446.837 429.521 447.465 429.56 448.117C429.56 448.307 429.27 448.307 429.26 448.117C429.217 447.537 429.014 446.98 428.673 446.509C428.332 446.037 427.867 445.67 427.33 445.447C427.15 445.377 427.23 445.087 427.41 445.157V445.117Z" fill="black"/>
<path d="M350.46 306.449C350.987 306.28 351.557 306.301 352.071 306.508C352.585 306.714 353.011 307.094 353.275 307.581C353.54 308.068 353.626 308.632 353.519 309.175C353.412 309.719 353.119 310.208 352.69 310.559C352.54 310.679 352.33 310.469 352.48 310.349C352.865 310.046 353.131 309.618 353.231 309.138C353.331 308.659 353.259 308.159 353.027 307.728C352.796 307.297 352.419 306.961 351.964 306.78C351.509 306.599 351.005 306.584 350.54 306.739C350.36 306.799 350.28 306.509 350.46 306.449Z" fill="black"/>
<path d="M339.55 308.62C339.108 308.654 338.686 308.821 338.339 309.098C337.993 309.375 337.738 309.75 337.607 310.173C337.477 310.597 337.477 311.051 337.608 311.475C337.738 311.899 337.993 312.273 338.34 312.55C338.49 312.67 338.27 312.88 338.13 312.76C337.742 312.433 337.461 311.998 337.32 311.51C337.179 311.022 337.186 310.504 337.34 310.02C337.51 309.557 337.808 309.151 338.199 308.85C338.59 308.55 339.058 308.366 339.55 308.32C339.74 308.32 339.74 308.61 339.55 308.62Z" fill="black"/>
<path d="M327.38 313.409C326.936 313.539 326.549 313.814 326.281 314.19C326.013 314.567 325.879 315.022 325.901 315.484C325.923 315.946 326.099 316.386 326.402 316.735C326.704 317.085 327.116 317.322 327.57 317.409C327.76 317.409 327.68 317.729 327.49 317.699C326.963 317.603 326.484 317.33 326.133 316.926C325.782 316.522 325.578 316.01 325.556 315.475C325.534 314.94 325.695 314.413 326.012 313.982C326.328 313.55 326.783 313.239 327.3 313.099C327.338 313.089 327.379 313.094 327.414 313.113C327.449 313.133 327.474 313.166 327.485 313.204C327.495 313.243 327.49 313.284 327.47 313.318C327.451 313.353 327.418 313.379 327.38 313.389V313.409Z" fill="black"/>
<path d="M340.16 323.779C340.36 324.144 340.468 324.551 340.476 324.966C340.484 325.382 340.391 325.793 340.205 326.165C340.019 326.536 339.746 326.857 339.409 327.1C339.072 327.343 338.681 327.501 338.27 327.559C338.08 327.559 338.08 327.269 338.27 327.259C338.629 327.201 338.968 327.058 339.26 326.842C339.552 326.626 339.787 326.343 339.947 326.016C340.107 325.69 340.186 325.33 340.178 324.967C340.169 324.604 340.074 324.248 339.9 323.929C339.8 323.769 340.06 323.619 340.16 323.779Z" fill="black"/>
<path d="M336.479 290.473C337.327 290.991 337.961 291.795 338.267 292.739C338.573 293.684 338.532 294.707 338.149 295.623C338.069 295.803 337.819 295.623 337.889 295.473C338.233 294.626 338.264 293.685 337.978 292.817C337.693 291.949 337.108 291.211 336.329 290.733C336.295 290.713 336.27 290.681 336.26 290.642C336.249 290.604 336.255 290.563 336.274 290.528C336.294 290.494 336.327 290.469 336.366 290.458C336.404 290.448 336.445 290.453 336.479 290.473Z" fill="black"/>
<path d="M329.42 300.23C327.838 301.044 326.582 302.374 325.86 304C325.79 304.17 325.53 304 325.61 303.85C326.349 302.181 327.637 300.815 329.26 299.98C329.43 299.89 329.58 300.15 329.41 300.24L329.42 300.23Z" fill="black"/>
<path d="M342.77 276.998C342.313 277.686 342.048 278.484 342.004 279.309C341.96 280.133 342.138 280.955 342.52 281.688C342.61 281.858 342.35 282.018 342.26 281.848C341.858 281.066 341.67 280.192 341.714 279.314C341.758 278.436 342.032 277.586 342.51 276.848C342.62 276.688 342.88 276.848 342.77 276.998Z" fill="black"/>
<path d="M325.86 283.198C324.842 285.045 324.419 287.161 324.65 289.258C324.65 289.448 324.37 289.448 324.35 289.258C324.122 287.108 324.559 284.941 325.6 283.047C325.69 282.877 325.95 283.048 325.86 283.198Z" fill="black"/>
<path d="M326.86 239.501C325.932 240.232 325.168 241.151 324.619 242.196C324.069 243.242 323.746 244.392 323.67 245.571C323.67 245.761 323.36 245.761 323.37 245.571C323.446 244.351 323.777 243.161 324.342 242.078C324.907 240.994 325.693 240.041 326.65 239.281C326.8 239.171 327.02 239.381 326.86 239.501Z" fill="black"/>
<path d="M350.3 281.996C350.795 281.945 351.296 281.995 351.772 282.141C352.248 282.288 352.689 282.529 353.07 282.85C353.451 283.171 353.763 283.566 353.988 284.01C354.213 284.454 354.346 284.939 354.38 285.436C354.38 285.626 354.09 285.626 354.08 285.436C354.049 284.983 353.927 284.542 353.722 284.137C353.518 283.732 353.234 283.373 352.889 283.079C352.543 282.786 352.142 282.564 351.709 282.428C351.277 282.292 350.821 282.243 350.37 282.286C350.19 282.286 350.1 282.026 350.3 281.996Z" fill="black"/>
<path d="M339.86 242.328C340.467 242.572 340.993 242.983 341.375 243.514C341.758 244.046 341.981 244.675 342.02 245.328C342.02 245.518 341.73 245.518 341.72 245.328C341.675 244.747 341.47 244.19 341.127 243.719C340.785 243.247 340.318 242.88 339.78 242.658C339.61 242.588 339.68 242.298 339.86 242.368V242.328Z" fill="black"/>
<path d="M327.37 248.999L326.86 251.999C326.86 252.189 326.54 252.109 326.57 251.919L327.12 248.859C327.12 248.669 327.44 248.749 327.41 248.939L327.37 248.999Z" fill="black"/>
<path d="M350.4 234.927C351.671 236.507 352.683 238.279 353.4 240.177C353.47 240.357 353.18 240.437 353.11 240.257C352.421 238.405 351.438 236.676 350.2 235.137C350.09 234.987 350.3 234.777 350.42 234.927H350.4Z" fill="black"/>
<path d="M349.69 271.902C349.98 271.558 350.349 271.289 350.765 271.117C351.182 270.946 351.633 270.877 352.082 270.917C352.53 270.958 352.962 271.105 353.341 271.348C353.721 271.591 354.036 271.922 354.26 272.312C354.34 272.482 354.08 272.632 354 272.462C353.802 272.117 353.525 271.823 353.191 271.606C352.857 271.389 352.477 271.255 352.08 271.214C351.684 271.174 351.284 271.229 350.914 271.375C350.543 271.521 350.213 271.753 349.95 272.052C349.83 272.202 349.57 272.052 349.69 271.902Z" fill="black"/>
</g>
<defs>
<clipPath id="clip0_1717_611">
<rect width="638.86" height="454.69" fill="white" transform="matrix(-1 0 0 1 638.86 0)"/>
</clipPath>
</defs>
</svg>
