<svg width="420" height="748" viewBox="0 0 420 748" fill="none" xmlns="http://www.w3.org/2000/svg">
<g clip-path="url(#clip0_1717_191)">
<path d="M261.543 275.562L270.492 307.223C271.826 311.943 273.175 316.91 272.152 321.723C270.74 328.33 264.94 333.344 258.55 335.649C252.161 337.955 245.212 337.754 238.389 337.197C232.148 336.879 225.96 335.888 219.933 334.241C213.857 332.591 208.254 329.543 203.571 325.344C201.656 323.741 200.24 321.626 199.492 319.247C199.1 316.935 199.205 314.566 199.802 312.299L203.431 293.188L205.215 283.748C205.664 281.396 205.463 278.441 208.58 279.106C214.195 280.401 219.897 281.285 225.64 281.752C231.405 282.044 237.185 281.738 242.886 280.839C249.293 279.825 255.556 278.053 261.543 275.562Z" fill="white"/>
<path d="M392.641 746.866L409.701 745.18C409.701 745.18 410.383 736.112 409.05 730.51C407.716 724.908 402.738 704.08 401.683 698.246C400.628 692.412 400.132 641.285 400.132 641.285C400.132 641.285 405.421 537.901 396.689 508.205C387.957 478.51 352.054 480.181 352.054 480.181L331.722 503.501C331.722 503.501 335.94 686.238 338.329 692.288C342.695 701.928 347.583 711.324 352.969 720.436C354.954 723.191 363.267 729.907 364.849 731.5C366.431 733.094 392.641 746.866 392.641 746.866Z" fill="white"/>
<path d="M85.6093 363.446C85.6093 363.446 101.646 334.695 122.133 322.362C142.62 310.029 174.74 296.628 203.23 295.375C202.78 300.961 198.98 317.286 198.98 317.286C198.98 317.286 199.508 324.049 208.146 328.412C216.785 332.776 231.084 339.848 245.787 337.341C260.489 334.834 267.096 331.646 269.407 326.122C271.718 320.598 271.345 309.967 268.988 302.477C266.631 294.988 266.383 293.719 266.383 293.719C266.383 293.719 293.012 298.361 299.727 299.738C306.442 301.115 347.216 312.118 369.657 337.991C392.099 363.864 401.823 409.746 410.089 451.356C418.355 492.967 418.743 504.619 418.743 504.619C418.743 504.619 420.387 513.3 405.08 512.155C389.772 511.01 354.164 506.631 354.164 506.631L373.286 643.733C373.286 643.733 377.489 661.962 377.784 664.33C377.993 666.863 377.993 669.41 377.784 671.943C377.644 672.346 374.992 677.313 372.526 678.675C370.06 680.036 373.007 685.406 373.007 685.406C373.007 685.406 387.043 729.879 388.811 733.995C390.579 738.112 393.619 742.568 392.657 747.566L92.6969 741.702L97.3496 723.891L107.896 677.777C107.896 677.777 97.0394 672.701 95.6902 669.607C94.3409 666.512 95.3335 661.483 96.0314 655.463C96.7293 649.443 116.627 512.093 116.627 512.093C116.627 512.093 113.929 514.708 114.037 514.074C114.146 513.439 96.5276 539.049 69.8986 530.059C43.2697 521.068 43.5333 488.68 43.5333 488.68L44.2312 475.945C44.2312 475.945 67.4792 404.562 85.6093 363.446Z" fill="#141414"/>
<path d="M257.884 280.655C259.001 280.095 260.001 279.328 260.83 278.396C261.238 277.918 261.516 277.345 261.638 276.73C261.761 276.115 261.723 275.479 261.528 274.883C245.647 282.929 226.416 284.817 209.775 278.473C208.705 278.071 207.324 277.684 206.549 278.473C206.2 278.917 205.994 279.457 205.96 280.02C205.414 281.88 205.132 283.808 205.122 285.746C205.386 287.494 206.937 287.556 208.441 287.866C212.506 288.67 216.629 289.151 220.771 289.305C229.053 289.621 237.329 288.527 245.244 286.071C249.354 284.817 254.348 283.254 257.884 280.655Z" fill="#141414"/>
<path d="M205.231 277.209L201.695 297.418L199.865 307.941C199.179 310.947 198.753 314.007 198.593 317.086C198.593 322.873 202.455 326.262 207.03 329.125C221.089 337.786 237.955 340.702 254.115 337.265C263.11 335.067 271.268 329.079 272.245 319.283C272.959 312.32 270.4 305.171 268.709 298.501L262.847 275.29C262.766 274.992 262.571 274.739 262.303 274.585C262.036 274.431 261.718 274.39 261.42 274.47C261.122 274.55 260.867 274.745 260.713 275.012C260.559 275.279 260.518 275.596 260.598 275.893L265.344 294.617C266.786 300.327 268.445 306.053 269.531 311.856C270.508 317.411 270.105 323.075 266.429 327.609C263.77 330.704 260.285 332.985 256.379 334.185C247.586 337.141 237.458 336.924 228.463 335.114C223.131 334.046 217.964 332.282 213.094 329.868C208.658 327.639 202.036 324.514 201.043 319.036C200.454 315.817 201.415 312.397 201.958 309.225L203.788 298.749L207.464 277.797C207.712 276.342 205.479 275.708 205.215 277.178L205.231 277.209Z" fill="black"/>
<path d="M203.741 294.102C185.055 295.928 166.708 300.302 149.212 307.1C131.826 313.971 115.324 323.704 102.359 337.337C95.1129 344.895 89.217 353.636 84.9267 363.179C84.3374 364.541 86.3381 365.717 86.9429 364.355C94.4493 347.457 107.229 333.7 122.614 323.487C137.999 313.274 155.586 306.28 173.514 301.823C183.475 299.326 193.603 297.542 203.819 296.485C205.292 296.33 205.37 294.009 203.819 294.163L203.741 294.102Z" fill="black"/>
<path d="M267.112 294.865C290.918 297.96 314.849 303.392 336.406 314.239C346.608 319.13 355.938 325.654 364.028 333.551C371.433 341.171 377.659 349.849 382.499 359.301C387.388 368.801 391.3 378.771 394.177 389.058C397.868 401.871 400.986 414.823 403.777 427.837C406.569 440.851 409.05 454.143 411.377 467.281C413.346 478.484 415.44 489.703 417.27 500.922C417.704 503.661 418.356 507.669 416.061 509.804C414.647 510.9 412.885 511.449 411.098 511.352C407.996 511.429 404.816 510.996 401.715 510.779C389.121 509.882 376.544 508.829 364.043 507.034C360.941 506.586 357.7 506.075 354.536 505.487C353.078 505.239 352.442 507.468 353.916 507.731C366.788 509.928 379.754 511.352 392.688 512.373C396.038 512.636 399.404 512.884 402.754 513.116C405.84 513.501 408.951 513.646 412.059 513.549C415.254 513.286 418.263 512.002 419.364 508.752C420.465 505.502 419.798 501.866 419.193 498.632C418.201 493.402 417.27 488.187 416.386 482.941C414.029 469.014 411.609 455.087 408.88 441.16C406.15 427.233 403.188 413.848 399.668 400.354C396.894 388.878 393.212 377.639 388.656 366.744C384.332 356.698 378.666 347.282 371.813 338.751C364.701 330.094 356.111 322.76 346.441 317.087C325.038 304.32 300.534 297.62 276.061 293.875C273.083 293.411 270.09 292.993 267.112 292.606C265.561 292.405 265.638 294.726 267.112 294.927V294.865Z" fill="black"/>
<path d="M42.4014 474.91C42.6495 479.924 43.5025 484.814 43.1303 489.843C42.7587 493.87 43.0045 497.929 43.8592 501.882C45.5911 509.055 49.1857 515.646 54.2813 520.993C59.302 526.522 65.9046 530.379 73.1948 532.039C80.485 533.7 88.1107 533.085 95.039 530.278C103.132 526.797 110.108 521.159 115.201 513.983C116.1 512.776 114.069 511.616 113.2 512.807C104.515 524.645 89.9365 533.202 74.8463 530.185C61.1208 527.43 50.0318 515.871 46.4802 502.579C45.4355 498.54 45.0945 494.353 45.4722 490.199C45.8599 485.031 45.0379 480.048 44.7742 474.895C44.6967 473.348 42.3704 473.348 42.4479 474.895L42.4014 474.91Z" fill="black"/>
<path d="M129.624 397.042C126.212 426.062 122.65 455.05 118.938 484.008C115.206 513.12 111.308 542.223 107.244 571.314C105.239 585.695 103.171 600.071 101.041 614.441C98.9937 628.662 97.1636 642.961 94.7442 657.12C93.9687 661.638 92.5574 666.745 95.0388 671.047C97.5203 675.349 103.321 677.438 107.803 679.016C119.73 683.03 131.897 686.297 144.233 688.796C170.934 694.468 198.14 697.439 225.439 697.663C252.755 697.87 280.047 696.002 307.078 692.076C320.685 690.147 334.219 687.805 347.681 685.051C354.401 683.689 361.091 682.24 367.75 680.703C372.48 679.604 377.846 678.072 378.73 672.532C379.552 667.364 377.288 661.855 376.481 656.779C375.334 649.558 374.191 642.373 373.054 635.224C370.8 620.843 368.603 606.446 366.462 592.035C362.197 563.19 358.227 534.284 354.722 505.378C351.217 476.472 348.224 447.473 345.866 418.443C345.324 411.634 344.796 404.826 344.315 398.017C344.207 396.47 341.881 396.47 341.989 398.017C343.943 426.103 346.642 454.158 349.744 482.136C352.845 510.113 356.506 538.447 360.46 566.517C364.462 594.851 368.804 623.138 373.302 651.394C373.798 654.567 374.217 657.77 374.853 660.896C375.396 663.573 376.218 666.188 376.497 668.911C376.776 671.635 376.419 674.528 373.829 676.231C371.239 677.933 368.215 678.273 365.408 678.908C352.277 681.91 339.073 684.561 325.798 686.862C299.144 691.525 272.196 694.317 245.151 695.218C218.175 696.124 191.173 694.492 164.504 690.343C151.281 688.235 138.187 685.394 125.281 681.832C119.807 680.285 114.286 678.815 108.919 676.958C104.267 675.41 97.4117 673.136 96.1555 667.751C95.7517 665.142 95.8783 662.479 96.5277 659.921C97.086 656.826 97.5358 653.731 98.0786 650.636C99.1126 643.549 100.146 636.462 101.18 629.374C103.248 615.447 105.254 601.52 107.198 587.593C111.21 559.42 115.077 531.246 118.799 503.072C122.521 474.61 126.088 446.137 129.5 417.654C130.337 410.783 131.154 403.913 131.95 397.042C132.121 395.572 129.795 395.587 129.624 397.042Z" fill="black"/>
<path d="M118.659 494.377C119.07 492.338 118.871 490.223 118.086 488.296C117.658 487.32 116.956 486.488 116.064 485.903C115.172 485.318 114.128 485.004 113.061 485C112.752 485 112.456 485.122 112.238 485.34C112.02 485.558 111.897 485.853 111.897 486.161C111.897 486.468 112.02 486.764 112.238 486.981C112.456 487.199 112.752 487.321 113.061 487.321H113.479C113.805 487.321 113.262 487.321 113.572 487.321C113.788 487.358 114 487.41 114.208 487.476C114.208 487.476 114.627 487.662 114.348 487.476L114.581 487.584C114.755 487.678 114.921 487.787 115.077 487.909C114.844 487.739 115.077 487.909 115.077 487.909L115.309 488.141L115.48 488.327C115.48 488.404 115.48 488.42 115.48 488.327L115.573 488.466C115.684 488.613 115.782 488.768 115.868 488.93C115.918 489.014 115.96 489.102 115.992 489.194V489.348C115.992 489.178 115.992 489.209 115.992 489.348C116.1 489.72 116.24 490.091 116.333 490.478C116.426 490.865 116.333 490.88 116.442 491.097C116.442 490.772 116.442 491.097 116.442 491.19C116.442 491.283 116.442 491.391 116.442 491.499C116.473 491.922 116.473 492.346 116.442 492.768C116.442 492.969 116.442 493.17 116.442 493.387C116.442 493.604 116.442 493.728 116.442 493.387V493.728C116.365 494.023 116.406 494.336 116.556 494.602C116.707 494.868 116.955 495.065 117.248 495.151C117.544 495.232 117.86 495.193 118.128 495.042C118.395 494.891 118.592 494.641 118.675 494.346L118.659 494.377Z" fill="black"/>
<path d="M50.8377 495.599C51.9698 508.412 61.0581 520.358 73.791 523.283C86.524 526.207 99.9082 520.389 108.345 510.64C113.2 504.856 116.806 498.134 118.938 490.895C119.372 489.471 117.123 488.852 116.689 490.276C113.091 501.866 106.065 512.621 94.9764 518.269C84.3372 523.685 70.4876 522.989 61.8646 514.137C56.9553 509.097 53.8857 502.558 53.1485 495.568C53.0245 494.098 50.6981 494.021 50.8222 495.568L50.8377 495.599Z" fill="black"/>
<path d="M410.818 745.488C412.943 730.865 405.623 717.108 403.482 702.903C401.265 688.125 401.932 672.96 401.637 658.027C401.265 642.677 401.11 627.326 401.389 611.991C401.683 596.393 402.133 580.81 402.102 565.212C402.222 547.719 401.316 530.234 399.388 512.847C399.217 511.392 396.891 511.377 397.062 512.847C400.706 543.61 399.838 574.62 399.202 605.523C398.881 620.78 398.881 636.028 399.202 651.265C399.357 658.724 399.574 666.182 399.636 673.641C399.698 681.1 399.745 688.357 400.381 695.676C401.143 703.794 402.701 711.817 405.033 719.631C407.391 727.817 409.826 736.266 408.569 744.838C408.352 746.309 410.601 746.943 410.818 745.457V745.488Z" fill="black"/>
<path d="M106.779 677.037C102.623 698.701 96.9307 720.025 91.5801 741.395C91.4978 741.692 91.5374 742.01 91.6901 742.279C91.8428 742.547 92.0961 742.744 92.3943 742.826C92.6925 742.908 93.0112 742.869 93.2802 742.716C93.5493 742.564 93.7466 742.311 93.8289 742.014C99.164 720.644 104.856 699.305 109.012 677.64C109.291 676.186 107.058 675.567 106.779 677.037Z" fill="black"/>
<path d="M370.122 678.953C372.914 689.878 376.218 700.617 379.661 711.341C381.739 717.809 383.817 724.308 386.19 730.668C388.159 735.898 391.587 741.129 391.478 746.87C391.478 747.178 391.601 747.473 391.819 747.69C392.037 747.908 392.333 748.03 392.642 748.03C392.95 748.03 393.246 747.908 393.464 747.69C393.682 747.473 393.805 747.178 393.805 746.87C393.913 741.253 390.889 736.161 388.842 731.086C386.267 724.695 384.189 717.995 382.142 711.433C378.606 700.478 375.225 689.491 372.356 678.334C372.254 678.061 372.054 677.837 371.794 677.705C371.535 677.573 371.235 677.543 370.954 677.62C370.674 677.698 370.433 677.878 370.278 678.125C370.124 678.372 370.069 678.667 370.122 678.953Z" fill="black"/>
<path d="M340.267 149.295C338.716 139.902 334.172 126.625 322.943 129.271C319.927 129.791 317.2 131.38 315.262 133.745C313.325 136.11 312.308 139.093 312.397 142.146C311.274 139.924 310.345 137.61 309.621 135.229C308.383 131.411 306.734 127.737 304.705 124.273C303.03 121.441 301.603 109.68 303.232 103.785C304.86 97.889 299.695 101.231 299.695 101.231C299.695 101.231 290.53 100.814 288.25 96.3415C288.25 96.3415 278.944 102.083 275.843 95.1191C273.78 96.0475 267.607 104.404 260.628 100.659C253.649 96.9141 257.759 92.1016 257.759 92.1016C257.759 92.1016 245.817 100.566 240.125 101.665C234.433 102.763 226.043 104.76 223.407 101.077C220.77 97.3938 223.407 94.8869 223.407 94.8869C223.407 94.8869 204.904 103.429 202.33 103.212C199.755 102.996 195.661 102.361 195.351 101.17C195.192 99.0783 195.192 96.9782 195.351 94.8869C195.351 94.8869 188.372 101.866 171.792 96.6975C171.792 96.6975 164.612 105.642 142.186 105.007C142.186 105.007 143.287 118.563 142.325 120.961C140.347 128.404 138.819 135.959 137.75 143.585C137.792 144.839 137.635 146.093 137.285 147.299C137.285 147.299 134.183 139.778 131.081 139.422C127.979 139.066 123.203 137.875 120.38 139.933C117.763 141.733 115.54 144.045 113.847 146.73C112.154 149.414 111.026 152.414 110.532 155.546C109.136 164.429 110.113 175.029 113.463 180.708C116.813 186.387 124.785 202.372 144.14 206.055C145.536 208.345 155.477 243.069 176.43 258.513C193.366 271.001 202.283 275.689 205.09 277.082C206.613 277.47 208.09 278.02 209.495 278.722C211.201 279.295 212.922 279.806 214.659 280.27C218.224 281.189 221.853 281.836 225.516 282.204C233.94 283.043 242.447 282.324 250.609 280.084C253.897 279.218 258.085 277.16 261.884 276.169L261.776 275.751C261.776 275.535 267.731 271.945 271.733 269.005C275.734 266.064 291.103 251.534 295.865 244.153C300.626 236.771 313.064 209.598 314.212 192.283C314.212 192.283 318.865 191.602 320.633 189.884C322.401 188.166 331.132 180.94 333.04 177.242C334.947 173.543 341.802 158.688 340.267 149.295Z" fill="white"/>
<path d="M128.724 138.883C128.724 138.883 120.52 114.232 117.093 103.772C113.665 93.3111 112.052 79.7865 112.316 74.3705C112.58 68.9544 119.078 50.7566 127.313 41.7815C128.523 40.4507 129.779 39.1663 131.066 37.8974C132.354 36.6285 133.982 35.5298 132.617 33.6419C132.136 32.9611 131.47 32.3111 131.47 31.4755C131.509 31.1259 131.616 30.7875 131.787 30.4795C131.957 30.1715 132.187 29.9 132.462 29.6805C134.806 27.5937 137.629 26.1161 140.682 25.3786C143.101 24.6823 145.567 24.1407 147.925 23.3051C150.047 22.3793 152.051 21.2053 153.896 19.8079C158.002 17.1752 162.265 14.793 166.66 12.6742C173.387 9.36869 180.56 7.05438 187.953 5.80355C214.815 1.5481 238.839 -2.28954 270.306 8.71274C275.017 10.3509 279.64 12.231 284.156 14.3454C285.054 14.8494 285.987 15.2889 286.948 15.6607C288.171 15.9667 289.424 16.1431 290.685 16.1869C293.213 16.4035 295.741 16.4035 298.254 16.6975C299.604 16.8349 300.939 17.0992 302.239 17.4867C303.462 17.7753 304.553 18.4612 305.341 19.4365C305.716 19.9343 305.889 20.5548 305.826 21.1743C305.763 21.7937 305.468 22.3667 305 22.7789C304.51 23.0474 303.989 23.2553 303.449 23.3979C303.178 23.4723 302.929 23.6131 302.726 23.8077C302.523 24.0023 302.372 24.2444 302.286 24.5121C302.162 25.3013 303.279 25.6881 303.837 26.0595C304.752 26.694 305.62 27.4522 306.489 28.1485C307.885 29.3091 309.25 30.5006 310.552 31.7695C311.665 32.7919 312.701 33.8935 313.654 35.0656C313.654 35.0656 326.061 49.921 327.612 56.7297C329.163 63.5384 331.8 80.4983 328.931 93.698C326.061 106.898 323.301 113.536 321.409 129.428C318.643 131.574 316.05 133.934 313.654 136.485C313.654 136.485 312.91 140.446 312.677 141.328C312.444 142.21 311.281 141.328 311.281 141.328C311.281 141.328 309.125 134.411 307.451 130.171C305.776 125.931 301.511 120.979 301.604 115.749C301.931 110.646 302.526 105.563 303.387 100.522C303.387 100.522 294.376 103.694 287.583 97.1487C284.916 98.0617 278.805 100.367 275.533 95.0442C274.385 96.1274 265.964 103.988 260.722 100.522C255.48 97.0559 257.155 93.0016 257.155 93.0016C257.155 93.0016 240.824 105.211 227.858 103.462C220.104 102.023 224.027 95.0442 224.027 95.0442C224.027 95.0442 204.005 103.602 201.121 103.4C198.236 103.199 193.862 102.131 195.072 95.6323C195.072 95.6323 186.883 101.636 171.809 96.7309C167.885 98.8354 159.975 106.805 141.706 105.041C142.496 107.718 143.908 116.739 142.372 121.846C140.837 126.952 138.526 137.537 138.48 137.862C138.433 138.187 138.34 141.932 138.34 141.932L138.076 144.624L135.44 142.721L129.717 138.883H128.724Z" fill="#141414"/>
<path d="M177.252 190.33C177.369 190.32 177.484 190.353 177.578 190.423C177.64 190.491 177.685 190.573 177.709 190.661C177.733 190.75 177.736 190.843 177.718 190.933C177.685 191.116 177.605 191.287 177.485 191.428C177.398 191.55 177.287 191.652 177.159 191.729C177.031 191.806 176.889 191.857 176.741 191.877C176.586 191.876 176.436 191.822 176.318 191.723C176.199 191.624 176.118 191.487 176.089 191.336C175.934 190.639 176.88 190.33 177.252 190.33Z" fill="#828282"/>
<path d="M168.94 196.525C168.979 196.49 169.026 196.463 169.077 196.447C169.128 196.431 169.181 196.426 169.234 196.432C169.328 196.458 169.415 196.502 169.49 196.564C169.565 196.625 169.626 196.702 169.669 196.788C169.752 196.962 169.795 197.153 169.793 197.345C169.811 197.491 169.797 197.638 169.751 197.777C169.706 197.916 169.63 198.044 169.529 198.15C169.398 198.232 169.241 198.265 169.087 198.242C168.934 198.22 168.793 198.143 168.692 198.026C168.133 197.5 168.66 196.726 168.94 196.525Z" fill="#828282"/>
<path d="M185.487 191.883C185.526 191.845 185.573 191.816 185.623 191.797C185.674 191.779 185.728 191.771 185.782 191.774C185.877 191.801 185.965 191.848 186.04 191.912C186.115 191.976 186.175 192.056 186.216 192.146C186.297 192.321 186.345 192.51 186.356 192.703C186.37 192.847 186.352 192.992 186.304 193.128C186.256 193.264 186.178 193.389 186.077 193.492C185.947 193.576 185.792 193.611 185.638 193.591C185.485 193.572 185.343 193.498 185.239 193.384C184.696 192.842 185.208 192.068 185.487 191.883Z" fill="#828282"/>
<path d="M181.75 208.101C181.788 208.064 181.835 208.035 181.885 208.016C181.936 207.997 181.99 207.99 182.044 207.993C182.231 208.057 182.386 208.19 182.478 208.364C182.562 208.538 182.605 208.729 182.603 208.921C182.621 209.067 182.607 209.214 182.561 209.353C182.516 209.492 182.44 209.62 182.339 209.726C182.206 209.803 182.051 209.832 181.899 209.809C181.747 209.787 181.607 209.714 181.501 209.602C180.943 209.092 181.455 208.318 181.75 208.101Z" fill="#828282"/>
<path d="M173.39 205.805C173.466 205.716 173.57 205.656 173.685 205.635C173.764 205.627 173.844 205.643 173.913 205.682C173.982 205.721 174.038 205.78 174.073 205.851C174.144 205.995 174.171 206.157 174.15 206.316C174.142 206.613 174.02 206.895 173.809 207.105C173.706 207.209 173.572 207.278 173.426 207.3C173.281 207.323 173.132 207.297 173.003 207.229C172.522 206.919 173.096 206.083 173.39 205.805Z" fill="#828282"/>
<path d="M185.875 199.962C185.954 199.881 186.058 199.827 186.17 199.807C186.251 199.798 186.333 199.814 186.405 199.853C186.477 199.891 186.536 199.951 186.573 200.024C186.612 200.176 186.612 200.336 186.573 200.488C186.559 200.784 186.437 201.064 186.232 201.277C186.127 201.379 185.992 201.445 185.846 201.464C185.701 201.484 185.553 201.456 185.425 201.386C185.006 201.076 185.58 200.225 185.875 199.962Z" fill="#828282"/>
<path d="M177.702 198.751C177.741 198.619 177.823 198.505 177.935 198.426C178.023 198.377 178.121 198.352 178.222 198.352C178.322 198.352 178.421 198.377 178.509 198.426C178.678 198.542 178.812 198.703 178.896 198.89C178.981 199.039 179.035 199.204 179.053 199.374C179.072 199.544 179.056 199.717 179.005 199.881C178.941 200.044 178.823 200.182 178.672 200.272C178.52 200.362 178.342 200.398 178.167 200.376C177.407 200.314 177.547 199.153 177.702 198.751Z" fill="#828282"/>
<path d="M175.453 213.545C175.496 213.424 175.571 213.317 175.67 213.235C175.759 213.183 175.861 213.156 175.965 213.156C176.068 213.156 176.17 213.183 176.259 213.235C176.428 213.352 176.562 213.512 176.647 213.699C176.812 214.002 176.851 214.358 176.756 214.69C176.691 214.852 176.573 214.988 176.421 215.075C176.269 215.163 176.091 215.196 175.918 215.169C175.158 215.092 175.251 213.947 175.453 213.545Z" fill="#828282"/>
<path d="M280.992 187.814C281.044 187.792 281.099 187.781 281.155 187.781C281.211 187.781 281.267 187.792 281.318 187.814C281.381 187.885 281.426 187.969 281.451 188.061C281.475 188.152 281.477 188.248 281.458 188.34C281.426 188.522 281.34 188.689 281.21 188.82C281.128 188.946 281.018 189.052 280.889 189.13C280.76 189.208 280.615 189.255 280.465 189.269C280.31 189.268 280.161 189.213 280.042 189.115C279.923 189.016 279.843 188.879 279.814 188.727C279.674 188.108 280.62 187.814 280.992 187.814Z" fill="#828282"/>
<path d="M272.664 193.969C272.747 193.902 272.852 193.868 272.959 193.876C273.056 193.902 273.147 193.948 273.224 194.013C273.302 194.077 273.365 194.157 273.408 194.247C273.494 194.421 273.536 194.612 273.532 194.805C273.549 194.949 273.532 195.094 273.484 195.231C273.435 195.368 273.357 195.492 273.253 195.594C273.125 195.674 272.973 195.707 272.823 195.687C272.673 195.667 272.534 195.596 272.431 195.485C271.873 194.975 272.4 194.186 272.664 193.969Z" fill="#828282"/>
<path d="M289.228 189.314C289.267 189.279 289.314 189.252 289.365 189.236C289.416 189.22 289.469 189.215 289.522 189.222C289.616 189.247 289.703 189.291 289.778 189.353C289.853 189.414 289.914 189.491 289.957 189.577C290.04 189.751 290.083 189.942 290.081 190.135C290.099 190.28 290.085 190.427 290.039 190.566C289.994 190.706 289.918 190.833 289.817 190.939C289.685 191.021 289.529 191.054 289.375 191.032C289.222 191.009 289.081 190.932 288.979 190.815C288.468 190.336 288.948 189.531 289.228 189.314Z" fill="#828282"/>
<path d="M285.474 205.563C285.557 205.495 285.663 205.462 285.769 205.47C285.867 205.496 285.957 205.542 286.035 205.606C286.112 205.67 286.175 205.751 286.219 205.841C286.305 206.014 286.348 206.205 286.343 206.398C286.362 206.542 286.346 206.689 286.298 206.826C286.249 206.963 286.169 207.087 286.064 207.187C285.935 207.267 285.783 207.3 285.633 207.281C285.483 207.261 285.345 207.19 285.242 207.079C284.683 206.553 285.211 205.81 285.474 205.563Z" fill="#828282"/>
<path d="M277.115 203.289C277.196 203.206 277.298 203.148 277.41 203.119C277.491 203.112 277.572 203.129 277.644 203.167C277.715 203.206 277.774 203.264 277.813 203.335C277.886 203.484 277.913 203.651 277.891 203.815C277.872 204.11 277.752 204.389 277.549 204.604C277.442 204.702 277.307 204.765 277.163 204.784C277.019 204.804 276.872 204.779 276.743 204.713C276.247 204.388 276.836 203.552 277.115 203.289Z" fill="#828282"/>
<path d="M289.615 197.438C289.694 197.353 289.796 197.293 289.91 197.268C289.989 197.26 290.068 197.276 290.138 197.315C290.207 197.354 290.263 197.413 290.297 197.484C290.343 197.636 290.343 197.797 290.297 197.948C290.289 198.245 290.167 198.528 289.956 198.738C289.853 198.842 289.719 198.911 289.573 198.933C289.428 198.955 289.28 198.93 289.15 198.861C288.746 198.536 289.32 197.701 289.615 197.438Z" fill="#828282"/>
<path d="M281.441 196.211C281.476 196.086 281.553 195.977 281.658 195.902C281.747 195.848 281.849 195.82 281.953 195.82C282.057 195.82 282.159 195.848 282.248 195.902C282.41 196.026 282.542 196.184 282.635 196.366C282.721 196.517 282.775 196.685 282.793 196.858C282.812 197.03 282.795 197.205 282.744 197.372C282.679 197.534 282.561 197.67 282.409 197.757C282.257 197.845 282.08 197.878 281.907 197.851C281.147 197.774 281.271 196.629 281.441 196.211Z" fill="#828282"/>
<path d="M280.713 210.571C280.751 210.444 280.827 210.33 280.93 210.246C281.021 210.197 281.122 210.172 281.225 210.172C281.328 210.172 281.429 210.197 281.52 210.246C281.736 210.413 281.899 210.64 281.987 210.899C282.075 211.158 282.085 211.436 282.016 211.701C281.949 211.863 281.832 211.999 281.681 212.089C281.529 212.178 281.353 212.216 281.178 212.196C280.372 212.134 280.496 210.973 280.713 210.571Z" fill="#828282"/>
<path d="M302.643 100.395C302.131 107.591 299.634 115.591 302.209 122.648C303.574 126.392 306.443 129.394 307.978 133.093C309.541 137.128 310.684 141.312 311.39 145.581C313.914 158.573 314.728 171.838 313.809 185.04C311.886 210.96 302.845 237.282 284.684 256.393C275.361 266.341 263.752 273.877 250.858 278.351C237.449 282.68 222.976 282.424 209.728 277.623C182.82 268.199 161.294 244.276 150.437 218.403C147.799 211.907 145.805 205.17 144.482 198.286C142.683 189.543 141.039 180.769 139.984 171.902C138.845 163.136 138.502 154.285 138.961 145.457C139.225 140.916 139.826 136.4 140.76 131.948C141.194 129.843 141.721 127.754 142.311 125.758C143.039 123.739 143.62 121.671 144.048 119.568C144.668 115.065 143.691 110.562 143.164 106.105C142.978 104.558 140.651 104.558 140.837 106.105C141.411 110.856 142.636 115.87 141.489 120.636C140.419 125.062 138.852 129.286 138.03 133.789C136.509 142.689 136.031 151.735 136.603 160.745C137.181 169.844 138.321 178.898 140.015 187.857C141.239 195.784 142.991 203.621 145.257 211.316C153.927 238.349 174.104 263.371 199.71 276.091C212.116 282.408 226.132 284.876 239.955 283.179C253.914 281.322 267.034 274.575 277.875 265.785C298.797 248.764 310.63 223.076 314.756 196.909C316.827 183.713 317.088 170.298 315.531 157.032C314.833 149.423 313.32 141.911 311.018 134.625C309.496 130.9 307.61 127.334 305.388 123.978C303.294 120.373 303.325 116.133 303.651 112.109C303.977 108.086 304.69 104.372 304.969 100.442C305.078 98.8944 302.752 98.8944 302.643 100.442V100.395Z" fill="black"/>
<path d="M129.934 138.293C124.134 124.633 119.658 110.451 116.566 95.9396C115.216 89.6105 112.983 82.9101 113.557 76.38C114.039 72.7297 114.923 69.1437 116.193 65.6872C117.303 62.1665 118.672 58.7322 120.288 55.4122C122.716 50.0632 126.167 45.238 130.446 41.2067C131.964 40.0639 133.236 38.627 134.184 36.9822C134.517 36.3618 134.642 35.6515 134.541 34.9551C134.339 33.8873 133.284 33.4076 132.99 32.4173C132.152 28.8582 137.891 27.4345 140.341 27.0631C143.272 26.6299 146.296 26.4751 148.886 24.8967C151.756 23.1791 154.423 21.1365 157.323 19.4343C160.224 17.7321 163.186 16.1692 166.226 14.792C192.591 2.31963 223.314 -0.403858 251.742 5.13596C258.891 6.4806 265.923 8.38467 272.773 10.8305C278.976 13.1053 284.978 16.4168 291.538 17.6702C292.986 17.9642 294.453 18.1504 295.928 18.2273C297.847 18.1417 299.771 18.2038 301.681 18.413C303.232 18.7379 306.474 21.1674 303.589 22.4208C302.876 22.7303 302.193 22.5601 301.697 23.3029C300.037 25.7788 303.589 27.3726 305.047 28.5796C307.813 30.9528 310.448 33.4737 312.941 36.1311C317.905 41.1768 321.942 47.0536 324.867 53.4934C327.706 60.2721 329.105 67.5644 328.977 74.9099C328.977 89.7962 324.325 104.156 321.797 118.687C321.176 122.138 321.006 125.65 320.246 129.07C319.92 130.525 322.153 131.144 322.494 129.689C323.347 125.929 323.549 122.045 324.247 118.254C324.945 114.462 325.798 110.702 326.589 106.942C328.385 99.4434 329.783 91.8555 330.776 84.21C331.743 76.589 331.439 68.8609 329.877 61.3389C328.219 54.3237 325.142 47.7205 320.835 41.934C315.942 35.1356 309.982 29.1685 303.186 24.2623L303.76 25.2681C303.76 24.2932 303.325 24.9896 303.589 24.7884C303.923 24.6753 304.265 24.5874 304.613 24.5253C305.427 24.1994 306.11 23.6112 306.551 22.8541C306.941 22.0752 307.078 21.1942 306.942 20.3341C306.805 19.474 306.403 18.6779 305.791 18.0571C305.027 17.3319 304.123 16.7698 303.133 16.4053C302.144 16.0408 301.091 15.8815 300.037 15.9371C297.302 15.9921 294.567 15.8057 291.864 15.38C286.824 14.3587 282.187 12.0685 277.456 10.1497C272.102 7.98889 266.61 6.18475 261.017 4.74911C238.69 -1.01923 215.321 -1.49617 192.777 3.35641C182.346 5.59802 172.241 9.14929 162.705 13.9254C157.916 16.3398 153.299 19.0801 148.886 22.1268C144.699 24.9741 139.581 23.9528 135.238 26.0418C131.687 27.7285 129.221 31.3341 131.811 34.8777C132.23 35.4348 132.369 35.2955 132.044 36.0383C131.665 36.712 131.178 37.3185 130.601 37.8333C129.531 38.9475 128.321 39.8914 127.205 40.9282C123.866 44.3465 121.12 48.2946 119.078 52.6113C116.536 57.551 114.504 62.7358 113.014 68.0857C112.081 70.9657 111.468 73.9391 111.184 76.9525C111.108 79.6466 111.337 82.3407 111.866 84.9837C112.936 90.9723 114.332 96.9609 115.759 102.857C118.814 115.368 122.88 127.613 127.918 139.469C128.508 140.831 130.508 139.655 129.934 138.293Z" fill="black"/>
<path d="M138.169 145.255C135.3 139.483 129.391 135.816 122.908 137.688C115.758 139.762 111.54 146.973 109.88 153.812C106.236 168.761 111.617 185.179 122.629 195.732C128.675 201.512 136.224 205.485 144.419 207.199C145.892 207.508 146.513 205.28 145.039 204.971C135.086 202.917 126.199 197.374 119.988 189.346C113.777 181.318 110.654 171.337 111.183 161.209C111.509 154.246 113.711 146.168 119.651 141.851C120.892 140.9 122.317 140.219 123.837 139.852C125.357 139.484 126.937 139.437 128.476 139.715C130.199 140.165 131.795 141.004 133.139 142.169C134.484 143.334 135.542 144.792 136.23 146.431C136.897 147.762 138.898 146.586 138.246 145.255H138.169Z" fill="black"/>
<path d="M313.871 144.749C313.375 138.559 316.306 131.689 322.975 130.451C329.644 129.213 335.6 134.66 337.786 140.679C340.097 147.039 339.554 154.452 338.19 160.966C336.919 167.289 334.347 173.28 330.637 178.561C326.658 184.135 321.269 188.556 315.019 191.373C313.654 191.977 314.833 193.973 316.182 193.37C329.768 187.304 338.36 173.949 340.811 159.589C342.036 152.316 342.362 144.254 338.934 137.492C335.987 131.58 329.815 127.108 322.96 128.099C315.019 129.275 310.94 137.383 311.545 144.749C311.669 146.297 313.996 146.297 313.871 144.749Z" fill="black"/>
<path d="M129.918 101.617C137.564 106.445 146.978 107.017 155.648 105.284C164.069 103.597 173.312 99.5895 175.933 90.6608C175.974 90.5135 175.985 90.3596 175.967 90.2079C175.948 90.0562 175.899 89.9098 175.823 89.7768C175.748 89.6439 175.647 89.5272 175.526 89.4332C175.405 89.3393 175.267 89.27 175.119 89.2294C174.972 89.1888 174.817 89.1775 174.665 89.1964C174.513 89.2152 174.366 89.2637 174.233 89.3392C174.1 89.4146 173.983 89.5155 173.889 89.636C173.795 89.7566 173.725 89.8945 173.685 90.0418C171.25 98.367 162.161 101.725 154.407 103.164C146.652 104.603 138.014 103.984 131.143 99.605C129.872 98.8003 128.708 100.812 129.965 101.617H129.918Z" fill="black"/>
<path d="M171.033 97.4909C176.958 100.106 183.61 100.584 189.849 98.8417C196.089 97.0998 201.526 93.2468 205.23 87.9432C206.099 86.7207 204.083 85.5601 203.23 86.7671C199.849 91.5535 194.92 95.0325 189.271 96.6191C183.622 98.2057 177.598 97.8032 172.212 95.4792C170.847 94.8912 169.668 96.8874 171.033 97.4909Z" fill="black"/>
<path d="M194.436 95.1948C193.598 98.7694 193.893 102.22 197.708 103.83C201.523 105.439 205.695 103.706 209.371 102.359C217.862 99.5157 225.936 95.5555 233.379 90.5835C234.589 89.7324 233.379 87.7207 232.2 88.5873C226.268 92.6541 219.856 95.9752 213.109 98.4754C209.86 99.9276 206.493 101.098 203.043 101.973C201.265 102.437 199.375 102.181 197.786 101.261C195.785 99.9145 196.235 97.81 196.669 95.8138C197.01 94.3592 194.777 93.7402 194.436 95.1948Z" fill="black"/>
<path d="M221.902 95.3507C220.258 99.4669 223.329 103.366 227.237 104.512C231.89 105.873 237.349 103.939 241.785 102.438C250.734 99.3431 259.062 94.4223 264.614 86.6541C265.498 85.4316 263.482 84.2711 262.613 85.4781C257.859 91.7305 251.397 96.4805 244.003 99.1574C240.428 100.632 236.705 101.722 232.898 102.407C230.759 102.879 228.524 102.651 226.524 101.757C225.467 101.263 224.635 100.391 224.192 99.3128C223.75 98.235 223.73 97.0307 224.136 95.9387C224.694 94.5615 222.445 93.958 221.902 95.3198V95.3507Z" fill="black"/>
<path d="M256.115 92.4262C255.64 93.9563 255.687 95.6005 256.248 97.1013C256.809 98.6021 257.853 99.8749 259.217 100.72C260.634 101.537 262.227 102.004 263.862 102.082C265.497 102.16 267.126 101.847 268.615 101.169C271.651 99.7473 274.286 97.5991 276.289 94.9156C278.291 92.2321 279.597 89.0965 280.092 85.7877C280.325 84.3331 278.091 83.6986 277.843 85.1842C277.452 87.8506 276.483 90.3999 275.005 92.6552C273.526 94.9106 271.574 96.8178 269.282 98.2446C268.165 98.9849 266.895 99.4664 265.567 99.6538C264.239 99.8412 262.885 99.7298 261.605 99.3278C260.345 98.9159 259.298 98.0266 258.689 96.8514C258.079 95.6762 257.957 94.3093 258.349 93.0452C258.845 91.6215 256.596 91.018 256.115 92.4262Z" fill="black"/>
<path d="M274.711 93.6373C274.788 94.5613 275.054 95.4598 275.491 96.2781C275.928 97.0963 276.528 97.817 277.254 98.3963C277.979 98.9755 278.816 99.4011 279.712 99.6471C280.608 99.8931 281.545 99.9543 282.465 99.8271C284.402 99.52 286.206 98.6525 287.653 97.3321C289.101 96.0118 290.128 94.2967 290.607 92.3993C291.042 90.9602 288.808 90.3567 288.359 91.7804C288.016 93.1794 287.288 94.4551 286.258 95.4638C285.228 96.4726 283.936 97.1745 282.527 97.4904C281.91 97.6242 281.271 97.6284 280.652 97.5028C280.032 97.3772 279.446 97.1245 278.93 96.7607C278.413 96.3969 277.978 95.9301 277.653 95.3897C277.327 94.8494 277.117 94.2473 277.037 93.6218C276.944 92.0744 274.618 92.0744 274.711 93.6218V93.6373Z" fill="black"/>
<path d="M286.343 97.0695C287.849 98.8124 289.723 100.201 291.831 101.135C293.939 102.07 296.227 102.526 298.533 102.473C300.839 102.42 303.104 101.858 305.166 100.827C307.228 99.7966 309.036 98.323 310.46 96.5125C311.375 95.3519 309.731 93.6961 308.8 94.8722C307.595 96.4643 306.045 97.7652 304.267 98.6783C302.489 99.5914 300.527 100.093 298.528 100.147C296.529 100.2 294.543 99.8041 292.718 98.9874C290.894 98.1707 289.276 96.9546 287.987 95.4293C286.994 94.2996 285.366 95.9399 286.343 97.0695Z" fill="black"/>
<path d="M316.088 162.478C316.536 159.847 317.205 157.259 318.089 154.74C318.658 153.092 319.451 151.53 320.446 150.098C321.312 148.728 322.663 147.733 324.231 147.313C325.105 147.079 326.035 147.198 326.822 147.644C327.608 148.09 328.187 148.827 328.434 149.696C328.759 151.15 331.008 150.531 330.682 149.077C330.361 147.879 329.651 146.821 328.663 146.068C327.676 145.315 326.466 144.909 325.223 144.914C324.13 144.921 323.051 145.164 322.061 145.626C321.07 146.088 320.191 146.759 319.485 147.591C318.076 149.249 316.978 151.147 316.244 153.193C315.137 156.019 314.337 158.955 313.855 161.951C313.607 163.406 315.84 164.04 316.088 162.57V162.478Z" fill="black"/>
<path d="M121.683 166.099C121.19 165.794 120.786 165.366 120.509 164.857C120.232 164.348 120.092 163.777 120.103 163.198C120.114 162.619 120.275 162.054 120.571 161.556C120.867 161.058 121.288 160.645 121.792 160.358C122.833 159.832 123.972 159.524 125.137 159.452C126.303 159.38 127.47 159.546 128.569 159.941C131.154 160.89 133.341 162.684 134.773 165.032C135.591 166.14 136.234 167.366 136.68 168.668C136.897 169.365 137.006 170.076 137.177 170.788C137.452 171.456 137.675 172.144 137.843 172.846C137.983 174.394 140.309 174.394 140.17 172.846C140.1 172.201 139.933 171.569 139.674 170.974C139.44 170.249 139.254 169.51 139.115 168.761C138.762 167.356 138.192 166.014 137.425 164.784C136.061 162.385 134.141 160.348 131.826 158.842C127.964 156.521 121.094 156.072 118.535 160.56C117.86 161.844 117.696 163.336 118.075 164.736C118.455 166.136 119.35 167.341 120.582 168.111C121.792 168.993 122.955 166.966 121.761 166.099H121.683Z" fill="black"/>
<path d="M200.205 145.477H171.405C166.771 145.477 163.015 149.221 163.015 153.84C163.015 158.46 166.771 162.204 171.405 162.204H200.205C204.839 162.204 208.596 158.46 208.596 153.84C208.596 149.221 204.839 145.477 200.205 145.477Z" fill="white"/>
<path d="M200.206 161.039H174.414C171.979 161.039 169.544 161.255 167.404 159.847C166.299 159.083 165.428 158.028 164.886 156.8C164.344 155.572 164.154 154.219 164.335 152.889C164.516 151.56 165.063 150.307 165.914 149.268C166.765 148.229 167.887 147.445 169.157 147.003C171.194 146.572 173.286 146.452 175.36 146.648H196.158C198.763 146.648 201.71 146.292 204.021 147.715C210.224 151.537 207.262 160.838 200.237 161.054C199.928 161.054 199.632 161.176 199.414 161.394C199.196 161.612 199.073 161.907 199.073 162.215C199.073 162.523 199.196 162.818 199.414 163.035C199.632 163.253 199.928 163.375 200.237 163.375C201.491 163.364 202.731 163.107 203.886 162.617C205.041 162.128 206.088 161.416 206.967 160.523C207.846 159.63 208.541 158.573 209.01 157.412C209.48 156.252 209.716 155.01 209.705 153.758C209.694 152.506 209.435 151.269 208.945 150.117C208.455 148.964 207.741 147.92 206.846 147.043C205.951 146.165 204.892 145.473 203.728 145.004C202.565 144.535 201.321 144.3 200.066 144.311C193.18 144.156 186.294 144.311 179.408 144.311C176.771 144.311 174.119 144.311 171.467 144.311C170.182 144.252 168.898 144.454 167.693 144.902C166.487 145.351 165.385 146.038 164.452 146.922C163.519 147.807 162.775 148.87 162.264 150.048C161.753 151.226 161.486 152.495 161.479 153.779C161.471 155.063 161.724 156.335 162.221 157.519C162.719 158.703 163.451 159.774 164.374 160.669C165.296 161.564 166.391 162.263 167.591 162.726C168.791 163.188 170.073 163.404 171.359 163.36C173.484 163.36 175.608 163.36 177.717 163.36H200.175C200.483 163.364 200.781 163.246 201.002 163.031C201.223 162.816 201.349 162.523 201.353 162.215C201.357 161.907 201.239 161.61 201.024 161.39C200.808 161.169 200.514 161.043 200.206 161.039Z" fill="black"/>
<path d="M185.736 158.257C188.211 158.257 190.218 156.254 190.218 153.785C190.218 151.315 188.211 149.312 185.736 149.312C183.261 149.312 181.254 151.315 181.254 153.785C181.254 156.254 183.261 158.257 185.736 158.257Z" fill="black"/>
<path d="M285.21 145.477H256.41C251.776 145.477 248.02 149.221 248.02 153.84C248.02 158.46 251.776 162.204 256.41 162.204H285.21C289.844 162.204 293.601 158.46 293.601 153.84C293.601 149.221 289.844 145.477 285.21 145.477Z" fill="white"/>
<path d="M285.21 161.039H259.418C256.984 161.039 254.549 161.256 252.408 159.847C251.303 159.083 250.432 158.028 249.89 156.8C249.349 155.572 249.158 154.219 249.339 152.89C249.521 151.56 250.067 150.307 250.918 149.268C251.769 148.229 252.891 147.446 254.161 147.004C256.199 146.572 258.291 146.452 260.365 146.648H281.162C283.768 146.648 286.714 146.292 289.025 147.715C295.229 151.538 292.267 160.838 285.241 161.054C284.932 161.054 284.637 161.177 284.418 161.394C284.2 161.612 284.078 161.907 284.078 162.215C284.078 162.523 284.2 162.818 284.418 163.036C284.637 163.253 284.932 163.376 285.241 163.376C286.527 163.419 287.808 163.204 289.009 162.741C290.209 162.279 291.303 161.579 292.226 160.685C293.149 159.79 293.881 158.718 294.378 157.534C294.876 156.35 295.128 155.078 295.121 153.795C295.114 152.511 294.847 151.242 294.336 150.064C293.825 148.885 293.081 147.822 292.148 146.938C291.215 146.054 290.113 145.367 288.907 144.918C287.702 144.469 286.418 144.268 285.132 144.327C278.246 144.172 271.36 144.327 264.474 144.327C261.838 144.327 259.186 144.327 256.534 144.327C255.248 144.268 253.965 144.469 252.759 144.918C251.554 145.367 250.451 146.054 249.518 146.938C248.586 147.822 247.841 148.885 247.33 150.064C246.82 151.242 246.552 152.511 246.545 153.795C246.538 155.078 246.79 156.35 247.288 157.534C247.785 158.718 248.517 159.79 249.44 160.685C250.363 161.579 251.457 162.279 252.657 162.741C253.858 163.204 255.139 163.419 256.425 163.376C258.55 163.376 260.675 163.376 262.784 163.376H285.21C285.52 163.376 285.818 163.252 286.038 163.033C286.258 162.814 286.381 162.517 286.381 162.207C286.381 161.897 286.258 161.6 286.038 161.381C285.818 161.162 285.52 161.039 285.21 161.039Z" fill="black"/>
<path d="M270.802 158.319C273.278 158.319 275.285 156.317 275.285 153.847C275.285 151.377 273.278 149.375 270.802 149.375C268.327 149.375 266.32 151.377 266.32 153.847C266.32 156.317 268.327 158.319 270.802 158.319Z" fill="black"/>
<path d="M205.23 128.156H164.426C161.642 128.156 159.386 130.408 159.386 133.185C159.386 135.963 161.642 138.215 164.426 138.215H205.23C208.014 138.215 210.271 135.963 210.271 133.185C210.271 130.408 208.014 128.156 205.23 128.156Z" fill="black"/>
<path d="M293.352 128.156H252.548C249.764 128.156 247.508 130.408 247.508 133.185C247.508 135.963 249.764 138.215 252.548 138.215H293.352C296.136 138.215 298.393 135.963 298.393 133.185C298.393 130.408 296.136 128.156 293.352 128.156Z" fill="black"/>
<path d="M231.224 181.808C228.851 183.168 226.676 184.845 224.756 186.79C222.66 188.652 221.083 191.025 220.181 193.677C219.916 194.963 219.959 196.293 220.307 197.56C220.654 198.826 221.297 199.993 222.182 200.965C224.142 203.004 226.569 204.539 229.254 205.437C230.65 206.01 231.255 203.766 229.874 203.209C226.028 201.661 220.569 198.211 222.787 193.243C223.82 191.23 225.219 189.425 226.912 187.92C228.563 186.329 230.407 184.952 232.402 183.819C232.67 183.663 232.864 183.408 232.942 183.109C233.021 182.81 232.977 182.492 232.821 182.226C232.665 181.959 232.409 181.765 232.109 181.687C231.809 181.608 231.491 181.652 231.224 181.808Z" fill="black"/>
<path d="M209.185 228.384C215.324 232.954 222.762 235.455 230.421 235.528C238.08 235.6 245.563 233.239 251.788 228.787C252.982 227.92 251.788 225.909 250.609 226.775C244.735 231.036 237.643 233.297 230.381 233.225C223.119 233.152 216.073 230.75 210.286 226.373C209.076 225.475 207.929 227.502 209.107 228.384H209.185Z" fill="black"/>
<path d="M256.131 227.211C255.958 227.211 255.792 227.279 255.67 227.401C255.548 227.523 255.479 227.688 255.479 227.861C255.479 228.033 255.548 228.199 255.67 228.32C255.792 228.442 255.958 228.511 256.131 228.511C256.304 228.511 256.469 228.442 256.591 228.32C256.714 228.199 256.782 228.033 256.782 227.861C256.782 227.688 256.714 227.523 256.591 227.401C256.469 227.279 256.304 227.211 256.131 227.211Z" fill="black"/>
<path d="M6.59067 212.216C6.59067 212.216 3.19419 214.32 3.95413 216.858C4.71407 219.396 14.8105 248.364 14.8105 248.364L19.9594 263.374C19.9594 263.374 16.1597 266.562 15.6169 268.016C15.0741 269.471 14.066 271.9 14.4382 272.194C14.8105 272.488 17.2764 277.749 17.2764 277.749L16.2993 279.003C16.2993 279.003 11.2744 274.082 8.5448 275.041C5.81522 276.001 1.08496 281.541 1.08496 281.541C1.08496 281.541 3.10113 289.061 7.59875 293.177C12.0964 297.294 12.5306 299.042 12.5306 299.042C12.5306 299.042 11.2279 305.541 12.8253 309.255C14.4227 312.969 17.6176 325.921 25.9614 330.687C34.3053 335.453 35.0187 336.877 35.0187 336.877C36.0111 340.574 36.6498 344.356 36.9263 348.173C37.0039 352.506 37.7173 399.316 39.0045 424.199C40.2918 449.082 43.4711 471.225 46.3093 479.303C49.1474 487.381 56.1575 507.451 75.5438 514.167C80.8688 516.15 86.6851 516.407 92.1649 514.901C97.6447 513.395 102.509 510.204 106.066 505.78C106.066 505.78 114.906 496.959 113.82 486.576C112.734 476.193 113.091 466.382 110.455 458.227C107.818 450.072 87.4082 370.317 87.4082 370.317L76.0866 322.672C76.0866 322.672 83.0967 308.265 84.2289 293.889C85.361 279.514 87.2376 277.146 87.2066 275.815C87.0948 272.415 86.2631 269.077 84.7662 266.021C83.2694 262.965 81.1412 260.259 78.5215 258.082C70.0071 250.762 68.999 251.706 62.7489 254.228L61.1979 251.257C61.1979 251.257 59.0267 213.423 59.3834 210.9C59.5294 208.758 59.3357 206.607 58.8096 204.525C58.8488 203.747 58.7254 202.969 58.4473 202.241C58.1692 201.513 57.7424 200.851 57.194 200.297C56.6456 199.742 55.9876 199.308 55.2618 199.021C54.536 198.734 53.7584 198.6 52.9782 198.629C46.8831 198.381 45.0686 198.335 44.5878 199.681C44.107 201.028 41.61 209.848 41.61 209.848L40.8966 255.327H39.5939L25.9614 228.479L16.0822 211.628C16.0822 211.628 12.8408 209.755 10.9332 209.956C9.33032 210.365 7.844 211.138 6.59067 212.216Z" fill="white"/>
<path d="M33.2504 336.363C36.6003 343.002 35.6233 351.373 35.7163 358.584C35.8094 366.538 35.8869 374.492 36.0265 382.43C36.3057 398.199 36.8019 413.967 38.0427 429.674C39.1438 443.724 40.0278 458.007 43.0056 471.795C45.6576 484.05 50.2793 496.554 59.3366 505.653C67.4323 513.746 78.4592 518.032 89.8894 516.036C94.9929 515.22 99.7984 513.101 103.839 509.886C107.88 506.67 111.019 502.467 112.951 497.683C115.092 492.066 115.293 485.66 115.014 479.718C114.618 473.056 113.626 466.443 112.052 459.957C108.95 446.695 104.918 433.65 101.785 420.435C95.0539 391.916 87.3614 363.644 80.5374 335.141C79.6275 331.344 78.7332 327.553 77.8544 323.767C77.5131 322.312 75.2643 322.931 75.6055 324.386C82.0108 352.054 89.4086 379.49 96.1705 407.065C99.4119 420.296 102.545 433.511 106.205 446.633C109.71 459.214 113.23 472.228 112.734 485.397C112.783 491.193 111.227 496.891 108.237 501.861C105.334 506.18 101.248 509.575 96.4652 511.641C91.1994 513.893 85.413 514.651 79.7431 513.832C74.0732 513.013 68.7399 510.648 64.3305 506.999C54.4667 499.076 49.2247 487.083 46.1849 475.091C42.8195 461.876 41.982 448.165 40.7723 434.625C39.4385 419.429 38.8181 404.187 38.4924 388.945C38.3218 381.208 38.2133 373.563 38.1202 365.873C38.1202 358.646 38.3684 351.265 37.686 344.069C37.4479 340.971 36.6216 337.946 35.251 335.156C34.5842 333.825 32.568 335.001 33.2504 336.332V336.363Z" fill="black"/>
<path d="M39.0198 335.794C30.9033 333.8 23.8104 328.886 19.102 321.995C14.3936 315.104 12.4013 306.721 13.5074 298.454C13.709 296.907 11.3827 297 11.1811 298.454C10.0778 307.23 12.2391 316.105 17.2556 323.398C22.272 330.691 29.7951 335.894 38.3994 338.022C39.8573 338.378 40.4776 336.134 39.0198 335.778V335.794Z" fill="black"/>
<path d="M16.2529 301.254C20.4248 303.126 26.3182 304.117 29.3115 299.707C31.1726 296.968 30.0249 294.012 28.505 291.412C26.7714 288.607 24.7719 285.975 22.534 283.551C20.3099 280.919 17.8549 278.491 15.1983 276.294C13.027 274.561 10.5456 273.199 7.75394 273.942C5.22617 274.673 3.03259 276.259 1.55033 278.429C0.709782 279.518 0.192855 280.821 0.0584899 282.189C-0.075875 283.557 0.17773 284.935 0.790387 286.166C2.49768 289.493 4.76379 292.502 7.49029 295.064C10.0396 297.648 13.0205 299.769 16.2994 301.331C17.6487 301.966 18.8274 299.97 17.4781 299.335C12.7854 296.995 8.71441 293.58 5.59819 289.37C4.04728 287.435 1.82949 284.604 2.34129 281.988C2.94366 279.932 4.33012 278.193 6.20304 277.145C7.10804 276.5 8.19253 276.153 9.30484 276.153C10.4172 276.153 11.5016 276.5 12.4066 277.145C14.5442 278.625 16.5012 280.349 18.238 282.282C20.0836 284.232 21.8672 286.259 23.5421 288.348C25.3831 290.389 26.8339 292.749 27.8226 295.312C27.9654 295.901 27.9795 296.514 27.8639 297.109C27.7483 297.704 27.5057 298.267 27.1526 298.76C26.7996 299.254 26.3442 299.665 25.8176 299.967C25.2909 300.269 24.7053 300.455 24.1005 300.511C21.8136 300.771 19.5007 300.356 17.4471 299.32C16.0668 298.654 14.8881 300.65 16.2529 301.254Z" fill="black"/>
<path d="M24.1313 286.043C27.9775 290.685 33.9795 296.457 40.4313 292.867C42.9437 291.459 44.5567 289.339 44.0294 286.399C43.2714 283.286 42.0313 280.31 40.3537 277.578C38.7424 274.663 36.8574 271.906 34.724 269.346C32.8484 266.915 30.6876 264.718 28.2877 262.8C23.0146 258.947 16.5629 262.413 14.1435 267.86C12.7477 270.955 14.4226 274.468 16.2372 277.145C18.5325 280.426 21.5568 283.072 24.1313 286.12C25.0928 287.265 26.7368 285.609 25.7752 284.48C22.4253 280.518 17.4004 276.851 16.0976 271.59C15.4773 269.052 17.3228 266.684 19.1994 265.106C20.1464 264.218 21.3562 263.659 22.6478 263.514C23.9394 263.369 25.2434 263.645 26.3646 264.301C28.2986 265.716 30.0353 267.381 31.5291 269.253C33.3414 271.254 34.9906 273.396 36.461 275.659C37.9359 277.915 39.2273 280.285 40.3227 282.747C41.1912 284.727 42.8352 287.714 40.9896 289.555C39.9497 290.603 38.5996 291.289 37.139 291.512C35.6783 291.734 34.1846 291.483 32.8784 290.793C30.073 289.21 27.6527 287.028 25.7908 284.402C24.8137 283.257 23.2628 284.898 24.1313 286.043Z" fill="black"/>
<path d="M72.7986 328.875C81.0494 319.715 83.7945 307.567 85.2058 295.667C85.5936 292.263 85.7332 288.812 86.4156 285.47C87.0049 282.545 87.8424 279.682 88.1991 276.711C88.5449 273.969 88.2778 271.184 87.417 268.557C86.5563 265.929 85.1232 263.525 83.2207 261.516C81.4216 259.442 79.5606 257.415 77.684 255.403C76.1683 253.659 74.2529 252.305 72.1007 251.457C67.0293 249.662 62.0664 252.633 59.0421 256.626C57.2586 258.993 55.9403 261.748 54.3894 264.255C52.563 267.065 50.5745 269.767 48.4339 272.348C45.0065 276.588 41.4084 282.251 43.6417 287.822C44.0797 288.988 44.7715 290.042 45.6673 290.909C46.563 291.776 47.6404 292.434 48.8217 292.836C51.7064 293.733 54.5445 292.449 56.8709 290.762C62.298 286.753 67.0649 281.924 70.9996 276.448C71.8836 275.241 69.8674 274.081 68.9989 275.272C65.8988 279.484 62.3122 283.318 58.3132 286.692C56.4211 288.24 54.2033 290.344 51.6598 290.762C50.3003 290.886 48.9415 290.518 47.8312 289.725C46.7208 288.933 45.933 287.769 45.6113 286.445C43.8898 280.719 48.7131 275.613 52.0165 271.558C55.32 267.504 57.5067 263.001 60.3604 258.73C63.214 254.459 68.27 251.457 73.0468 254.444C74.757 255.665 76.2732 257.136 77.5444 258.808C79.0953 260.603 80.8633 262.258 82.3522 264.115C83.9471 266.146 85.0557 268.514 85.5933 271.037C86.1309 273.561 86.0833 276.174 85.454 278.677C84.9887 281.075 84.3218 283.427 83.9031 285.826C83.4378 288.487 83.2827 291.18 83.0036 293.857C81.7784 305.695 79.3745 318.105 71.1547 327.235C70.1621 328.334 71.7905 329.99 72.7986 328.875Z" fill="black"/>
<path d="M67.0449 279.168C68.954 281.92 69.9172 285.216 69.79 288.561C69.79 290.108 72.0698 290.108 72.1163 288.561C72.2349 284.803 71.1482 281.106 69.0145 278.007C68.8569 277.755 68.6092 277.571 68.3215 277.494C68.0337 277.416 67.7272 277.45 67.4636 277.589C67.2078 277.744 67.0215 277.991 66.9435 278.279C66.8656 278.568 66.9019 278.875 67.0449 279.137V279.168Z" fill="black"/>
<path d="M20.8594 263.059C18.2383 255.678 15.881 248.204 13.1049 240.916L8.77784 229.851C7.39754 226.339 5.31933 222.517 4.90058 218.725C4.52837 215.259 6.66861 212.83 9.70838 211.545C10.299 211.233 10.9458 211.041 11.6113 210.98C12.2768 210.919 12.9479 210.99 13.5856 211.189C15.0468 212.212 16.2646 213.544 17.1527 215.089C21.0145 220.443 23.4649 226.648 26.4581 232.528C30.506 240.622 34.7244 248.653 38.8654 256.715C39.5478 258.046 41.5639 256.87 40.8815 255.539C36.6941 247.384 32.4291 239.275 28.3347 231.089C25.0933 224.559 22.3948 217.658 17.711 211.963C15.8344 209.673 13.9113 208.156 10.825 208.744C8.11505 209.297 5.69374 210.802 4.00106 212.984C1.8298 215.924 2.45016 219.654 3.58232 222.872C5.02466 226.989 6.68412 231.012 8.32808 235.082C11.9727 244.49 15.2296 254.1 18.6106 263.663C19.1069 265.056 21.3557 264.452 20.8594 263.044V263.059Z" fill="black"/>
<path d="M41.5324 256.872C41.8426 248.175 42.1579 239.479 42.4785 230.782C42.7886 222.271 42.1993 213.451 43.8898 205.048C44.4016 202.51 45.3166 199.864 48.1393 199.23C49.5919 198.902 51.1016 198.92 52.546 199.283C53.9903 199.646 55.3285 200.343 56.4521 201.319C59.1352 204.042 58.7785 208.685 58.7164 212.151C58.7164 216.391 59.0111 220.569 59.2902 224.794C59.9416 234.651 60.1898 244.523 60.5155 254.396C60.5155 255.943 62.8883 255.943 62.8418 254.396C62.5161 244.523 62.268 234.651 61.6166 224.794C61.446 222.287 61.1979 219.764 61.0583 217.258C60.9187 214.751 61.0583 212.399 61.0583 209.954C61.0583 206.503 60.7946 202.65 58.3907 199.942C54.9942 196.12 46.8675 195.067 43.5641 199.508C41.6565 202.077 41.3618 205.605 41.0051 208.669C40.4313 213.621 40.4158 218.619 40.3382 223.587C40.1831 234.666 39.6093 245.746 39.2061 256.826C39.2061 258.373 41.4859 258.373 41.5324 256.826V256.872Z" fill="black"/>
<path d="M36.2902 262.398C37.4328 260.933 38.9642 259.818 40.7103 259.179C42.8488 258.557 45.0774 258.3 47.3016 258.421C47.6101 258.421 47.906 258.298 48.1241 258.081C48.3423 257.863 48.4648 257.568 48.4648 257.26C48.4648 256.952 48.3423 256.657 48.1241 256.439C47.906 256.222 47.6101 256.099 47.3016 256.099C44.8089 255.952 42.3098 256.246 39.9193 256.966C37.8516 257.718 36.0284 259.018 34.6463 260.726C34.4357 260.948 34.3184 261.241 34.3184 261.546C34.3184 261.852 34.4357 262.145 34.6463 262.367C34.8644 262.584 35.16 262.706 35.4682 262.706C35.7765 262.706 36.0721 262.584 36.2902 262.367V262.398Z" fill="black"/>
<path d="M48.7906 291.551C46.5434 294.252 44.9301 297.419 44.0687 300.823C43.2073 304.226 43.1197 307.778 43.8122 311.219C44.1068 312.689 46.3401 312.07 46.0455 310.616C45.4495 307.568 45.5338 304.427 46.2923 301.415C47.0509 298.404 48.4652 295.596 50.4345 293.191C51.3806 292.046 49.7366 290.391 48.7906 291.551Z" fill="black"/>
</g>
<defs>
<clipPath id="clip0_1717_191">
<rect width="420" height="748" fill="white"/>
</clipPath>
</defs>
</svg>
