<svg width="442" height="623" viewBox="0 0 442 623" fill="none" xmlns="http://www.w3.org/2000/svg">
<g filter="url(#filter0_d_4988_3559)">
<rect x="20" y="105" width="420" height="514" rx="16" fill="white"/>
<rect x="21" y="106" width="418" height="512" rx="15" stroke="black" stroke-width="2"/>
</g>
<g clip-path="url(#clip0_4988_3559)">
<path d="M270.506 281.758L279.66 314.134C281.024 318.96 282.404 324.04 281.357 328.961C279.914 335.718 273.98 340.845 267.444 343.203C260.909 345.561 253.801 345.355 246.821 344.785C240.438 344.46 234.108 343.447 227.943 341.763C221.729 340.075 215.997 336.959 211.207 332.664C209.248 331.026 207.8 328.862 207.034 326.429C206.633 324.065 206.741 321.643 207.352 319.324L211.064 299.782L212.888 290.129C213.348 287.724 213.142 284.701 216.331 285.382C222.074 286.706 227.906 287.61 233.781 288.087C239.678 288.386 245.59 288.073 251.422 287.154C257.975 286.116 264.382 284.305 270.506 281.758Z" fill="white"/>
<path d="M404.605 763.716L422.055 761.991C422.055 761.991 422.753 752.718 421.389 746.989C420.025 741.261 414.932 719.962 413.854 713.996C412.775 708.03 412.267 655.747 412.267 655.747C412.267 655.747 417.677 550.026 408.745 519.659C399.814 489.293 363.089 491.002 363.089 491.002L342.291 514.849C342.291 514.849 346.606 701.717 349.049 707.904C353.516 717.761 358.515 727.37 364.025 736.688C366.055 739.505 374.558 746.372 376.177 748.002C377.795 749.632 404.605 763.716 404.605 763.716Z" fill="white"/>
<path d="M90.5448 371.624C90.5448 371.624 106.948 342.223 127.905 329.611C148.861 316.999 181.715 303.295 210.857 302.014C210.397 307.726 206.511 324.421 206.511 324.421C206.511 324.421 207.05 331.336 215.886 335.798C224.723 340.261 239.349 347.492 254.388 344.929C269.427 342.365 276.186 339.105 278.549 333.456C280.913 327.807 280.532 316.936 278.121 309.277C275.71 301.618 275.456 300.32 275.456 300.32C275.456 300.32 302.694 305.068 309.563 306.476C316.433 307.884 358.139 319.135 381.094 345.593C404.05 372.051 413.996 418.97 422.452 461.521C430.907 504.072 431.304 515.988 431.304 515.988C431.304 515.988 432.985 524.865 417.328 523.694C401.67 522.523 365.246 518.045 365.246 518.045L384.806 658.247C384.806 658.247 389.106 676.888 389.407 679.309C389.621 681.9 389.621 684.504 389.407 687.095C389.264 687.506 386.551 692.586 384.029 693.978C381.507 695.371 384.521 700.862 384.521 700.862C384.521 700.862 398.878 746.34 400.686 750.55C402.495 754.759 405.604 759.316 404.621 764.427L97.7947 758.43L102.554 740.216L113.341 693.06C113.341 693.06 102.237 687.87 100.856 684.705C99.4762 681.54 100.492 676.398 101.205 670.242C101.919 664.086 122.273 523.631 122.273 523.631C122.273 523.631 119.512 526.305 119.624 525.656C119.735 525.008 101.713 551.197 74.4745 542.003C47.236 532.809 47.5057 499.689 47.5057 499.689L48.2196 486.666C48.2196 486.666 71.9998 413.669 90.5448 371.624Z" fill="#141414"/>
<path d="M266.762 286.965C267.905 286.393 268.928 285.609 269.777 284.655C270.193 284.167 270.478 283.58 270.603 282.951C270.728 282.323 270.689 281.672 270.49 281.062C254.246 289.291 234.574 291.222 217.552 284.734C216.458 284.322 215.046 283.927 214.252 284.734C213.895 285.188 213.685 285.74 213.65 286.316C213.091 288.218 212.803 290.189 212.793 292.171C213.063 293.959 214.649 294.022 216.188 294.339C220.346 295.161 224.563 295.653 228.8 295.811C237.272 296.134 245.737 295.015 253.833 292.503C258.037 291.222 263.145 289.623 266.762 286.965Z" fill="#141414"/>
<path d="M212.904 283.435L209.287 304.102L207.415 314.862C206.713 317.937 206.278 321.065 206.114 324.214C206.114 330.133 210.064 333.598 214.744 336.526C229.125 345.383 246.378 348.364 262.907 344.849C272.109 342.602 280.453 336.478 281.452 326.461C282.182 319.34 279.565 312.03 277.835 305.209L271.839 281.473C271.757 281.169 271.557 280.91 271.283 280.752C271.01 280.595 270.684 280.553 270.379 280.635C270.074 280.716 269.814 280.916 269.657 281.189C269.499 281.462 269.457 281.786 269.539 282.09L274.393 301.238C275.868 307.077 277.566 312.932 278.676 318.866C279.676 324.547 279.263 330.338 275.503 334.975C272.783 338.141 269.219 340.472 265.224 341.7C256.229 344.722 245.869 344.501 236.668 342.649C231.214 341.558 225.929 339.754 220.947 337.285C216.41 335.006 209.636 331.81 208.621 326.208C208.018 322.917 209.002 319.42 209.557 316.176L211.429 305.463L215.188 284.037C215.442 282.549 213.158 281.9 212.888 283.404L212.904 283.435Z" fill="black"/>
<path d="M211.381 300.711C192.267 302.579 173.499 307.051 155.603 314.003C137.819 321.029 120.94 330.983 107.678 344.924C100.266 352.653 94.2352 361.591 89.8467 371.35C89.2438 372.743 91.2903 373.945 91.909 372.553C99.5872 355.273 112.659 341.205 128.396 330.761C144.133 320.317 162.123 313.165 180.462 308.607C190.651 306.053 201.01 304.229 211.46 303.148C212.967 302.99 213.047 300.616 211.46 300.774L211.381 300.711Z" fill="black"/>
<path d="M276.201 301.487C300.553 304.652 325.031 310.206 347.082 321.299C357.517 326.3 367.061 332.971 375.336 341.047C382.911 348.839 389.279 357.714 394.23 367.379C399.23 377.094 403.232 387.29 406.175 397.809C409.951 410.911 413.139 424.156 415.995 437.464C418.851 450.772 421.389 464.365 423.768 477.8C425.783 489.257 427.925 500.729 429.797 512.202C430.241 515.003 430.907 519.101 428.559 521.285C427.113 522.405 425.311 522.967 423.483 522.867C420.31 522.946 417.058 522.503 413.885 522.282C401.003 521.364 388.138 520.288 375.351 518.452C372.179 517.993 368.863 517.471 365.627 516.87C364.136 516.617 363.485 518.895 364.992 519.164C378.159 521.411 391.422 522.867 404.652 523.912C408.079 524.181 411.521 524.434 414.948 524.671C418.104 525.065 421.287 525.213 424.466 525.114C427.734 524.845 430.812 523.532 431.938 520.209C433.065 516.886 432.383 513.167 431.764 509.86C430.749 504.511 429.797 499.178 428.892 493.814C426.481 479.572 424.006 465.331 421.214 451.089C418.422 436.847 415.392 423.159 411.791 409.36C408.954 397.625 405.187 386.132 400.528 374.99C396.104 364.717 390.309 355.088 383.299 346.364C376.024 337.512 367.238 330.012 357.346 324.211C335.453 311.156 310.388 304.304 285.355 300.474C282.309 300 279.247 299.572 276.201 299.177C274.615 298.971 274.694 301.345 276.201 301.55V301.487Z" fill="black"/>
<path d="M46.3477 485.601C46.6015 490.728 47.474 495.729 47.0933 500.871C46.7131 504.989 46.9646 509.14 47.8389 513.183C49.6104 520.518 53.2873 527.258 58.4995 532.725C63.6351 538.38 70.3888 542.323 77.8459 544.021C85.303 545.72 93.1032 545.091 100.19 542.22C108.469 538.661 115.604 532.896 120.813 525.557C121.733 524.323 119.655 523.136 118.767 524.354C109.883 536.46 94.9709 545.211 79.5352 542.125C65.4955 539.308 54.1528 527.488 50.5199 513.895C49.4512 509.765 49.1024 505.483 49.4887 501.235C49.8853 495.95 49.0445 490.855 48.7749 485.585C48.6955 484.003 46.3159 484.003 46.3952 485.585L46.3477 485.601Z" fill="black"/>
<path d="M135.567 405.973C132.077 435.649 128.433 465.293 124.637 494.905C120.819 524.676 116.831 554.436 112.675 584.185C110.623 598.891 108.508 613.592 106.329 628.287C104.235 642.829 102.363 657.451 99.8887 671.93C99.0955 676.551 97.6518 681.773 100.19 686.172C102.728 690.571 108.661 692.707 113.246 694.321C125.447 698.426 137.892 701.766 150.511 704.322C177.823 710.122 205.652 713.16 233.575 713.389C261.516 713.601 289.432 711.691 317.083 707.677C331.001 705.704 344.845 703.309 358.615 700.493C365.489 699.1 372.332 697.618 379.143 696.046C383.982 694.923 389.47 693.356 390.375 687.691C391.216 682.406 388.899 676.772 388.074 671.582C386.901 664.197 385.732 656.85 384.569 649.539C382.263 634.833 380.016 620.111 377.826 605.374C373.464 575.877 369.402 546.318 365.817 516.758C362.232 487.199 359.17 457.544 356.759 427.858C356.204 420.895 355.664 413.933 355.172 406.97C355.061 405.388 352.682 405.388 352.793 406.97C354.792 435.691 357.552 464.38 360.725 492.99C363.898 521.6 367.642 550.574 371.687 579.279C375.78 608.254 380.222 637.18 384.822 666.075C385.33 669.319 385.758 672.595 386.409 675.791C386.964 678.529 387.805 681.203 388.09 683.988C388.376 686.773 388.011 689.732 385.362 691.473C382.712 693.214 379.619 693.562 376.748 694.21C363.316 697.28 349.81 699.991 336.231 702.344C308.967 707.113 281.402 709.968 253.738 710.889C226.144 711.816 198.525 710.147 171.245 705.904C157.72 703.749 144.326 700.843 131.125 697.201C125.525 695.619 119.877 694.115 114.388 692.217C109.629 690.634 102.617 688.308 101.332 682.801C100.919 680.134 101.049 677.411 101.713 674.794C102.284 671.629 102.744 668.464 103.299 665.3C104.357 658.052 105.415 650.805 106.472 643.557C108.587 629.315 110.639 615.074 112.627 600.832C116.731 572.021 120.686 543.211 124.494 514.4C128.301 485.294 131.95 456.178 135.44 427.051C136.297 420.025 137.132 412.999 137.946 405.973C138.121 404.47 135.741 404.486 135.567 405.973Z" fill="black"/>
<path d="M124.351 505.511C124.771 503.426 124.567 501.263 123.764 499.292C123.327 498.294 122.609 497.444 121.696 496.845C120.783 496.247 119.716 495.926 118.624 495.922C118.308 495.922 118.006 496.047 117.783 496.269C117.559 496.492 117.434 496.794 117.434 497.109C117.434 497.423 117.559 497.725 117.783 497.948C118.006 498.17 118.308 498.296 118.624 498.296H119.052C119.385 498.296 118.83 498.296 119.147 498.296C119.368 498.333 119.585 498.386 119.798 498.454C119.798 498.454 120.226 498.644 119.941 498.454L120.179 498.564C120.357 498.66 120.527 498.772 120.686 498.897C120.448 498.723 120.686 498.897 120.686 498.897L120.924 499.134L121.099 499.324C121.099 499.403 121.099 499.419 121.099 499.324L121.194 499.466C121.307 499.616 121.408 499.775 121.495 499.941C121.547 500.026 121.59 500.116 121.622 500.21V500.368C121.622 500.194 121.622 500.226 121.622 500.368C121.733 500.748 121.876 501.128 121.971 501.524C122.066 501.919 121.971 501.935 122.082 502.157C122.082 501.824 122.082 502.157 122.082 502.252C122.082 502.346 122.082 502.457 122.082 502.568C122.114 503 122.114 503.434 122.082 503.866C122.082 504.071 122.082 504.277 122.082 504.499C122.082 504.72 122.082 504.847 122.082 504.499V504.847C122.004 505.149 122.046 505.469 122.2 505.741C122.353 506.013 122.607 506.214 122.907 506.303C123.21 506.385 123.533 506.345 123.807 506.191C124.08 506.037 124.281 505.781 124.367 505.48L124.351 505.511Z" fill="black"/>
<path d="M54.9775 506.761C56.1356 519.864 65.4319 532.08 78.4563 535.071C91.4807 538.061 105.171 532.111 113.801 522.142C118.767 516.227 122.456 509.353 124.636 501.951C125.081 500.495 122.78 499.862 122.336 501.318C118.656 513.17 111.469 524.168 100.127 529.944C89.2438 535.482 75.0773 534.77 66.2569 525.719C61.2352 520.565 58.0953 513.877 57.3413 506.73C57.2144 505.226 54.8348 505.147 54.9617 506.73L54.9775 506.761Z" fill="black"/>
<path d="M423.197 762.303C425.371 747.35 417.883 733.282 415.694 718.755C413.425 703.643 414.107 688.135 413.806 672.865C413.425 657.168 413.266 641.47 413.552 625.788C413.853 609.837 414.313 593.903 414.282 577.952C414.404 560.063 413.477 542.183 411.505 524.403C411.331 522.915 408.951 522.899 409.126 524.403C412.854 555.861 411.966 587.573 411.315 619.174C410.987 634.776 410.987 650.368 411.315 665.95C411.474 673.577 411.696 681.204 411.759 688.832C411.823 696.459 411.87 703.881 412.521 711.365C413.301 719.666 414.895 727.871 417.28 735.861C419.691 744.232 422.182 752.872 420.897 761.639C420.675 763.142 422.975 763.791 423.197 762.272V762.303Z" fill="black"/>
<path d="M351.032 152.627C349.445 143.021 344.797 129.444 333.312 132.15C330.226 132.682 327.436 134.307 325.455 136.725C323.473 139.144 322.433 142.194 322.524 145.316C321.375 143.044 320.425 140.678 319.685 138.243C318.418 134.338 316.732 130.582 314.656 127.039C312.942 124.143 311.483 112.117 313.149 106.088C314.814 100.059 309.532 103.477 309.532 103.477C309.532 103.477 300.156 103.05 297.824 98.4764C297.824 98.4764 288.305 104.347 285.133 97.2263C283.023 98.1758 276.709 106.721 269.57 102.891C262.431 99.0619 266.635 94.1406 266.635 94.1406C266.635 94.1406 254.42 102.796 248.598 103.92C242.776 105.043 234.193 107.085 231.496 103.319C228.8 99.5525 231.496 96.989 231.496 96.989C231.496 96.989 212.571 105.724 209.937 105.502C207.304 105.281 203.116 104.632 202.798 103.414C202.636 101.275 202.636 99.1275 202.798 96.989C202.798 96.989 195.66 104.126 178.701 98.8404C178.701 98.8404 171.356 107.987 148.417 107.338C148.417 107.338 149.543 121.2 148.559 123.653C146.535 131.264 144.973 138.989 143.879 146.788C143.923 148.071 143.762 149.352 143.404 150.585C143.404 150.585 140.231 142.895 137.058 142.531C133.885 142.167 128.999 140.949 126.112 143.053C123.435 144.894 121.161 147.259 119.43 150.004C117.698 152.748 116.544 155.816 116.038 159.02C114.61 168.103 115.61 178.942 119.036 184.75C122.463 190.557 130.617 206.904 150.415 210.67C151.843 213.012 162.012 248.521 183.444 264.314C200.768 277.084 209.89 281.879 212.761 283.303C214.319 283.7 215.829 284.262 217.266 284.98C219.011 285.566 220.772 286.088 222.549 286.563C226.195 287.503 229.907 288.164 233.654 288.541C242.271 289.398 250.972 288.663 259.322 286.373C262.685 285.486 266.968 283.382 270.855 282.369L270.744 281.942C270.744 281.72 276.836 278.049 280.929 275.043C285.022 272.036 300.743 257.177 305.613 249.629C310.483 242.081 323.206 214.294 324.38 196.586C324.38 196.586 329.139 195.89 330.948 194.134C332.756 192.377 341.688 184.987 343.639 181.205C345.59 177.423 352.602 162.232 351.032 152.627Z" fill="white"/>
<path d="M134.647 141.98C134.647 141.98 126.254 116.772 122.749 106.075C119.243 95.378 117.593 81.5477 117.862 76.0092C118.132 70.4708 124.779 51.8615 133.203 42.6835C134.44 41.3226 135.725 40.0092 137.042 38.7117C138.359 37.4141 140.024 36.2906 138.628 34.36C138.137 33.6637 137.454 32.9991 137.454 32.1446C137.495 31.7871 137.605 31.441 137.779 31.126C137.953 30.8111 138.188 30.5334 138.47 30.309C140.867 28.175 143.755 26.664 146.878 25.9099C149.353 25.1978 151.875 24.644 154.286 23.7895C156.457 22.8428 158.507 21.6423 160.394 20.2132C164.594 17.521 168.954 15.0849 173.45 12.9183C180.332 9.53804 187.668 7.17142 195.231 5.89232C222.708 1.54067 247.281 -2.38372 279.469 8.86726C284.288 10.5425 289.016 12.465 293.636 14.6273C294.554 15.1426 295.509 15.5921 296.491 15.9723C297.743 16.2852 299.025 16.4656 300.314 16.5103C302.9 16.7319 305.486 16.7319 308.056 17.0325C309.438 17.1731 310.803 17.4433 312.133 17.8396C313.383 18.1347 314.499 18.8361 315.306 19.8334C315.689 20.3425 315.866 20.977 315.802 21.6105C315.737 22.244 315.435 22.8299 314.957 23.2514C314.456 23.526 313.923 23.7386 313.371 23.8844C313.093 23.9604 312.839 24.1045 312.631 24.3035C312.423 24.5024 312.268 24.75 312.181 25.0237C312.054 25.8308 313.196 26.2264 313.767 26.6062C314.703 27.2549 315.592 28.0303 316.48 28.7424C317.908 29.9292 319.304 31.1477 320.636 32.4453C321.774 33.4908 322.835 34.6172 323.809 35.8158C323.809 35.8158 336.5 51.007 338.087 57.9697C339.673 64.9323 342.37 82.2756 339.435 95.7736C336.5 109.272 333.677 116.06 331.741 132.312C328.912 134.506 326.26 136.919 323.809 139.527C323.809 139.527 323.048 143.578 322.81 144.48C322.572 145.382 321.382 144.48 321.382 144.48C321.382 144.48 319.177 137.407 317.464 133.071C315.75 128.735 311.388 123.672 311.483 118.323C311.817 113.104 312.426 107.907 313.307 102.752C313.307 102.752 304.09 105.996 297.142 99.3024C294.413 100.236 288.163 102.594 284.815 97.1503C283.641 98.258 275.027 106.297 269.665 102.752C264.303 99.2075 266.017 95.0615 266.017 95.0615C266.017 95.0615 249.312 107.547 236.049 105.759C228.117 104.287 232.131 97.1503 232.131 97.1503C232.131 97.1503 211.65 105.901 208.7 105.695C205.749 105.49 201.275 104.398 202.513 97.7516C202.513 97.7516 194.137 103.891 178.717 98.8751C174.703 101.027 166.613 109.177 147.925 107.373C148.734 110.11 150.177 119.336 148.607 124.558C147.036 129.78 144.673 140.603 144.625 140.936C144.577 141.268 144.482 145.098 144.482 145.098L144.213 147.851L141.516 145.905L135.662 141.98H134.647Z" fill="#141414"/>
<path d="M184.285 194.595C184.404 194.586 184.523 194.619 184.618 194.69C184.682 194.76 184.727 194.844 184.752 194.935C184.777 195.025 184.78 195.12 184.761 195.213C184.728 195.399 184.646 195.574 184.523 195.719C184.434 195.843 184.321 195.948 184.19 196.027C184.059 196.105 183.913 196.157 183.762 196.178C183.604 196.177 183.451 196.121 183.329 196.02C183.208 195.919 183.125 195.779 183.096 195.624C182.937 194.912 183.905 194.595 184.285 194.595Z" fill="#828282"/>
<path d="M175.782 200.926C175.823 200.889 175.87 200.862 175.922 200.846C175.974 200.829 176.029 200.824 176.083 200.831C176.179 200.857 176.268 200.902 176.345 200.965C176.421 201.028 176.484 201.106 176.528 201.195C176.613 201.373 176.657 201.567 176.655 201.765C176.673 201.913 176.659 202.064 176.612 202.206C176.566 202.348 176.488 202.479 176.385 202.587C176.25 202.672 176.09 202.705 175.933 202.682C175.776 202.659 175.632 202.58 175.528 202.461C174.957 201.923 175.496 201.132 175.782 200.926Z" fill="#828282"/>
<path d="M192.709 196.182C192.749 196.143 192.796 196.114 192.848 196.095C192.9 196.076 192.955 196.068 193.01 196.071C193.108 196.099 193.198 196.147 193.274 196.212C193.351 196.278 193.413 196.359 193.455 196.451C193.537 196.63 193.586 196.823 193.597 197.021C193.612 197.168 193.594 197.316 193.544 197.456C193.495 197.595 193.416 197.722 193.312 197.828C193.179 197.914 193.02 197.95 192.863 197.929C192.706 197.909 192.562 197.834 192.455 197.717C191.9 197.163 192.424 196.372 192.709 196.182Z" fill="#828282"/>
<path d="M188.886 212.76C188.926 212.722 188.973 212.692 189.025 212.673C189.077 212.654 189.132 212.646 189.187 212.649C189.379 212.715 189.537 212.851 189.632 213.029C189.717 213.207 189.761 213.402 189.758 213.599C189.777 213.747 189.763 213.898 189.716 214.04C189.67 214.183 189.592 214.313 189.489 214.422C189.353 214.5 189.194 214.53 189.038 214.507C188.883 214.484 188.74 214.409 188.632 214.295C188.061 213.773 188.585 212.982 188.886 212.76Z" fill="#828282"/>
<path d="M180.335 210.418C180.413 210.328 180.519 210.266 180.636 210.244C180.717 210.236 180.799 210.253 180.87 210.293C180.941 210.332 180.998 210.393 181.033 210.466C181.106 210.613 181.134 210.778 181.112 210.94C181.104 211.244 180.979 211.533 180.763 211.747C180.658 211.854 180.521 211.924 180.372 211.947C180.223 211.97 180.071 211.944 179.938 211.874C179.447 211.558 180.034 210.703 180.335 210.418Z" fill="#828282"/>
<path d="M193.106 204.442C193.187 204.359 193.293 204.304 193.407 204.284C193.49 204.275 193.574 204.291 193.648 204.33C193.722 204.37 193.782 204.431 193.82 204.505C193.859 204.661 193.859 204.824 193.82 204.98C193.805 205.282 193.681 205.569 193.471 205.787C193.363 205.891 193.225 205.959 193.077 205.979C192.928 205.998 192.777 205.97 192.646 205.898C192.218 205.581 192.804 204.711 193.106 204.442Z" fill="#828282"/>
<path d="M184.745 203.205C184.785 203.071 184.869 202.954 184.983 202.873C185.073 202.823 185.174 202.797 185.277 202.797C185.38 202.797 185.481 202.823 185.57 202.873C185.744 202.992 185.881 203.156 185.967 203.348C186.054 203.5 186.109 203.668 186.128 203.843C186.147 204.017 186.13 204.193 186.078 204.36C186.012 204.528 185.892 204.669 185.737 204.761C185.582 204.852 185.4 204.89 185.221 204.867C184.444 204.803 184.587 203.617 184.745 203.205Z" fill="#828282"/>
<path d="M182.445 218.335C182.489 218.211 182.566 218.102 182.667 218.018C182.759 217.965 182.863 217.938 182.969 217.938C183.075 217.938 183.179 217.965 183.27 218.018C183.443 218.137 183.58 218.302 183.667 218.493C183.836 218.803 183.875 219.167 183.778 219.506C183.712 219.672 183.591 219.811 183.435 219.9C183.28 219.989 183.099 220.023 182.921 219.996C182.144 219.917 182.239 218.746 182.445 218.335Z" fill="#828282"/>
<path d="M290.4 192.018C290.452 191.996 290.509 191.984 290.566 191.984C290.623 191.984 290.68 191.996 290.733 192.018C290.797 192.09 290.844 192.177 290.868 192.27C290.893 192.364 290.896 192.461 290.876 192.556C290.843 192.742 290.755 192.913 290.622 193.047C290.538 193.176 290.426 193.284 290.294 193.364C290.162 193.443 290.014 193.492 289.86 193.505C289.702 193.505 289.549 193.449 289.427 193.348C289.306 193.247 289.223 193.107 289.194 192.952C289.051 192.319 290.019 192.018 290.4 192.018Z" fill="#828282"/>
<path d="M281.88 198.315C281.965 198.246 282.073 198.212 282.182 198.22C282.281 198.246 282.374 198.294 282.454 198.359C282.533 198.425 282.597 198.507 282.642 198.6C282.729 198.777 282.773 198.972 282.769 199.169C282.785 199.317 282.768 199.466 282.719 199.606C282.669 199.745 282.589 199.872 282.483 199.976C282.352 200.058 282.196 200.092 282.043 200.072C281.89 200.051 281.748 199.979 281.642 199.866C281.071 199.343 281.611 198.536 281.88 198.315Z" fill="#828282"/>
<path d="M298.823 193.551C298.864 193.514 298.912 193.487 298.964 193.471C299.016 193.454 299.071 193.449 299.125 193.456C299.22 193.482 299.31 193.527 299.386 193.59C299.463 193.653 299.525 193.731 299.569 193.82C299.655 193.998 299.698 194.192 299.696 194.39C299.715 194.538 299.7 194.689 299.654 194.831C299.607 194.973 299.529 195.104 299.426 195.212C299.292 195.297 299.132 195.33 298.974 195.307C298.817 195.284 298.674 195.205 298.57 195.086C298.046 194.595 298.538 193.772 298.823 193.551Z" fill="#828282"/>
<path d="M294.984 210.166C295.069 210.098 295.177 210.064 295.286 210.071C295.385 210.098 295.478 210.145 295.558 210.211C295.637 210.277 295.701 210.359 295.746 210.451C295.834 210.628 295.878 210.823 295.873 211.021C295.892 211.168 295.876 211.318 295.826 211.458C295.777 211.598 295.695 211.725 295.587 211.828C295.456 211.91 295.3 211.943 295.147 211.923C294.994 211.903 294.852 211.83 294.746 211.717C294.175 211.179 294.715 210.42 294.984 210.166Z" fill="#828282"/>
<path d="M286.434 207.84C286.516 207.755 286.621 207.695 286.735 207.666C286.818 207.659 286.901 207.676 286.974 207.715C287.048 207.754 287.108 207.814 287.148 207.887C287.222 208.039 287.25 208.21 287.227 208.378C287.208 208.679 287.085 208.964 286.878 209.185C286.768 209.285 286.63 209.349 286.483 209.369C286.335 209.389 286.185 209.363 286.053 209.295C285.545 208.963 286.148 208.109 286.434 207.84Z" fill="#828282"/>
<path d="M299.22 201.856C299.301 201.769 299.406 201.708 299.521 201.682C299.602 201.674 299.684 201.69 299.755 201.73C299.826 201.77 299.883 201.83 299.918 201.903C299.965 202.058 299.965 202.223 299.918 202.378C299.91 202.682 299.785 202.97 299.569 203.185C299.464 203.292 299.326 203.362 299.178 203.385C299.029 203.408 298.877 203.382 298.744 203.312C298.332 202.979 298.919 202.125 299.22 201.856Z" fill="#828282"/>
<path d="M290.86 200.611C290.896 200.483 290.974 200.371 291.082 200.294C291.173 200.24 291.277 200.211 291.383 200.211C291.489 200.211 291.594 200.24 291.685 200.294C291.85 200.421 291.986 200.583 292.081 200.769C292.169 200.924 292.224 201.095 292.243 201.272C292.262 201.448 292.245 201.627 292.192 201.797C292.126 201.964 292.005 202.103 291.85 202.192C291.694 202.281 291.513 202.315 291.336 202.288C290.558 202.209 290.685 201.038 290.86 200.611Z" fill="#828282"/>
<path d="M290.114 215.291C290.153 215.161 290.231 215.045 290.336 214.959C290.429 214.909 290.533 214.883 290.638 214.883C290.743 214.883 290.847 214.909 290.939 214.959C291.161 215.13 291.327 215.362 291.417 215.626C291.508 215.891 291.518 216.176 291.447 216.446C291.379 216.612 291.259 216.752 291.104 216.843C290.949 216.934 290.769 216.973 290.59 216.953C289.765 216.889 289.892 215.703 290.114 215.291Z" fill="#828282"/>
<path d="M312.546 102.624C312.023 109.982 309.468 118.163 312.102 125.379C313.498 129.208 316.433 132.278 318.003 136.06C319.602 140.186 320.771 144.466 321.493 148.83C324.075 162.116 324.907 175.681 323.968 189.182C322.001 215.687 312.752 242.604 294.175 262.147C284.639 272.321 272.765 280.027 259.576 284.602C245.86 289.029 231.055 288.767 217.505 283.858C189.981 274.221 167.961 249.757 156.857 223.299C154.158 216.656 152.118 209.766 150.765 202.727C148.925 193.787 147.243 184.814 146.164 175.747C144.999 166.783 144.648 157.731 145.117 148.704C145.387 144.06 146.002 139.442 146.957 134.889C147.402 132.737 147.941 130.601 148.544 128.56C149.289 126.495 149.883 124.38 150.321 122.23C150.955 117.625 149.956 113.02 149.416 108.463C149.226 106.88 146.846 106.88 147.037 108.463C147.624 113.321 148.877 118.448 147.703 123.322C146.608 127.847 145.006 132.167 144.165 136.772C142.61 145.873 142.12 155.124 142.706 164.338C143.297 173.642 144.463 182.901 146.196 192.062C147.448 200.168 149.239 208.182 151.558 216.051C160.426 243.696 181.065 269.284 207.257 282.291C219.947 288.751 234.284 291.275 248.424 289.539C262.701 287.64 276.122 280.741 287.211 271.752C308.612 254.346 320.716 228.078 324.936 201.319C327.055 187.825 327.322 174.106 325.729 160.54C325.015 152.76 323.467 145.078 321.113 137.627C319.555 133.818 317.627 130.172 315.354 126.74C313.212 123.053 313.244 118.717 313.577 114.603C313.91 110.488 314.64 106.691 314.926 102.671C315.037 101.089 312.657 101.089 312.546 102.671V102.624Z" fill="black"/>
<path d="M135.884 141.379C129.951 127.41 125.372 112.907 122.209 98.0684C120.829 91.5963 118.545 84.7444 119.132 78.0666C119.624 74.3339 120.529 70.6668 121.828 67.1321C122.964 63.5318 124.364 60.0199 126.016 56.6249C128.501 51.155 132.03 46.2207 136.407 42.0983C137.96 40.9296 139.261 39.4603 140.231 37.7783C140.571 37.1438 140.699 36.4174 140.596 35.7053C140.389 34.6134 139.311 34.1229 139.009 33.1101C138.152 29.4706 144.022 28.0148 146.529 27.635C149.527 27.1919 152.62 27.0337 155.27 25.4196C158.205 23.6631 160.933 21.5743 163.9 19.8337C166.866 18.093 169.896 16.4948 173.006 15.0864C199.975 2.33212 231.401 -0.452933 260.48 5.21212C267.793 6.58715 274.985 8.53427 281.992 11.0354C288.337 13.3616 294.476 16.7479 301.187 18.0297C302.667 18.3303 304.168 18.5207 305.676 18.5994C307.64 18.5119 309.608 18.5754 311.562 18.7893C313.148 19.1216 316.464 21.606 313.513 22.8877C312.784 23.2042 312.086 23.0301 311.578 23.7897C309.88 26.3216 313.513 27.9515 315.005 29.1857C317.834 31.6126 320.529 34.1904 323.079 36.9079C328.157 42.0677 332.286 48.0773 335.279 54.6627C338.182 61.5946 339.614 69.0517 339.483 76.5633C339.483 91.7862 334.724 106.471 332.138 121.33C331.503 124.859 331.329 128.451 330.551 131.948C330.218 133.435 332.503 134.068 332.852 132.581C333.724 128.736 333.93 124.764 334.644 120.887C335.358 117.01 336.231 113.165 337.04 109.319C338.877 101.651 340.306 93.892 341.323 86.0736C342.312 78.2803 342.001 70.3776 340.403 62.6855C338.707 55.5118 335.559 48.7593 331.154 42.842C326.149 35.8899 320.053 29.788 313.101 24.7708L313.688 25.7994C313.688 24.8024 313.244 25.5145 313.513 25.3088C313.855 25.1932 314.205 25.1032 314.56 25.0398C315.394 24.7064 316.092 24.1049 316.543 23.3308C316.942 22.5343 317.082 21.6333 316.943 20.7538C316.803 19.8743 316.392 19.0602 315.766 18.4253C314.984 17.6837 314.059 17.109 313.047 16.7362C312.035 16.3635 310.958 16.2005 309.88 16.2574C307.082 16.3137 304.285 16.123 301.52 15.6877C296.364 14.6433 291.621 12.3013 286.782 10.3392C281.306 8.12954 275.688 6.28461 269.967 4.81652C247.129 -1.08222 223.225 -1.56994 200.165 3.39234C189.495 5.68462 179.159 9.31617 169.405 14.2002C164.506 16.6692 159.783 19.4715 155.27 22.5871C150.986 25.4987 145.751 24.4543 141.309 26.5906C137.677 28.3154 135.154 32.0024 137.803 35.6262C138.232 36.1959 138.375 36.0534 138.041 36.813C137.655 37.5019 137.156 38.1222 136.566 38.6486C135.471 39.7879 134.234 40.7532 133.092 41.8134C129.677 45.309 126.867 49.3464 124.779 53.7607C122.179 58.812 120.101 64.114 118.576 69.5848C117.622 72.53 116.994 75.5705 116.704 78.6521C116.627 81.4071 116.861 84.1621 117.402 86.8648C118.497 92.9888 119.925 99.1128 121.384 105.142C124.509 117.936 128.668 130.457 133.822 142.582C134.424 143.974 136.471 142.772 135.884 141.379Z" fill="black"/>
<path d="M144.308 148.5C141.373 142.597 135.329 138.847 128.698 140.762C121.384 142.882 117.069 150.256 115.372 157.25C111.644 172.537 117.149 189.326 128.412 200.118C134.596 206.029 142.318 210.091 150.701 211.844C152.208 212.16 152.843 209.882 151.335 209.565C141.154 207.465 132.064 201.797 125.711 193.588C119.358 185.378 116.163 175.171 116.704 164.814C117.037 157.693 119.29 149.433 125.366 145.018C126.635 144.047 128.093 143.35 129.648 142.974C131.202 142.598 132.819 142.551 134.393 142.835C136.155 143.294 137.787 144.153 139.163 145.344C140.539 146.535 141.621 148.026 142.325 149.702C143.007 151.063 145.053 149.861 144.387 148.5H144.308Z" fill="black"/>
<path d="M324.032 147.98C323.524 141.651 326.522 134.625 333.344 133.359C340.165 132.093 346.257 137.663 348.494 143.819C350.858 150.322 350.302 157.902 348.906 164.564C347.606 171.03 344.976 177.156 341.181 182.556C337.111 188.256 331.599 192.777 325.205 195.658C323.809 196.276 325.015 198.317 326.395 197.7C340.292 191.497 349.081 177.84 351.587 163.156C352.841 155.718 353.174 147.474 349.668 140.559C346.654 134.514 340.34 129.941 333.328 130.953C325.205 132.156 321.033 140.448 321.652 147.98C321.779 149.563 324.158 149.563 324.032 147.98Z" fill="black"/>
<path d="M135.868 103.874C143.689 108.811 153.319 109.397 162.187 107.624C170.801 105.9 180.256 101.801 182.937 92.6707C182.979 92.52 182.99 92.3626 182.971 92.2075C182.951 92.0524 182.902 91.9026 182.824 91.7667C182.747 91.6308 182.644 91.5114 182.52 91.4154C182.396 91.3193 182.255 91.2485 182.104 91.2069C181.953 91.1654 181.795 91.1539 181.64 91.1731C181.484 91.1924 181.334 91.242 181.198 91.3192C181.062 91.3963 180.942 91.4995 180.846 91.6227C180.749 91.746 180.678 91.887 180.637 92.0377C178.146 100.551 168.85 103.985 160.918 105.457C152.986 106.928 144.149 106.295 137.122 101.817C135.821 100.994 134.631 103.051 135.916 103.874H135.868Z" fill="black"/>
<path d="M177.924 99.6511C183.984 102.325 190.789 102.814 197.171 101.032C203.553 99.2511 209.115 95.3111 212.904 89.8875C213.792 88.6374 211.73 87.4506 210.858 88.6849C207.4 93.5794 202.358 97.1371 196.58 98.7596C190.801 100.382 184.639 99.9704 179.13 97.5939C177.734 96.9926 176.528 99.0339 177.924 99.6511Z" fill="black"/>
<path d="M201.862 97.3099C201.006 100.965 201.307 104.494 205.21 106.14C209.112 107.786 213.38 106.013 217.139 104.637C225.825 101.729 234.084 97.6788 241.697 92.5943C242.934 91.724 241.697 89.6668 240.491 90.553C234.423 94.7117 227.864 98.1079 220.963 100.665C217.64 102.15 214.196 103.346 210.667 104.241C208.848 104.716 206.915 104.454 205.289 103.513C203.243 102.136 203.703 99.9842 204.147 97.9429C204.496 96.4554 202.211 95.8224 201.862 97.3099Z" fill="black"/>
<path d="M229.958 97.4682C228.276 101.677 231.417 105.665 235.415 106.836C240.174 108.229 245.758 106.251 250.295 104.716C259.449 101.551 267.968 96.5188 273.647 88.575C274.551 87.3249 272.489 86.1381 271.601 87.3724C266.737 93.7662 260.127 98.6235 252.564 101.361C248.907 102.869 245.099 103.983 241.205 104.684C239.017 105.166 236.731 104.933 234.685 104.019C233.604 103.514 232.753 102.622 232.3 101.52C231.847 100.418 231.827 99.1862 232.242 98.0695C232.813 96.6612 230.513 96.044 229.958 97.4366V97.4682Z" fill="black"/>
<path d="M264.954 94.4763C264.468 96.041 264.515 97.7223 265.09 99.257C265.664 100.792 266.732 102.093 268.127 102.958C269.576 103.793 271.205 104.271 272.878 104.351C274.55 104.43 276.217 104.11 277.74 103.417C280.845 101.963 283.541 99.7661 285.589 97.0219C287.637 94.2778 288.973 91.0713 289.479 87.6877C289.717 86.2002 287.433 85.5514 287.179 87.0705C286.779 89.7972 285.788 92.4042 284.276 94.7105C282.763 97.0168 280.766 98.9672 278.422 100.426C277.279 101.183 275.98 101.676 274.622 101.867C273.263 102.059 271.878 101.945 270.57 101.534C269.281 101.113 268.209 100.203 267.586 99.0015C266.963 97.7998 266.838 96.4019 267.238 95.1092C267.746 93.6534 265.445 93.0363 264.954 94.4763Z" fill="black"/>
<path d="M283.974 95.7132C284.054 96.6581 284.325 97.577 284.773 98.4137C285.22 99.2504 285.833 99.9874 286.576 100.58C287.318 101.172 288.173 101.607 289.09 101.859C290.007 102.11 290.965 102.173 291.906 102.043C293.888 101.729 295.733 100.842 297.213 99.4916C298.694 98.1414 299.744 96.3875 300.235 94.4473C300.679 92.9757 298.395 92.3585 297.935 93.8143C297.584 95.245 296.84 96.5495 295.786 97.5811C294.732 98.6127 293.41 99.3304 291.97 99.6535C291.338 99.7903 290.685 99.7946 290.051 99.6661C289.418 99.5377 288.818 99.2793 288.29 98.9073C287.762 98.5353 287.317 98.0578 286.984 97.5053C286.651 96.9527 286.436 96.3371 286.354 95.6974C286.259 94.115 283.879 94.115 283.974 95.6974V95.7132Z" fill="black"/>
<path d="M295.873 99.2221C297.413 101.004 299.33 102.424 301.486 103.38C303.642 104.335 305.984 104.802 308.342 104.748C310.701 104.693 313.018 104.119 315.127 103.065C317.236 102.011 319.085 100.504 320.541 98.6524C321.477 97.4656 319.796 95.7724 318.844 96.9751C317.611 98.6032 316.026 99.9335 314.207 100.867C312.388 101.801 310.382 102.314 308.337 102.369C306.292 102.424 304.261 102.018 302.394 101.183C300.528 100.348 298.873 99.1046 297.555 97.5447C296.539 96.3896 294.874 98.0669 295.873 99.2221Z" fill="black"/>
<path d="M326.3 166.109C326.758 163.419 327.442 160.772 328.347 158.197C328.929 156.512 329.74 154.914 330.758 153.45C331.643 152.048 333.025 151.031 334.629 150.601C335.523 150.363 336.475 150.484 337.279 150.941C338.084 151.397 338.676 152.15 338.928 153.038C339.261 154.526 341.561 153.893 341.228 152.405C340.899 151.18 340.173 150.099 339.163 149.329C338.153 148.559 336.915 148.144 335.644 148.148C334.526 148.156 333.422 148.404 332.409 148.877C331.396 149.349 330.497 150.035 329.774 150.886C328.333 152.581 327.21 154.522 326.459 156.614C325.327 159.505 324.508 162.507 324.016 165.571C323.762 167.058 326.046 167.707 326.3 166.204V166.109Z" fill="black"/>
<path d="M127.445 169.818C126.941 169.505 126.527 169.068 126.244 168.547C125.96 168.027 125.817 167.443 125.828 166.851C125.84 166.259 126.005 165.681 126.307 165.172C126.61 164.662 127.04 164.241 127.556 163.947C128.621 163.409 129.786 163.093 130.978 163.02C132.17 162.947 133.364 163.117 134.488 163.52C137.132 164.49 139.369 166.325 140.834 168.726C141.671 169.859 142.329 171.113 142.785 172.445C143.007 173.157 143.118 173.885 143.293 174.613C143.574 175.295 143.802 175.999 143.975 176.717C144.118 178.3 146.497 178.3 146.354 176.717C146.283 176.057 146.112 175.412 145.847 174.803C145.608 174.061 145.417 173.305 145.276 172.54C144.915 171.103 144.331 169.73 143.546 168.473C142.152 166.02 140.188 163.936 137.82 162.396C133.869 160.023 126.842 159.564 124.224 164.153C123.534 165.466 123.366 166.992 123.754 168.423C124.142 169.855 125.058 171.088 126.318 171.875C127.556 172.777 128.745 170.704 127.524 169.818H127.445Z" fill="black"/>
<path d="M207.764 148.719H178.305C173.565 148.719 169.722 152.548 169.722 157.272C169.722 161.995 173.565 165.825 178.305 165.825H207.764C212.504 165.825 216.347 161.995 216.347 157.272C216.347 152.548 212.504 148.719 207.764 148.719Z" fill="white"/>
<path d="M207.764 164.637H181.382C178.891 164.637 176.401 164.859 174.211 163.419C173.081 162.637 172.19 161.559 171.636 160.303C171.082 159.047 170.887 157.663 171.072 156.304C171.258 154.944 171.817 153.663 172.687 152.6C173.557 151.538 174.705 150.737 176.004 150.285C178.089 149.843 180.228 149.72 182.35 149.921H203.623C206.289 149.921 209.303 149.557 211.666 151.013C218.012 154.921 214.982 164.431 207.796 164.653C207.48 164.653 207.177 164.778 206.954 165.001C206.731 165.223 206.606 165.525 206.606 165.84C206.606 166.155 206.731 166.456 206.954 166.679C207.177 166.902 207.48 167.027 207.796 167.027C209.079 167.015 210.347 166.752 211.529 166.251C212.71 165.751 213.781 165.023 214.68 164.11C215.579 163.197 216.29 162.116 216.77 160.929C217.251 159.742 217.492 158.472 217.481 157.192C217.469 155.912 217.205 154.647 216.703 153.468C216.202 152.29 215.472 151.222 214.557 150.325C213.641 149.428 212.557 148.719 211.367 148.24C210.177 147.761 208.904 147.52 207.621 147.531C200.577 147.373 193.534 147.531 186.49 147.531C183.793 147.531 181.081 147.531 178.368 147.531C177.053 147.471 175.74 147.677 174.507 148.136C173.274 148.595 172.146 149.298 171.192 150.202C170.238 151.106 169.477 152.193 168.954 153.398C168.431 154.603 168.158 155.901 168.151 157.213C168.143 158.526 168.402 159.827 168.91 161.038C169.419 162.248 170.168 163.344 171.112 164.259C172.056 165.174 173.175 165.889 174.403 166.362C175.631 166.835 176.941 167.056 178.257 167.011C180.43 167.011 182.604 167.011 184.761 167.011H207.732C208.048 167.015 208.352 166.894 208.578 166.674C208.804 166.455 208.934 166.155 208.938 165.84C208.942 165.525 208.821 165.222 208.601 164.996C208.38 164.77 208.079 164.641 207.764 164.637Z" fill="black"/>
<path d="M192.963 161.795C195.495 161.795 197.547 159.747 197.547 157.222C197.547 154.696 195.495 152.648 192.963 152.648C190.431 152.648 188.378 154.696 188.378 157.222C188.378 159.747 190.431 161.795 192.963 161.795Z" fill="black"/>
<path d="M294.715 148.719H265.255C260.515 148.719 256.673 152.548 256.673 157.272C256.673 161.995 260.515 165.825 265.255 165.825H294.715C299.455 165.825 303.297 161.995 303.297 157.272C303.297 152.548 299.455 148.719 294.715 148.719Z" fill="white"/>
<path d="M294.715 164.637H268.333C265.842 164.637 263.351 164.859 261.162 163.419C260.032 162.637 259.14 161.558 258.586 160.303C258.032 159.047 257.837 157.663 258.023 156.303C258.208 154.944 258.767 153.662 259.638 152.6C260.508 151.538 261.656 150.736 262.955 150.284C265.039 149.843 267.179 149.72 269.3 149.921H290.574C293.239 149.921 296.253 149.557 298.617 151.012C304.963 154.921 301.933 164.431 294.746 164.653C294.431 164.653 294.128 164.778 293.905 165C293.682 165.223 293.557 165.525 293.557 165.84C293.557 166.154 293.682 166.456 293.905 166.679C294.128 166.901 294.431 167.026 294.746 167.026C296.062 167.071 297.373 166.851 298.6 166.378C299.828 165.905 300.947 165.19 301.891 164.275C302.835 163.36 303.584 162.264 304.093 161.053C304.602 159.843 304.86 158.542 304.853 157.229C304.845 155.916 304.572 154.618 304.049 153.414C303.527 152.209 302.765 151.122 301.811 150.217C300.857 149.313 299.73 148.611 298.496 148.152C297.263 147.693 295.95 147.487 294.635 147.547C287.592 147.389 280.548 147.547 273.504 147.547C270.808 147.547 268.095 147.547 265.382 147.547C264.067 147.487 262.754 147.693 261.521 148.152C260.288 148.611 259.16 149.313 258.206 150.217C257.252 151.122 256.491 152.209 255.968 153.414C255.445 154.618 255.172 155.916 255.165 157.229C255.157 158.542 255.416 159.843 255.925 161.053C256.433 162.264 257.182 163.36 258.126 164.275C259.07 165.19 260.189 165.905 261.417 166.378C262.645 166.851 263.956 167.071 265.271 167.026C267.444 167.026 269.618 167.026 271.775 167.026H294.715C295.032 167.026 295.337 166.901 295.562 166.677C295.786 166.452 295.912 166.149 295.912 165.832C295.912 165.515 295.786 165.211 295.562 164.987C295.337 164.763 295.032 164.637 294.715 164.637Z" fill="black"/>
<path d="M279.977 161.857C282.509 161.857 284.561 159.81 284.561 157.284C284.561 154.758 282.509 152.711 279.977 152.711C277.445 152.711 275.392 154.758 275.392 157.284C275.392 159.81 277.445 161.857 279.977 161.857Z" fill="black"/>
<path d="M212.904 131.016H171.166C168.318 131.016 166.01 133.318 166.01 136.158C166.01 138.999 168.318 141.301 171.166 141.301H212.904C215.751 141.301 218.06 138.999 218.06 136.158C218.06 133.318 215.751 131.016 212.904 131.016Z" fill="black"/>
<path d="M303.043 131.016H261.305C258.458 131.016 256.149 133.318 256.149 136.158C256.149 138.999 258.458 141.301 261.305 141.301H303.043C305.891 141.301 308.199 138.999 308.199 136.158C308.199 133.318 305.891 131.016 303.043 131.016Z" fill="black"/>
<path d="M239.492 185.874C237.065 187.265 234.84 188.979 232.877 190.969C230.732 192.873 229.12 195.299 228.197 198.011C227.926 199.326 227.97 200.687 228.325 201.982C228.681 203.277 229.338 204.47 230.243 205.464C232.248 207.55 234.731 209.119 237.477 210.037C238.905 210.623 239.524 208.328 238.112 207.759C234.177 206.176 228.593 202.647 230.862 197.568C231.919 195.509 233.35 193.663 235.082 192.124C236.77 190.498 238.657 189.089 240.698 187.931C240.971 187.771 241.17 187.51 241.25 187.204C241.33 186.899 241.286 186.574 241.126 186.301C240.966 186.028 240.704 185.83 240.398 185.75C240.091 185.67 239.765 185.714 239.492 185.874Z" fill="black"/>
<path d="M216.949 233.505C223.229 238.178 230.837 240.736 238.671 240.81C246.505 240.884 254.16 238.47 260.528 233.917C261.749 233.031 260.528 230.973 259.322 231.86C253.314 236.217 246.059 238.529 238.631 238.455C231.203 238.381 223.996 235.924 218.076 231.448C216.838 230.53 215.664 232.603 216.87 233.505H216.949Z" fill="black"/>
<path d="M264.97 232.305C264.793 232.305 264.623 232.375 264.498 232.499C264.373 232.624 264.303 232.793 264.303 232.969C264.303 233.146 264.373 233.315 264.498 233.439C264.623 233.564 264.793 233.634 264.97 233.634C265.146 233.634 265.316 233.564 265.441 233.439C265.566 233.315 265.636 233.146 265.636 232.969C265.636 232.793 265.566 232.624 265.441 232.499C265.316 232.375 265.146 232.305 264.97 232.305Z" fill="black"/>
<path d="M9.71766 216.971C9.71766 216.971 6.24344 219.123 7.02078 221.718C7.79812 224.313 18.1256 253.936 18.1256 253.936L23.3924 269.286C23.3924 269.286 19.5058 272.546 18.9505 274.033C18.3953 275.521 17.3641 278.005 17.7449 278.306C18.1256 278.606 20.648 283.986 20.648 283.986L19.6485 285.268C19.6485 285.268 14.5086 280.236 11.7165 281.217C8.92446 282.198 4.08594 287.863 4.08594 287.863C4.08594 287.863 6.14826 295.554 10.7488 299.763C15.3494 303.972 15.7936 305.76 15.7936 305.76C15.7936 305.76 14.461 312.407 16.095 316.204C17.729 320.002 20.997 333.247 29.5318 338.121C38.0667 342.995 38.7964 344.451 38.7964 344.451C39.8115 348.231 40.4649 352.099 40.7477 356.002C40.827 360.433 41.5567 408.301 42.8735 433.746C44.1902 459.192 47.4423 481.836 50.3454 490.096C53.2485 498.356 60.4191 518.88 80.2491 525.748C85.696 527.776 91.6454 528.039 97.2506 526.499C102.856 524.959 107.832 521.695 111.469 517.171C111.469 517.171 120.512 508.152 119.401 497.534C118.291 486.916 118.656 476.883 115.959 468.544C113.262 460.204 92.3851 378.647 92.3851 378.647L80.8043 329.924C80.8043 329.924 87.9749 315.192 89.1329 300.491C90.291 285.79 92.2106 283.369 92.1788 282.008C92.0645 278.532 91.2138 275.118 89.6826 271.993C88.1515 268.867 85.9746 266.1 83.295 263.874C74.5856 256.389 73.5545 257.354 67.1613 259.934L65.5749 256.895C65.5749 256.895 63.3539 218.205 63.7188 215.626C63.8681 213.436 63.67 211.235 63.1318 209.106C63.172 208.311 63.0458 207.516 62.7613 206.771C62.4768 206.027 62.0402 205.35 61.4792 204.783C60.9183 204.216 60.2452 203.771 59.5029 203.478C58.7605 203.184 57.965 203.048 57.1669 203.077C50.9324 202.824 49.0763 202.777 48.5845 204.153C48.0927 205.53 45.5386 214.55 45.5386 214.55L44.8089 261.057H43.4763L29.5318 233.602L19.4264 216.37C19.4264 216.37 16.1109 214.455 14.1596 214.661C12.52 215.079 10.9997 215.869 9.71766 216.971Z" fill="white"/>
<path d="M36.9879 343.932C40.4146 350.721 39.4151 359.282 39.5103 366.656C39.6055 374.789 39.6848 382.923 39.8276 391.041C40.1131 407.166 40.6208 423.29 41.8899 439.352C43.0163 453.72 43.9205 468.326 46.9664 482.425C49.6792 494.958 54.4066 507.744 63.6712 517.049C71.9522 525.325 83.2316 529.708 94.9233 527.667C100.144 526.832 105.059 524.666 109.192 521.377C113.326 518.089 116.537 513.791 118.513 508.899C120.702 503.155 120.909 496.604 120.623 490.527C120.217 483.715 119.203 476.952 117.593 470.32C114.42 456.759 110.296 443.419 107.091 429.905C100.206 400.741 92.3375 371.83 85.3573 342.682C84.4266 338.8 83.5118 334.923 82.6129 331.051C82.2639 329.564 79.9636 330.197 80.3126 331.684C86.8644 359.978 94.4315 388.034 101.348 416.233C104.664 429.763 107.868 443.276 111.612 456.695C115.198 469.56 118.799 482.868 118.291 496.335C118.341 502.263 116.749 508.089 113.69 513.172C110.721 517.588 106.542 521.06 101.65 523.173C96.2634 525.475 90.3445 526.251 84.5448 525.413C78.7452 524.575 73.2898 522.157 68.7794 518.425C58.6899 510.323 53.3279 498.06 50.2185 485.796C46.776 472.282 45.9194 458.262 44.682 444.416C43.3177 428.876 42.6831 413.29 42.35 397.703C42.1755 389.791 42.0644 381.974 41.9692 374.109C41.9692 366.719 42.2231 359.171 41.525 351.813C41.2815 348.644 40.4363 345.551 39.0344 342.698C38.3522 341.337 36.2899 342.54 36.9879 343.901V343.932Z" fill="black"/>
<path d="M42.8892 343.343C34.587 341.304 27.3317 336.28 22.5156 329.233C17.6994 322.186 15.6615 313.613 16.7929 305.159C16.9992 303.577 14.6196 303.672 14.4133 305.159C13.2848 314.134 15.4956 323.21 20.6269 330.667C25.7582 338.124 33.4534 343.445 42.2547 345.622C43.7459 345.986 44.3805 343.691 42.8892 343.327V343.343Z" fill="black"/>
<path d="M19.6009 308.025C23.8684 309.939 29.8967 310.952 32.9584 306.442C34.8621 303.641 33.6882 300.619 32.1335 297.96C30.3602 295.092 28.315 292.4 26.0259 289.922C23.7508 287.23 21.2396 284.747 18.5222 282.5C16.3012 280.728 13.763 279.335 10.9074 280.095C8.32182 280.842 6.07803 282.465 4.56184 284.684C3.70205 285.798 3.1733 287.13 3.03585 288.529C2.89841 289.928 3.15782 291.337 3.7845 292.596C5.53087 295.997 7.84886 299.075 10.6378 301.695C13.2454 304.337 16.2946 306.506 19.6485 308.104C21.0287 308.752 22.2344 306.711 20.8542 306.062C16.054 303.67 11.8899 300.178 8.70235 295.872C7.11595 293.894 4.84739 290.998 5.37091 288.323C5.98706 286.22 7.40526 284.442 9.32105 283.37C10.2468 282.711 11.3561 282.356 12.4939 282.356C13.6316 282.356 14.7409 282.711 15.6667 283.37C17.8531 284.884 19.8549 286.647 21.6315 288.624C23.5193 290.618 25.3437 292.691 27.057 294.827C28.9402 296.914 30.4241 299.328 31.4355 301.948C31.5816 302.55 31.596 303.177 31.4777 303.786C31.3595 304.394 31.1113 304.97 30.7502 305.475C30.389 305.979 29.9233 306.4 29.3846 306.709C28.8459 307.018 28.2468 307.207 27.6281 307.265C25.289 307.53 22.9231 307.107 20.8225 306.046C19.4106 305.366 18.2049 307.407 19.6009 308.025Z" fill="black"/>
<path d="M27.6598 292.464C31.5941 297.212 37.7335 303.114 44.3329 299.443C46.9029 298.003 48.5527 295.835 48.0134 292.828C47.2381 289.645 45.9696 286.602 44.2536 283.809C42.6054 280.827 40.6772 278.008 38.495 275.39C36.5765 272.905 34.3662 270.657 31.9114 268.697C26.5176 264.756 19.9182 268.301 17.4434 273.871C16.0156 277.036 17.729 280.628 19.585 283.366C21.9329 286.72 25.0264 289.426 27.6598 292.544C28.6434 293.715 30.325 292.021 29.3414 290.866C25.9148 286.815 20.7749 283.065 19.4423 277.685C18.8077 275.09 20.6955 272.668 22.6151 271.054C23.5838 270.146 24.8213 269.575 26.1424 269.427C27.4636 269.278 28.7974 269.561 29.9443 270.232C31.9225 271.678 33.699 273.381 35.227 275.295C37.0807 277.342 38.7677 279.532 40.2717 281.846C41.7804 284.153 43.1013 286.577 44.2219 289.094C45.1103 291.119 46.7918 294.173 44.904 296.057C43.8403 297.128 42.4593 297.829 40.9653 298.057C39.4712 298.285 37.9432 298.027 36.6071 297.322C33.7375 295.703 31.2619 293.472 29.3573 290.787C28.3578 289.616 26.7714 291.294 27.6598 292.464Z" fill="black"/>
<path d="M77.4411 336.27C85.8807 326.903 88.6887 314.481 90.1323 302.312C90.5289 298.83 90.6717 295.302 91.3697 291.884C91.9725 288.893 92.8292 285.965 93.194 282.927C93.5477 280.123 93.2745 277.275 92.3941 274.588C91.5136 271.901 90.0478 269.442 88.1017 267.388C86.2615 265.267 84.3578 263.194 82.4382 261.137C80.8878 259.353 78.9287 257.969 76.7272 257.102C71.5397 255.267 66.4632 258.305 63.3697 262.387C61.5453 264.808 60.1969 267.625 58.6105 270.189C56.7422 273.063 54.7082 275.826 52.5187 278.465C49.0127 282.801 45.3323 288.592 47.6167 294.289C48.0648 295.481 48.7724 296.559 49.6887 297.446C50.6049 298.333 51.7069 299.005 52.9153 299.416C55.866 300.334 58.7691 299.02 61.1487 297.295C66.7001 293.196 71.5761 288.257 75.6008 282.658C76.5051 281.424 74.4428 280.237 73.5544 281.456C70.3833 285.763 66.7146 289.683 62.6241 293.134C60.6887 294.716 58.4201 296.868 55.8184 297.295C54.4278 297.422 53.0378 297.046 51.9021 296.235C50.7664 295.425 49.9605 294.234 49.6314 292.881C47.8705 287.026 52.8042 281.804 56.1833 277.658C59.5623 273.512 61.7991 268.907 64.7181 264.539C67.6371 260.172 72.8088 257.102 77.6949 260.156C79.4442 261.405 80.9951 262.909 82.2955 264.619C83.8819 266.454 85.6904 268.147 87.2133 270.046C88.8447 272.123 89.9787 274.544 90.5286 277.125C91.0785 279.706 91.0298 282.378 90.3861 284.937C89.9102 287.39 89.228 289.795 88.7997 292.248C88.3238 294.969 88.1651 297.723 87.8796 300.46C86.6263 312.566 84.1674 325.257 75.7595 334.593C74.7442 335.717 76.4099 337.41 77.4411 336.27Z" fill="black"/>
<path d="M71.5555 285.441C73.5083 288.255 74.4935 291.626 74.3634 295.046C74.3634 296.629 76.6954 296.629 76.743 295.046C76.8642 291.204 75.7527 287.423 73.5702 284.254C73.4089 283.996 73.1556 283.808 72.8613 283.729C72.5669 283.65 72.2534 283.685 71.9838 283.827C71.7221 283.985 71.5315 284.238 71.4518 284.532C71.372 284.827 71.4091 285.141 71.5555 285.409V285.441Z" fill="black"/>
<path d="M24.3126 268.97C21.6316 261.422 19.2203 253.779 16.3806 246.325L11.9545 235.011C10.5426 231.419 8.41685 227.51 7.98853 223.633C7.60779 220.089 9.79702 217.604 12.9064 216.291C13.5105 215.972 14.1721 215.775 14.8528 215.713C15.5336 215.651 16.22 215.723 16.8724 215.927C18.367 216.973 19.6127 218.335 20.5211 219.915C24.4712 225.39 26.9778 231.735 30.0395 237.749C34.18 246.025 38.495 254.237 42.7307 262.482C43.4287 263.843 45.4911 262.64 44.793 261.279C40.5098 252.94 36.1472 244.648 31.9591 236.277C28.6435 229.599 25.8831 222.542 21.0922 216.718C19.1727 214.376 17.2055 212.826 14.0486 213.427C11.2766 213.992 8.79983 215.531 7.06841 217.763C4.84745 220.769 5.48201 224.583 6.64008 227.874C8.11544 232.084 9.81289 236.198 11.4945 240.36C15.2225 249.981 18.554 259.808 22.0123 269.587C22.52 271.011 24.8202 270.394 24.3126 268.954V268.97Z" fill="black"/>
<path d="M45.4592 262.641C45.7765 253.747 46.099 244.854 46.4269 235.961C46.7442 227.258 46.1413 218.238 47.8705 209.645C48.394 207.05 49.33 204.344 52.2173 203.696C53.7032 203.36 55.2475 203.379 56.7248 203.75C58.2022 204.121 59.5711 204.834 60.7204 205.832C63.4649 208.617 63.1 213.364 63.0365 216.909C63.0365 221.245 63.3379 225.517 63.6235 229.837C64.2898 239.917 64.5436 250.013 64.8768 260.109C64.8768 261.691 67.3039 261.691 67.2564 260.109C66.9232 250.013 66.6694 239.917 66.0031 229.837C65.8286 227.274 65.5748 224.694 65.432 222.131C65.2892 219.567 65.432 217.162 65.432 214.662C65.432 211.133 65.1623 207.193 62.7034 204.424C59.2292 200.515 50.9164 199.439 47.5374 203.98C45.5861 206.607 45.2847 210.215 44.9198 213.348C44.3328 218.412 44.317 223.523 44.2377 228.603C44.079 239.933 43.4921 251.263 43.0796 262.593C43.0796 264.176 45.4116 264.176 45.4592 262.593V262.641Z" fill="black"/>
<path d="M40.0971 268.291C41.2658 266.793 42.8322 265.653 44.6183 264.999C46.8057 264.363 49.0854 264.101 51.3605 264.224C51.6761 264.224 51.9787 264.099 52.2019 263.876C52.425 263.654 52.5503 263.352 52.5503 263.037C52.5503 262.722 52.425 262.42 52.2019 262.198C51.9787 261.975 51.6761 261.85 51.3605 261.85C48.8108 261.7 46.2544 262 43.8093 262.736C41.6942 263.505 39.8293 264.834 38.4155 266.582C38.2001 266.808 38.0801 267.108 38.0801 267.42C38.0801 267.732 38.2001 268.033 38.4155 268.259C38.6386 268.481 38.941 268.606 39.2563 268.606C39.5716 268.606 39.874 268.481 40.0971 268.259V268.291Z" fill="black"/>
<path d="M52.8836 298.099C50.585 300.861 48.9348 304.1 48.0537 307.58C47.1726 311.06 47.0829 314.693 47.7912 318.212C48.0926 319.715 50.3771 319.082 50.0756 317.595C49.466 314.478 49.5522 311.266 50.3282 308.186C51.1041 305.107 52.5507 302.235 54.5652 299.777C55.5329 298.606 53.8513 296.912 52.8836 298.099Z" fill="black"/>
</g>
<defs>
<filter id="filter0_d_4988_3559" x="20" y="105" width="422" height="518" filterUnits="userSpaceOnUse" color-interpolation-filters="sRGB">
<feFlood flood-opacity="0" result="BackgroundImageFix"/>
<feColorMatrix in="SourceAlpha" type="matrix" values="0 0 0 0 0 0 0 0 0 0 0 0 0 0 0 0 0 0 127 0" result="hardAlpha"/>
<feOffset dx="2" dy="4"/>
<feComposite in2="hardAlpha" operator="out"/>
<feColorMatrix type="matrix" values="0 0 0 0 0 0 0 0 0 0 0 0 0 0 0 0 0 0 0.25 0"/>
<feBlend mode="normal" in2="BackgroundImageFix" result="effect1_dropShadow_4988_3559"/>
<feBlend mode="normal" in="SourceGraphic" in2="effect1_dropShadow_4988_3559" result="shape"/>
</filter>
<clipPath id="clip0_4988_3559">
<rect width="430" height="619" fill="white"/>
</clipPath>
</defs>
</svg>
