<svg width="428" height="415" viewBox="0 0 428 415" fill="none" xmlns="http://www.w3.org/2000/svg">
<g filter="url(#filter0_d_1931_420)">
<rect x="4.5" y="14.0078" width="419" height="391.496" rx="39.5" fill="white" stroke="black"/>
<g clip-path="url(#clip0_1931_420)">
<path d="M251.554 201.148L258.074 224.259C259.045 227.704 260.028 231.33 259.283 234.843C258.254 239.666 254.029 243.326 249.373 245.009C244.718 246.692 239.656 246.545 234.684 246.138C230.137 245.906 225.629 245.183 221.238 243.981C216.811 242.776 212.728 240.552 209.317 237.486C207.921 236.316 206.89 234.772 206.345 233.036C206.059 231.348 206.136 229.619 206.571 227.964L209.215 214.014L210.514 207.124C210.842 205.407 210.695 203.249 212.966 203.735C217.057 204.68 221.211 205.326 225.396 205.667C229.596 205.88 233.807 205.656 237.961 205C242.629 204.26 247.192 202.967 251.554 201.148Z" fill="white"/>
<path d="M347.068 545.178L359.497 543.947C359.497 543.947 359.994 537.328 359.023 533.239C358.051 529.15 354.424 513.947 353.655 509.688C352.887 505.43 352.525 468.11 352.525 468.11C352.525 468.11 356.379 392.645 350.017 370.969C343.655 349.293 317.497 350.512 317.497 350.512L302.684 367.535C302.684 367.535 305.757 500.923 307.497 505.339C310.679 512.376 314.24 519.235 318.164 525.886C319.61 527.896 325.667 532.799 326.819 533.962C327.972 535.126 347.068 545.178 347.068 545.178Z" fill="white"/>
<path d="M123.373 265.296C123.373 265.296 135.056 244.309 149.983 235.306C164.909 226.304 188.311 216.522 209.068 215.607C208.74 219.685 205.972 231.601 205.972 231.601C205.972 231.601 206.356 236.538 212.65 239.723C218.943 242.908 229.361 248.07 240.073 246.24C250.785 244.41 255.599 242.084 257.282 238.051C258.966 234.019 258.695 226.259 256.977 220.792C255.26 215.325 255.079 214.398 255.079 214.398C255.079 214.398 274.48 217.787 279.373 218.792C284.265 219.798 313.972 227.829 330.322 246.715C346.672 265.601 353.757 299.092 359.78 329.465C365.802 359.839 366.085 368.344 366.085 368.344C366.085 368.344 367.282 374.681 356.13 373.845C344.977 373.009 319.034 369.813 319.034 369.813L332.966 469.89C332.966 469.89 336.028 483.197 336.243 484.925C336.395 486.774 336.395 488.633 336.243 490.482C336.141 490.776 334.209 494.402 332.412 495.396C330.616 496.39 332.763 500.309 332.763 500.309C332.763 500.309 342.989 532.772 344.277 535.777C345.565 538.781 347.779 542.035 347.079 545.683L128.537 541.402L131.926 528.401L139.61 494.74C139.61 494.74 131.7 491.036 130.717 488.776C129.734 486.517 130.457 482.846 130.966 478.452C131.474 474.058 145.972 373.8 145.972 373.8C145.972 373.8 144.005 375.709 144.085 375.246C144.164 374.783 131.328 393.477 111.926 386.914C92.5253 380.351 92.7174 356.71 92.7174 356.71L93.2258 347.414C93.2258 347.414 110.164 295.308 123.373 265.296Z" fill="#141414"/>
<path d="M248.887 204.869C249.701 204.461 250.429 203.901 251.034 203.22C251.331 202.872 251.533 202.453 251.622 202.005C251.711 201.556 251.684 201.091 251.542 200.656C239.972 206.53 225.96 207.908 213.836 203.277C213.056 202.983 212.051 202.701 211.486 203.277C211.232 203.601 211.082 203.995 211.056 204.406C210.659 205.764 210.453 207.171 210.446 208.586C210.638 209.862 211.768 209.907 212.864 210.133C215.826 210.72 218.83 211.071 221.847 211.184C227.882 211.414 233.912 210.616 239.678 208.823C242.672 207.908 246.311 206.767 248.887 204.869Z" fill="#141414"/>
<path d="M210.526 202.349L207.949 217.101L206.616 224.782C206.116 226.976 205.806 229.209 205.689 231.457C205.689 235.682 208.503 238.155 211.836 240.245C222.079 246.567 234.368 248.696 246.141 246.186C252.695 244.582 258.639 240.211 259.35 233.061C259.87 227.978 258.006 222.76 256.774 217.891L252.503 200.948C252.445 200.731 252.302 200.546 252.107 200.434C251.912 200.321 251.681 200.291 251.463 200.349C251.246 200.408 251.061 200.55 250.949 200.745C250.836 200.94 250.806 201.171 250.865 201.389L254.322 215.056C255.373 219.224 256.582 223.403 257.373 227.639C258.085 231.694 257.791 235.828 255.113 239.138C253.175 241.398 250.637 243.062 247.791 243.939C241.384 246.096 234.006 245.938 227.452 244.616C223.568 243.837 219.803 242.55 216.254 240.787C213.023 239.161 208.198 236.879 207.475 232.88C207.045 230.531 207.746 228.035 208.141 225.719L209.475 218.072L212.153 202.778C212.334 201.716 210.706 201.253 210.514 202.326L210.526 202.349Z" fill="black"/>
<path d="M209.441 214.68C195.826 216.013 182.459 219.205 169.712 224.168C157.045 229.183 145.022 236.288 135.576 246.239C130.297 251.757 126.001 258.136 122.876 265.103C122.446 266.097 123.904 266.955 124.345 265.961C129.813 253.626 139.124 243.585 150.333 236.13C161.542 228.675 174.356 223.569 187.418 220.316C194.675 218.493 202.054 217.191 209.497 216.419C210.571 216.306 210.627 214.612 209.497 214.725L209.441 214.68Z" fill="black"/>
<path d="M255.61 215.236C272.955 217.495 290.39 221.46 306.096 229.378C313.528 232.948 320.326 237.71 326.22 243.475C331.616 249.037 336.151 255.372 339.678 262.271C343.24 269.206 346.09 276.483 348.186 283.992C350.876 293.344 353.147 302.799 355.181 312.298C357.215 321.798 359.023 331.5 360.717 341.09C362.152 349.268 363.678 357.457 365.011 365.647C365.328 367.646 365.802 370.571 364.13 372.13C363.1 372.93 361.816 373.331 360.514 373.26C358.254 373.316 355.938 373 353.678 372.842C344.503 372.187 335.339 371.419 326.232 370.108C323.972 369.781 321.61 369.408 319.305 368.979C318.243 368.798 317.78 370.425 318.853 370.617C328.232 372.221 337.678 373.26 347.102 374.005C349.542 374.197 351.994 374.378 354.435 374.547C356.683 374.829 358.95 374.934 361.215 374.864C363.542 374.672 365.734 373.734 366.537 371.362C367.339 368.99 366.853 366.336 366.412 363.975C365.689 360.157 365.011 356.35 364.367 352.521C362.65 342.355 360.887 332.189 358.898 322.024C356.91 311.858 354.751 302.087 352.186 292.237C350.165 283.86 347.483 275.657 344.164 267.704C341.013 260.371 336.886 253.497 331.893 247.27C326.711 240.951 320.453 235.598 313.407 231.457C297.813 222.138 279.96 217.247 262.13 214.513C259.96 214.175 257.78 213.87 255.61 213.587C254.48 213.44 254.537 215.135 255.61 215.281V215.236Z" fill="black"/>
<path d="M91.8926 346.663C92.0734 350.323 92.6948 353.892 92.4237 357.563C92.1529 360.502 92.332 363.466 92.9547 366.351C94.2166 371.587 96.8354 376.398 100.548 380.301C104.206 384.337 109.016 387.152 114.328 388.364C119.639 389.576 125.195 389.127 130.243 387.078C136.139 384.538 141.222 380.422 144.932 375.184C145.587 374.303 144.107 373.456 143.475 374.326C137.147 382.967 126.525 389.213 115.531 387.011C105.531 385 97.4519 376.562 94.8643 366.859C94.1032 363.912 93.8547 360.855 94.1299 357.823C94.4124 354.05 93.8135 350.413 93.6214 346.652C93.5649 345.522 91.87 345.522 91.9265 346.652L91.8926 346.663Z" fill="black"/>
<path d="M155.441 289.824C152.955 311.007 150.36 332.167 147.656 353.305C144.936 374.555 142.096 395.798 139.136 417.034C137.674 427.531 136.168 438.024 134.616 448.514C133.125 458.895 131.791 469.331 130.029 479.667C129.464 482.965 128.435 486.693 130.243 489.833C132.051 492.973 136.277 494.498 139.543 495.65C148.233 498.58 157.097 500.964 166.085 502.789C185.539 506.929 205.36 509.097 225.249 509.261C245.15 509.412 265.035 508.049 284.729 505.183C294.642 503.775 304.503 502.066 314.311 500.055C319.207 499.061 324.081 498.003 328.933 496.881C332.379 496.079 336.288 494.961 336.933 490.917C337.531 487.144 335.882 483.123 335.294 479.418C334.458 474.147 333.626 468.902 332.797 463.684C331.155 453.187 329.554 442.678 327.995 432.158C324.887 411.103 321.995 390.003 319.441 368.904C316.887 347.804 314.707 326.636 312.989 305.446C312.594 300.476 312.209 295.506 311.859 290.536C311.78 289.406 310.085 289.406 310.164 290.536C311.588 311.037 313.554 331.516 315.814 351.938C318.074 372.36 320.74 393.042 323.622 413.532C326.537 434.214 329.701 454.862 332.978 475.488C333.339 477.803 333.644 480.141 334.108 482.423C334.503 484.377 335.102 486.286 335.305 488.274C335.509 490.262 335.249 492.374 333.362 493.617C331.475 494.859 329.271 495.108 327.226 495.571C317.659 497.762 308.04 499.697 298.368 501.377C278.949 504.781 259.315 506.819 239.61 507.476C219.956 508.138 200.284 506.946 180.853 503.918C171.22 502.379 161.68 500.305 152.277 497.706C148.288 496.576 144.266 495.503 140.356 494.148C136.966 493.018 131.972 491.358 131.057 487.427C130.763 485.523 130.855 483.579 131.328 481.711C131.735 479.452 132.062 477.193 132.458 474.934C133.211 469.761 133.965 464.587 134.718 459.414C136.224 449.248 137.686 439.082 139.102 428.916C142.025 408.351 144.842 387.786 147.554 367.221C150.266 346.444 152.865 325.661 155.351 304.87C155.961 299.854 156.556 294.839 157.136 289.824C157.26 288.751 155.565 288.762 155.441 289.824Z" fill="black"/>
<path d="M147.452 360.868C147.751 359.38 147.606 357.836 147.034 356.429C146.723 355.717 146.211 355.11 145.561 354.683C144.911 354.255 144.151 354.026 143.373 354.023C143.148 354.023 142.933 354.113 142.774 354.272C142.615 354.43 142.525 354.646 142.525 354.871C142.525 355.095 142.615 355.311 142.774 355.47C142.933 355.628 143.148 355.718 143.373 355.718H143.678C143.915 355.718 143.52 355.718 143.746 355.718C143.903 355.745 144.057 355.782 144.209 355.831C144.209 355.831 144.514 355.966 144.311 355.831L144.48 355.91C144.607 355.978 144.728 356.058 144.842 356.147C144.672 356.023 144.842 356.147 144.842 356.147L145.011 356.316L145.136 356.452C145.136 356.52 145.136 356.508 145.136 356.452L145.203 356.554C145.284 356.661 145.356 356.774 145.418 356.892C145.455 356.953 145.485 357.017 145.508 357.084V357.197C145.508 357.096 145.508 357.073 145.508 357.197C145.588 357.469 145.689 357.74 145.757 358.022C145.825 358.304 145.757 358.316 145.836 358.474C145.836 358.237 145.836 358.474 145.836 358.542C145.836 358.609 145.836 358.688 145.836 358.768C145.859 359.076 145.859 359.385 145.836 359.694C145.836 359.841 145.836 359.987 145.836 360.146C145.836 360.304 145.836 360.394 145.836 360.146V360.394C145.78 360.61 145.81 360.839 145.92 361.032C146.029 361.226 146.21 361.37 146.424 361.433C146.639 361.492 146.87 361.464 147.065 361.354C147.259 361.244 147.403 361.061 147.463 360.846L147.452 360.868Z" fill="black"/>
<path d="M98.0397 361.764C98.8645 371.117 105.486 379.837 114.763 381.972C124.04 384.106 133.791 379.859 139.938 372.743C143.475 368.521 146.102 363.614 147.656 358.33C147.972 357.291 146.333 356.839 146.017 357.878C143.396 366.339 138.277 374.189 130.198 378.312C122.446 382.265 112.356 381.757 106.074 375.296C102.497 371.617 100.26 366.843 99.7233 361.741C99.6329 360.668 97.938 360.612 98.0284 361.741L98.0397 361.764Z" fill="black"/>
<path d="M360.311 544.171C361.859 533.497 356.526 523.455 354.966 513.086C353.35 502.299 353.836 491.229 353.622 480.329C353.35 469.124 353.237 457.919 353.441 446.725C353.655 435.339 353.983 423.965 353.961 412.579C354.048 399.81 353.388 387.047 351.983 374.355C351.859 373.293 350.164 373.282 350.288 374.355C352.944 396.811 352.311 419.447 351.848 442.004C351.614 453.141 351.614 464.271 351.848 475.393C351.961 480.838 352.119 486.282 352.164 491.726C352.209 497.171 352.243 502.468 352.706 507.811C353.262 513.736 354.397 519.593 356.096 525.296C357.814 531.272 359.588 537.439 358.672 543.697C358.514 544.77 360.153 545.233 360.311 544.149V544.171Z" fill="black"/>
<path d="M308.91 108.982C307.78 102.126 304.469 92.4345 296.288 94.3661C294.09 94.7458 292.103 95.9052 290.692 97.6316C289.281 99.3579 288.539 101.535 288.605 103.764C287.786 102.142 287.109 100.453 286.582 98.7148C285.68 95.9279 284.479 93.2466 283 90.7176C281.78 88.6506 280.74 80.066 281.927 75.7624C283.113 71.4589 279.35 73.8987 279.35 73.8987C279.35 73.8987 272.672 73.5937 271.011 70.3293C271.011 70.3293 264.232 74.5199 261.972 69.437C260.469 70.1147 255.972 76.2143 250.887 73.4808C245.802 70.7473 248.797 67.2344 248.797 67.2344C248.797 67.2344 240.096 73.413 235.949 74.215C231.802 75.0169 225.689 76.4741 223.768 73.7857C221.848 71.0974 223.768 69.2676 223.768 69.2676C223.768 69.2676 210.288 75.5026 208.413 75.3445C206.537 75.1864 203.554 74.7233 203.328 73.8535C203.212 72.327 203.212 70.794 203.328 69.2676C203.328 69.2676 198.243 74.3618 186.164 70.5891C186.164 70.5891 180.932 77.1179 164.593 76.6548C164.593 76.6548 165.396 86.5496 164.695 88.3004C163.253 93.7332 162.14 99.2478 161.362 104.814C161.392 105.73 161.278 106.645 161.023 107.525C161.023 107.525 158.763 102.036 156.503 101.776C154.243 101.516 150.763 100.646 148.706 102.149C146.8 103.463 145.18 105.151 143.947 107.11C142.713 109.069 141.891 111.259 141.531 113.546C140.514 120.029 141.226 127.767 143.667 131.912C146.107 136.058 151.915 147.726 166.017 150.414C167.034 152.086 174.277 177.433 189.542 188.706C201.881 197.821 208.379 201.244 210.424 202.26C211.533 202.544 212.609 202.945 213.633 203.458C214.876 203.876 216.13 204.248 217.396 204.587C219.992 205.258 222.637 205.73 225.305 205.999C231.443 206.611 237.64 206.087 243.588 204.452C245.983 203.819 249.034 202.317 251.802 201.594L251.723 201.289C251.723 201.131 256.062 198.51 258.978 196.364C261.893 194.218 273.091 183.611 276.559 178.224C280.028 172.836 289.091 153.001 289.927 140.361C289.927 140.361 293.317 139.864 294.605 138.61C295.893 137.357 302.254 132.082 303.644 129.382C305.034 126.682 310.028 115.839 308.91 108.982Z" fill="white"/>
<path d="M154.786 101.377C154.786 101.377 148.808 83.383 146.311 75.7473C143.814 68.1116 142.639 58.2393 142.831 54.2859C143.023 50.3325 147.757 37.0491 153.757 30.4977C154.639 29.5263 155.554 28.5888 156.492 27.6625C157.43 26.7363 158.616 25.9343 157.622 24.5563C157.271 24.0593 156.786 23.5849 156.786 22.9749C156.814 22.7197 156.893 22.4727 157.017 22.2478C157.141 22.023 157.308 21.8248 157.509 21.6646C159.216 20.1414 161.273 19.0628 163.497 18.5245C165.26 18.0162 167.057 17.6209 168.774 17.0109C170.32 16.3352 171.781 15.4782 173.125 14.4581C176.116 12.5364 179.222 10.7975 182.424 9.25093C187.326 6.8381 192.551 5.14878 197.938 4.23574C217.509 1.12949 235.012 -1.67178 257.938 6.35929C261.37 7.55507 264.738 8.92741 268.029 10.4708C268.683 10.8387 269.363 11.1596 270.062 11.4309C270.954 11.6543 271.867 11.783 272.786 11.815C274.627 11.9731 276.469 11.9731 278.3 12.1877C279.284 12.2881 280.256 12.4809 281.204 12.7638C282.094 12.9745 282.889 13.4752 283.464 14.187C283.737 14.5505 283.863 15.0034 283.817 15.4556C283.771 15.9077 283.556 16.3259 283.215 16.6269C282.858 16.8228 282.479 16.9746 282.085 17.0787C281.887 17.133 281.706 17.2358 281.558 17.3778C281.41 17.5198 281.3 17.6966 281.238 17.892C281.147 18.468 281.961 18.7504 282.368 19.0215C283.034 19.4846 283.667 20.0381 284.3 20.5464C285.317 21.3935 286.311 22.2633 287.26 23.1895C288.071 23.9358 288.826 24.7399 289.52 25.5955C289.52 25.5955 298.56 36.4391 299.69 41.4091C300.82 46.3791 302.74 58.7589 300.65 68.394C298.56 78.029 296.548 82.8747 295.17 94.4752C293.155 96.0417 291.266 97.7639 289.52 99.6259C289.52 99.6259 288.978 102.518 288.808 103.161C288.639 103.805 287.791 103.161 287.791 103.161C287.791 103.161 286.221 98.1123 285 95.0174C283.78 91.9224 280.673 88.3079 280.74 84.49C280.979 80.7649 281.413 77.0549 282.04 73.3753C282.04 73.3753 275.475 75.6908 270.526 70.9128C268.582 71.5793 264.13 73.2623 261.746 69.3767C260.91 70.1673 254.774 75.9054 250.955 73.3753C247.136 70.8451 248.356 67.8857 248.356 67.8857C248.356 67.8857 236.458 76.7978 227.012 75.5214C221.362 74.4709 224.221 69.3767 224.221 69.3767C224.221 69.3767 209.633 75.623 207.531 75.4762C205.43 75.3294 202.243 74.55 203.125 69.8059C203.125 69.8059 197.158 74.1885 186.175 70.6079C183.317 72.1441 177.554 77.9612 164.243 76.6735C164.82 78.6276 165.848 85.2129 164.729 88.9404C163.61 92.6679 161.927 100.394 161.893 100.631C161.859 100.868 161.791 103.602 161.791 103.602L161.599 105.567L159.678 104.178L155.509 101.377H154.786Z" fill="#141414"/>
<path d="M190.141 138.939C190.226 138.932 190.31 138.956 190.378 139.006C190.423 139.056 190.456 139.116 190.474 139.181C190.491 139.245 190.493 139.313 190.48 139.379C190.456 139.513 190.398 139.637 190.311 139.741C190.247 139.829 190.166 139.904 190.073 139.96C189.98 140.017 189.876 140.053 189.768 140.068C189.656 140.068 189.547 140.028 189.46 139.956C189.373 139.884 189.315 139.784 189.294 139.673C189.181 139.165 189.87 138.939 190.141 138.939Z" fill="#828282"/>
<path d="M184.085 143.453C184.114 143.427 184.148 143.407 184.185 143.395C184.222 143.384 184.261 143.38 184.299 143.385C184.368 143.403 184.431 143.436 184.486 143.481C184.54 143.525 184.585 143.581 184.616 143.645C184.677 143.771 184.708 143.911 184.706 144.051C184.72 144.157 184.709 144.265 184.676 144.366C184.643 144.468 184.588 144.561 184.514 144.639C184.418 144.699 184.304 144.723 184.192 144.706C184.081 144.689 183.978 144.634 183.904 144.548C183.497 144.164 183.881 143.599 184.085 143.453Z" fill="#828282"/>
<path d="M196.141 140.064C196.17 140.037 196.203 140.015 196.24 140.002C196.277 139.988 196.317 139.982 196.356 139.985C196.425 140.005 196.489 140.039 196.544 140.086C196.599 140.133 196.642 140.191 196.672 140.256C196.731 140.384 196.766 140.522 196.774 140.663C196.784 140.768 196.771 140.874 196.736 140.973C196.701 141.073 196.645 141.163 196.571 141.239C196.476 141.3 196.363 141.326 196.251 141.311C196.139 141.297 196.036 141.243 195.96 141.16C195.565 140.764 195.938 140.2 196.141 140.064Z" fill="#828282"/>
<path d="M193.418 151.9C193.446 151.873 193.48 151.851 193.517 151.838C193.554 151.824 193.594 151.818 193.633 151.821C193.769 151.868 193.882 151.965 193.949 152.092C194.01 152.219 194.041 152.358 194.04 152.499C194.053 152.605 194.043 152.712 194.01 152.814C193.976 152.915 193.921 153.008 193.848 153.086C193.751 153.142 193.638 153.163 193.527 153.147C193.416 153.13 193.314 153.077 193.237 152.996C192.831 152.623 193.204 152.058 193.418 151.9Z" fill="#828282"/>
<path d="M187.328 150.235C187.383 150.17 187.459 150.126 187.543 150.111C187.6 150.105 187.658 150.117 187.709 150.145C187.759 150.174 187.8 150.217 187.825 150.269C187.877 150.374 187.897 150.492 187.882 150.608C187.876 150.825 187.787 151.031 187.633 151.184C187.558 151.26 187.46 151.31 187.354 151.326C187.248 151.343 187.14 151.324 187.046 151.274C186.695 151.048 187.113 150.438 187.328 150.235Z" fill="#828282"/>
<path d="M196.424 145.958C196.482 145.899 196.557 145.86 196.638 145.846C196.698 145.839 196.757 145.851 196.81 145.879C196.862 145.907 196.905 145.951 196.932 146.004C196.96 146.115 196.96 146.231 196.932 146.343C196.922 146.558 196.833 146.763 196.684 146.919C196.607 146.993 196.509 147.041 196.403 147.055C196.297 147.07 196.189 147.049 196.096 146.998C195.791 146.772 196.209 146.151 196.424 145.958Z" fill="#828282"/>
<path d="M190.469 145.081C190.497 144.985 190.557 144.901 190.638 144.843C190.702 144.808 190.774 144.789 190.847 144.789C190.921 144.789 190.992 144.808 191.056 144.843C191.18 144.928 191.278 145.045 191.339 145.182C191.401 145.291 191.44 145.411 191.453 145.535C191.467 145.66 191.455 145.786 191.418 145.905C191.371 146.025 191.286 146.125 191.175 146.191C191.065 146.256 190.935 146.283 190.808 146.267C190.254 146.221 190.356 145.374 190.469 145.081Z" fill="#828282"/>
<path d="M188.831 155.877C188.862 155.789 188.917 155.711 188.989 155.651C189.054 155.614 189.128 155.594 189.204 155.594C189.279 155.594 189.353 155.614 189.418 155.651C189.541 155.736 189.639 155.854 189.701 155.99C189.821 156.211 189.849 156.471 189.78 156.713C189.733 156.832 189.647 156.931 189.536 156.995C189.425 157.058 189.296 157.082 189.17 157.063C188.616 157.007 188.684 156.171 188.831 155.877Z" fill="#828282"/>
<path d="M265.723 137.094C265.761 137.078 265.801 137.07 265.842 137.07C265.883 137.07 265.923 137.078 265.961 137.094C266.007 137.146 266.04 137.208 266.057 137.274C266.075 137.341 266.077 137.411 266.062 137.478C266.039 137.611 265.976 137.733 265.882 137.829C265.822 137.921 265.742 137.998 265.648 138.055C265.554 138.112 265.449 138.146 265.339 138.156C265.227 138.155 265.118 138.116 265.031 138.044C264.944 137.971 264.886 137.871 264.865 137.761C264.763 137.309 265.452 137.094 265.723 137.094Z" fill="#828282"/>
<path d="M259.655 141.592C259.716 141.543 259.792 141.519 259.87 141.524C259.941 141.543 260.007 141.577 260.064 141.624C260.12 141.671 260.166 141.729 260.198 141.795C260.26 141.922 260.291 142.061 260.288 142.202C260.3 142.307 260.288 142.414 260.253 142.513C260.217 142.613 260.16 142.704 260.085 142.778C259.991 142.836 259.88 142.86 259.771 142.846C259.662 142.832 259.561 142.78 259.486 142.699C259.079 142.326 259.463 141.75 259.655 141.592Z" fill="#828282"/>
<path d="M271.723 138.187C271.752 138.161 271.786 138.141 271.823 138.13C271.86 138.118 271.899 138.114 271.938 138.119C272.006 138.138 272.069 138.17 272.124 138.215C272.178 138.26 272.223 138.316 272.254 138.379C272.315 138.506 272.346 138.645 272.345 138.786C272.358 138.892 272.348 138.999 272.314 139.101C272.281 139.202 272.226 139.295 272.152 139.373C272.057 139.433 271.943 139.457 271.831 139.44C271.719 139.424 271.617 139.368 271.542 139.283C271.169 138.932 271.52 138.345 271.723 138.187Z" fill="#828282"/>
<path d="M268.989 150.053C269.049 150.004 269.126 149.98 269.204 149.985C269.275 150.004 269.341 150.038 269.397 150.085C269.454 150.132 269.499 150.19 269.531 150.256C269.594 150.382 269.625 150.522 269.622 150.663C269.635 150.768 269.624 150.875 269.589 150.975C269.553 151.075 269.495 151.166 269.418 151.239C269.325 151.297 269.214 151.321 269.105 151.307C268.995 151.293 268.894 151.241 268.819 151.16C268.413 150.776 268.797 150.234 268.989 150.053Z" fill="#828282"/>
<path d="M262.899 148.391C262.957 148.331 263.032 148.288 263.113 148.267C263.172 148.262 263.231 148.274 263.284 148.302C263.336 148.33 263.379 148.373 263.407 148.425C263.46 148.533 263.48 148.655 263.463 148.775C263.45 148.99 263.362 149.194 263.215 149.351C263.137 149.423 263.039 149.468 262.933 149.483C262.828 149.497 262.722 149.478 262.627 149.43C262.266 149.193 262.695 148.583 262.899 148.391Z" fill="#828282"/>
<path d="M272.006 144.118C272.063 144.056 272.138 144.012 272.22 143.994C272.278 143.988 272.336 144 272.386 144.028C272.437 144.056 272.478 144.1 272.503 144.152C272.536 144.262 272.536 144.38 272.503 144.491C272.497 144.707 272.408 144.914 272.254 145.067C272.179 145.143 272.081 145.193 271.975 145.209C271.87 145.226 271.761 145.207 271.667 145.157C271.373 144.92 271.791 144.31 272.006 144.118Z" fill="#828282"/>
<path d="M266.051 143.231C266.077 143.14 266.132 143.06 266.209 143.005C266.274 142.966 266.348 142.945 266.424 142.945C266.499 142.945 266.574 142.966 266.638 143.005C266.757 143.095 266.853 143.211 266.921 143.343C266.983 143.454 267.022 143.576 267.036 143.702C267.049 143.829 267.037 143.956 267 144.078C266.953 144.196 266.867 144.296 266.756 144.359C266.645 144.423 266.516 144.447 266.39 144.428C265.836 144.371 265.927 143.536 266.051 143.231Z" fill="#828282"/>
<path d="M265.52 153.713C265.548 153.62 265.603 153.538 265.678 153.476C265.744 153.441 265.818 153.422 265.893 153.422C265.968 153.422 266.041 153.441 266.107 153.476C266.265 153.598 266.384 153.764 266.448 153.953C266.512 154.141 266.519 154.345 266.469 154.538C266.42 154.656 266.335 154.756 266.224 154.821C266.114 154.886 265.986 154.914 265.859 154.899C265.271 154.854 265.362 154.007 265.52 153.713Z" fill="#828282"/>
<path d="M281.497 73.2898C281.124 78.5422 279.305 84.382 281.181 89.5327C282.175 92.2662 284.266 94.4575 285.384 97.1571C286.523 100.103 287.356 103.157 287.87 106.273C289.709 115.756 290.302 125.439 289.633 135.076C288.232 153.996 281.644 173.209 268.413 187.159C261.62 194.421 253.162 199.922 243.769 203.188C233.999 206.348 223.454 206.161 213.802 202.657C194.198 195.778 178.514 178.315 170.605 159.429C168.683 154.688 167.229 149.769 166.266 144.745C164.955 138.363 163.757 131.958 162.989 125.486C162.159 119.087 161.909 112.626 162.243 106.182C162.436 102.867 162.874 99.5713 163.554 96.3213C163.87 94.7851 164.254 93.2602 164.684 91.8031C165.215 90.3297 165.638 88.8196 165.949 87.2849C166.401 83.9979 165.689 80.7109 165.305 77.4579C165.17 76.3283 163.475 76.3283 163.61 77.4579C164.028 80.9256 164.921 84.5853 164.085 88.0643C163.305 91.2948 162.164 94.3785 161.565 97.6654C160.457 104.162 160.108 110.765 160.526 117.342C160.947 123.983 161.777 130.593 163.011 137.132C163.903 142.918 165.179 148.639 166.831 154.256C173.147 173.989 187.848 192.254 206.503 201.538C215.542 206.149 225.754 207.951 235.825 206.712C245.995 205.356 255.554 200.432 263.452 194.016C278.695 181.591 287.317 162.84 290.322 143.74C291.832 134.107 292.022 124.315 290.887 114.631C290.379 109.078 289.276 103.594 287.599 98.2754C286.49 95.5568 285.116 92.9539 283.497 90.5041C281.972 87.8723 281.995 84.7773 282.232 81.8405C282.469 78.9037 282.989 76.1928 283.192 73.3237C283.271 72.1942 281.576 72.1942 281.497 73.3237V73.2898Z" fill="black"/>
<path d="M155.667 100.949C151.441 90.9781 148.179 80.6257 145.927 70.0335C144.944 65.4136 143.317 60.5227 143.735 55.756C144.086 53.0916 144.73 50.474 145.656 47.9509C146.464 45.381 147.461 42.8741 148.639 40.4507C150.408 36.5462 152.922 33.0241 156.04 30.0814C157.146 29.2472 158.072 28.1984 158.763 26.9978C159.005 26.5449 159.096 26.0264 159.023 25.5181C158.876 24.7387 158.108 24.3885 157.893 23.6656C157.283 21.0677 161.463 20.0285 163.249 19.7574C165.384 19.4411 167.588 19.3282 169.475 18.176C171.565 16.9222 173.509 15.4312 175.622 14.1887C177.735 12.9462 179.893 11.8054 182.108 10.8001C201.317 1.69594 223.701 -0.292058 244.413 3.75172C249.621 4.73323 254.744 6.1231 259.735 7.90845C264.254 9.56888 268.627 11.9861 273.407 12.901C274.461 13.1156 275.53 13.2515 276.605 13.3077C278.003 13.2452 279.405 13.2906 280.797 13.4432C281.927 13.6804 284.288 15.4538 282.187 16.3687C281.667 16.5947 281.17 16.4704 280.808 17.0126C279.599 18.8199 282.187 19.9833 283.249 20.8643C285.264 22.5966 287.184 24.4367 289 26.3765C292.617 30.0596 295.558 34.3493 297.689 39.05C299.758 43.9982 300.777 49.3211 300.684 54.683C300.684 65.5492 297.294 76.0314 295.452 86.6378C295 89.1567 294.876 91.7208 294.322 94.2171C294.085 95.2788 295.712 95.7307 295.961 94.6689C296.582 91.9241 296.729 89.0889 297.237 86.3215C297.746 83.5542 298.367 80.8094 298.944 78.0646C300.252 72.5911 301.271 67.0524 301.995 61.4715C302.699 55.9086 302.477 50.2675 301.339 44.7768C300.131 39.6562 297.889 34.8361 294.752 30.6123C291.186 25.6499 286.845 21.2942 281.893 17.7129L282.311 18.4471C282.311 17.7355 281.995 18.2438 282.187 18.097C282.43 18.0144 282.679 17.9502 282.932 17.9049C283.526 17.667 284.023 17.2376 284.345 16.685C284.629 16.1165 284.728 15.4733 284.629 14.8455C284.53 14.2177 284.237 13.6366 283.791 13.1834C283.234 12.6541 282.575 12.2438 281.855 11.9777C281.134 11.7117 280.366 11.5954 279.599 11.6359C277.606 11.6761 275.613 11.54 273.644 11.2293C269.972 10.4838 266.593 8.81208 263.147 7.41145C259.246 5.8342 255.245 4.51727 251.17 3.46933C234.903 -0.741248 217.877 -1.08939 201.452 2.45274C193.852 4.08899 186.491 6.68123 179.543 10.1675C176.053 11.9299 172.689 13.9302 169.475 16.1541C166.424 18.2325 162.695 17.487 159.531 19.0119C156.944 20.2431 155.147 22.8749 157.034 25.4616C157.339 25.8682 157.441 25.7666 157.204 26.3088C156.928 26.8005 156.573 27.2432 156.153 27.619C155.373 28.4323 154.492 29.1213 153.678 29.8781C151.246 32.3733 149.245 35.2552 147.757 38.4062C145.905 42.0119 144.425 45.7965 143.339 49.7017C142.66 51.8039 142.212 53.9743 142.006 56.174C141.951 58.1405 142.118 60.107 142.503 62.0363C143.283 66.4076 144.3 70.779 145.339 75.0826C147.565 84.2156 150.528 93.1532 154.198 101.808C154.627 102.802 156.085 101.943 155.667 100.949Z" fill="black"/>
<path d="M161.667 106.032C159.576 101.818 155.271 99.1413 150.548 100.508C145.339 102.022 142.266 107.285 141.057 112.278C138.401 123.189 142.322 135.174 150.345 142.877C154.75 147.096 160.25 149.996 166.221 151.247C167.294 151.473 167.746 149.847 166.673 149.621C159.421 148.122 152.946 144.076 148.421 138.216C143.896 132.356 141.62 125.07 142.006 117.677C142.243 112.594 143.848 106.698 148.175 103.547C149.079 102.853 150.118 102.356 151.225 102.087C152.332 101.819 153.484 101.785 154.605 101.988C155.86 102.316 157.023 102.929 158.003 103.779C158.982 104.629 159.753 105.694 160.254 106.89C160.74 107.861 162.198 107.003 161.723 106.032H161.667Z" fill="black"/>
<path d="M289.678 105.661C289.317 101.143 291.452 96.1274 296.311 95.2238C301.17 94.3201 305.509 98.2961 307.102 102.69C308.786 107.333 308.39 112.743 307.396 117.498C306.47 122.114 304.596 126.487 301.893 130.341C298.994 134.41 295.068 137.637 290.514 139.694C289.52 140.135 290.379 141.592 291.362 141.151C301.26 136.723 307.52 126.975 309.305 116.493C310.198 111.184 310.435 105.299 307.938 100.363C305.791 96.0483 301.294 92.7839 296.3 93.5069C290.514 94.3653 287.543 100.284 287.983 105.661C288.074 106.79 289.769 106.79 289.678 105.661Z" fill="black"/>
<path d="M155.655 74.182C161.226 77.7062 168.085 78.1241 174.401 76.859C180.537 75.6278 187.271 72.7023 189.181 66.1848C189.21 66.0773 189.219 65.9649 189.205 65.8542C189.191 65.7435 189.156 65.6366 189.101 65.5396C189.045 65.4425 188.972 65.3573 188.884 65.2888C188.796 65.2202 188.695 65.1696 188.588 65.14C188.48 65.1103 188.368 65.1021 188.257 65.1158C188.146 65.1296 188.039 65.165 187.942 65.2201C187.845 65.2751 187.76 65.3488 187.691 65.4368C187.623 65.5248 187.572 65.6254 187.542 65.733C185.768 71.8099 179.147 74.261 173.497 75.3115C167.847 76.362 161.554 75.9102 156.548 72.7136C155.621 72.1262 154.774 73.5946 155.689 74.182H155.655Z" fill="black"/>
<path d="M185.61 71.1605C189.927 73.0694 194.774 73.4181 199.319 72.1465C203.865 70.875 207.827 68.0625 210.525 64.1912C211.158 63.2988 209.689 62.4517 209.068 63.3327C206.605 66.8265 203.014 69.366 198.898 70.5241C194.782 71.6823 190.393 71.3885 186.469 69.6921C185.475 69.2628 184.616 70.7199 185.61 71.1605Z" fill="black"/>
<path d="M202.661 69.4937C202.051 72.103 202.266 74.6219 205.045 75.7966C207.825 76.9713 210.865 75.7062 213.543 74.7235C219.729 72.6478 225.612 69.757 231.034 66.1277C231.916 65.5064 231.034 64.038 230.175 64.6706C225.853 67.6391 221.182 70.0633 216.266 71.8884C213.899 72.9484 211.446 73.8025 208.932 74.4411C207.637 74.78 206.26 74.5933 205.102 73.9215C203.644 72.9388 203.972 71.4027 204.288 69.9455C204.537 68.8838 202.91 68.4319 202.661 69.4937Z" fill="black"/>
<path d="M222.672 69.6017C221.475 72.6063 223.712 75.4528 226.559 76.2886C229.949 77.2826 233.927 75.8707 237.158 74.775C243.678 72.5159 249.746 68.924 253.791 63.2537C254.435 62.3613 252.966 61.5142 252.333 62.3952C248.87 66.9592 244.161 70.4264 238.774 72.3804C236.17 73.457 233.457 74.2522 230.684 74.7524C229.125 75.0968 227.497 74.9305 226.04 74.278C225.269 73.9174 224.663 73.2805 224.341 72.4938C224.018 71.7071 224.004 70.828 224.299 70.0309C224.706 69.0257 223.068 68.5851 222.672 69.5791V69.6017Z" fill="black"/>
<path d="M247.599 67.468C247.253 68.5849 247.287 69.785 247.695 70.8805C248.104 71.976 248.865 72.9051 249.859 73.5223C250.891 74.1186 252.051 74.4594 253.243 74.5164C254.434 74.5734 255.621 74.3449 256.706 73.8499C258.917 72.812 260.838 71.2439 262.296 69.2851C263.755 67.3263 264.707 65.0375 265.068 62.6222C265.237 61.5604 263.61 61.0973 263.429 62.1817C263.144 64.128 262.438 65.9889 261.361 67.6351C260.284 69.2814 258.861 70.6736 257.192 71.715C256.378 72.2554 255.453 72.6069 254.485 72.7437C253.517 72.8805 252.531 72.7992 251.599 72.5057C250.681 72.2051 249.917 71.5559 249.474 70.6981C249.03 69.8403 248.941 68.8425 249.226 67.9198C249.587 66.8806 247.949 66.4401 247.599 67.468Z" fill="black"/>
<path d="M261.147 68.3541C261.204 69.0286 261.397 69.6845 261.716 70.2818C262.034 70.879 262.471 71.4051 263 71.8279C263.528 72.2508 264.138 72.5614 264.791 72.741C265.443 72.9206 266.126 72.9653 266.797 72.8723C268.208 72.6482 269.522 72.015 270.577 71.0512C271.631 70.0874 272.379 68.8354 272.729 67.4505C273.045 66.4 271.418 65.9595 271.09 66.9987C270.841 68.0199 270.31 68.9511 269.56 69.6874C268.809 70.4238 267.868 70.9361 266.842 71.1667C266.392 71.2644 265.927 71.2675 265.475 71.1758C265.024 71.0841 264.597 70.8996 264.221 70.6341C263.845 70.3685 263.528 70.0277 263.29 69.6333C263.053 69.2389 262.9 68.7994 262.842 68.3429C262.774 67.2133 261.079 67.2133 261.147 68.3429V68.3541Z" fill="black"/>
<path d="M269.622 70.8594C270.719 72.1316 272.084 73.1451 273.62 73.8271C275.156 74.5091 276.823 74.8426 278.503 74.8037C280.183 74.7649 281.833 74.3545 283.336 73.6023C284.838 72.85 286.155 71.7744 287.192 70.4527C287.859 69.6056 286.661 68.397 285.983 69.2554C285.105 70.4176 283.976 71.3672 282.68 72.0337C281.385 72.7002 279.956 73.0666 278.499 73.1057C277.043 73.1447 275.596 72.8554 274.267 72.2593C272.937 71.6632 271.759 70.7755 270.819 69.6621C270.096 68.8375 268.91 70.0348 269.622 70.8594Z" fill="black"/>
<path d="M291.294 118.602C291.62 116.681 292.108 114.792 292.752 112.954C293.166 111.751 293.744 110.611 294.469 109.565C295.1 108.565 296.084 107.839 297.226 107.532C297.863 107.362 298.541 107.449 299.114 107.774C299.687 108.1 300.109 108.638 300.288 109.272C300.526 110.333 302.164 109.882 301.927 108.82C301.692 107.945 301.175 107.173 300.455 106.624C299.736 106.074 298.855 105.778 297.949 105.781C297.153 105.786 296.367 105.964 295.645 106.301C294.923 106.638 294.283 107.128 293.769 107.735C292.742 108.946 291.942 110.331 291.407 111.824C290.601 113.887 290.018 116.031 289.667 118.218C289.486 119.279 291.113 119.742 291.294 118.669V118.602Z" fill="black"/>
<path d="M149.655 121.246C149.296 121.023 149.002 120.711 148.8 120.339C148.598 119.968 148.496 119.551 148.504 119.128C148.512 118.706 148.63 118.293 148.845 117.93C149.061 117.566 149.367 117.265 149.734 117.056C150.493 116.671 151.323 116.446 152.172 116.394C153.021 116.341 153.872 116.463 154.672 116.751C156.556 117.443 158.149 118.753 159.192 120.467C159.788 121.275 160.257 122.171 160.582 123.121C160.74 123.629 160.819 124.149 160.943 124.669C161.144 125.156 161.307 125.658 161.429 126.171C161.531 127.301 163.226 127.301 163.124 126.171C163.073 125.7 162.951 125.239 162.763 124.804C162.593 124.275 162.457 123.736 162.356 123.189C162.099 122.163 161.683 121.184 161.124 120.286C160.131 118.535 158.732 117.048 157.045 115.949C154.232 114.254 149.226 113.927 147.361 117.202C146.87 118.14 146.75 119.229 147.027 120.251C147.303 121.273 147.955 122.153 148.853 122.715C149.734 123.358 150.582 121.879 149.712 121.246H149.655Z" fill="black"/>
<path d="M206.865 106.188H185.882C182.505 106.188 179.769 108.921 179.769 112.293C179.769 115.665 182.505 118.398 185.882 118.398H206.865C210.241 118.398 212.978 115.665 212.978 112.293C212.978 108.921 210.241 106.188 206.865 106.188Z" fill="white"/>
<path d="M206.864 117.55H188.073C186.299 117.55 184.525 117.708 182.966 116.68C182.161 116.122 181.526 115.352 181.131 114.456C180.737 113.559 180.598 112.571 180.73 111.601C180.862 110.631 181.26 109.716 181.88 108.958C182.5 108.199 183.318 107.627 184.243 107.305C185.728 106.99 187.252 106.902 188.763 107.045H203.915C205.814 107.045 207.96 106.785 209.644 107.824C214.164 110.614 212.006 117.403 206.887 117.561C206.662 117.561 206.447 117.65 206.288 117.809C206.129 117.968 206.04 118.183 206.04 118.408C206.04 118.633 206.129 118.848 206.288 119.007C206.447 119.166 206.662 119.255 206.887 119.255C207.801 119.247 208.705 119.059 209.546 118.702C210.387 118.345 211.15 117.825 211.791 117.173C212.431 116.522 212.937 115.75 213.279 114.903C213.621 114.055 213.793 113.149 213.785 112.235C213.777 111.321 213.589 110.418 213.232 109.577C212.874 108.736 212.355 107.974 211.703 107.333C211.051 106.693 210.279 106.187 209.431 105.845C208.583 105.503 207.677 105.331 206.763 105.339C201.746 105.226 196.729 105.339 191.712 105.339C189.791 105.339 187.859 105.339 185.927 105.339C184.99 105.297 184.055 105.443 183.176 105.771C182.298 106.099 181.495 106.6 180.815 107.246C180.136 107.891 179.594 108.667 179.221 109.527C178.849 110.387 178.654 111.313 178.649 112.25C178.644 113.188 178.828 114.116 179.19 114.98C179.553 115.845 180.086 116.627 180.758 117.28C181.431 117.933 182.228 118.443 183.102 118.781C183.977 119.119 184.911 119.276 185.847 119.244C187.395 119.244 188.943 119.244 190.48 119.244H206.842C207.067 119.247 207.283 119.161 207.444 119.004C207.605 118.847 207.698 118.633 207.701 118.408C207.704 118.183 207.617 117.967 207.46 117.806C207.303 117.645 207.089 117.553 206.864 117.55Z" fill="black"/>
<path d="M196.322 115.521C198.126 115.521 199.588 114.059 199.588 112.257C199.588 110.454 198.126 108.992 196.322 108.992C194.519 108.992 193.057 110.454 193.057 112.257C193.057 114.059 194.519 115.521 196.322 115.521Z" fill="black"/>
<path d="M268.797 106.188H247.814C244.438 106.188 241.701 108.921 241.701 112.293C241.701 115.665 244.438 118.398 247.814 118.398H268.797C272.173 118.398 274.91 115.665 274.91 112.293C274.91 108.921 272.173 106.188 268.797 106.188Z" fill="white"/>
<path d="M268.797 117.554H250.006C248.232 117.554 246.458 117.712 244.898 116.684C244.093 116.126 243.458 115.356 243.064 114.46C242.669 113.564 242.53 112.576 242.662 111.605C242.795 110.635 243.193 109.72 243.813 108.962C244.433 108.204 245.25 107.632 246.175 107.309C247.66 106.994 249.184 106.906 250.695 107.049H265.848C267.746 107.049 269.893 106.789 271.576 107.829C276.096 110.619 273.938 117.407 268.819 117.565C268.595 117.565 268.379 117.655 268.22 117.813C268.061 117.972 267.972 118.188 267.972 118.412C267.972 118.637 268.061 118.853 268.22 119.011C268.379 119.17 268.595 119.26 268.819 119.26C269.756 119.292 270.69 119.134 271.564 118.797C272.439 118.459 273.236 117.948 273.908 117.295C274.581 116.642 275.114 115.86 275.476 114.996C275.839 114.132 276.023 113.203 276.018 112.266C276.012 111.329 275.818 110.403 275.445 109.543C275.073 108.683 274.531 107.907 273.851 107.261C273.172 106.616 272.369 106.114 271.49 105.787C270.612 105.459 269.677 105.312 268.74 105.355C263.723 105.242 258.706 105.355 253.689 105.355C251.768 105.355 249.836 105.355 247.904 105.355C246.968 105.312 246.032 105.459 245.154 105.787C244.276 106.114 243.473 106.616 242.793 107.261C242.113 107.907 241.571 108.683 241.199 109.543C240.827 110.403 240.632 111.329 240.627 112.266C240.621 113.203 240.805 114.132 241.168 114.996C241.53 115.86 242.064 116.642 242.736 117.295C243.408 117.948 244.205 118.459 245.08 118.797C245.954 119.134 246.888 119.292 247.825 119.26C249.373 119.26 250.921 119.26 252.458 119.26H268.797C269.023 119.26 269.24 119.17 269.4 119.01C269.56 118.85 269.65 118.633 269.65 118.407C269.65 118.181 269.56 117.964 269.4 117.804C269.24 117.644 269.023 117.554 268.797 117.554Z" fill="black"/>
<path d="M258.3 115.568C260.103 115.568 261.565 114.106 261.565 112.303C261.565 110.501 260.103 109.039 258.3 109.039C256.496 109.039 255.034 110.501 255.034 112.303C255.034 114.106 256.496 115.568 258.3 115.568Z" fill="black"/>
<path d="M210.526 93.5469H180.797C178.769 93.5469 177.125 95.1904 177.125 97.2179C177.125 99.2454 178.769 100.889 180.797 100.889H210.526C212.554 100.889 214.198 99.2454 214.198 97.2179C214.198 95.1904 212.554 93.5469 210.526 93.5469Z" fill="black"/>
<path d="M274.729 93.5469H245C242.972 93.5469 241.328 95.1904 241.328 97.2179C241.328 99.2454 242.972 100.889 245 100.889H274.729C276.757 100.889 278.401 99.2454 278.401 97.2179C278.401 95.1904 276.757 93.5469 274.729 93.5469Z" fill="black"/>
<path d="M229.463 132.71C227.735 133.703 226.15 134.927 224.752 136.347C223.224 137.706 222.076 139.438 221.418 141.374C221.225 142.313 221.256 143.284 221.51 144.208C221.763 145.133 222.231 145.984 222.876 146.694C224.304 148.182 226.072 149.303 228.028 149.958C229.045 150.376 229.486 148.738 228.48 148.332C225.678 147.202 221.701 144.683 223.317 141.057C224.069 139.587 225.089 138.27 226.322 137.172C227.525 136.011 228.869 135.005 230.322 134.178C230.517 134.065 230.659 133.878 230.716 133.66C230.773 133.442 230.741 133.21 230.627 133.015C230.513 132.82 230.327 132.679 230.109 132.622C229.89 132.564 229.658 132.596 229.463 132.71Z" fill="black"/>
<path d="M213.407 166.71C217.88 170.045 223.299 171.872 228.879 171.924C234.459 171.977 239.911 170.254 244.447 167.004C245.317 166.371 244.447 164.903 243.588 165.536C239.308 168.646 234.141 170.296 228.85 170.244C223.559 170.191 218.426 168.437 214.209 165.242C213.328 164.587 212.492 166.066 213.351 166.71H213.407Z" fill="black"/>
<path d="M247.61 165.852C247.484 165.852 247.364 165.902 247.275 165.991C247.186 166.079 247.136 166.2 247.136 166.326C247.136 166.452 247.186 166.572 247.275 166.661C247.364 166.75 247.484 166.8 247.61 166.8C247.736 166.8 247.857 166.75 247.946 166.661C248.035 166.572 248.085 166.452 248.085 166.326C248.085 166.2 248.035 166.079 247.946 165.991C247.857 165.902 247.736 165.852 247.61 165.852Z" fill="black"/>
<path d="M65.8023 154.908C65.8023 154.908 63.3277 156.444 63.8814 158.297C64.4351 160.149 71.791 181.294 71.791 181.294L75.5424 192.251C75.5424 192.251 72.7741 194.578 72.3786 195.639C71.9831 196.701 71.2486 198.475 71.5198 198.689C71.791 198.904 73.5876 202.744 73.5876 202.744L72.8758 203.659C72.8758 203.659 69.2147 200.067 67.226 200.768C65.2373 201.468 61.791 205.512 61.791 205.512C61.791 205.512 63.2599 211.001 66.5368 214.006C69.8136 217.01 70.13 218.287 70.13 218.287C70.13 218.287 69.1808 223.031 70.3447 225.742C71.5085 228.453 73.8362 237.907 79.9153 241.386C85.9944 244.865 86.5142 245.904 86.5142 245.904C87.2372 248.603 87.7026 251.364 87.904 254.15C87.9605 257.313 88.4803 291.481 89.4181 309.644C90.356 327.808 92.6724 343.971 94.7402 349.868C96.808 355.764 101.915 370.414 116.04 375.316C119.919 376.764 124.157 376.951 128.149 375.852C132.142 374.753 135.686 372.423 138.277 369.194C138.277 369.194 144.718 362.756 143.927 355.176C143.136 347.597 143.396 340.436 141.475 334.483C139.554 328.53 124.684 270.314 124.684 270.314L116.435 235.535C116.435 235.535 121.542 225.019 122.367 214.525C123.192 204.032 124.559 202.304 124.537 201.332C124.455 198.85 123.849 196.414 122.759 194.183C121.668 191.952 120.118 189.977 118.209 188.388C112.006 183.045 111.271 183.734 106.718 185.575L105.588 183.406C105.588 183.406 104.006 155.789 104.266 153.948C104.372 152.384 104.231 150.814 103.848 149.294C103.876 148.726 103.786 148.159 103.584 147.627C103.381 147.096 103.07 146.613 102.67 146.208C102.271 145.803 101.791 145.486 101.263 145.276C100.734 145.067 100.167 144.969 99.5989 144.991C95.1582 144.81 93.8362 144.776 93.4859 145.759C93.1356 146.741 91.3164 153.18 91.3164 153.18L90.7967 186.377H89.8475L79.9153 166.779L72.7176 154.479C72.7176 154.479 70.356 153.112 68.9662 153.259C67.7983 153.557 66.7155 154.121 65.8023 154.908Z" fill="white"/>
<path d="M85.2263 245.534C87.667 250.38 86.9551 256.491 87.0229 261.755C87.0907 267.56 87.1472 273.366 87.2489 279.161C87.4523 290.671 87.8139 302.181 88.7178 313.646C89.5201 323.902 90.1642 334.328 92.3337 344.392C94.2659 353.338 97.6331 362.465 104.232 369.107C110.13 375.014 118.164 378.143 126.492 376.686C130.21 376.09 133.711 374.544 136.655 372.197C139.599 369.849 141.886 366.781 143.294 363.29C144.853 359.189 145 354.513 144.797 350.175C144.508 345.313 143.786 340.486 142.639 335.751C140.379 326.071 137.441 316.549 135.159 306.903C130.255 286.085 124.65 265.448 119.678 244.642C119.015 241.871 118.364 239.103 117.723 236.34C117.475 235.278 115.836 235.73 116.085 236.792C120.752 256.988 126.142 277.015 131.068 297.143C133.43 306.801 135.712 316.447 138.379 326.026C140.933 335.209 143.498 344.708 143.136 354.321C143.172 358.552 142.038 362.711 139.859 366.339C137.744 369.492 134.767 371.97 131.283 373.478C127.446 375.122 123.23 375.675 119.1 375.077C114.969 374.479 111.083 372.753 107.87 370.089C100.684 364.306 96.8647 355.552 94.65 346.798C92.1981 337.152 91.5879 327.144 90.7065 317.261C89.7348 306.168 89.2828 295.042 89.0455 283.916C88.9212 278.269 88.8421 272.689 88.7743 267.075C88.7743 261.8 88.9551 256.412 88.4579 251.159C88.2845 248.898 87.6825 246.69 86.6839 244.653C86.1981 243.682 84.7291 244.54 85.2263 245.512V245.534Z" fill="black"/>
<path d="M89.4296 245.117C83.5161 243.662 78.3484 240.075 74.918 235.045C71.4876 230.015 70.0361 223.895 70.842 217.861C70.9889 216.731 69.294 216.799 69.1471 217.861C68.3433 224.267 69.918 230.746 73.5728 236.069C77.2276 241.392 82.7087 245.19 88.9776 246.744C90.0397 247.003 90.4917 245.365 89.4296 245.106V245.117Z" fill="black"/>
<path d="M72.8419 219.9C75.8814 221.267 80.1752 221.99 82.356 218.771C83.7119 216.771 82.8758 214.614 81.7684 212.716C80.5054 210.669 79.0486 208.747 77.4182 206.978C75.7977 205.057 74.0091 203.284 72.0735 201.681C70.4916 200.416 68.6837 199.422 66.6498 199.964C64.8081 200.497 63.21 201.656 62.13 203.24C61.5176 204.034 61.141 204.985 61.0431 205.984C60.9452 206.983 61.13 207.989 61.5764 208.887C62.8202 211.315 64.4713 213.512 66.4577 215.382C68.315 217.268 70.4869 218.816 72.8758 219.957C73.8588 220.42 74.7176 218.963 73.7345 218.5C70.3156 216.792 67.3496 214.299 65.0792 211.225C63.9492 209.814 62.3334 207.746 62.7063 205.837C63.1452 204.336 64.1553 203.067 65.5199 202.302C66.1792 201.831 66.9693 201.578 67.7797 201.578C68.5901 201.578 69.3803 201.831 70.0396 202.302C71.597 203.383 73.0228 204.641 74.2882 206.052C75.6329 207.475 76.9323 208.955 78.1526 210.48C79.4939 211.97 80.5509 213.692 81.2713 215.563C81.3753 215.993 81.3856 216.44 81.3014 216.875C81.2171 217.309 81.0404 217.72 80.7831 218.08C80.5259 218.44 80.1942 218.741 79.8105 218.961C79.4268 219.182 79.0001 219.317 78.5594 219.358C76.8933 219.548 75.2082 219.245 73.7119 218.488C72.7063 218.003 71.8475 219.46 72.8419 219.9Z" fill="black"/>
<path d="M78.5821 208.801C81.3844 212.189 85.7572 216.403 90.4578 213.782C92.2883 212.754 93.4634 211.207 93.0793 209.061C92.5271 206.788 91.6235 204.616 90.4013 202.622C89.2274 200.494 87.854 198.482 86.2996 196.613C84.9332 194.839 83.3588 193.235 81.6103 191.835C77.7685 189.022 73.068 191.553 71.3053 195.529C70.2883 197.788 71.5086 200.352 72.8307 202.306C74.503 204.7 76.7064 206.632 78.5821 208.857C79.2827 209.693 80.4804 208.484 79.7798 207.66C77.3392 204.768 73.6781 202.091 72.729 198.251C72.277 196.398 73.6216 194.67 74.9889 193.518C75.6789 192.87 76.5603 192.462 77.5013 192.356C78.4423 192.25 79.3923 192.452 80.2092 192.931C81.6183 193.963 82.8836 195.179 83.9719 196.545C85.2923 198.006 86.4939 199.57 87.5651 201.221C88.6397 202.868 89.5806 204.598 90.3787 206.395C91.0115 207.841 92.2092 210.021 90.8646 211.365C90.1069 212.129 89.1233 212.63 88.0591 212.793C86.9949 212.955 85.9066 212.772 84.955 212.268C82.911 211.113 81.1477 209.52 79.7911 207.603C79.0793 206.768 77.9493 207.965 78.5821 208.801Z" fill="black"/>
<path d="M114.04 240.066C120.051 233.379 122.051 224.512 123.079 215.826C123.362 213.341 123.463 210.822 123.961 208.382C124.39 206.247 125 204.158 125.26 201.989C125.512 199.987 125.317 197.954 124.69 196.037C124.063 194.119 123.019 192.363 121.633 190.897C120.322 189.383 118.966 187.904 117.599 186.435C116.495 185.162 115.099 184.174 113.531 183.555C109.836 182.245 106.22 184.413 104.017 187.327C102.718 189.056 101.757 191.066 100.627 192.896C99.2966 194.948 97.8478 196.92 96.2883 198.804C93.7911 201.899 91.1696 206.033 92.7967 210.099C93.1159 210.95 93.6199 211.72 94.2726 212.353C94.9252 212.986 95.7101 213.466 96.5708 213.759C98.6725 214.414 100.74 213.476 102.435 212.245C106.389 209.319 109.862 205.794 112.729 201.797C113.373 200.916 111.904 200.069 111.271 200.939C109.013 204.013 106.4 206.811 103.486 209.275C102.107 210.404 100.492 211.94 98.6386 212.245C97.648 212.336 96.658 212.067 95.8491 211.489C95.0402 210.91 94.4662 210.06 94.2318 209.094C92.9775 204.915 96.4917 201.187 98.8984 198.228C101.305 195.268 102.898 191.981 104.978 188.864C107.057 185.746 110.74 183.555 114.22 185.735C115.466 186.626 116.571 187.7 117.497 188.92C118.627 190.23 119.915 191.439 121 192.794C122.162 194.277 122.97 196.005 123.362 197.847C123.753 199.69 123.718 201.597 123.26 203.424C122.921 205.174 122.435 206.891 122.13 208.642C121.791 210.585 121.678 212.55 121.475 214.504C120.582 223.145 118.831 232.204 112.842 238.869C112.119 239.671 113.305 240.879 114.04 240.066Z" fill="black"/>
<path d="M109.848 203.783C111.239 205.792 111.94 208.198 111.848 210.639C111.848 211.769 113.509 211.769 113.543 210.639C113.629 207.896 112.837 205.197 111.283 202.936C111.168 202.751 110.988 202.618 110.778 202.561C110.568 202.504 110.345 202.529 110.153 202.631C109.966 202.744 109.831 202.924 109.774 203.134C109.717 203.345 109.744 203.569 109.848 203.76V203.783Z" fill="black"/>
<path d="M76.1978 192.021C74.2882 186.633 72.5707 181.177 70.5481 175.857L67.3955 167.781C66.3899 165.217 64.8757 162.427 64.5707 159.66C64.2995 157.129 65.8588 155.356 68.0735 154.419C68.5038 154.191 68.975 154.05 69.4599 154.006C69.9448 153.961 70.4337 154.013 70.8983 154.159C71.9629 154.906 72.8502 155.877 73.4972 157.005C76.3108 160.913 78.0961 165.443 80.2769 169.735C83.226 175.643 86.2995 181.505 89.3164 187.39C89.8136 188.361 91.2825 187.503 90.7854 186.532C87.7345 180.579 84.6272 174.66 81.6441 168.685C79.2825 163.918 77.3164 158.88 73.904 154.723C72.5368 153.052 71.1356 151.945 68.887 152.374C66.9126 152.778 65.1485 153.876 63.9153 155.469C62.3334 157.615 62.7854 160.337 63.6102 162.687C64.6611 165.691 65.8701 168.628 67.0678 171.599C69.7232 178.467 72.0961 185.481 74.5594 192.462C74.9209 193.478 76.5594 193.038 76.1978 192.01V192.021Z" fill="black"/>
<path d="M91.2599 187.51C91.4858 181.162 91.7156 174.814 91.9491 168.466C92.1751 162.253 91.7457 155.815 92.9774 149.681C93.3503 147.829 94.0169 145.897 96.0734 145.434C97.1318 145.195 98.2317 145.208 99.284 145.473C100.336 145.738 101.311 146.247 102.13 146.959C104.085 148.947 103.825 152.336 103.78 154.866C103.78 157.961 103.994 161.011 104.198 164.094C104.672 171.29 104.853 178.496 105.09 185.702C105.09 186.832 106.819 186.832 106.785 185.702C106.548 178.496 106.367 171.29 105.893 164.094C105.768 162.264 105.588 160.423 105.486 158.593C105.384 156.764 105.486 155.047 105.486 153.262C105.486 150.743 105.294 147.93 103.542 145.954C101.068 143.164 95.1469 142.396 92.7401 145.637C91.3503 147.513 91.1356 150.088 90.8757 152.324C90.4576 155.939 90.4463 159.587 90.3898 163.213C90.2768 171.301 89.8587 179.388 89.5649 187.476C89.5649 188.605 91.226 188.605 91.2599 187.476V187.51Z" fill="black"/>
<path d="M87.4406 191.538C88.273 190.469 89.3887 189.655 90.6609 189.189C92.2189 188.735 93.8426 188.547 95.4632 188.635C95.6879 188.635 95.9035 188.546 96.0624 188.387C96.2213 188.228 96.3106 188.013 96.3106 187.788C96.3106 187.564 96.2213 187.348 96.0624 187.189C95.9035 187.03 95.6879 186.941 95.4632 186.941C93.647 186.834 91.8262 187.048 90.0846 187.574C88.5781 188.122 87.2498 189.071 86.2428 190.318C86.0894 190.48 86.0039 190.694 86.0039 190.917C86.0039 191.14 86.0894 191.354 86.2428 191.516C86.4017 191.674 86.6171 191.763 86.8417 191.763C87.0663 191.763 87.2817 191.674 87.4406 191.516V191.538Z" fill="black"/>
<path d="M96.5479 212.82C94.9107 214.791 93.7353 217.103 93.1077 219.587C92.4801 222.071 92.4162 224.664 92.9208 227.176C93.1354 228.249 94.7626 227.797 94.5479 226.736C94.1137 224.511 94.1751 222.218 94.7277 220.02C95.2804 217.821 96.3108 215.772 97.7456 214.017C98.4349 213.181 97.2371 211.972 96.5479 212.82Z" fill="black"/>
</g>
</g>
<defs>
<filter id="filter0_d_1931_420" x="0" y="0" width="428" height="414.008" filterUnits="userSpaceOnUse" color-interpolation-filters="sRGB">
<feFlood flood-opacity="0" result="BackgroundImageFix"/>
<feColorMatrix in="SourceAlpha" type="matrix" values="0 0 0 0 0 0 0 0 0 0 0 0 0 0 0 0 0 0 127 0" result="hardAlpha"/>
<feOffset dy="4"/>
<feGaussianBlur stdDeviation="2"/>
<feComposite in2="hardAlpha" operator="out"/>
<feColorMatrix type="matrix" values="0 0 0 0 0 0 0 0 0 0 0 0 0 0 0 0 0 0 0.25 0"/>
<feBlend mode="normal" in2="BackgroundImageFix" result="effect1_dropShadow_1931_420"/>
<feBlend mode="normal" in="SourceGraphic" in2="effect1_dropShadow_1931_420" result="shape"/>
</filter>
<clipPath id="clip0_1931_420">
<rect width="306" height="406" fill="white" transform="translate(61)"/>
</clipPath>
</defs>
</svg>
