<?xml version="1.0" encoding="utf-8"?>
<!-- Generator: Adobe Illustrator 25.0.0, SVG Export Plug-In . SVG Version: 6.00 Build 0)  -->
<svg version="1.1" id="Layer_1" xmlns="http://www.w3.org/2000/svg" xmlns:xlink="http://www.w3.org/1999/xlink" x="0px" y="0px"
	 viewBox="0 0 1142 204" style="enable-background:new 0 0 1142 204;" xml:space="preserve">
<style type="text/css">
	.st0{fill:none;stroke:#000000;}
</style>
<path class="st0" d="M881.7,181.9L881.7,181.9H774.4c-2.2,0-4.2-1.5-4.9-3.5l-1.4-5.1c-0.1-0.2-0.2-0.4-0.4-0.6
	c-0.2-0.1-0.4-0.2-0.6-0.1c-0.4,0.1-0.8,0.4-0.8,0.9v5.5c0,1.6-1.3,2.9-2.9,2.9h-20.2c-7.9,0-14.3-6.4-14.3-14.3V6.6
	c0-3.3,2.8-6.1,6.1-6.1h78.6c2.9,0,5.3,2.4,5.3,5.3v7.8c0,2.7-1.8,5-4.2,5.7c0,0,0,0,0,0l-2.4,0.7c-0.5,0.1-0.8,0.5-0.8,0.9
	c0,0.2,0.1,0.4,0.2,0.6c0.2,0.2,0.4,0.3,0.6,0.3h69.4c13.2,0,23.9,10.7,23.9,23.9V158C905.7,171.2,895,182,881.7,181.9z
	 M874.4,136.8c1,0,1.7-0.7,1.7-1.7V68.7c0-1-0.7-1.7-1.7-1.7c-1,0-1.7,0.7-1.7,1.7v66.4C872.7,136.1,873.4,136.8,874.4,136.8z"/>
<path class="st0" d="M285,132.2L285,132.2L285,132.2c-0.1-1.1-1-1.6-1.8-1.6c-0.4,0-0.8,0.2-1.1,0.5c-0.3,0.3-0.5,0.7-0.5,1.3v38.1
	c0,6.4-5.2,11.6-11.6,11.6H193c-6.4,0-11.6-5.2-11.6-11.6V9.8c0-5.1,4.2-9.3,9.6-9.3h50.4c5.1,0,9.3,4.2,9.3,9.3v26.6
	c0,0.2,0,0.4,0.2,0.5c0.1,0.2,0.3,0.3,0.5,0.3c0.4,0,0.7-0.2,0.8-0.6l0,0l0,0l2.4-10.1c1.1-2.9,3.8-4.7,6.9-4.7h76
	c11.6,0,21,9.4,21,21v127.5c0,6.4-5.2,11.6-11.6,11.6h-47c-5.9,0-11-4.6-11.5-10.5v0L285,132.2z"/>
<path class="st0" d="M83.9,183.8L83.9,183.8L83.9,183.8l14.5,1.7c0,0,0,0,0,0c1.3,0.2,2.2,1.2,2.2,2.4v9.2c0,3.3-2.8,6.1-6.1,6.1
	H6.6c-3.3,0-6.1-2.8-6.1-6.1v-161c0-7.9,6.4-14.3,14.3-14.3h20.4c1.6,0,2.9,1.3,2.9,2.9v5.5c0,0.5,0.4,0.9,0.8,0.9
	c0.2,0,0.4,0,0.6-0.1c0.2-0.1,0.3-0.3,0.4-0.6l1.4-5.1c0.6-2.1,2.6-3.5,4.9-3.5h107.3c13.2,0,23.9,10.7,23.8,23.9v0v112.4
	c0,13.2-10.7,23.9-23.9,23.9H84c-0.2,0-0.5,0.1-0.6,0.3c-0.2,0.2-0.2,0.4-0.2,0.6C83.1,183.3,83.4,183.7,83.9,183.8z M146.1,136.8
	c1,0,1.7-0.7,1.7-1.7V68.7c0-1-0.7-1.7-1.7-1.7c-1,0-1.7,0.7-1.7,1.7v66.4C144.4,136.1,145.1,136.8,146.1,136.8z"/>
<path class="st0" d="M697,182H567c-12.9,0-23.4-10.5-23.4-23.4V45.1c0-12.9,10.5-23.4,23.4-23.4h130c13,0,23.7,10.6,23.7,23.7v57.9
	c0,5.6-4.6,10.2-10.2,10.2H637c-0.6,0-1.1-0.2-1.7-0.4c-0.9-0.5-1.4-1.6-1.4-2.8V99c0-0.9-0.7-1.6-1.6-1.6h-0.1
	c-0.9,0-1.6,0.7-1.6,1.6v15.6c0,1.6,1.2,2.8,2.8,2.8h77.2c5.6,0,10.1,4.6,10.1,10.1v30.8c0,0,0,0,0,0C720.6,171.4,710,182,697,182z"
	/>
<path class="st0" d="M1091.1,33.2L1091.1,33.2L1091.1,33.2c-0.1-6.3,5.1-11.4,11.4-11.4h27.2c6.3,0,11.4,5.1,11.4,11.4v137.3
	c0,6.3-5.1,11.4-11.4,11.4h-27.2c-6.3,0-11.4-5.1-11.4-11.4V33.2z"/>
<path class="st0" d="M1079.9,18.6H862.7c-3.8,0-7-3.1-7-7V7.5c0-3.8,3.1-7,7-7h217.2c3.8,0,7,3.1,7,7v4.2
	C1086.9,15.5,1083.7,18.6,1079.9,18.6z"/>
<path class="st0" d="M1141,11.6L1141,11.6L1141,11.6c0.1,3.9-3.1,7-7,7h-35.9c-3.9,0-7-3.2-7-7V7.5c0-3.9,3.2-7,7-7h35.9
	c3.9,0,7,3.2,7,7V11.6z"/>
<path class="st0" d="M586.7,18.6H369.5c-3.8,0-7-3.1-7-7V7.5c0-3.8,3.1-7,7-7h217.2c3.8,0,7,3.1,7,7v4.2
	C593.7,15.5,590.5,18.6,586.7,18.6z"/>
<path class="st0" d="M492.3,156.7L492.3,156.7L492.3,156.7l-3.8,18.1c-1.6,4.3-5.7,7.1-10.3,7.1H373.8c-6.2,0-11.2-5.1-11.2-11.2
	V31.6c0-5.4,4.4-9.8,9.8-9.8h91.4c5.4,0,9.8,4.4,9.8,9.8v59.3c0,1.2,0.9,2,1.9,2.1c1,0.1,2-0.4,2.3-1.6c0,0,0,0,0,0l14.7-61.5
	c1.1-4.8,5.4-8.1,10.3-8.1h26.1c5.8,0,10.6,4.8,10.6,10.6v135.5c0,7.7-6.3,14.1-14.1,14.1h-25c-3.4,0-6.1-2.8-6.1-6.1V157
	c0-0.6-0.4-0.9-0.9-1C493,155.9,492.5,156.2,492.3,156.7z"/>
<path class="st0" d="M1039.7,156.7L1039.7,156.7L1039.7,156.7l-3.8,18.1c-1.6,4.3-5.7,7.1-10.3,7.1H921.1c-6.2,0-11.2-5.1-11.2-11.2
	V31.5c0-5.4,4.4-9.8,9.8-9.8h91.4c5.4,0,9.8,4.4,9.8,9.8v59.3c0,1.2,0.9,2,1.9,2.1c1,0.1,2-0.4,2.3-1.6c0,0,0,0,0,0l14.7-61.5
	c1.1-4.8,5.4-8.1,10.3-8.1h26.1c5.8,0,10.6,4.8,10.6,10.6v135.5c0,7.7-6.3,14.1-14.1,14.1h-25c-3.4,0-6.1-2.8-6.1-6.1v-18.9
	c0-0.6-0.4-0.9-0.9-1C1040.3,155.9,1039.9,156.2,1039.7,156.7z"/>
</svg>
