<svg width="750" height="139" viewBox="0 0 750 139" fill="none" xmlns="http://www.w3.org/2000/svg">
<path d="M595.349 103.888V30.0487C595.349 21.1722 588.188 14.0052 579.319 14.0052H533.725C533.396 14.0052 533.396 13.5449 533.725 13.4792L535.301 13.0189C537.075 12.4929 538.324 10.8491 538.324 8.94229V3.81362C538.324 1.70956 536.615 0 534.513 0H482.875C480.51 0 478.539 1.97256 478.539 4.33964V110.201C478.539 115.592 482.875 119.932 488.262 119.932H501.533C502.781 119.932 503.767 118.946 503.767 117.696V114.08C503.767 113.751 504.227 113.685 504.292 114.014L505.212 117.368C505.738 118.88 507.183 119.932 508.76 119.932H579.253C588.188 119.998 595.349 112.765 595.349 103.888ZM575.245 88.8311C575.245 89.2914 574.917 89.6202 574.457 89.6202C573.997 89.6202 573.669 89.2914 573.669 88.8311V45.1717C573.669 44.7114 573.997 44.3827 574.457 44.3827C574.917 44.3827 575.245 44.7114 575.245 45.1717V88.8311Z" fill="#121212"/>
<path d="M704.8 120.125H688.376C685.945 120.125 684.04 118.153 684.04 115.786V103.358C684.04 102.964 683.514 102.898 683.383 103.293L680.886 115.26C679.77 118.218 676.945 120.191 673.791 120.191H605.203C600.933 120.191 597.517 116.706 597.517 112.498V20.9053C597.517 17.1574 600.539 14.1328 604.283 14.1328H664.331C668.075 14.1328 671.098 17.1574 671.098 20.9053V59.8963C671.098 61.1456 672.937 61.4086 673.2 60.1593L682.792 19.7217C683.58 16.4341 686.536 14.1328 689.887 14.1328H707.034C711.041 14.1328 714.326 17.4204 714.326 21.4313V110.525C714.392 115.786 710.056 120.125 704.8 120.125Z" fill="#121212"/>
<path d="M118.846 6.44371V112.042C118.846 116.447 122.394 119.998 126.796 119.998H177.317C181.718 119.998 185.266 116.447 185.266 112.042V86.9901C185.266 85.938 186.777 85.8723 186.909 86.9243L189.142 112.699C189.471 116.776 192.953 119.932 197.026 119.932H227.904C232.305 119.932 235.853 116.381 235.853 111.976V28.1419C235.853 20.3174 229.546 14.0052 221.728 14.0052H171.798C169.63 14.0052 167.725 15.3202 166.937 17.3586L165.36 23.9995C165.294 24.1968 165.031 24.1968 165.031 23.9338V6.44371C165.031 2.89309 162.141 0 158.593 0H125.482C121.737 0 118.846 2.89309 118.846 6.44371Z" fill="#121212"/>
<path d="M100.845 14.0078H30.3521C28.7097 14.0078 27.2644 15.0598 26.8045 16.5721L25.8847 19.9255C25.819 20.2543 25.3591 20.1885 25.3591 19.8598V16.2434C25.3591 14.9941 24.3737 14.0078 23.1254 14.0078H9.7232C4.33602 14.0078 0 18.3475 0 23.7391V129.6C0 131.967 1.97092 133.94 4.33602 133.94H62.0839C64.449 133.94 66.4199 131.967 66.4199 129.6V123.551C66.4199 122.565 65.6973 121.776 64.7118 121.644L55.1857 120.526C54.8572 120.461 54.8572 120 55.1857 120H100.78C109.649 120 116.81 112.833 116.81 103.957V30.0513C116.875 21.1748 109.714 14.0078 100.845 14.0078ZM96.7721 88.8337C96.7721 89.294 96.4436 89.6228 95.9837 89.6228C95.5238 89.6228 95.1953 89.294 95.1953 88.8337V45.1743C95.1953 44.7141 95.5238 44.3853 95.9837 44.3853C96.4436 44.3853 96.7721 44.7141 96.7721 45.1743V88.8337Z" fill="#121212"/>
<path d="M457.91 119.996H372.503C363.831 119.996 356.802 112.96 356.802 104.281V29.6523C356.802 20.973 363.831 13.9375 372.503 13.9375H457.91C466.648 13.9375 473.809 21.0387 473.809 29.8495V67.92C473.809 71.7994 470.655 74.9555 466.779 74.9555H418.492C418.032 74.9555 417.637 74.824 417.243 74.6267C416.521 74.2322 416.126 73.3774 416.126 72.5227V65.0927C416.126 64.6981 415.798 64.3694 415.404 64.3694H415.338C414.944 64.3694 414.615 64.6981 414.615 65.0927V75.35C414.615 76.2048 415.272 76.8623 416.126 76.8623H466.845C470.721 76.8623 473.809 80.0184 473.809 83.832V104.084C473.743 112.894 466.648 119.996 457.91 119.996Z" fill="#121212"/>
<path d="M724.313 14.0078H742.182C746.518 14.0078 750 17.4927 750 21.8323V112.11C750 116.45 746.518 119.934 742.182 119.934H724.313C719.977 119.934 716.495 116.45 716.495 112.11V21.8323C716.429 17.4927 719.977 14.0078 724.313 14.0078Z" fill="#121212"/>
<path d="M709.465 12.5587H566.77C564.076 12.5587 561.843 10.3888 561.843 7.62725V4.93141C561.843 2.23557 564.011 0 566.77 0H709.465C712.158 0 714.392 2.16982 714.392 4.93141V7.693C714.392 10.3888 712.158 12.5587 709.465 12.5587Z" fill="#121212"/>
<path d="M745.007 12.5587H721.421C718.662 12.5587 716.494 10.3231 716.494 7.62725V4.93141C716.494 2.16982 718.728 0 721.421 0H745.007C747.766 0 749.934 2.23557 749.934 4.93141V7.62725C750 10.3888 747.766 12.5587 745.007 12.5587Z" fill="#121212"/>
<path d="M385.446 12.5587H242.752C240.058 12.5587 237.824 10.3888 237.824 7.62725V4.93141C237.824 2.23557 239.992 0 242.752 0H385.446C388.14 0 390.373 2.16982 390.373 4.93141V7.693C390.373 10.3888 388.14 12.5587 385.446 12.5587Z" fill="#121212"/>
<path d="M345.173 120H328.749C326.318 120 324.413 118.028 324.413 115.661V103.233C324.413 102.839 323.887 102.773 323.756 103.168L321.259 115.069C320.143 118.028 317.318 120 314.164 120H245.576C241.306 120 237.89 116.515 237.89 112.307V20.7803C237.89 17.0324 240.912 14.0078 244.656 14.0078H304.704C308.449 14.0078 311.471 17.0324 311.471 20.7803V59.7713C311.471 61.0206 313.31 61.2836 313.573 60.0343L323.23 19.5967C324.019 16.3091 326.975 14.0078 330.326 14.0078H347.473C351.48 14.0078 354.765 17.2954 354.765 21.3063V110.4C354.765 115.661 350.495 120 345.173 120Z" fill="#121212"/>
</svg>
