<svg width="412" height="734" viewBox="0 0 412 734" fill="none" xmlns="http://www.w3.org/2000/svg">
<g clip-path="url(#clip0_1717_191)">
<path d="M256.562 270.406L265.34 301.474C266.649 306.106 267.972 310.98 266.968 315.702C265.584 322.186 259.894 327.106 253.626 329.369C247.358 331.631 240.542 331.434 233.848 330.887C227.726 330.575 221.656 329.602 215.744 327.987C209.784 326.367 204.287 323.377 199.694 319.256C197.815 317.683 196.427 315.607 195.693 313.273C195.308 311.004 195.412 308.68 195.997 306.455L199.557 287.702L201.306 278.439C201.748 276.131 201.55 273.231 204.608 273.884C210.115 275.154 215.709 276.022 221.343 276.48C226.998 276.766 232.667 276.466 238.26 275.584C244.545 274.589 250.689 272.85 256.562 270.406Z" fill="white"/>
<path d="M385.163 732.89L401.898 731.235C401.898 731.235 402.568 722.337 401.259 716.84C399.951 711.343 395.067 690.904 394.033 685.18C392.998 679.455 392.512 629.285 392.512 629.285C392.512 629.285 397.699 527.836 389.134 498.696C380.569 469.557 345.349 471.196 345.349 471.196L325.404 494.08C325.404 494.08 329.542 673.396 331.885 679.334C336.169 688.793 340.963 698.013 346.247 706.955C348.194 709.658 356.349 716.248 357.901 717.812C359.452 719.376 385.163 732.89 385.163 732.89Z" fill="white"/>
<path d="M83.9787 356.641C83.9787 356.641 99.7096 328.428 119.807 316.326C139.904 304.223 171.411 291.073 199.359 289.844C198.918 295.325 195.19 311.345 195.19 311.345C195.19 311.345 195.708 317.981 204.182 322.263C212.656 326.545 226.682 333.484 241.105 331.025C255.528 328.565 262.009 325.437 264.275 320.016C266.542 314.595 266.177 304.163 263.865 296.813C261.552 289.464 261.309 288.219 261.309 288.219C261.309 288.219 287.43 292.774 294.018 294.126C300.605 295.477 340.602 306.273 362.616 331.662C384.63 357.051 394.169 402.074 402.278 442.906C410.387 483.737 410.767 495.172 410.767 495.172C410.767 495.172 412.38 503.69 397.364 502.567C382.348 501.443 347.418 497.146 347.418 497.146L366.176 631.682C366.176 631.682 370.299 649.57 370.588 651.893C370.793 654.379 370.793 656.878 370.588 659.364C370.451 659.759 367.85 664.633 365.431 665.97C363.012 667.306 365.902 672.575 365.902 672.575C365.902 672.575 379.671 716.216 381.405 720.255C383.139 724.294 386.121 728.667 385.178 733.572L90.9314 727.817L95.4955 710.339L105.841 665.089C105.841 665.089 95.1912 660.108 93.8676 657.071C92.544 654.034 93.5177 649.099 94.2023 643.192C94.8869 637.286 114.406 502.506 114.406 502.506C114.406 502.506 111.759 505.072 111.865 504.449C111.972 503.827 94.6891 528.958 68.5674 520.135C42.4456 511.313 42.7042 479.531 42.7042 479.531L43.3888 467.034C43.3888 467.034 66.194 396.987 83.9787 356.641Z" fill="#141414"/>
<path d="M252.972 275.406C254.067 274.857 255.048 274.105 255.862 273.189C256.262 272.721 256.535 272.158 256.655 271.555C256.774 270.951 256.737 270.327 256.547 269.742C240.968 277.638 222.103 279.491 205.779 273.265C204.729 272.87 203.375 272.491 202.614 273.265C202.272 273.701 202.07 274.231 202.036 274.784C201.501 276.609 201.224 278.5 201.215 280.402C201.473 282.118 202.995 282.178 204.471 282.482C208.458 283.271 212.503 283.743 216.565 283.894C224.69 284.204 232.809 283.131 240.572 280.721C244.604 279.491 249.503 277.957 252.972 275.406Z" fill="#141414"/>
<path d="M201.322 272.016L197.853 291.847L196.058 302.173C195.385 305.123 194.968 308.125 194.811 311.147C194.811 316.826 198.599 320.152 203.087 322.961C216.878 331.46 233.423 334.321 249.275 330.948C258.099 328.792 266.102 322.915 267.06 313.303C267.76 306.47 265.25 299.455 263.591 292.91L257.841 270.133C257.762 269.841 257.57 269.592 257.308 269.441C257.045 269.29 256.733 269.25 256.441 269.328C256.148 269.407 255.899 269.598 255.748 269.86C255.597 270.122 255.556 270.433 255.635 270.725L260.29 289.099C261.705 294.702 263.333 300.32 264.398 306.015C265.356 311.466 264.961 317.023 261.355 321.473C258.746 324.511 255.328 326.748 251.496 327.926C242.87 330.826 232.936 330.614 224.112 328.837C218.882 327.79 213.812 326.059 209.035 323.69C204.684 321.503 198.188 318.436 197.214 313.06C196.636 309.902 197.579 306.546 198.112 303.433L199.907 293.153L203.513 272.593C203.756 271.166 201.565 270.543 201.307 271.986L201.322 272.016Z" fill="black"/>
<path d="M199.861 288.602C181.53 290.394 163.533 294.686 146.37 301.357C129.315 308.099 113.128 317.65 100.41 331.028C93.3016 338.445 87.518 347.021 83.3094 356.386C82.7313 357.722 84.6939 358.877 85.2872 357.54C92.6506 340.959 105.187 327.459 120.279 317.437C135.37 307.415 152.623 300.552 170.21 296.179C179.981 293.728 189.916 291.977 199.937 290.94C201.382 290.788 201.458 288.51 199.937 288.662L199.861 288.602Z" fill="black"/>
<path d="M262.024 289.346C285.377 292.383 308.851 297.713 329.998 308.358C340.005 313.157 349.158 319.558 357.094 327.308C364.358 334.785 370.465 343.301 375.213 352.576C380.009 361.898 383.847 371.682 386.669 381.776C390.29 394.349 393.348 407.058 396.086 419.829C398.825 432.599 401.259 445.643 403.541 458.535C405.473 469.528 407.527 480.537 409.322 491.546C409.748 494.234 410.387 498.167 408.135 500.262C406.749 501.337 405.02 501.877 403.267 501.781C400.224 501.857 397.105 501.432 394.063 501.219C381.709 500.338 369.371 499.306 357.109 497.544C354.066 497.104 350.887 496.603 347.783 496.026C346.353 495.783 345.729 497.969 347.174 498.228C359.802 500.384 372.52 501.781 385.208 502.783C388.495 503.041 391.796 503.284 395.082 503.512C398.109 503.89 401.161 504.032 404.21 503.937C407.344 503.679 410.296 502.419 411.376 499.23C412.456 496.041 411.802 492.473 411.209 489.299C410.235 484.167 409.322 479.049 408.455 473.902C406.142 460.235 403.769 446.569 401.092 432.903C398.414 419.237 395.508 406.102 392.055 392.861C389.334 381.599 385.722 370.571 381.253 359.879C377.011 350.022 371.454 340.782 364.731 332.41C357.754 323.916 349.328 316.719 339.841 311.152C318.847 298.624 294.809 292.049 270.802 288.374C267.881 287.919 264.945 287.509 262.024 287.129C260.502 286.932 260.579 289.21 262.024 289.407V289.346Z" fill="black"/>
<path d="M41.5938 466.021C41.8372 470.941 42.6739 475.739 42.3088 480.674C41.9442 484.626 42.1854 488.609 43.0238 492.488C44.7228 499.527 48.2489 505.995 53.2474 511.241C58.1725 516.667 64.6493 520.451 71.8006 522.081C78.952 523.71 86.4324 523.107 93.2288 520.352C101.168 516.937 108.011 511.405 113.006 504.363C113.889 503.178 111.896 502.039 111.044 503.209C102.524 514.825 88.2235 523.222 73.4206 520.261C59.9566 517.558 49.0788 506.215 45.5949 493.172C44.5701 489.209 44.2356 485.1 44.606 481.024C44.9864 475.952 44.1801 471.063 43.9214 466.006C43.8454 464.488 41.5633 464.488 41.6394 466.006L41.5938 466.021Z" fill="black"/>
<path d="M127.155 389.607C123.808 418.084 120.314 446.53 116.673 474.946C113.012 503.513 109.188 532.071 105.202 560.618C103.234 574.73 101.206 588.836 99.1166 602.938C97.1084 616.893 95.3132 630.923 92.9399 644.817C92.1792 649.251 90.7948 654.262 93.2289 658.484C95.6631 662.705 101.353 664.755 105.75 666.304C117.45 670.243 129.386 673.448 141.487 675.901C167.679 681.466 194.367 684.382 221.145 684.601C247.941 684.805 274.713 682.972 301.23 679.12C314.577 677.227 327.853 674.929 341.059 672.226C347.651 670.89 354.214 669.467 360.745 667.959C365.385 666.881 370.649 665.378 371.516 659.941C372.323 654.87 370.102 649.464 369.31 644.483C368.185 637.397 367.064 630.346 365.948 623.331C363.737 609.219 361.582 595.092 359.482 580.95C355.299 552.646 351.404 524.281 347.966 495.916C344.527 467.551 341.591 439.095 339.279 410.608C338.746 403.927 338.229 397.245 337.757 390.564C337.651 389.046 335.369 389.046 335.475 390.564C337.392 418.124 340.039 445.654 343.082 473.108C346.125 500.562 349.715 528.366 353.595 555.911C357.52 583.714 361.78 611.472 366.192 639.199C366.679 642.312 367.089 645.455 367.713 648.523C368.246 651.149 369.052 653.716 369.326 656.388C369.6 659.061 369.25 661.9 366.709 663.571C364.168 665.241 361.202 665.575 358.448 666.198C345.567 669.143 332.615 671.745 319.592 674.003C293.447 678.579 267.011 681.319 240.482 682.202C214.019 683.091 187.532 681.49 161.371 677.419C148.4 675.35 135.555 672.562 122.895 669.067C117.525 667.549 112.109 666.106 106.845 664.284C102.281 662.766 95.5566 660.534 94.3243 655.249C93.9283 652.69 94.0524 650.077 94.6894 647.566C95.2371 644.529 95.6783 641.492 96.2108 638.455C97.225 631.5 98.2393 624.546 99.2535 617.591C101.282 603.925 103.25 590.259 105.156 576.592C109.092 548.946 112.885 521.3 116.536 493.653C120.187 465.724 123.687 437.784 127.034 409.834C127.855 403.092 128.656 396.35 129.437 389.607C129.605 388.165 127.323 388.18 127.155 389.607Z" fill="black"/>
<path d="M116.4 485.124C116.803 483.123 116.607 481.047 115.837 479.156C115.418 478.198 114.729 477.382 113.854 476.808C112.979 476.234 111.955 475.926 110.908 475.922C110.605 475.922 110.315 476.042 110.101 476.255C109.887 476.469 109.767 476.759 109.767 477.061C109.767 477.363 109.887 477.652 110.101 477.866C110.315 478.08 110.605 478.2 110.908 478.2H111.318C111.638 478.2 111.105 478.2 111.41 478.2C111.621 478.236 111.829 478.287 112.033 478.351C112.033 478.351 112.444 478.534 112.17 478.351L112.399 478.458C112.57 478.55 112.733 478.656 112.885 478.777C112.657 478.61 112.885 478.777 112.885 478.777L113.114 479.004L113.281 479.187C113.281 479.278 113.281 479.263 113.281 479.187L113.372 479.323C113.481 479.467 113.577 479.619 113.661 479.779C113.711 479.86 113.752 479.947 113.783 480.037V480.189C113.783 480.052 113.783 480.022 113.783 480.189C113.889 480.553 114.026 480.918 114.118 481.297C114.209 481.677 114.118 481.692 114.224 481.905C114.224 481.586 114.224 481.905 114.224 481.996C114.224 482.087 114.224 482.193 114.224 482.299C114.255 482.714 114.255 483.13 114.224 483.545C114.224 483.742 114.224 483.939 114.224 484.152C114.224 484.365 114.224 484.486 114.224 484.152V484.486C114.149 484.776 114.189 485.084 114.337 485.344C114.484 485.605 114.728 485.798 115.015 485.883C115.306 485.962 115.616 485.924 115.878 485.776C116.14 485.628 116.333 485.383 116.415 485.093L116.4 485.124Z" fill="black"/>
<path d="M49.8705 486.32C50.9811 498.893 59.8963 510.616 72.3867 513.486C84.877 516.356 98.0064 510.646 106.283 501.08C111.045 495.404 114.582 488.807 116.674 481.704C117.099 480.307 114.894 479.7 114.468 481.097C110.938 492.47 104.046 503.024 93.1685 508.566C82.7319 513.881 69.1462 513.197 60.6874 504.512C55.8716 499.566 52.8605 493.149 52.1373 486.29C52.0156 484.847 49.7336 484.772 49.8553 486.29L49.8705 486.32Z" fill="black"/>
<path d="M402.994 731.535C405.078 717.186 397.897 703.687 395.797 689.747C393.622 675.246 394.276 660.365 393.987 645.711C393.622 630.648 393.47 615.585 393.744 600.537C394.033 585.23 394.474 569.939 394.443 554.633C394.561 537.468 393.672 520.31 391.781 503.248C391.614 501.821 389.332 501.806 389.499 503.248C393.074 533.435 392.222 563.866 391.598 594.189C391.284 609.162 391.284 624.124 391.598 639.076C391.751 646.395 391.964 653.714 392.024 661.033C392.085 668.352 392.131 675.473 392.755 682.656C393.503 690.621 395.031 698.494 397.319 706.162C399.631 714.194 402.02 722.485 400.788 730.898C400.575 732.34 402.781 732.963 402.994 731.505V731.535Z" fill="black"/>
<path d="M104.745 664.365C100.668 685.623 95.0848 706.548 89.8361 727.518C89.7554 727.81 89.7942 728.122 89.944 728.386C90.0938 728.649 90.3423 728.842 90.6348 728.923C90.9274 729.003 91.24 728.965 91.5039 728.815C91.7678 728.666 91.9614 728.418 92.0421 728.126C97.2756 707.155 102.859 686.216 106.936 664.957C107.21 663.53 105.019 662.922 104.745 664.365Z" fill="black"/>
<path d="M363.073 666.247C365.812 676.968 369.052 687.506 372.43 698.029C374.468 704.376 376.507 710.754 378.835 716.995C380.767 722.127 384.129 727.26 384.022 732.893C384.022 733.195 384.143 733.485 384.357 733.698C384.571 733.912 384.861 734.032 385.163 734.032C385.466 734.032 385.756 733.912 385.97 733.698C386.184 733.485 386.304 733.195 386.304 732.893C386.411 727.381 383.444 722.385 381.436 717.405C378.911 711.133 376.872 704.558 374.864 698.12C371.395 687.369 368.079 676.588 365.264 665.64C365.164 665.373 364.968 665.152 364.713 665.023C364.459 664.893 364.165 664.864 363.889 664.94C363.614 665.016 363.377 665.193 363.226 665.435C363.075 665.677 363.021 665.967 363.073 666.247Z" fill="black"/>
<path d="M333.787 146.498C332.265 137.281 327.808 124.252 316.793 126.849C313.834 127.359 311.159 128.918 309.258 131.239C307.358 133.559 306.36 136.486 306.448 139.482C305.346 137.303 304.435 135.032 303.725 132.695C302.51 128.948 300.893 125.344 298.902 121.944C297.259 119.165 295.859 107.625 297.457 101.839C299.054 96.0541 293.988 99.334 293.988 99.334C293.988 99.334 284.997 98.924 282.76 94.5356C282.76 94.5356 273.632 100.169 270.589 93.336C268.566 94.2471 262.511 102.447 255.665 98.7722C248.819 95.0975 252.85 90.375 252.85 90.375C252.85 90.375 241.136 98.681 235.552 99.7592C229.969 100.837 221.738 102.796 219.152 99.1821C216.566 95.5682 219.152 93.1083 219.152 93.1083C219.152 93.1083 201.002 101.49 198.477 101.278C195.951 101.065 191.935 100.442 191.631 99.2733C191.475 97.2212 191.475 95.1603 191.631 93.1083C191.631 93.1083 184.784 99.9566 168.521 94.8849C168.521 94.8849 161.477 103.662 139.478 103.039C139.478 103.039 140.558 116.341 139.615 118.695C137.674 125.998 136.176 133.411 135.127 140.895C135.169 142.126 135.015 143.356 134.671 144.539C134.671 144.539 131.628 137.159 128.585 136.81C125.543 136.461 120.857 135.291 118.088 137.311C115.521 139.077 113.34 141.347 111.68 143.981C110.019 146.615 108.912 149.558 108.427 152.632C107.058 161.348 108.017 171.75 111.303 177.323C114.589 182.896 122.409 198.581 141.395 202.195C142.764 204.443 152.516 238.517 173.07 253.672C189.683 265.926 198.431 270.527 201.185 271.893C202.678 272.274 204.127 272.814 205.505 273.503C207.179 274.065 208.868 274.566 210.572 275.021C214.068 275.924 217.628 276.558 221.221 276.92C229.485 277.742 237.829 277.037 245.837 274.839C249.062 273.989 253.17 271.969 256.897 270.997L256.791 270.587C256.791 270.375 262.633 266.852 266.558 263.967C270.483 261.082 285.559 246.823 290.23 239.58C294.901 232.337 307.102 205.673 308.228 188.681C308.228 188.681 312.792 188.013 314.526 186.327C316.261 184.642 324.826 177.551 326.697 173.921C328.568 170.292 335.293 155.715 333.787 146.498Z" fill="white"/>
<path d="M126.273 136.281C126.273 136.281 118.225 112.092 114.862 101.827C111.5 91.562 109.918 78.2906 110.177 72.9759C110.435 67.6613 116.81 49.804 124.888 40.9969C126.075 39.691 127.307 38.4306 128.57 37.1855C129.833 35.9403 131.43 34.8622 130.091 33.0097C129.62 32.3416 128.966 31.7038 128.966 30.8838C129.004 30.5408 129.11 30.2086 129.277 29.9064C129.444 29.6042 129.669 29.3378 129.939 29.1224C132.238 27.0747 135.008 25.6247 138.002 24.901C140.376 24.2177 142.795 23.6863 145.107 22.8663C147.189 21.9579 149.155 20.8059 150.964 19.4345C154.993 16.8512 159.174 14.5135 163.485 12.4344C170.085 9.19075 177.121 6.91976 184.374 5.69234C210.724 1.51654 234.289 -2.24928 265.158 8.54707C269.779 10.1546 274.313 11.9995 278.744 14.0743C279.625 14.5689 280.54 15.0002 281.482 15.365C282.683 15.6653 283.912 15.8383 285.149 15.8813C287.628 16.0939 290.108 16.0939 292.573 16.3824C293.898 16.5173 295.207 16.7766 296.483 17.1568C297.681 17.4401 298.752 18.1131 299.525 19.0701C299.893 19.5586 300.063 20.1675 300.001 20.7754C299.939 21.3832 299.649 21.9455 299.191 22.35C298.71 22.6135 298.199 22.8174 297.669 22.9574C297.403 23.0304 297.159 23.1686 296.96 23.3595C296.761 23.5504 296.612 23.788 296.528 24.0507C296.407 24.8251 297.502 25.2047 298.05 25.5692C298.947 26.1917 299.799 26.9358 300.651 27.6191C302.02 28.758 303.359 29.9272 304.637 31.1723C305.728 32.1756 306.745 33.2565 307.68 34.4067C307.68 34.4067 319.851 48.984 321.372 55.6653C322.894 62.3466 325.48 78.9891 322.665 91.9417C319.851 104.894 317.143 111.409 315.287 127.003C312.574 129.109 310.03 131.424 307.68 133.927C307.68 133.927 306.95 137.815 306.721 138.68C306.493 139.546 305.352 138.68 305.352 138.68C305.352 138.68 303.238 131.893 301.594 127.732C299.951 123.571 295.768 118.712 295.859 113.58C296.18 108.572 296.764 103.585 297.608 98.6381C297.608 98.6381 288.769 101.751 282.106 95.3279C279.489 96.2238 273.495 98.4863 270.285 93.2627C269.159 94.3257 260.898 102.04 255.756 98.6381C250.614 95.2368 252.257 91.2584 252.257 91.2584C252.257 91.2584 236.237 103.239 223.518 101.523C215.911 100.111 219.76 93.2627 219.76 93.2627C219.76 93.2627 200.12 101.66 197.29 101.462C194.46 101.265 190.17 100.217 191.357 93.8398C191.357 93.8398 183.324 99.7314 168.536 94.9179C164.687 96.983 156.928 104.803 139.007 103.072C139.782 105.699 141.167 114.552 139.661 119.563C138.155 124.574 135.888 134.96 135.842 135.279C135.796 135.598 135.705 139.273 135.705 139.273L135.447 141.915L132.86 140.047L127.246 136.281H126.273Z" fill="#141414"/>
<path d="M173.876 186.775C173.991 186.766 174.104 186.798 174.196 186.866C174.256 186.933 174.3 187.013 174.324 187.1C174.348 187.187 174.351 187.279 174.333 187.367C174.301 187.546 174.222 187.714 174.105 187.853C174.019 187.972 173.91 188.073 173.785 188.148C173.659 188.224 173.52 188.273 173.374 188.293C173.223 188.293 173.076 188.239 172.959 188.142C172.843 188.045 172.764 187.911 172.735 187.762C172.583 187.079 173.511 186.775 173.876 186.775Z" fill="#828282"/>
<path d="M165.722 192.844C165.761 192.809 165.807 192.783 165.857 192.767C165.907 192.751 165.959 192.746 166.011 192.753C166.103 192.777 166.189 192.821 166.262 192.882C166.335 192.942 166.395 193.017 166.437 193.102C166.519 193.272 166.561 193.459 166.559 193.649C166.577 193.791 166.563 193.936 166.518 194.072C166.474 194.209 166.399 194.334 166.3 194.438C166.171 194.519 166.018 194.551 165.867 194.529C165.716 194.507 165.579 194.431 165.479 194.317C164.931 193.8 165.448 193.041 165.722 192.844Z" fill="#828282"/>
<path d="M181.955 188.287C181.993 188.25 182.038 188.221 182.088 188.203C182.138 188.185 182.191 188.177 182.244 188.18C182.337 188.207 182.423 188.253 182.497 188.316C182.57 188.379 182.629 188.457 182.67 188.545C182.749 188.717 182.796 188.902 182.807 189.092C182.82 189.233 182.803 189.375 182.756 189.509C182.708 189.643 182.632 189.765 182.533 189.866C182.406 189.949 182.253 189.983 182.102 189.964C181.952 189.944 181.813 189.872 181.711 189.76C181.179 189.228 181.681 188.469 181.955 188.287Z" fill="#828282"/>
<path d="M178.288 204.201C178.326 204.164 178.371 204.135 178.421 204.117C178.471 204.099 178.524 204.091 178.577 204.095C178.76 204.157 178.913 204.288 179.003 204.459C179.085 204.629 179.127 204.816 179.125 205.006C179.143 205.148 179.129 205.293 179.084 205.429C179.039 205.566 178.965 205.691 178.866 205.795C178.735 205.87 178.583 205.899 178.434 205.877C178.285 205.855 178.148 205.783 178.045 205.674C177.497 205.173 177.999 204.413 178.288 204.201Z" fill="#828282"/>
<path d="M170.088 201.958C170.163 201.871 170.265 201.812 170.377 201.791C170.455 201.783 170.533 201.799 170.601 201.837C170.669 201.875 170.724 201.933 170.758 202.004C170.828 202.144 170.854 202.303 170.834 202.459C170.826 202.75 170.706 203.028 170.499 203.233C170.398 203.336 170.266 203.403 170.124 203.425C169.981 203.447 169.835 203.422 169.708 203.355C169.236 203.051 169.799 202.231 170.088 201.958Z" fill="#828282"/>
<path d="M182.335 196.217C182.413 196.137 182.514 196.084 182.624 196.065C182.704 196.056 182.785 196.072 182.855 196.11C182.926 196.148 182.983 196.206 183.02 196.277C183.058 196.427 183.058 196.584 183.02 196.733C183.006 197.023 182.887 197.298 182.685 197.507C182.582 197.608 182.45 197.672 182.307 197.691C182.165 197.71 182.02 197.683 181.894 197.614C181.483 197.31 182.046 196.475 182.335 196.217Z" fill="#828282"/>
<path d="M174.317 195.033C174.355 194.903 174.435 194.791 174.545 194.714C174.631 194.666 174.728 194.641 174.827 194.641C174.925 194.641 175.022 194.666 175.108 194.714C175.275 194.828 175.406 194.985 175.488 195.169C175.572 195.315 175.624 195.477 175.643 195.644C175.661 195.811 175.645 195.98 175.595 196.141C175.532 196.302 175.417 196.437 175.268 196.525C175.119 196.613 174.945 196.649 174.773 196.627C174.028 196.566 174.165 195.427 174.317 195.033Z" fill="#828282"/>
<path d="M172.111 209.545C172.153 209.427 172.227 209.322 172.324 209.241C172.412 209.191 172.512 209.164 172.613 209.164C172.715 209.164 172.814 209.191 172.902 209.241C173.068 209.356 173.2 209.513 173.283 209.697C173.444 209.994 173.483 210.343 173.389 210.669C173.326 210.828 173.21 210.962 173.061 211.047C172.912 211.133 172.738 211.165 172.568 211.139C171.822 211.064 171.913 209.94 172.111 209.545Z" fill="#828282"/>
<path d="M275.641 184.298C275.691 184.277 275.745 184.266 275.8 184.266C275.855 184.266 275.91 184.277 275.96 184.298C276.022 184.367 276.066 184.45 276.09 184.54C276.114 184.629 276.116 184.723 276.097 184.814C276.066 184.992 275.981 185.157 275.854 185.285C275.773 185.409 275.666 185.513 275.539 185.589C275.413 185.665 275.271 185.712 275.123 185.725C274.972 185.724 274.825 185.671 274.708 185.574C274.592 185.477 274.513 185.343 274.484 185.194C274.347 184.586 275.275 184.298 275.641 184.298Z" fill="#828282"/>
<path d="M267.47 190.342C267.551 190.276 267.655 190.244 267.759 190.251C267.855 190.276 267.944 190.322 268.02 190.385C268.096 190.448 268.158 190.527 268.2 190.615C268.284 190.785 268.326 190.973 268.322 191.162C268.338 191.303 268.322 191.447 268.274 191.581C268.227 191.715 268.15 191.837 268.048 191.937C267.922 192.015 267.773 192.047 267.626 192.028C267.479 192.009 267.343 191.939 267.242 191.83C266.694 191.329 267.212 190.555 267.47 190.342Z" fill="#828282"/>
<path d="M283.719 185.766C283.757 185.731 283.803 185.705 283.853 185.689C283.903 185.673 283.956 185.668 284.008 185.675C284.099 185.699 284.185 185.743 284.258 185.803C284.332 185.864 284.392 185.939 284.434 186.024C284.516 186.194 284.557 186.381 284.555 186.57C284.573 186.713 284.56 186.858 284.515 186.994C284.47 187.131 284.396 187.256 284.297 187.36C284.168 187.441 284.014 187.473 283.863 187.451C283.713 187.428 283.575 187.353 283.475 187.239C282.973 186.768 283.445 185.978 283.719 185.766Z" fill="#828282"/>
<path d="M280.037 201.717C280.118 201.651 280.221 201.619 280.326 201.626C280.421 201.651 280.51 201.697 280.586 201.76C280.662 201.823 280.724 201.902 280.767 201.991C280.852 202.16 280.894 202.348 280.889 202.537C280.907 202.679 280.892 202.822 280.844 202.957C280.796 203.091 280.718 203.213 280.615 203.312C280.489 203.39 280.34 203.422 280.192 203.403C280.045 203.384 279.91 203.314 279.808 203.205C279.261 202.689 279.778 201.96 280.037 201.717Z" fill="#828282"/>
<path d="M271.837 199.481C271.916 199.4 272.016 199.342 272.126 199.314C272.205 199.307 272.285 199.324 272.355 199.362C272.426 199.399 272.483 199.457 272.521 199.527C272.593 199.672 272.619 199.836 272.598 199.997C272.58 200.286 272.461 200.56 272.263 200.772C272.158 200.868 272.025 200.929 271.884 200.948C271.743 200.967 271.599 200.943 271.472 200.878C270.985 200.559 271.563 199.739 271.837 199.481Z" fill="#828282"/>
<path d="M284.099 193.739C284.176 193.656 284.277 193.597 284.388 193.572C284.465 193.564 284.543 193.581 284.611 193.619C284.679 193.657 284.734 193.715 284.768 193.785C284.813 193.933 284.813 194.092 284.768 194.24C284.76 194.532 284.64 194.809 284.433 195.015C284.332 195.117 284.2 195.185 284.058 195.206C283.915 195.228 283.769 195.204 283.642 195.136C283.247 194.817 283.809 193.997 284.099 193.739Z" fill="#828282"/>
<path d="M276.081 192.54C276.116 192.417 276.191 192.31 276.294 192.236C276.382 192.184 276.482 192.156 276.583 192.156C276.685 192.156 276.785 192.184 276.873 192.236C277.032 192.358 277.161 192.513 277.253 192.692C277.337 192.84 277.389 193.004 277.408 193.174C277.426 193.344 277.409 193.515 277.359 193.679C277.296 193.838 277.18 193.972 277.031 194.057C276.882 194.143 276.708 194.175 276.538 194.149C275.792 194.073 275.914 192.95 276.081 192.54Z" fill="#828282"/>
<path d="M275.366 206.634C275.404 206.509 275.478 206.398 275.579 206.315C275.668 206.267 275.767 206.242 275.868 206.242C275.969 206.242 276.069 206.267 276.157 206.315C276.37 206.479 276.529 206.702 276.616 206.956C276.703 207.209 276.712 207.483 276.644 207.742C276.579 207.902 276.464 208.035 276.315 208.123C276.167 208.211 275.994 208.248 275.823 208.228C275.032 208.168 275.153 207.029 275.366 206.634Z" fill="#828282"/>
<path d="M296.878 98.5152C296.376 105.576 293.927 113.427 296.452 120.351C297.791 124.026 300.606 126.971 302.112 130.601C303.645 134.56 304.766 138.666 305.459 142.855C307.935 155.604 308.733 168.621 307.832 181.576C305.946 207.01 297.076 232.839 279.261 251.593C270.116 261.355 258.728 268.75 246.08 273.14C232.926 277.388 218.728 277.137 205.733 272.426C179.338 263.178 158.221 239.703 147.572 214.314C144.984 207.94 143.027 201.328 141.73 194.574C139.965 185.994 138.352 177.385 137.318 168.684C136.2 160.082 135.864 151.396 136.314 142.733C136.573 138.277 137.163 133.846 138.078 129.477C138.504 127.412 139.022 125.362 139.6 123.403C140.315 121.422 140.884 119.392 141.304 117.329C141.912 112.91 140.954 108.492 140.437 104.118C140.254 102.6 137.972 102.6 138.155 104.118C138.717 108.78 139.919 113.7 138.794 118.377C137.744 122.72 136.207 126.865 135.401 131.284C133.909 140.017 133.439 148.894 134.001 157.736C134.568 166.664 135.686 175.548 137.348 184.339C138.549 192.118 140.267 199.808 142.49 207.359C150.995 233.887 170.788 258.441 195.905 270.923C208.075 277.121 221.825 279.543 235.385 277.877C249.077 276.055 261.948 269.435 272.582 260.81C293.105 244.106 304.713 218.9 308.76 193.222C310.793 180.274 311.048 167.109 309.521 154.091C308.836 146.625 307.352 139.254 305.094 132.104C303.6 128.449 301.751 124.95 299.571 121.657C297.517 118.119 297.548 113.958 297.867 110.01C298.187 106.062 298.886 102.418 299.16 98.5607C299.267 97.0423 296.985 97.0423 296.878 98.5607V98.5152Z" fill="black"/>
<path d="M127.46 135.705C121.77 122.301 117.379 108.384 114.346 94.1446C113.022 87.9341 110.831 81.3591 111.394 74.9511C111.867 71.3692 112.734 67.8503 113.981 64.4585C115.069 61.0037 116.412 57.6337 117.997 54.3758C120.379 49.1269 123.764 44.392 127.962 40.4362C129.451 39.3148 130.698 37.9048 131.628 36.2908C131.955 35.682 132.077 34.9849 131.978 34.3016C131.78 33.2538 130.746 32.7831 130.457 31.8113C129.635 28.3188 135.264 26.9218 137.668 26.5573C140.543 26.1322 143.51 25.9803 146.051 24.4315C148.865 22.746 151.482 20.7416 154.327 19.0713C157.172 17.4009 160.078 15.8673 163.06 14.5158C188.923 2.27695 219.061 -0.395568 246.948 5.04057C253.96 6.36004 260.858 8.22847 267.577 10.6286C273.663 12.8607 279.55 16.1102 285.986 17.3402C287.405 17.6287 288.844 17.8114 290.291 17.8869C292.174 17.8029 294.061 17.8638 295.935 18.0691C297.457 18.388 300.636 20.772 297.807 22.0019C297.107 22.3056 296.437 22.1386 295.951 22.8675C294.323 25.297 297.807 26.861 299.237 28.0455C301.95 30.3742 304.535 32.8479 306.98 35.4556C311.85 40.4068 315.81 46.1736 318.68 52.4929C321.464 59.1447 322.837 66.3005 322.711 73.5086C322.711 88.1163 318.147 102.208 315.667 116.466C315.059 119.852 314.892 123.299 314.146 126.655C313.827 128.083 316.017 128.69 316.352 127.263C317.189 123.573 317.387 119.761 318.071 116.041C318.756 112.321 319.593 108.631 320.368 104.941C322.13 97.5829 323.501 90.137 324.476 82.6346C325.424 75.1562 325.126 67.5728 323.594 60.1915C321.967 53.3077 318.949 46.828 314.724 41.1499C309.924 34.4787 304.078 28.6233 297.411 23.8089L297.974 24.7959C297.974 23.8393 297.548 24.5226 297.807 24.3252C298.134 24.2142 298.47 24.1279 298.811 24.067C299.61 23.7472 300.279 23.17 300.712 22.4271C301.095 21.6628 301.229 20.7982 301.095 19.9542C300.962 19.1103 300.567 18.3291 299.967 17.7198C299.217 17.0082 298.33 16.4567 297.36 16.099C296.389 15.7413 295.356 15.585 294.323 15.6395C291.639 15.6935 288.956 15.5106 286.305 15.0929C281.361 14.0907 276.812 11.8433 272.172 9.96042C266.92 7.8401 261.532 6.06972 256.045 4.66095C234.144 -0.999424 211.22 -1.46744 189.105 3.29432C178.873 5.49397 168.961 8.97878 159.606 13.6655C154.908 16.0347 150.379 18.7237 146.051 21.7134C141.943 24.5074 136.923 23.5052 132.663 25.5552C129.179 27.2103 126.76 30.7483 129.301 34.2256C129.711 34.7723 129.848 34.6356 129.529 35.3645C129.158 36.0256 128.68 36.6208 128.114 37.1259C127.064 38.2192 125.878 39.1455 124.782 40.1629C121.507 43.5172 118.813 47.3915 116.81 51.6273C114.317 56.4745 112.324 61.5623 110.862 66.8121C109.947 69.6382 109.345 72.5559 109.067 75.5129C108.992 78.1567 109.217 80.8003 109.736 83.3938C110.786 89.2703 112.155 95.1468 113.555 100.932C116.551 113.21 120.54 125.225 125.482 136.859C126.06 138.196 128.023 137.042 127.46 135.705Z" fill="black"/>
<path d="M135.538 142.542C132.724 136.878 126.927 133.279 120.568 135.116C113.555 137.151 109.416 144.227 107.789 150.939C104.213 165.607 109.492 181.718 120.294 192.074C126.225 197.746 133.63 201.644 141.669 203.326C143.115 203.63 143.723 201.443 142.278 201.14C132.514 199.124 123.796 193.685 117.704 185.808C111.611 177.93 108.547 168.135 109.067 158.197C109.386 151.364 111.546 143.437 117.373 139.201C118.59 138.268 119.989 137.6 121.479 137.239C122.97 136.879 124.52 136.833 126.03 137.105C127.72 137.547 129.285 138.371 130.605 139.513C131.924 140.656 132.961 142.088 133.636 143.696C134.291 145.002 136.253 143.847 135.614 142.542H135.538Z" fill="black"/>
<path d="M307.893 142.037C307.407 135.963 310.282 129.221 316.824 128.006C323.366 126.791 329.208 132.136 331.353 138.043C333.62 144.284 333.087 151.557 331.748 157.95C330.502 164.155 327.979 170.034 324.339 175.215C320.437 180.685 315.15 185.023 309.019 187.788C307.68 188.38 308.837 190.339 310.16 189.747C323.487 183.795 331.916 170.69 334.319 156.599C335.521 149.462 335.841 141.551 332.479 134.915C329.588 129.114 323.533 124.726 316.809 125.698C309.019 126.852 305.018 134.809 305.611 142.037C305.733 143.555 308.015 143.555 307.893 142.037Z" fill="black"/>
<path d="M127.445 99.7199C134.945 104.458 144.18 105.019 152.684 103.319C160.945 101.664 170.013 97.7307 172.584 88.9691C172.624 88.8246 172.635 88.6736 172.616 88.5247C172.598 88.3759 172.55 88.2322 172.476 88.1017C172.402 87.9713 172.302 87.8567 172.184 87.7646C172.065 87.6724 171.93 87.6044 171.785 87.5646C171.64 87.5247 171.489 87.5137 171.34 87.5321C171.191 87.5506 171.047 87.5982 170.916 87.6723C170.785 87.7463 170.67 87.8453 170.578 87.9636C170.486 88.0819 170.418 88.2172 170.378 88.3618C167.989 96.5311 159.074 99.8262 151.467 101.238C143.86 102.651 135.386 102.043 128.647 97.7459C127.399 96.9563 126.258 98.9303 127.49 99.7199H127.445Z" fill="black"/>
<path d="M167.775 95.6634C173.588 98.2297 180.113 98.6984 186.233 96.989C192.354 95.2797 197.688 91.4988 201.321 86.2945C202.173 85.0949 200.196 83.956 199.359 85.1404C196.043 89.8372 191.208 93.2511 185.666 94.808C180.125 96.3649 174.216 95.9699 168.932 93.6894C167.593 93.1124 166.437 95.0712 167.775 95.6634Z" fill="black"/>
<path d="M190.733 93.4187C189.911 96.9264 190.201 100.313 193.943 101.892C197.686 103.471 201.778 101.77 205.384 100.449C213.713 97.6588 221.633 93.7727 228.934 88.8937C230.121 88.0585 228.934 86.0845 227.778 86.9348C221.959 90.9255 215.669 94.1845 209.05 96.6379C205.864 98.063 202.561 99.2111 199.177 100.07C197.432 100.525 195.579 100.274 194.019 99.3712C192.057 98.0501 192.498 95.9849 192.924 94.0261C193.258 92.5988 191.068 91.9914 190.733 93.4187Z" fill="black"/>
<path d="M217.676 93.5705C216.063 97.6096 219.076 101.436 222.909 102.56C227.473 103.896 232.829 101.998 237.18 100.525C245.958 97.4881 254.128 92.6594 259.574 85.0366C260.441 83.837 258.464 82.6982 257.612 83.8826C252.948 90.018 246.609 94.6791 239.355 97.3059C235.849 98.7532 232.197 99.8222 228.462 100.495C226.364 100.958 224.171 100.734 222.21 99.857C221.173 99.3721 220.356 98.516 219.922 97.4584C219.488 96.4008 219.468 95.219 219.867 94.1475C220.414 92.796 218.208 92.2038 217.676 93.5401V93.5705Z" fill="black"/>
<path d="M251.238 90.6966C250.772 92.1981 250.818 93.8115 251.368 95.2842C251.919 96.757 252.943 98.0059 254.281 98.8357C255.671 99.6372 257.233 100.095 258.837 100.172C260.441 100.249 262.039 99.9414 263.5 99.276C266.477 97.8807 269.063 95.7727 271.027 93.1395C272.991 90.5062 274.273 87.4293 274.758 84.1824C274.986 82.755 272.796 82.1324 272.552 83.5902C272.168 86.2066 271.218 88.7083 269.768 90.9214C268.317 93.1345 266.402 95.0061 264.154 96.4061C263.058 97.1326 261.813 97.6051 260.51 97.789C259.207 97.9729 257.879 97.8636 256.624 97.469C255.387 97.0649 254.36 96.1922 253.762 95.039C253.165 93.8859 253.045 92.5445 253.429 91.304C253.916 89.907 251.71 89.3148 251.238 90.6966Z" fill="black"/>
<path d="M269.478 91.8842C269.554 92.7909 269.815 93.6727 270.244 94.4756C270.673 95.2785 271.261 95.9857 271.973 96.5541C272.685 97.1225 273.505 97.5402 274.384 97.7816C275.263 98.023 276.182 98.083 277.085 97.9581C278.985 97.6568 280.755 96.8055 282.174 95.5099C283.594 94.2143 284.602 92.5312 285.072 90.6694C285.498 89.2573 283.307 88.6651 282.866 90.0621C282.53 91.4349 281.816 92.6867 280.805 93.6766C279.795 94.6665 278.527 95.3552 277.146 95.6652C276.54 95.7965 275.913 95.8007 275.306 95.6774C274.698 95.5541 274.123 95.3061 273.617 94.9492C273.11 94.5922 272.684 94.1341 272.364 93.6038C272.045 93.0736 271.839 92.4828 271.76 91.869C271.669 90.3506 269.387 90.3506 269.478 91.869V91.8842Z" fill="black"/>
<path d="M280.889 95.2552C282.366 96.9655 284.205 98.328 286.272 99.2448C288.34 100.162 290.585 100.61 292.847 100.558C295.109 100.505 297.331 99.9539 299.354 98.9425C301.377 97.9312 303.15 96.4853 304.546 94.7086C305.444 93.5697 303.831 91.945 302.918 93.099C301.736 94.6613 300.216 95.9379 298.472 96.8339C296.727 97.7299 294.803 98.2225 292.842 98.275C290.881 98.3275 288.933 97.9386 287.143 97.1372C285.353 96.3358 283.767 95.1425 282.502 93.6457C281.528 92.5372 279.931 94.1468 280.889 95.2552Z" fill="black"/>
<path d="M310.069 159.438C310.508 156.856 311.164 154.317 312.032 151.845C312.59 150.228 313.368 148.696 314.344 147.29C315.193 145.945 316.518 144.969 318.056 144.557C318.913 144.328 319.826 144.445 320.598 144.882C321.369 145.32 321.937 146.043 322.179 146.895C322.499 148.323 324.704 147.715 324.385 146.288C324.069 145.112 323.373 144.074 322.404 143.336C321.435 142.597 320.249 142.199 319.03 142.203C317.957 142.21 316.899 142.449 315.927 142.902C314.956 143.355 314.094 144.013 313.401 144.83C312.019 146.457 310.942 148.319 310.221 150.327C309.136 153.1 308.351 155.982 307.878 158.922C307.635 160.349 309.826 160.971 310.069 159.529V159.438Z" fill="black"/>
<path d="M119.366 162.994C118.883 162.694 118.486 162.274 118.215 161.775C117.943 161.276 117.806 160.715 117.816 160.147C117.827 159.579 117.985 159.024 118.276 158.535C118.566 158.047 118.979 157.642 119.473 157.36C120.495 156.844 121.611 156.541 122.755 156.471C123.898 156.4 125.043 156.563 126.121 156.95C128.657 157.882 130.802 159.643 132.207 161.946C133.009 163.033 133.64 164.237 134.078 165.515C134.291 166.198 134.397 166.896 134.565 167.595C134.835 168.25 135.054 168.925 135.219 169.614C135.356 171.133 137.638 171.133 137.501 169.614C137.432 168.981 137.268 168.362 137.014 167.777C136.785 167.066 136.602 166.34 136.466 165.606C136.12 164.227 135.561 162.91 134.808 161.703C133.471 159.349 131.587 157.35 129.316 155.872C125.528 153.595 118.788 153.154 116.278 157.558C115.616 158.818 115.455 160.282 115.827 161.656C116.2 163.03 117.078 164.212 118.286 164.968C119.473 165.833 120.614 163.844 119.442 162.994H119.366Z" fill="black"/>
<path d="M196.392 142.75H168.141C163.595 142.75 159.91 146.425 159.91 150.957C159.91 155.49 163.595 159.165 168.141 159.165H196.392C200.938 159.165 204.623 155.49 204.623 150.957C204.623 146.425 200.938 142.75 196.392 142.75Z" fill="white"/>
<path d="M196.393 158.029H171.092C168.704 158.029 166.315 158.242 164.216 156.86C163.132 156.11 162.277 155.075 161.746 153.87C161.214 152.665 161.027 151.337 161.205 150.032C161.383 148.728 161.919 147.498 162.754 146.479C163.589 145.459 164.69 144.69 165.935 144.257C167.934 143.833 169.986 143.715 172.021 143.907H192.422C194.978 143.907 197.868 143.558 200.135 144.955C206.221 148.706 203.315 157.832 196.423 158.044C196.121 158.044 195.83 158.164 195.616 158.378C195.402 158.591 195.282 158.881 195.282 159.183C195.282 159.485 195.402 159.775 195.616 159.988C195.83 160.202 196.121 160.322 196.423 160.322C197.654 160.311 198.87 160.058 200.003 159.578C201.136 159.098 202.163 158.4 203.025 157.523C203.888 156.647 204.569 155.61 205.03 154.471C205.491 153.331 205.722 152.113 205.711 150.885C205.7 149.656 205.447 148.442 204.966 147.311C204.485 146.181 203.785 145.156 202.907 144.295C202.029 143.434 200.99 142.754 199.849 142.294C198.707 141.834 197.486 141.603 196.256 141.614C189.501 141.463 182.746 141.614 175.991 141.614C173.405 141.614 170.803 141.614 168.202 141.614C166.941 141.557 165.682 141.754 164.499 142.195C163.317 142.635 162.235 143.309 161.32 144.177C160.405 145.045 159.675 146.088 159.174 147.244C158.673 148.4 158.411 149.646 158.403 150.905C158.396 152.165 158.644 153.413 159.132 154.575C159.62 155.737 160.338 156.788 161.243 157.666C162.148 158.544 163.222 159.231 164.399 159.684C165.577 160.138 166.834 160.35 168.095 160.307C170.18 160.307 172.264 160.307 174.333 160.307H196.362C196.665 160.311 196.957 160.195 197.174 159.984C197.39 159.773 197.515 159.485 197.519 159.183C197.523 158.881 197.406 158.59 197.195 158.373C196.984 158.157 196.695 158.033 196.393 158.029Z" fill="black"/>
<path d="M182.198 155.292C184.627 155.292 186.595 153.328 186.595 150.904C186.595 148.48 184.627 146.516 182.198 146.516C179.77 146.516 177.802 148.48 177.802 150.904C177.802 153.328 179.77 155.292 182.198 155.292Z" fill="black"/>
<path d="M279.778 142.75H251.526C246.981 142.75 243.296 146.425 243.296 150.957C243.296 155.49 246.981 159.165 251.526 159.165H279.778C284.324 159.165 288.009 155.49 288.009 150.957C288.009 146.425 284.324 142.75 279.778 142.75Z" fill="white"/>
<path d="M279.778 158.03H254.478C252.089 158.03 249.701 158.242 247.601 156.86C246.517 156.11 245.663 155.075 245.131 153.87C244.6 152.665 244.413 151.337 244.591 150.033C244.769 148.728 245.305 147.498 246.139 146.479C246.974 145.46 248.075 144.691 249.321 144.257C251.32 143.833 253.371 143.716 255.406 143.908H275.807C278.363 143.908 281.254 143.558 283.521 144.955C289.606 148.706 286.7 157.832 279.809 158.045C279.506 158.045 279.216 158.165 279.002 158.378C278.788 158.592 278.668 158.882 278.668 159.184C278.668 159.486 278.788 159.775 279.002 159.989C279.216 160.202 279.506 160.322 279.809 160.322C281.07 160.365 282.327 160.154 283.505 159.7C284.682 159.246 285.756 158.56 286.661 157.682C287.566 156.804 288.284 155.752 288.772 154.591C289.26 153.429 289.508 152.181 289.501 150.921C289.493 149.661 289.231 148.416 288.73 147.26C288.229 146.103 287.499 145.06 286.584 144.193C285.669 143.325 284.587 142.651 283.405 142.21C282.222 141.77 280.963 141.573 279.702 141.63C272.947 141.478 266.192 141.63 259.438 141.63C256.851 141.63 254.25 141.63 251.648 141.63C250.387 141.573 249.128 141.77 247.945 142.21C246.763 142.651 245.682 143.325 244.767 144.193C243.851 145.06 243.121 146.103 242.62 147.26C242.119 148.416 241.857 149.661 241.85 150.921C241.843 152.181 242.09 153.429 242.578 154.591C243.066 155.752 243.785 156.804 244.69 157.682C245.595 158.56 246.668 159.246 247.846 159.7C249.023 160.154 250.28 160.365 251.542 160.322C253.626 160.322 255.71 160.322 257.779 160.322H279.778C280.083 160.322 280.375 160.202 280.59 159.987C280.806 159.772 280.927 159.48 280.927 159.176C280.927 158.872 280.806 158.58 280.59 158.365C280.375 158.15 280.083 158.03 279.778 158.03Z" fill="black"/>
<path d="M265.645 155.355C268.073 155.355 270.042 153.39 270.042 150.967C270.042 148.543 268.073 146.578 265.645 146.578C263.217 146.578 261.248 148.543 261.248 150.967C261.248 153.39 263.217 155.355 265.645 155.355Z" fill="black"/>
<path d="M201.322 125.758H161.295C158.564 125.758 156.351 127.967 156.351 130.693C156.351 133.418 158.564 135.628 161.295 135.628H201.322C204.053 135.628 206.266 133.418 206.266 130.693C206.266 127.967 204.053 125.758 201.322 125.758Z" fill="black"/>
<path d="M287.765 125.758H247.738C245.008 125.758 242.794 127.967 242.794 130.693C242.794 133.418 245.008 135.628 247.738 135.628H287.765C290.496 135.628 292.71 133.418 292.71 130.693C292.71 127.967 290.496 125.758 287.765 125.758Z" fill="black"/>
<path d="M226.819 178.406C224.492 179.741 222.358 181.386 220.475 183.296C218.419 185.123 216.873 187.451 215.987 190.053C215.727 191.315 215.77 192.621 216.111 193.864C216.452 195.106 217.082 196.251 217.95 197.205C219.873 199.206 222.253 200.712 224.887 201.593C226.257 202.155 226.85 199.953 225.496 199.407C221.723 197.888 216.368 194.502 218.543 189.628C219.557 187.652 220.929 185.881 222.59 184.404C224.21 182.843 226.019 181.492 227.976 180.38C228.238 180.227 228.429 179.977 228.506 179.683C228.583 179.39 228.54 179.078 228.386 178.816C228.233 178.555 227.982 178.364 227.688 178.287C227.394 178.21 227.082 178.253 226.819 178.406Z" fill="black"/>
<path d="M205.201 224.108C211.224 228.592 218.519 231.047 226.033 231.118C233.546 231.189 240.886 228.872 246.993 224.503C248.164 223.653 246.993 221.679 245.837 222.529C240.075 226.71 233.117 228.929 225.994 228.858C218.87 228.787 211.959 226.429 206.281 222.134C205.095 221.253 203.969 223.243 205.125 224.108H205.201Z" fill="black"/>
<path d="M251.253 222.953C251.084 222.953 250.921 223.02 250.801 223.14C250.682 223.26 250.614 223.422 250.614 223.591C250.614 223.76 250.682 223.922 250.801 224.042C250.921 224.161 251.084 224.229 251.253 224.229C251.423 224.229 251.585 224.161 251.705 224.042C251.825 223.922 251.892 223.76 251.892 223.591C251.892 223.422 251.825 223.26 251.705 223.14C251.585 223.02 251.423 222.953 251.253 222.953Z" fill="black"/>
<path d="M6.46529 208.24C6.46529 208.24 3.13351 210.305 3.87897 212.795C4.62444 215.286 14.5285 243.711 14.5285 243.711L19.5794 258.441C19.5794 258.441 15.8521 261.569 15.3196 262.996C14.7871 264.423 13.7983 266.807 14.1634 267.096C14.5285 267.384 16.9475 272.547 16.9475 272.547L15.989 273.777C15.989 273.777 11.0598 268.949 8.3822 269.89C5.70461 270.831 1.06445 276.268 1.06445 276.268C1.06445 276.268 3.04222 283.647 7.45417 287.687C11.8661 291.726 12.2921 293.442 12.2921 293.442C12.2921 293.442 11.0142 299.819 12.5812 303.463C14.1482 307.108 17.2822 319.817 25.4671 324.494C33.652 329.171 34.3518 330.568 34.3518 330.568C35.3254 334.196 35.9519 337.907 36.2231 341.653C36.2992 345.905 36.999 391.839 38.2617 416.256C39.5245 440.673 42.6433 462.402 45.4274 470.329C48.2115 478.255 55.088 497.95 74.105 504.54C79.3286 506.486 85.0341 506.738 90.4095 505.26C95.785 503.783 100.557 500.651 104.045 496.31C104.045 496.31 112.717 487.654 111.652 477.465C110.587 467.276 110.937 457.649 108.351 449.647C105.765 441.645 85.7435 363.382 85.7435 363.382L74.6375 316.629C74.6375 316.629 81.5141 302.492 82.6247 288.385C83.7353 274.278 85.5761 271.955 85.5457 270.649C85.436 267.313 84.6202 264.037 83.1518 261.038C81.6834 258.039 79.5958 255.384 77.026 253.248C68.6738 246.065 67.6849 246.991 61.5538 249.466L60.0324 246.551C60.0324 246.551 57.9025 209.424 58.2524 206.949C58.3956 204.847 58.2057 202.736 57.6895 200.693C57.728 199.93 57.607 199.167 57.3342 198.452C57.0614 197.738 56.6427 197.088 56.1047 196.544C55.5668 196 54.9213 195.574 54.2094 195.292C53.4974 195.01 52.7346 194.879 51.9692 194.908C45.9903 194.665 44.2103 194.619 43.7387 195.94C43.267 197.261 40.8176 205.917 40.8176 205.917L40.1178 250.545H38.8399L25.4671 224.199L15.776 207.663C15.776 207.663 12.5964 205.826 10.7251 206.023C9.15275 206.424 7.69475 207.183 6.46529 208.24Z" fill="white"/>
<path d="M32.6178 330.073C35.904 336.587 34.9455 344.802 35.0368 351.878C35.1281 359.683 35.2042 367.488 35.3411 375.278C35.6149 390.751 36.1018 406.224 37.3189 421.637C38.399 435.424 39.2662 449.44 42.1872 462.97C44.7887 474.996 49.3224 487.265 58.2072 496.194C66.1487 504.135 76.9655 508.342 88.178 506.383C93.1843 505.582 97.8983 503.503 101.862 500.348C105.826 497.192 108.905 493.067 110.801 488.374C112.9 482.862 113.098 476.575 112.824 470.744C112.435 464.207 111.463 457.718 109.918 451.353C106.876 438.34 102.92 425.539 99.8468 412.571C93.2441 384.586 85.6982 356.843 79.0042 328.873C78.1116 325.148 77.2343 321.428 76.3722 317.712C76.0375 316.285 73.8315 316.892 74.1662 318.32C80.4495 345.47 87.7064 372.393 94.3395 399.452C97.5191 412.435 100.592 425.403 104.183 438.279C107.621 450.624 111.074 463.395 110.588 476.317C110.636 482.005 109.109 487.596 106.176 492.474C103.328 496.712 99.3201 500.043 94.6286 502.07C89.4631 504.28 83.7869 505.024 78.225 504.22C72.6631 503.416 67.4313 501.096 63.1059 497.515C53.4301 489.74 48.2879 477.972 45.306 466.204C42.0047 453.236 41.1831 439.782 39.9965 426.496C38.6881 411.584 38.0795 396.627 37.7601 381.67C37.5927 374.078 37.4862 366.577 37.3949 359.03C37.3949 351.939 37.6383 344.696 36.9689 337.635C36.7354 334.595 35.9248 331.626 34.5804 328.888C33.9262 327.582 31.9484 328.736 32.6178 330.042V330.073Z" fill="black"/>
<path d="M38.2771 329.511C30.3152 327.555 23.3574 322.733 18.7387 315.971C14.12 309.209 12.1657 300.983 13.2507 292.871C13.4485 291.352 11.1664 291.443 10.9687 292.871C9.88641 301.483 12.0066 310.192 16.9275 317.348C21.8484 324.504 29.2281 329.61 37.6686 331.698C39.0986 332.047 39.7072 329.845 38.2771 329.496V329.511Z" fill="black"/>
<path d="M15.9438 295.614C20.0362 297.451 25.8174 298.423 28.7536 294.095C30.5793 291.408 29.4534 288.507 27.9625 285.956C26.2619 283.204 24.3005 280.621 22.1053 278.243C19.9235 275.66 17.5152 273.277 14.9092 271.121C12.7793 269.42 10.3451 268.084 7.60669 268.813C5.12707 269.53 2.97528 271.087 1.52125 273.216C0.696709 274.285 0.189628 275.564 0.0578223 276.906C-0.0739833 278.248 0.174791 279.601 0.775779 280.809C2.45055 284.073 4.6735 287.026 7.34806 289.54C9.84878 292.075 12.7729 294.156 15.9894 295.69C17.313 296.312 18.4692 294.354 17.1456 293.731C12.5423 291.435 8.54887 288.084 5.492 283.952C3.97064 282.054 1.79509 279.275 2.29714 276.709C2.88804 274.691 4.24808 272.985 6.08533 271.956C6.97309 271.323 8.03693 270.983 9.12805 270.983C10.2192 270.983 11.283 271.323 12.1708 271.956C14.2676 273.409 16.1873 275.101 17.8911 276.997C19.7015 278.911 21.4511 280.9 23.0942 282.95C24.9001 284.953 26.3232 287.268 27.2931 289.783C27.4332 290.361 27.447 290.963 27.3336 291.546C27.2202 292.13 26.9823 292.683 26.6359 293.167C26.2895 293.651 25.8429 294.055 25.3263 294.351C24.8097 294.648 24.2352 294.83 23.6418 294.885C21.3986 295.14 19.1297 294.733 17.1152 293.716C15.7612 293.063 14.605 295.022 15.9438 295.614Z" fill="black"/>
<path d="M23.6724 280.686C27.4454 285.242 33.333 290.906 39.6619 287.383C42.1265 286.001 43.7087 283.921 43.1915 281.036C42.448 277.981 41.2315 275.061 39.5858 272.38C38.0052 269.519 36.1561 266.814 34.0633 264.302C32.2235 261.917 30.1038 259.76 27.7496 257.879C22.577 254.098 16.2482 257.499 13.8748 262.844C12.5056 265.881 14.1487 269.328 15.9287 271.955C18.1803 275.174 21.1469 277.771 23.6724 280.762C24.6156 281.886 26.2283 280.261 25.285 279.153C21.9989 275.265 17.0697 271.667 15.7917 266.504C15.1832 264.014 16.9936 261.69 18.8345 260.142C19.7635 259.27 20.9502 258.722 22.2172 258.58C23.4842 258.437 24.7633 258.708 25.8632 259.352C27.7603 260.74 29.464 262.374 30.9293 264.211C32.7071 266.175 34.3249 268.277 35.7672 270.497C37.214 272.711 38.4808 275.037 39.5554 277.452C40.4074 279.396 42.02 282.326 40.2096 284.133C39.1895 285.161 37.8651 285.834 36.4323 286.053C34.9995 286.272 33.5342 286.025 32.2529 285.348C29.5009 283.794 27.1268 281.653 25.3003 279.077C24.3418 277.953 22.8204 279.563 23.6724 280.686Z" fill="black"/>
<path d="M71.4127 322.721C79.5064 313.732 82.1992 301.812 83.5836 290.135C83.9639 286.794 84.1009 283.408 84.7703 280.128C85.3484 277.258 86.1699 274.449 86.5198 271.533C86.859 268.842 86.597 266.109 85.7527 263.531C84.9083 260.953 83.5025 258.594 81.6363 256.622C79.8715 254.587 78.0458 252.598 76.205 250.624C74.7182 248.912 72.8393 247.584 70.7281 246.752C65.7532 244.99 60.8849 247.906 57.9182 251.824C56.1687 254.147 54.8755 256.85 53.3541 259.31C51.5625 262.068 49.6119 264.719 47.5121 267.251C44.1499 271.412 40.6203 276.969 42.8111 282.436C43.2408 283.58 43.9195 284.615 44.7981 285.466C45.6768 286.316 46.7336 286.962 47.8925 287.356C50.7222 288.237 53.5063 286.976 55.7883 285.321C61.1121 281.387 65.7882 276.648 69.6479 271.275C70.5151 270.091 68.5373 268.952 67.6854 270.121C64.6443 274.255 61.126 278.016 57.2032 281.328C55.3471 282.846 53.1716 284.911 50.6765 285.321C49.3429 285.442 48.01 285.081 46.9208 284.304C45.8316 283.526 45.0588 282.384 44.7432 281.085C43.0545 275.466 47.786 270.455 51.0265 266.477C54.267 262.498 56.4121 258.08 59.2114 253.889C62.0107 249.698 66.9703 246.752 71.6561 249.683C73.3337 250.881 74.8211 252.324 76.0681 253.965C77.5894 255.726 79.3238 257.351 80.7843 259.173C82.3489 261.166 83.4364 263.489 83.9637 265.966C84.4911 268.442 84.4443 271.006 83.827 273.462C83.3706 275.815 82.7164 278.124 82.3057 280.477C81.8492 283.089 81.6971 285.731 81.4233 288.358C80.2214 299.974 77.8633 312.153 69.8001 321.112C68.8264 322.19 70.4238 323.814 71.4127 322.721Z" fill="black"/>
<path d="M65.7688 273.948C67.6415 276.649 68.5863 279.883 68.4616 283.165C68.4616 284.684 70.698 284.684 70.7436 283.165C70.8599 279.478 69.7939 275.85 67.7009 272.809C67.5462 272.562 67.3033 272.382 67.021 272.306C66.7387 272.229 66.4381 272.263 66.1795 272.399C65.9285 272.551 65.7458 272.794 65.6693 273.076C65.5928 273.359 65.6284 273.66 65.7688 273.918V273.948Z" fill="black"/>
<path d="M20.4618 258.142C17.8907 250.899 15.5783 243.565 12.855 236.413L8.61042 225.555C7.25641 222.109 5.21778 218.358 4.80702 214.638C4.44189 211.236 6.54137 208.852 9.52324 207.592C10.1026 207.286 10.7371 207.097 11.3899 207.037C12.0427 206.977 12.701 207.047 13.3266 207.243C14.76 208.247 15.9546 209.553 16.8258 211.069C20.614 216.323 23.0177 222.412 25.9539 228.182C29.9247 236.124 34.0628 244.005 38.1248 251.916C38.7942 253.222 40.772 252.068 40.1026 250.762C35.9949 242.76 31.8112 234.803 27.7948 226.77C24.6151 220.362 21.968 213.59 17.3735 208.002C15.5326 205.755 13.6461 204.266 10.6186 204.843C7.96025 205.386 5.58506 206.862 3.92463 209.004C1.79472 211.889 2.40326 215.549 3.51386 218.707C4.92872 222.746 6.55658 226.694 8.16923 230.688C11.7444 239.92 14.9393 249.35 18.2559 258.734C18.7427 260.101 20.9487 259.509 20.4618 258.127V258.142Z" fill="black"/>
<path d="M40.742 252.064C41.0463 243.53 41.3556 234.997 41.67 226.463C41.9743 218.111 41.3962 209.456 43.0545 201.21C43.5565 198.72 44.4541 196.124 47.223 195.501C48.648 195.179 50.129 195.197 51.5458 195.553C52.9626 195.909 54.2753 196.594 55.3775 197.551C58.0095 200.224 57.6595 204.779 57.5987 208.18C57.5987 212.341 57.8878 216.441 58.1616 220.586C58.8006 230.259 59.044 239.947 59.3635 249.635C59.3635 251.153 61.6912 251.153 61.6455 249.635C61.326 239.947 61.0826 230.259 60.4436 220.586C60.2763 218.126 60.0329 215.651 59.8959 213.191C59.759 210.731 59.8959 208.423 59.8959 206.024C59.8959 202.638 59.6373 198.857 57.2792 196.2C53.9474 192.449 45.9755 191.416 42.735 195.774C40.8637 198.295 40.5747 201.757 40.2247 204.764C39.6618 209.623 39.6466 214.528 39.5706 219.402C39.4184 230.274 38.8555 241.146 38.46 252.019C38.46 253.537 40.6964 253.537 40.742 252.019V252.064Z" fill="black"/>
<path d="M35.5993 257.49C36.7202 256.053 38.2224 254.959 39.9352 254.331C42.0329 253.721 44.2191 253.469 46.401 253.587C46.7036 253.587 46.9939 253.467 47.2078 253.254C47.4218 253.04 47.542 252.751 47.542 252.449C47.542 252.146 47.4218 251.857 47.2078 251.643C46.9939 251.43 46.7036 251.31 46.401 251.31C43.9558 251.165 41.5042 251.453 39.1593 252.16C37.131 252.897 35.3425 254.173 33.9867 255.85C33.7802 256.067 33.665 256.355 33.665 256.655C33.665 256.954 33.7802 257.242 33.9867 257.46C34.2006 257.673 34.4907 257.793 34.793 257.793C35.0954 257.793 35.3854 257.673 35.5993 257.46V257.49Z" fill="black"/>
<path d="M47.8617 286.098C45.6574 288.748 44.0748 291.857 43.2299 295.196C42.3849 298.536 42.2989 302.021 42.9782 305.398C43.2672 306.841 45.458 306.233 45.1689 304.806C44.5843 301.815 44.667 298.733 45.4111 295.778C46.1552 292.823 47.5426 290.067 49.4744 287.708C50.4024 286.584 48.7898 284.96 47.8617 286.098Z" fill="black"/>
</g>
<defs>
<clipPath id="clip0_1717_191">
<rect width="412" height="734" fill="white"/>
</clipPath>
</defs>
</svg>
