<svg width="123" height="122" viewBox="0 0 123 122" fill="none" xmlns="http://www.w3.org/2000/svg">
<path d="M7.99024 103.546C5.96657 103.562 4.01885 102.779 2.57392 101.368C1.129 99.9568 0.304723 98.0325 0.281738 96.017L0.281738 20.3314C0.296513 19.0675 0.813534 17.8609 1.71959 16.9759C2.62564 16.0909 3.84688 15.5996 5.11588 15.6095L56.2197 15.6095C57.4887 15.5996 58.7099 16.0909 59.616 16.9759C60.522 17.8609 61.0391 19.0675 61.0538 20.3314V23.5846H111.635C112.695 23.5747 113.716 23.9841 114.473 24.7231C115.23 25.462 115.661 26.47 115.673 27.5256V96.017C115.651 98.032 114.829 99.9562 113.385 101.368C111.941 102.779 109.994 103.562 107.971 103.546H7.99024Z" fill="#7C7C7C"/>
<path d="M56.2189 15.8861C57.4131 15.8762 58.5624 16.3383 59.415 17.1712C60.2676 18.0041 60.7537 19.1397 60.7668 20.3291V23.8425H111.634C112.615 23.8424 113.556 24.2265 114.254 24.9117C114.953 25.597 115.352 26.5284 115.367 27.5048V96.0147C115.346 97.9551 114.552 99.8078 113.161 101.166C111.769 102.524 109.893 103.277 107.945 103.259H7.98945C6.0406 103.277 4.16408 102.524 2.77147 101.166C1.37887 99.8084 0.583895 97.9557 0.560916 96.0147L0.560916 20.3291C0.575686 19.1391 1.06321 18.0035 1.91676 17.1708C2.7703 16.3381 3.92034 15.8761 5.11509 15.8861L56.2189 15.8861M56.2189 15.3284H5.11509C4.4495 15.3218 3.78915 15.446 3.1718 15.6939C2.55445 15.9417 1.9922 16.3084 1.51723 16.7728C1.04225 17.2372 0.663856 17.7904 0.403684 18.4006C0.143513 19.0108 0.00666817 19.6661 0.000976563 20.3291L0.000976562 96.0147C0.0107347 97.0498 0.225108 98.0729 0.631856 99.0255C1.0386 99.9781 1.62976 100.842 2.37157 101.567C3.11337 102.292 3.9913 102.864 4.95522 103.251C5.91914 103.638 6.95018 103.832 7.98945 103.822H107.97C109.009 103.832 110.039 103.638 111.003 103.251C111.967 102.864 112.844 102.291 113.585 101.566C114.327 100.841 114.917 99.9776 115.323 99.025C115.729 98.0725 115.943 97.0495 115.952 96.0147V27.5233C115.948 26.9632 115.833 26.4094 115.614 25.8937C115.394 25.3779 115.075 24.9103 114.674 24.5178C114.273 24.1252 113.798 23.8153 113.276 23.6058C112.755 23.3964 112.197 23.2915 111.634 23.2972H61.333V20.3291C61.3273 19.6661 61.1905 19.0108 60.9303 18.4006C60.6701 17.7904 60.2917 17.2372 59.8168 16.7728C59.3418 16.3084 58.7795 15.9417 58.1622 15.6939C57.5448 15.446 56.8845 15.3218 56.2189 15.3284V15.3284Z" fill="black"/>
<path d="M111.872 0.25L27.5576 0.25L27.5576 88.5768H111.872V0.25Z" fill="#999999"/>
<path d="M111.63 0.49115V88.3346H27.7758L27.7758 0.49115L111.63 0.49115ZM112.115 0.0078125L27.3154 0.0078125L27.3154 88.818H112.115V0.0078125Z" fill="black"/>
<path d="M110.006 2.10938L25.6919 2.10938L25.6919 90.4362H110.006V2.10938Z" fill="#D3D3D3"/>
<path d="M109.764 2.35834V90.2018H25.9096L25.9096 2.35834L109.764 2.35834ZM110.249 1.875L25.4492 1.875L25.4492 90.6851H110.249V1.875Z" fill="black"/>
<path d="M108.134 3.96875L23.8193 3.96875L23.8193 92.2955H108.134V3.96875Z" fill="white"/>
<path d="M107.897 4.2099V92.0596H24.0429L24.0429 4.2099L107.897 4.2099ZM108.376 3.72656L23.5825 3.72656L23.5825 92.5367H108.376V3.72656Z" fill="black"/>
<path d="M71.3267 17.5224V12.435H71.9488L72.0173 13.1848V17.5224H71.3267ZM73.05 16.0476C72.8157 16.0589 72.5842 15.9936 72.3905 15.8617C72.3081 15.8005 72.2398 15.7224 72.1905 15.6326C72.1411 15.5427 72.1117 15.4434 72.1044 15.3412H71.7995L72.0421 14.325C72.0217 14.6191 72.0957 14.9121 72.2537 15.1615C72.3343 15.2535 72.4337 15.3273 72.5453 15.3779C72.6569 15.4284 72.7781 15.4546 72.9007 15.4546C73.0233 15.4546 73.1445 15.4284 73.2561 15.3779C73.3677 15.3273 73.4672 15.2535 73.5478 15.1615C73.7095 14.8884 73.7853 14.5733 73.7655 14.2568C73.7855 13.9265 73.7099 13.5975 73.5478 13.3087C73.4789 13.208 73.386 13.1258 73.2774 13.0696C73.1688 13.0134 73.048 12.9848 72.9256 12.9865C72.8067 12.9821 72.6885 13.0056 72.5804 13.0552C72.4723 13.1047 72.3775 13.1788 72.3034 13.2715C72.1447 13.5206 72.0705 13.8139 72.0919 14.1081L71.8493 13.0918H72.123C72.1338 12.9885 72.1665 12.8886 72.2191 12.7988C72.2717 12.7091 72.3428 12.6315 72.4279 12.5713C72.6265 12.4401 72.8617 12.375 73.0998 12.3854C73.3028 12.3723 73.5059 12.4089 73.6914 12.4921C73.8768 12.5753 74.039 12.7025 74.1637 12.8626C74.4299 13.2772 74.5564 13.7656 74.5245 14.2568C74.5563 14.7343 74.4295 15.209 74.1637 15.6077C74.0275 15.7667 73.8541 15.89 73.6588 15.9668C73.4636 16.0435 73.2524 16.0712 73.0438 16.0476H73.05Z" fill="black"/>
<path d="M75.0591 15.9835V15.3638H77.4357V15.9835H75.0591ZM75.1897 13.0587V12.439H76.3843L76.4465 13.0587H75.1897ZM75.8492 15.9835V12.439H76.4278L76.5647 13.4553V15.9835H75.8492ZM76.5647 14.4591L76.3532 13.3499H76.6331C76.6705 12.6931 77.0002 12.3709 77.6099 12.3709C77.7591 12.3578 77.9094 12.3796 78.0487 12.4345C78.188 12.4893 78.3126 12.5757 78.4125 12.6869C78.6032 12.9901 78.6905 13.3465 78.6614 13.7031H77.9521C77.9671 13.5105 77.9284 13.3175 77.8401 13.1454C77.7973 13.0863 77.7399 13.0392 77.6733 13.0088C77.6068 12.9784 77.5335 12.9657 77.4606 12.9719C77.3238 12.9672 77.1883 13.0007 77.0696 13.0686C76.9509 13.1364 76.8536 13.2361 76.7887 13.3561C76.6209 13.6988 76.5438 14.0785 76.5647 14.4591V14.4591Z" fill="black"/>
<path d="M80.8402 16.0629C80.6242 16.0743 80.4083 16.0367 80.209 15.953C80.0096 15.8692 79.8319 15.7416 79.6892 15.5796C79.3938 15.1907 79.2481 14.7092 79.2786 14.2225C79.2472 13.7338 79.3929 13.2501 79.6892 12.8593C79.8401 12.7083 80.0195 12.5884 80.217 12.5067C80.4145 12.4249 80.6263 12.3828 80.8402 12.3828C81.0541 12.3828 81.2659 12.4249 81.4635 12.5067C81.661 12.5884 81.8403 12.7083 81.9912 12.8593C82.2854 13.2509 82.4288 13.7346 82.3956 14.2225C82.4279 14.7085 82.2844 15.1899 81.9912 15.5796C81.8485 15.7416 81.6708 15.8692 81.4715 15.953C81.2721 16.0367 81.0563 16.0743 80.8402 16.0629V16.0629ZM80.8402 15.4433C80.9624 15.4524 81.0847 15.4284 81.1942 15.3739C81.3038 15.3193 81.3964 15.2362 81.4624 15.1334C81.6221 14.864 81.6978 14.5535 81.6801 14.2411C81.6978 13.9288 81.6221 13.6182 81.4624 13.3488C81.3964 13.246 81.3038 13.1629 81.1942 13.1084C81.0847 13.0538 80.9624 13.0299 80.8402 13.039C80.7183 13.0312 80.5964 13.0558 80.4871 13.1102C80.3778 13.1646 80.285 13.247 80.2181 13.3488C80.0609 13.619 79.9873 13.9294 80.0065 14.2411C79.9873 14.5528 80.0609 14.8632 80.2181 15.1334C80.2872 15.2319 80.381 15.3106 80.4902 15.3616C80.5993 15.4127 80.72 15.4345 80.8402 15.4247V15.4433Z" fill="black"/>
<path d="M83.4585 17.5876V16.968L84.1304 16.906C84.4213 16.9034 84.7008 16.793 84.9143 16.5962C85.0925 16.3644 85.1788 16.0755 85.157 15.7844V14.7H85.8662V15.6667C85.879 16.0209 85.8154 16.3738 85.6796 16.7015C85.5615 16.9686 85.3551 17.1873 85.0948 17.3212C84.7691 17.4673 84.4188 17.5513 84.062 17.569L83.4585 17.5876ZM83.7385 13.0579V12.4382H85.1756V13.0579H83.7385ZM85.4058 11.8743C85.2748 11.8712 85.1501 11.818 85.0574 11.7257C84.9647 11.6334 84.9113 11.5091 84.9081 11.3786C84.9075 11.3127 84.9204 11.2474 84.9461 11.1866C84.9718 11.1259 85.0097 11.071 85.0574 11.0254C85.1028 10.9794 85.1571 10.9431 85.217 10.9186C85.2769 10.8941 85.3411 10.882 85.4058 10.8829C85.4715 10.8818 85.5367 10.8939 85.5976 10.9184C85.6586 10.9429 85.7139 10.9792 85.7605 11.0254C85.8529 11.1198 85.9043 11.2467 85.9036 11.3786C85.9036 11.5101 85.8511 11.6362 85.7578 11.7291C85.6644 11.8221 85.5378 11.8743 85.4058 11.8743V11.8743ZM85.1259 14.8115V12.4382H85.8351V14.8115H85.1259Z" fill="black"/>
<path d="M89.2137 16.0506C88.7001 16.0828 88.1946 15.9113 87.8076 15.5735C87.6342 15.3918 87.5005 15.1763 87.4148 14.9406C87.3292 14.7049 87.2934 14.4541 87.3099 14.204C87.2781 13.7181 87.4264 13.2374 87.7267 12.8531C87.876 12.6893 88.0602 12.5608 88.2658 12.4772C88.4715 12.3935 88.6933 12.3568 88.915 12.3698C89.1221 12.3573 89.3294 12.3896 89.5227 12.4645C89.716 12.5394 89.8907 12.6551 90.0349 12.8036C90.311 13.1563 90.4501 13.5963 90.4269 14.0429C90.4269 14.2102 90.4269 14.3589 90.4269 14.5014H87.9383V13.9561H89.8047C89.8228 13.6933 89.7431 13.433 89.5807 13.2249C89.502 13.1395 89.4056 13.072 89.2982 13.0271C89.1908 12.9822 89.075 12.9609 88.9586 12.9647C88.8254 12.9588 88.6926 12.9838 88.5706 13.0375C88.4486 13.0913 88.3408 13.1724 88.2556 13.2745C88.0743 13.5263 87.9863 13.8329 88.0067 14.142C87.9948 14.3141 88.0191 14.4868 88.078 14.6489C88.1369 14.8111 88.2292 14.9593 88.3489 15.0839C88.6235 15.3119 88.975 15.4271 89.3319 15.4061C89.4776 15.4051 89.623 15.3947 89.7674 15.3752C89.9138 15.361 90.0592 15.3382 90.2029 15.307L90.29 15.9267C90.0985 15.9613 89.9054 15.9861 89.7114 16.001L89.2137 16.0506Z" fill="black"/>
<path d="M93.2768 16.0517C92.7633 16.0833 92.2581 15.9118 91.8708 15.5746C91.6974 15.3929 91.5636 15.1774 91.478 14.9417C91.3923 14.706 91.3566 14.4552 91.373 14.2051C91.3584 13.96 91.3926 13.7144 91.4738 13.4826C91.5549 13.2507 91.6814 13.0371 91.8459 12.8542C92.0232 12.686 92.2337 12.5563 92.4639 12.4731C92.6941 12.3899 92.9391 12.3551 93.1835 12.3709C93.4914 12.3608 93.7971 12.4268 94.0732 12.563C94.3094 12.6778 94.4984 12.8705 94.6082 13.1083L94.0607 13.5173C93.9644 13.3602 93.8295 13.2301 93.6688 13.1393C93.4621 13.0308 93.2268 12.9886 92.9951 13.0186C92.7634 13.0485 92.5467 13.1491 92.3747 13.3066C92.1757 13.5483 92.0757 13.8559 92.0947 14.1679C92.0829 14.3371 92.1061 14.5069 92.1628 14.6667C92.2195 14.8266 92.3086 14.9732 92.4245 15.0974C92.5516 15.2085 92.6994 15.2937 92.8595 15.3479C93.0197 15.4021 93.1889 15.4244 93.3577 15.4134C93.5257 15.4134 93.6875 15.4134 93.8554 15.4134C94.0234 15.4134 94.1852 15.3763 94.3407 15.3453L94.4216 15.9649C94.2329 16.0048 94.0416 16.0317 93.8492 16.0455L93.2768 16.0517Z" fill="black"/>
<path d="M95.187 13.0589V12.4392H98.416V13.0589H95.187ZM96.0829 14.2982V11.3672H96.7922V14.3106L96.0829 14.2982ZM97.6134 16.0394C97.1952 16.078 96.7777 15.9586 96.4438 15.7048C96.3121 15.5609 96.212 15.3913 96.1499 15.2067C96.0878 15.0221 96.0649 14.8267 96.0829 14.6328V14.0131H96.7922V14.5832C96.7815 14.6951 96.7942 14.8079 96.8296 14.9145C96.8649 15.0212 96.9221 15.1194 96.9975 15.2029C97.1959 15.3444 97.4387 15.4104 97.6818 15.3888H98.0365L98.4658 15.3454L98.5466 15.9651C98.3911 15.9651 98.2356 16.0147 98.0862 16.0271C97.9369 16.0394 97.7814 16.0518 97.6134 16.0518V16.0394Z" fill="black"/>
<path d="M100.724 16.0579C100.457 16.0579 100.227 16.0579 100.034 16.0579C99.8557 16.0475 99.6788 16.0227 99.5049 15.9836L99.5858 15.3639C99.8222 15.4011 100.034 15.4259 100.208 15.4445C100.378 15.4533 100.548 15.4533 100.718 15.4445C100.984 15.4609 101.25 15.4252 101.502 15.3391C101.573 15.3166 101.635 15.2719 101.679 15.2117C101.722 15.1514 101.745 15.0788 101.745 15.0045C101.749 14.9603 101.743 14.9158 101.728 14.8741C101.713 14.8323 101.689 14.7943 101.658 14.7628C101.582 14.7019 101.492 14.6614 101.396 14.6451L100.569 14.4096C100.292 14.3542 100.029 14.2424 99.7973 14.0812C99.7086 14.0057 99.6396 13.9098 99.5963 13.8019C99.5529 13.694 99.5365 13.5772 99.5484 13.4616C99.5362 13.2934 99.5717 13.1251 99.6509 12.9761C99.7301 12.8271 99.8498 12.7033 99.9964 12.6188C100.451 12.4141 100.949 12.3247 101.446 12.3586H101.925L102.385 12.4143L102.311 13.034L101.832 12.9968H101.421C101.129 12.9822 100.837 13.0157 100.556 13.096C100.481 13.1139 100.413 13.1567 100.365 13.2173C100.316 13.278 100.289 13.353 100.289 13.4306C100.286 13.4743 100.295 13.518 100.315 13.5572C100.334 13.5964 100.364 13.6296 100.401 13.6537C100.507 13.7099 100.62 13.7516 100.737 13.7776L101.396 13.9387C101.695 13.9902 101.977 14.1136 102.217 14.2981C102.307 14.3802 102.377 14.4813 102.422 14.5939C102.467 14.7065 102.487 14.8277 102.479 14.9487C102.492 15.1118 102.46 15.2754 102.386 15.4217C102.313 15.568 102.201 15.6916 102.062 15.7791C101.648 15.9864 101.187 16.0825 100.724 16.0579Z" fill="black"/>
<path d="M8.47541 120.716C7.41222 120.727 6.3572 120.53 5.37071 120.134C4.38422 119.739 3.48561 119.155 2.72631 118.413C1.967 117.672 1.3619 116.789 0.945617 115.814C0.529336 114.84 0.310045 113.793 0.300293 112.734L0.300293 32.4445C0.316705 31.1045 0.865255 29.8255 1.82597 28.8872C2.78668 27.9489 4.08136 27.4277 5.42685 27.4376H59.6352C60.9807 27.4277 62.2754 27.9489 63.2361 28.8872C64.1968 29.8255 64.7453 31.1045 64.7618 32.4445V35.896H118.423C119.546 35.8878 120.628 36.3232 121.43 37.1071C122.232 37.891 122.69 38.9595 122.703 40.0788V112.734C122.693 113.793 122.474 114.839 122.058 115.813C121.642 116.787 121.038 117.67 120.279 118.411C119.521 119.152 118.623 119.737 117.637 120.133C116.651 120.528 115.597 120.726 114.534 120.716H8.47541Z" fill="white"/>
<path d="M59.6335 27.7293C60.9003 27.7177 62.12 28.207 63.0251 29.0899C63.9301 29.9727 64.4467 31.177 64.4615 32.4387V36.1567H118.421C119.466 36.1468 120.472 36.5504 121.219 37.2788C121.965 38.0073 122.391 39.0011 122.403 40.042V112.728C122.38 114.786 121.538 116.751 120.063 118.191C118.587 119.632 116.598 120.43 114.532 120.412H8.47375C6.41146 120.424 4.42832 119.622 2.95728 118.183C1.48624 116.743 0.646771 114.782 0.622155 112.728L0.622155 32.4387C0.636928 31.177 1.1535 29.9727 2.05856 29.0899C2.96363 28.207 4.1833 27.7177 5.45008 27.7293H59.6335ZM59.6335 27.1096L5.42519 27.1096C4.71719 27.1031 4.01487 27.2359 3.35857 27.5005C2.70226 27.7651 2.1049 28.1562 1.60079 28.6514C1.09668 29.1465 0.695761 29.736 0.421049 30.386C0.146336 31.0359 0.00324749 31.7335 0 32.4387L0 112.728C0.0105703 113.826 0.238141 114.911 0.669717 115.921C1.10129 116.932 1.72842 117.847 2.51529 118.616C3.30216 119.385 4.23336 119.991 5.25572 120.402C6.27808 120.812 7.37157 121.018 8.47375 121.007H114.532C115.634 121.018 116.728 120.812 117.75 120.402C118.772 119.991 119.702 119.384 120.489 118.616C121.275 117.847 121.902 116.931 122.333 115.921C122.763 114.911 122.99 113.826 123 112.728V40.073C122.985 38.877 122.495 37.7357 121.637 36.8994C120.778 36.063 119.622 35.5998 118.421 35.6114L65.0587 35.6114V32.4387C65.044 31.0193 64.4645 29.6636 63.4474 28.6692C62.4303 27.6748 61.0587 27.1228 59.6335 27.1344V27.1096Z" fill="black"/>
<path d="M14.6774 86.5106L12.0581 79.2109H13.6197L15.5919 85.2712H15.7164L17.6824 79.2109H19.2502L16.6247 86.5106H14.6774Z" fill="black"/>
<path d="M20.9048 86.5137V85.231H23.8414V86.5137H20.9048ZM21.3216 80.4906V79.214H25.1665V80.4906H21.3216ZM24.3826 78.0553C24.112 78.052 23.8534 77.9431 23.6626 77.7519C23.4717 77.5606 23.3639 77.3024 23.3623 77.0328C23.359 76.8989 23.3838 76.7658 23.4353 76.642C23.4867 76.5182 23.5636 76.4065 23.6609 76.314C23.8534 76.1229 24.114 76.0156 24.3857 76.0156C24.6575 76.0156 24.9181 76.1229 25.1106 76.314C25.2079 76.4065 25.2848 76.5182 25.3362 76.642C25.3876 76.7658 25.4125 76.8989 25.4092 77.0328C25.411 77.1666 25.3855 77.2993 25.3341 77.4228C25.2828 77.5464 25.2067 77.6583 25.1106 77.7516C25.0173 77.8502 24.9044 77.9282 24.779 77.9805C24.6536 78.0328 24.5185 78.0583 24.3826 78.0553V78.0553ZM23.6983 86.5137L23.6983 79.6044H25.1665V86.4951L23.6983 86.5137ZM25.0297 86.5137V85.231H27.4187V86.5137H25.0297Z" fill="black"/>
<path d="M32.8871 86.6542C31.829 86.7202 30.7875 86.3685 29.9879 85.6751C29.6321 85.2992 29.3579 84.8543 29.1823 84.3681C29.0068 83.882 28.9337 83.365 28.9675 82.8495C28.9167 81.8444 29.2352 80.8553 29.8634 80.0672C30.1731 79.7335 30.5526 79.4717 30.9751 79.3003C31.3977 79.129 31.8529 79.0523 32.3085 79.0757C32.7338 79.0499 33.1596 79.1169 33.5562 79.2721C33.9527 79.4273 34.3104 79.6669 34.6043 79.9742C35.1937 80.7094 35.4845 81.6382 35.4193 82.5768C35.4213 82.8893 35.4068 83.2016 35.3757 83.5125H30.1994V82.3971H34.063C34.0975 81.8524 33.9292 81.314 33.5901 80.8851C33.4259 80.7071 33.2242 80.5675 32.9993 80.4765C32.7745 80.3854 32.5322 80.3451 32.2898 80.3584C32.0165 80.3423 31.7431 80.3899 31.4915 80.4975C31.2398 80.6051 31.0168 80.7696 30.8402 80.9781C30.467 81.4984 30.2847 82.1307 30.3238 82.7689C30.2993 83.1227 30.3498 83.4777 30.472 83.8107C30.5942 84.1438 30.7853 84.4476 31.0331 84.7023C31.5948 85.172 32.317 85.4073 33.0489 85.3591C33.3502 85.3582 33.6514 85.3417 33.951 85.3095C34.2434 85.2724 34.5732 85.229 34.8469 85.167L35.0273 86.4497C34.635 86.527 34.2381 86.5788 33.839 86.6046C33.4782 86.6377 33.1609 86.6542 32.8871 86.6542Z" fill="black"/>
<path d="M37.7093 86.5106L36.8818 79.2109H38.263L38.8167 85.4076H38.9412L39.806 79.2109H41.1498L40.5277 80.7105H40.4406L39.5882 86.5106H37.7093ZM41.3738 86.5106L40.5214 80.7105H40.4406L39.8184 79.2109H41.1623L42.0271 85.4076H42.1515L42.7736 79.2109H44.2233L43.1843 86.5106H41.3738Z" fill="black"/>
<path d="M14.571 103.581C13.932 103.621 13.3006 103.424 12.7979 103.029C12.5852 102.832 12.4191 102.59 12.3115 102.321C12.2039 102.052 12.1575 101.763 12.1757 101.474C12.1585 101.129 12.2294 100.784 12.3817 100.473C12.534 100.162 12.7627 99.8948 13.0467 99.6956C13.7789 99.2393 14.636 99.0226 15.498 99.076C15.8892 99.073 16.2801 99.0978 16.6677 99.1503C16.9825 99.1975 17.2912 99.2785 17.5885 99.392L17.2836 100.383C16.9851 100.316 16.6811 100.274 16.3753 100.26H15.4669C14.1977 100.26 13.5631 100.644 13.5631 101.412C13.554 101.553 13.5792 101.695 13.6366 101.824C13.694 101.954 13.7819 102.067 13.8929 102.156C14.1611 102.35 14.4891 102.444 14.8199 102.422C15.2148 102.435 15.6072 102.355 15.9647 102.187C16.2471 102.046 16.4859 101.832 16.6552 101.567C16.7996 101.343 16.8772 101.083 16.8792 100.817V100.055L17.3085 101.914H16.7299L16.9663 101.697C16.9804 102.071 16.876 102.439 16.6677 102.751C16.4629 103.035 16.1767 103.251 15.8464 103.37C15.4381 103.519 15.0056 103.59 14.571 103.581ZM17.1592 103.513L17.0596 101.344L16.8668 100.724V98.8343C16.8827 98.6262 16.8433 98.4176 16.7527 98.2294C16.662 98.0413 16.5233 97.8802 16.3504 97.7623C15.8824 97.5057 15.3538 97.3794 14.8199 97.3967L13.0654 97.3657L13.2023 96.0706H14.683C15.6478 96.0102 16.6033 96.2887 17.3832 96.8576C17.6871 97.1344 17.9244 97.476 18.0773 97.8569C18.2303 98.2378 18.295 98.6481 18.2666 99.0574V102.1L19.5109 102.249V103.42L17.1592 103.513Z" fill="black"/>
<path d="M20.3506 103.438V102.161H25.2469V103.438H20.3506ZM20.6306 97.4209V96.1382H23.0756L23.2187 97.4209H20.6306ZM21.9869 103.438V96.1382H23.1752L23.4489 98.2327V103.438H21.9869ZM23.4489 100.302L23.0196 98.0096H23.592C23.6708 96.6711 24.3427 96.0019 25.6078 96.0019C25.912 95.9718 26.219 96.012 26.505 96.1195C26.791 96.227 27.0482 96.3988 27.2565 96.6216C27.6491 97.2465 27.8281 97.9813 27.7667 98.716H26.3171C26.3484 98.3186 26.2641 97.9206 26.0744 97.5696C25.9876 97.4492 25.8708 97.3533 25.7356 97.2914C25.6003 97.2295 25.4512 97.2036 25.3029 97.2164C25.0193 97.205 24.7382 97.2733 24.4917 97.4136C24.2453 97.5539 24.0434 97.7604 23.9093 98.0096C23.5614 98.722 23.4029 99.5115 23.4489 100.302V100.302Z" fill="black"/>
<path d="M32.9749 103.579C32.4513 103.612 31.9262 103.543 31.4297 103.374C30.9332 103.205 30.4752 102.939 30.0819 102.593C29.7247 102.22 29.4496 101.776 29.2739 101.291C29.0982 100.805 29.0259 100.289 29.0616 99.7739C29.0294 99.2697 29.0981 98.7641 29.2637 98.2865C29.4292 97.8089 29.6883 97.3687 30.0259 96.9916C30.3917 96.6458 30.8254 96.3791 31.2998 96.2085C31.7741 96.0378 32.2788 95.9669 32.7821 96.0002C33.4275 95.9772 34.0687 96.1134 34.6485 96.3967C35.1319 96.6324 35.5172 97.0292 35.7373 97.5183L34.6112 98.3611C34.4042 98.0287 34.1122 97.7571 33.7651 97.5741C33.3407 97.3429 32.8535 97.2519 32.3738 97.3142C31.8941 97.3766 31.4466 97.5891 31.096 97.9211C30.6819 98.416 30.4748 99.0505 30.5174 99.6934C30.4943 100.04 30.5426 100.387 30.6592 100.714C30.7758 101.041 30.9583 101.341 31.1956 101.596C31.4559 101.827 31.7601 102.005 32.0902 102.117C32.4204 102.23 32.7698 102.276 33.118 102.253C33.4602 102.253 33.8024 102.253 34.1446 102.209C34.4868 102.166 34.8165 102.129 35.14 102.079L35.308 103.356C34.9213 103.443 34.5281 103.499 34.1322 103.523C33.7278 103.56 33.3358 103.579 32.9749 103.579Z" fill="black"/>
<path d="M37.5601 103.439V93.1094H39.0283V103.439H37.5601ZM42.0707 103.439V98.6863C42.0947 98.2999 41.9701 97.9188 41.7223 97.6205C41.5976 97.4914 41.4462 97.3907 41.2786 97.3255C41.1111 97.2602 40.9313 97.2319 40.7517 97.2425C39.5987 97.2425 39.0242 97.9407 39.0283 99.337L38.5991 97.478H39.1963C39.1988 97.2657 39.2486 97.0565 39.3422 96.8658C39.4358 96.675 39.5709 96.5074 39.7376 96.375C40.1503 96.107 40.6398 95.9808 41.1312 96.0156C41.463 95.9941 41.7956 96.0445 42.1059 96.1632C42.4163 96.282 42.6972 96.4662 42.9293 96.7034C43.3775 97.2641 43.5994 97.9712 43.5514 98.6863V103.439H42.0707Z" fill="black"/>
<path d="M45.8047 103.45V102.174H48.735V103.45H45.8047ZM46.2215 97.4335V96.1508H50.0602V97.4335H46.2215ZM49.2825 94.992C49.0501 94.9893 48.8257 94.9067 48.6474 94.7581C48.4692 94.6095 48.3479 94.4041 48.3043 94.1767C48.2607 93.9492 48.2973 93.7138 48.408 93.5102C48.5187 93.3066 48.6967 93.1474 48.9117 93.0595C49.1268 92.9716 49.3658 92.9605 49.5881 93.028C49.8105 93.0955 50.0026 93.2375 50.1319 93.4299C50.2612 93.6223 50.3197 93.8533 50.2976 94.0838C50.2755 94.3143 50.174 94.5301 50.0105 94.6946C49.916 94.7911 49.8027 94.8673 49.6775 94.9185C49.5523 94.9696 49.4178 94.9947 49.2825 94.992V94.992ZM48.5982 103.45V96.566H50.0602V103.45H48.5982ZM49.9233 103.45V102.174H52.3186V103.45H49.9233Z" fill="black"/>
<path d="M56.1681 103.44L53.5488 96.1406H55.1104L57.0827 102.201H57.2382L59.2104 96.1406H60.772L58.1528 103.44H56.1681Z" fill="black"/>
<path d="M66.0804 103.592C65.5568 103.626 65.0317 103.556 64.5352 103.387C64.0387 103.218 63.5806 102.953 63.1874 102.607C62.8302 102.233 62.555 101.789 62.3794 101.304C62.2037 100.818 62.1314 100.302 62.1671 99.7871C62.1033 98.7854 62.4111 97.7953 63.0319 97.0048C63.3378 96.668 63.7158 96.4041 64.138 96.2325C64.5601 96.0609 65.0156 95.986 65.4707 96.0133C65.8963 95.9878 66.3224 96.0544 66.7198 96.2084C67.1171 96.3624 67.4763 96.6003 67.7727 96.9056C68.3592 97.6445 68.6476 98.5748 68.5815 99.5144C68.5815 99.849 68.5815 100.134 68.5441 100.45H63.3989V99.3347H67.2563C67.2944 98.7895 67.1257 98.2499 66.7834 97.8227C66.6192 97.6447 66.4175 97.5051 66.1926 97.414C65.9678 97.323 65.7255 97.2826 65.4831 97.296C65.2098 97.2804 64.9366 97.3282 64.6851 97.4358C64.4335 97.5433 64.2104 97.7076 64.0335 97.9157C63.6616 98.4363 63.4814 99.0689 63.5234 99.7065C63.4989 100.059 63.5495 100.413 63.6717 100.745C63.7939 101.077 63.985 101.38 64.2326 101.634C64.7905 102.106 65.5113 102.344 66.2422 102.297C66.5435 102.296 66.8447 102.279 67.1443 102.247C67.4367 102.21 67.7665 102.16 68.0464 102.105L68.2206 103.381C67.8285 103.461 67.4315 103.514 67.0323 103.542C66.6715 103.575 66.3542 103.592 66.0804 103.592Z" fill="black"/>
</svg>
