<svg width="123" height="117" viewBox="0 0 123 117" fill="none" xmlns="http://www.w3.org/2000/svg">
<path d="M7.98877 99.5303C5.9651 99.5468 4.01738 98.7636 2.57246 97.3524C1.12753 95.9411 0.303259 94.0169 0.280273 92.0014V16.3157C0.295048 15.0519 0.81207 13.8453 1.71812 12.9603C2.62417 12.0753 3.84541 11.584 5.11442 11.5939H56.2182C57.4872 11.584 58.7085 12.0753 59.6145 12.9603C60.5206 13.8453 61.0376 15.0519 61.0524 16.3157V19.569H111.634C112.693 19.559 113.714 19.9685 114.471 20.7074C115.228 21.4464 115.66 22.4543 115.671 23.51V92.0014C115.65 94.0163 114.827 95.9406 113.383 97.352C111.939 98.7634 109.992 99.5468 107.969 99.5303H7.98877Z" fill="#7C7C7C"/>
<path d="M56.2179 11.8704C57.4121 11.8605 58.5615 12.3227 59.414 13.1556C60.2666 13.9884 60.7527 15.1241 60.7659 16.3134V19.8269H111.633C112.614 19.8268 113.555 20.2109 114.253 20.8961C114.952 21.5813 115.351 22.5128 115.366 23.4891V91.9991C115.345 93.9395 114.551 95.7922 113.16 97.1503C111.768 98.5085 109.892 99.2611 107.944 99.243H7.98847C6.03963 99.2611 4.1631 98.5087 2.7705 97.1507C1.3779 95.7927 0.582918 93.9401 0.559939 91.9991V16.3134C0.574709 15.1235 1.06223 13.9879 1.91578 13.1552C2.76933 12.3225 3.91936 11.8605 5.11411 11.8704H56.2179ZM56.2179 11.3127H5.11411C4.44853 11.3062 3.78817 11.4304 3.17082 11.6783C2.55347 11.9261 1.99123 12.2927 1.51625 12.7572C1.04127 13.2216 0.662879 13.7748 0.402708 14.385C0.142536 14.9952 0.00569161 15.6505 0 16.3134L0 91.9991C0.00975818 93.0342 0.224132 94.0573 0.63088 95.0098C1.03763 95.9624 1.62878 96.8259 2.37059 97.5509C3.1124 98.2759 3.99033 98.8483 4.95425 99.2354C5.91817 99.6225 6.9492 99.8167 7.98847 99.8068H107.969C109.008 99.8167 110.038 99.6224 111.002 99.2353C111.966 98.8481 112.843 98.2756 113.584 97.5505C114.326 96.8254 114.916 95.9619 115.322 95.0094C115.728 94.0568 115.942 93.0339 115.951 91.9991V23.5077C115.947 22.9476 115.832 22.3938 115.613 21.8781C115.393 21.3623 115.074 20.8947 114.673 20.5021C114.272 20.1095 113.797 19.7996 113.275 19.5902C112.754 19.3808 112.196 19.2759 111.633 19.2816H61.332V16.3134C61.3263 15.6505 61.1895 14.9952 60.9293 14.385C60.6691 13.7748 60.2908 13.2216 59.8158 12.7572C59.3408 12.2927 58.7786 11.9261 58.1612 11.6783C57.5438 11.4304 56.8835 11.3062 56.2179 11.3127Z" fill="black"/>
<path d="M108.872 6.24219H30.5576C28.9008 6.24219 27.5576 7.58533 27.5576 9.24218V91.569C27.5576 93.2258 28.9008 94.569 30.5576 94.569H108.872C110.529 94.569 111.872 93.2258 111.872 91.569V9.24219C111.872 7.58533 110.529 6.24219 108.872 6.24219Z" fill="#999999"/>
<path d="M108.629 6.48334C110.286 6.48334 111.629 7.82648 111.629 9.48334V91.3268C111.629 92.9836 110.286 94.3268 108.629 94.3268H30.7753C29.1185 94.3268 27.7753 92.9836 27.7753 91.3268V9.48333C27.7753 7.82648 29.1185 6.48334 30.7753 6.48334H108.629ZM112.115 9C112.115 7.34315 110.771 6 109.115 6H30.3149C28.6581 6 27.3149 7.34315 27.3149 9V91.8101C27.3149 93.467 28.6581 94.8101 30.3149 94.8101H109.115C110.771 94.8101 112.115 93.467 112.115 91.8101V9Z" fill="black"/>
<path d="M107.005 8.10156H28.6909C27.0341 8.10156 25.6909 9.44471 25.6909 11.1016V93.4283C25.6909 95.0852 27.0341 96.4283 28.6909 96.4283H107.005C108.662 96.4283 110.005 95.0852 110.005 93.4284V11.1016C110.005 9.44471 108.662 8.10156 107.005 8.10156Z" fill="#D3D3D3"/>
<path d="M106.763 8.34271C108.42 8.34271 109.763 9.68586 109.763 11.3427V93.1862C109.763 94.843 108.42 96.1862 106.763 96.1862H28.9086C27.2518 96.1862 25.9086 94.843 25.9086 93.1862V11.3427C25.9086 9.68585 27.2518 8.34271 28.9086 8.34271H106.763ZM110.248 10.8594C110.248 9.20253 108.905 7.85938 107.248 7.85938H28.4482C26.7914 7.85938 25.4482 9.20252 25.4482 10.8594V93.6695C25.4482 95.3264 26.7914 96.6695 28.4482 96.6695H107.248C108.905 96.6695 110.248 95.3264 110.248 93.6695V10.8594Z" fill="black"/>
<path d="M105.133 9.96094H26.8184C25.1615 9.96094 23.8184 11.3041 23.8184 12.9609V95.2877C23.8184 96.9446 25.1615 98.2877 26.8184 98.2877H105.133C106.79 98.2877 108.133 96.9446 108.133 95.2877V12.9609C108.133 11.3041 106.79 9.96094 105.133 9.96094Z" fill="white"/>
<path d="M104.896 10.2021C106.553 10.2021 107.896 11.5452 107.896 13.2021V95.0517C107.896 96.7086 106.553 98.0517 104.896 98.0517H27.0424C25.3856 98.0517 24.0424 96.7086 24.0424 95.0517V13.2021C24.0424 11.5452 25.3856 10.2021 27.0424 10.2021H104.896ZM108.376 12.7188C108.376 11.0619 107.032 9.71875 105.376 9.71875H26.582C24.9252 9.71875 23.582 11.0619 23.582 12.7187V95.5289C23.582 97.1857 24.9252 98.5289 26.582 98.5289H105.376C107.032 98.5289 108.376 97.1857 108.376 95.5289V12.7188Z" fill="black"/>
<path d="M71.3262 23.5146V18.4272H71.9483L72.0168 19.177V23.5146H71.3262ZM73.0495 22.0398C72.8152 22.0511 72.5837 21.9858 72.3901 21.8539C72.3076 21.7927 72.2394 21.7146 72.19 21.6247C72.1406 21.5349 72.1112 21.4355 72.1039 21.3334H71.799L72.0417 20.3172C72.0212 20.6113 72.0953 20.9043 72.2532 21.1537C72.3338 21.2457 72.4332 21.3195 72.5448 21.37C72.6564 21.4206 72.7776 21.4467 72.9002 21.4467C73.0228 21.4467 73.144 21.4206 73.2556 21.37C73.3672 21.3195 73.4667 21.2457 73.5473 21.1537C73.709 20.8806 73.7848 20.5655 73.765 20.249C73.785 19.9187 73.7094 19.5897 73.5473 19.3009C73.4784 19.2002 73.3855 19.118 73.2769 19.0618C73.1683 19.0055 73.0475 18.977 72.9251 18.9787C72.8062 18.9743 72.688 18.9978 72.5799 19.0473C72.4719 19.0969 72.377 19.171 72.303 19.2637C72.1442 19.5128 72.0701 19.806 72.0914 20.1003L71.8488 19.084H72.1225C72.1333 18.9807 72.166 18.8808 72.2186 18.791C72.2712 18.7013 72.3424 18.6237 72.4274 18.5635C72.626 18.4323 72.8612 18.3672 73.0993 18.3776C73.3023 18.3645 73.5054 18.4011 73.6909 18.4843C73.8764 18.5675 74.0385 18.6947 74.1632 18.8547C74.4295 19.2694 74.5559 19.7578 74.524 20.249C74.5558 20.7265 74.429 21.2012 74.1632 21.5999C74.027 21.7589 73.8536 21.8822 73.6584 21.9589C73.4631 22.0357 73.2519 22.0634 73.0433 22.0398H73.0495Z" fill="black"/>
<path d="M75.0591 21.9757V21.356H77.4357V21.9757H75.0591ZM75.1897 19.0509V18.4312H76.3843L76.4465 19.0509H75.1897ZM75.8492 21.9757V18.4312H76.4278L76.5647 19.4475V21.9757H75.8492ZM76.5647 20.4513L76.3532 19.3421H76.6331C76.6705 18.6853 77.0002 18.363 77.6099 18.363C77.7591 18.35 77.9094 18.3718 78.0487 18.4266C78.188 18.4815 78.3126 18.5679 78.4125 18.6791C78.6032 18.9823 78.6905 19.3387 78.6614 19.6953H77.9521C77.9671 19.5027 77.9284 19.3097 77.8401 19.1376C77.7973 19.0785 77.7399 19.0314 77.6733 19.001C77.6068 18.9706 77.5335 18.9579 77.4606 18.9641C77.3238 18.9594 77.1883 18.9929 77.0696 19.0607C76.9509 19.1286 76.8536 19.2282 76.7887 19.3483C76.6209 19.691 76.5438 20.0706 76.5647 20.4513Z" fill="black"/>
<path d="M80.8393 22.0473C80.6232 22.0587 80.4074 22.0211 80.208 21.9373C80.0087 21.8536 79.8309 21.726 79.6883 21.564C79.3928 21.1751 79.2472 20.6936 79.2776 20.2069C79.2462 19.7182 79.3919 19.2344 79.6883 18.8437C79.8392 18.6926 80.0185 18.5728 80.216 18.491C80.4136 18.4093 80.6253 18.3672 80.8393 18.3672C81.0532 18.3672 81.265 18.4093 81.4625 18.491C81.66 18.5728 81.8394 18.6926 81.9902 18.8437C82.2844 19.2353 82.4279 19.7189 82.3946 20.2069C82.4269 20.6929 82.2835 21.1743 81.9902 21.564C81.8476 21.726 81.6699 21.8536 81.4705 21.9373C81.2711 22.0211 81.0553 22.0587 80.8393 22.0473ZM80.8393 21.4276C80.9614 21.4368 81.0837 21.4128 81.1932 21.3582C81.3028 21.3037 81.3955 21.2206 81.4614 21.1178C81.6211 20.8484 81.6969 20.5379 81.6792 20.2255C81.6969 19.9132 81.6211 19.6026 81.4614 19.3332C81.3955 19.2304 81.3028 19.1473 81.1932 19.0928C81.0837 19.0382 80.9614 19.0142 80.8393 19.0234C80.7173 19.0156 80.5955 19.0401 80.4861 19.0946C80.3768 19.149 80.284 19.2313 80.2171 19.3332C80.0599 19.6034 79.9864 19.9138 80.0056 20.2255C79.9864 20.5372 80.0599 20.8476 80.2171 21.1178C80.2862 21.2162 80.3801 21.2949 80.4892 21.346C80.5984 21.3971 80.719 21.4189 80.8393 21.4091V21.4276Z" fill="black"/>
<path d="M83.4585 23.5798V22.9602L84.1304 22.8982C84.4213 22.8956 84.7008 22.7851 84.9143 22.5884C85.0925 22.3566 85.1788 22.0677 85.157 21.7766V20.6922H85.8662V21.6589C85.879 22.0131 85.8154 22.366 85.6796 22.6937C85.5615 22.9608 85.3551 23.1795 85.0948 23.3134C84.7691 23.4595 84.4188 23.5435 84.062 23.5612L83.4585 23.5798ZM83.7385 19.0501V18.4304H85.1756V19.0501H83.7385ZM85.4058 17.8665C85.2748 17.8634 85.1501 17.8101 85.0574 17.7178C84.9647 17.6256 84.9113 17.5013 84.9081 17.3708C84.9075 17.3049 84.9204 17.2396 84.9461 17.1788C84.9718 17.1181 85.0097 17.0632 85.0574 17.0176C85.1028 16.9716 85.1571 16.9353 85.217 16.9108C85.2769 16.8863 85.3411 16.8741 85.4058 16.8751C85.4715 16.874 85.5367 16.8861 85.5976 16.9106C85.6586 16.935 85.7139 16.9714 85.7605 17.0176C85.8529 17.112 85.9043 17.2389 85.9036 17.3708C85.9036 17.5023 85.8511 17.6284 85.7578 17.7213C85.6644 17.8143 85.5378 17.8665 85.4058 17.8665ZM85.1259 20.8037V18.4304H85.8351V20.8037H85.1259Z" fill="black"/>
<path d="M89.2132 22.0428C88.6996 22.075 88.1941 21.9035 87.8071 21.5656C87.6337 21.384 87.5 21.1685 87.4143 20.9328C87.3287 20.6971 87.293 20.4463 87.3094 20.1962C87.2776 19.7103 87.426 19.2296 87.7262 18.8453C87.8755 18.6815 88.0597 18.553 88.2653 18.4694C88.471 18.3857 88.6928 18.349 88.9146 18.362C89.1216 18.3495 89.3289 18.3818 89.5222 18.4567C89.7155 18.5316 89.8903 18.6472 90.0344 18.7957C90.3105 19.1485 90.4497 19.5885 90.4264 20.0351C90.4264 20.2024 90.4264 20.3511 90.4264 20.4936H87.9378V19.9483H89.8042C89.8223 19.6855 89.7426 19.4252 89.5803 19.2171C89.5015 19.1317 89.4051 19.0642 89.2977 19.0193C89.1904 18.9744 89.0745 18.9531 88.9581 18.9569C88.8249 18.951 88.6921 18.9759 88.5701 19.0297C88.4482 19.0834 88.3403 19.1646 88.2551 19.2667C88.0738 19.5185 87.9859 19.8251 88.0062 20.1342C87.9943 20.3063 88.0186 20.4789 88.0775 20.6411C88.1364 20.8033 88.2287 20.9515 88.3484 21.0761C88.623 21.3041 88.9745 21.4193 89.3314 21.3983C89.4771 21.3973 89.6225 21.3869 89.7669 21.3674C89.9133 21.3532 90.0587 21.3304 90.2024 21.2992L90.2895 21.9189C90.098 21.9535 89.9049 21.9783 89.7109 21.9932L89.2132 22.0428Z" fill="black"/>
<path d="M93.2759 22.0439C92.7624 22.0754 92.2571 21.904 91.8698 21.5667C91.6964 21.3851 91.5627 21.1696 91.477 20.9339C91.3913 20.6982 91.3556 20.4474 91.3721 20.1973C91.3574 19.9522 91.3916 19.7066 91.4728 19.4747C91.5539 19.2429 91.6804 19.0293 91.8449 18.8464C92.0223 18.6782 92.2327 18.5484 92.4629 18.4653C92.6931 18.3821 92.9381 18.3473 93.1825 18.3631C93.4905 18.353 93.7961 18.419 94.0722 18.5552C94.3084 18.67 94.4975 18.8627 94.6073 19.1005L94.0598 19.5095C93.9634 19.3524 93.8286 19.2223 93.6678 19.1315C93.4611 19.023 93.2258 18.9808 92.9941 19.0108C92.7625 19.0407 92.5458 19.1413 92.3737 19.2988C92.1747 19.5405 92.0747 19.8481 92.0938 20.1601C92.082 20.3293 92.1051 20.499 92.1618 20.6589C92.2186 20.8188 92.3076 20.9654 92.4235 21.0896C92.5506 21.2007 92.6984 21.2858 92.8586 21.3401C93.0187 21.3943 93.188 21.4166 93.3567 21.4056C93.5247 21.4056 93.6865 21.4056 93.8545 21.4056C94.0224 21.4056 94.1842 21.3685 94.3397 21.3375L94.4206 21.9571C94.2319 21.997 94.0406 22.0239 93.8482 22.0377L93.2759 22.0439Z" fill="black"/>
<path d="M95.186 19.0511V18.4314H98.415V19.0511H95.186ZM96.0819 20.2904V17.3594H96.7912V20.3028L96.0819 20.2904ZM97.6124 22.0316C97.1942 22.0702 96.7767 21.9508 96.4428 21.697C96.3111 21.5531 96.211 21.3835 96.1489 21.1989C96.0868 21.0143 96.064 20.8189 96.0819 20.625V20.0053H96.7912V20.5754C96.7805 20.6872 96.7932 20.8 96.8286 20.9067C96.8639 21.0134 96.9211 21.1116 96.9965 21.1951C97.195 21.3366 97.4378 21.4025 97.6809 21.381H98.0355L98.4648 21.3376L98.5457 21.9573C98.3901 21.9573 98.2346 22.0068 98.0853 22.0192C97.936 22.0316 97.7804 22.044 97.6124 22.044V22.0316Z" fill="black"/>
<path d="M100.723 22.0423C100.456 22.0423 100.226 22.0423 100.033 22.0423C99.8547 22.0319 99.6779 22.007 99.5039 21.968L99.5848 21.3483C99.8212 21.3855 100.033 21.4103 100.207 21.4289C100.377 21.4377 100.547 21.4377 100.717 21.4289C100.983 21.4453 101.249 21.4095 101.501 21.3235C101.572 21.301 101.634 21.2563 101.678 21.196C101.721 21.1358 101.745 21.0632 101.744 20.9889C101.748 20.9447 101.742 20.9002 101.727 20.8584C101.712 20.8167 101.688 20.7787 101.657 20.7472C101.581 20.6863 101.491 20.6457 101.395 20.6295L100.568 20.394C100.291 20.3386 100.028 20.2268 99.7963 20.0656C99.7076 19.99 99.6387 19.8942 99.5953 19.7863C99.552 19.6783 99.5355 19.5616 99.5475 19.4459C99.5352 19.2777 99.5707 19.1095 99.6499 18.9605C99.7291 18.8115 99.8489 18.6876 99.9954 18.6032C100.45 18.3985 100.948 18.3091 101.445 18.3429H101.924L102.384 18.3987L102.31 19.0184L101.831 18.9812H101.42C101.128 18.9665 100.836 19 100.555 19.0803C100.48 19.0983 100.412 19.1411 100.364 19.2017C100.315 19.2623 100.288 19.3374 100.288 19.4149C100.285 19.4587 100.294 19.5024 100.314 19.5415C100.333 19.5807 100.363 19.614 100.4 19.638C100.506 19.6943 100.619 19.736 100.736 19.762L101.395 19.9231C101.694 19.9746 101.976 20.098 102.217 20.2825C102.306 20.3646 102.376 20.4657 102.421 20.5783C102.467 20.6909 102.486 20.8121 102.478 20.9331C102.491 21.0962 102.459 21.2597 102.385 21.4061C102.312 21.5524 102.2 21.676 102.061 21.7635C101.647 21.9707 101.186 22.0669 100.723 22.0423Z" fill="black"/>
<path d="M8.47394 116.7C7.41076 116.711 6.35574 116.514 5.36924 116.119C4.38275 115.724 3.48415 115.139 2.72484 114.398C1.96554 113.656 1.36043 112.773 0.944152 111.799C0.527871 110.824 0.308581 109.778 0.298828 108.719V28.4289C0.31524 27.0889 0.86379 25.8098 1.8245 24.8715C2.78521 23.9333 4.0799 23.4121 5.42538 23.422H59.6337C60.9792 23.4121 62.2739 23.9333 63.2346 24.8715C64.1953 25.8098 64.7439 27.0889 64.7603 28.4289V31.8804H118.421C119.545 31.8721 120.626 32.3076 121.428 33.0915C122.231 33.8754 122.688 34.9439 122.702 36.0631V108.719C122.692 109.777 122.473 110.823 122.057 111.797C121.641 112.771 121.036 113.654 120.278 114.395C119.519 115.137 118.621 115.722 117.635 116.117C116.65 116.512 115.595 116.711 114.533 116.7H8.47394Z" fill="white"/>
<path d="M59.6335 23.7215C60.9003 23.7099 62.12 24.1992 63.0251 25.082C63.9301 25.9649 64.4467 27.1692 64.4615 28.4309V32.1489H118.421C119.466 32.139 120.472 32.5426 121.219 33.271C121.965 33.9995 122.391 34.9933 122.403 36.0342V108.721C122.38 110.778 121.538 112.743 120.063 114.183C118.587 115.624 116.598 116.423 114.532 116.404H8.47375C6.41146 116.416 4.42832 115.615 2.95728 114.175C1.48624 112.735 0.646771 110.775 0.622155 108.721V28.4309C0.636928 27.1692 1.1535 25.9649 2.05856 25.082C2.96363 24.1992 4.1833 23.7099 5.45008 23.7215H59.6335ZM59.6335 23.1018H5.42519C4.71719 23.0953 4.01487 23.2281 3.35857 23.4927C2.70226 23.7573 2.1049 24.1484 1.60079 24.6435C1.09668 25.1387 0.695761 25.7282 0.421049 26.3782C0.146336 27.0281 0.00324749 27.7257 0 28.4309L0 108.721C0.0105703 109.818 0.238141 110.903 0.669717 111.914C1.10129 112.924 1.72842 113.839 2.51529 114.608C3.30216 115.377 4.23336 115.984 5.25572 116.394C6.27808 116.804 7.37157 117.01 8.47375 116.999H114.532C115.634 117.01 116.728 116.804 117.75 116.394C118.772 115.983 119.702 115.377 120.489 114.608C121.275 113.839 121.902 112.923 122.333 111.913C122.763 110.903 122.99 109.818 123 108.721V36.0651C122.985 34.8692 122.495 33.7279 121.636 32.8916C120.778 32.0552 119.622 31.592 118.421 31.6036H65.0587V28.4309C65.0439 27.0115 64.4644 25.6558 63.4474 24.6614C62.4303 23.667 61.0587 23.115 59.6335 23.1266V23.1018Z" fill="black"/>
<path d="M14.6764 82.5028L12.0571 75.2031H13.6187L15.591 81.2634H15.7154L17.6814 75.2031H19.2492L16.6237 82.5028H14.6764Z" fill="black"/>
<path d="M20.9043 82.5059V81.2232H23.8409V82.5059H20.9043ZM21.3211 76.4827V75.2062H25.1661V76.4827H21.3211ZM24.3821 74.0475C24.1115 74.0442 23.8529 73.9353 23.6621 73.744C23.4712 73.5528 23.3634 73.2946 23.3618 73.025C23.3585 72.8911 23.3834 72.7579 23.4348 72.6342C23.4862 72.5104 23.5631 72.3987 23.6604 72.3062C23.8529 72.1151 24.1135 72.0078 24.3853 72.0078C24.657 72.0078 24.9176 72.1151 25.1101 72.3062C25.2074 72.3987 25.2843 72.5104 25.3357 72.6342C25.3871 72.7579 25.412 72.8911 25.4087 73.025C25.4105 73.1587 25.385 73.2914 25.3336 73.415C25.2823 73.5386 25.2062 73.6505 25.1101 73.7438C25.0168 73.8424 24.9039 73.9204 24.7785 73.9727C24.6531 74.025 24.5181 74.0505 24.3821 74.0475ZM23.6978 82.5059V75.5966H25.1661V82.4873L23.6978 82.5059ZM25.0292 82.5059V81.2232H27.4183V82.5059H25.0292Z" fill="black"/>
<path d="M32.8871 82.6464C31.829 82.7124 30.7875 82.3607 29.9879 81.6673C29.6321 81.2914 29.3579 80.8465 29.1823 80.3603C29.0068 79.8742 28.9337 79.3572 28.9675 78.8417C28.9167 77.8366 29.2352 76.8475 29.8634 76.0594C30.1731 75.7256 30.5526 75.4638 30.9751 75.2925C31.3977 75.1212 31.8529 75.0445 32.3085 75.0679C32.7338 75.0421 33.1596 75.1091 33.5562 75.2643C33.9527 75.4195 34.3104 75.6591 34.6043 75.9664C35.1937 76.7016 35.4845 77.6304 35.4193 78.569C35.4213 78.8815 35.4068 79.1938 35.3757 79.5047H30.1994V78.3893H34.063C34.0975 77.8445 33.9292 77.3062 33.5901 76.8773C33.4259 76.6993 33.2242 76.5597 32.9993 76.4687C32.7745 76.3776 32.5322 76.3373 32.2898 76.3506C32.0165 76.3345 31.7431 76.3821 31.4915 76.4897C31.2398 76.5973 31.0168 76.7618 30.8402 76.9703C30.467 77.4906 30.2847 78.1229 30.3238 78.7611C30.2993 79.1149 30.3498 79.4698 30.472 79.8029C30.5942 80.136 30.7853 80.4398 31.0331 80.6945C31.5948 81.1642 32.317 81.3995 33.0489 81.3513C33.3502 81.3504 33.6514 81.3338 33.951 81.3017C34.2434 81.2645 34.5732 81.2212 34.8469 81.1592L35.0273 82.4419C34.635 82.5192 34.2381 82.571 33.839 82.5968C33.4782 82.6299 33.1609 82.6464 32.8871 82.6464Z" fill="black"/>
<path d="M37.7088 82.5028L36.8813 75.2031H38.2625L38.8162 81.3998H38.9407L39.8055 75.2031H41.1493L40.5272 76.7027H40.4401L39.5877 82.5028H37.7088ZM41.3733 82.5028L40.521 76.7027H40.4401L39.8179 75.2031H41.1618L42.0266 81.3998H42.151L42.7732 75.2031H44.2228L43.1838 82.5028H41.3733Z" fill="black"/>
<path d="M14.571 99.5731C13.932 99.613 13.3006 99.4166 12.7979 99.0216C12.5852 98.8243 12.4191 98.5825 12.3115 98.3135C12.2039 98.0446 12.1575 97.7552 12.1757 97.4663C12.1585 97.1207 12.2294 96.7764 12.3817 96.4655C12.534 96.1546 12.7627 95.887 13.0467 95.6878C13.7789 95.2315 14.636 95.0148 15.498 95.0682C15.8892 95.0652 16.2801 95.09 16.6677 95.1425C16.9825 95.1896 17.2912 95.2707 17.5885 95.3842L17.2836 96.3756C16.9851 96.3079 16.6811 96.2664 16.3753 96.2517H15.4669C14.1977 96.2517 13.5631 96.6359 13.5631 97.4043C13.554 97.5455 13.5792 97.6868 13.6366 97.8163C13.694 97.9457 13.7819 98.0595 13.8929 98.1479C14.1611 98.3419 14.4891 98.4361 14.8199 98.4143C15.2148 98.4275 15.6072 98.3468 15.9646 98.1789C16.2471 98.0387 16.4859 97.8245 16.6552 97.5592C16.7996 97.3354 16.8772 97.0754 16.8792 96.8094V96.0472L17.3085 97.9062H16.7299L16.9663 97.6893C16.9804 98.063 16.8759 98.4316 16.6677 98.7428C16.4629 99.0271 16.1767 99.2431 15.8464 99.3624C15.4381 99.5107 15.0056 99.5822 14.571 99.5731ZM17.1592 99.5049L17.0596 97.3361L16.8668 96.7165V94.8265C16.8827 94.6184 16.8433 94.4098 16.7527 94.2216C16.662 94.0335 16.5233 93.8724 16.3504 93.7545C15.8824 93.4979 15.3538 93.3716 14.8199 93.3889L13.0654 93.3579L13.2023 92.0628H14.683C15.6478 92.0024 16.6033 92.2809 17.3832 92.8498C17.6871 93.1266 17.9244 93.4682 18.0773 93.8491C18.2303 94.23 18.295 94.6403 18.2666 95.0496V98.0921L19.5109 98.2408V99.412L17.1592 99.5049Z" fill="black"/>
<path d="M20.3506 99.43V98.1535H25.2469V99.43H20.3506ZM20.6306 93.4131V92.1304H23.0756L23.2187 93.4131H20.6306ZM21.9869 99.43V92.1304H23.1752L23.4489 94.2249V99.43H21.9869ZM23.4489 96.2945L23.0196 94.0018H23.592C23.6708 92.6633 24.3427 91.9941 25.6078 91.9941C25.912 91.9639 26.219 92.0042 26.505 92.1117C26.791 92.2192 27.0482 92.391 27.2565 92.6137C27.6491 93.2387 27.8281 93.9735 27.7667 94.7082H26.3171C26.3484 94.3108 26.2641 93.9128 26.0744 93.5618C25.9876 93.4414 25.8708 93.3455 25.7356 93.2836C25.6003 93.2217 25.4512 93.1958 25.3029 93.2086C25.0193 93.1972 24.7382 93.2655 24.4917 93.4058C24.2453 93.5461 24.0434 93.7526 23.9093 94.0018C23.5614 94.7142 23.4029 95.5036 23.4489 96.2945Z" fill="black"/>
<path d="M32.9745 99.5708C32.4508 99.6046 31.9257 99.5349 31.4292 99.3658C30.9327 99.1967 30.4747 98.9315 30.0814 98.5856C29.7242 98.2118 29.4491 97.7682 29.2734 97.2828C29.0977 96.7974 29.0254 96.2808 29.0611 95.7661C29.029 95.2618 29.0976 94.7563 29.2632 94.2787C29.4287 93.801 29.6878 93.3609 30.0254 92.9838C30.3912 92.638 30.8249 92.3713 31.2993 92.2007C31.7736 92.03 32.2783 91.9591 32.7816 91.9924C33.427 91.9694 34.0682 92.1056 34.6481 92.3889C35.1315 92.6245 35.5167 93.0214 35.7368 93.5105L34.6107 94.3533C34.4037 94.0209 34.1117 93.7493 33.7646 93.5663C33.3402 93.3351 32.853 93.2441 32.3733 93.3064C31.8936 93.3688 31.4462 93.5813 31.0955 93.9133C30.6815 94.4082 30.4743 95.0427 30.5169 95.6855C30.4938 96.0319 30.5421 96.3794 30.6587 96.7065C30.7753 97.0336 30.9579 97.3336 31.1951 97.5879C31.4554 97.8194 31.7596 97.9968 32.0897 98.1096C32.4199 98.2224 32.7693 98.2684 33.1176 98.2447C33.4597 98.2447 33.8019 98.2447 34.1441 98.2014C34.4863 98.158 34.816 98.1208 35.1396 98.0712L35.3075 99.3477C34.9208 99.4355 34.5276 99.4915 34.1317 99.5151C33.7273 99.5522 33.3353 99.5708 32.9745 99.5708Z" fill="black"/>
<path d="M37.5596 99.4314V89.1016H39.0279V99.4314H37.5596ZM42.0702 99.4314V94.6785C42.0942 94.2921 41.9696 93.911 41.7218 93.6127C41.5971 93.4836 41.4457 93.3829 41.2782 93.3176C41.1106 93.2524 40.9308 93.2241 40.7512 93.2347C39.5982 93.2347 39.0237 93.9329 39.0279 95.3292L38.5986 93.4702H39.1958C39.1983 93.2579 39.2481 93.0487 39.3417 92.858C39.4353 92.6672 39.5704 92.4995 39.7371 92.3672C40.1499 92.0992 40.6393 91.973 41.1307 92.0078C41.4625 91.9863 41.7951 92.0367 42.1055 92.1554C42.4158 92.2741 42.6967 92.4584 42.9288 92.6956C43.377 93.2563 43.5989 93.9634 43.5509 94.6785V99.4314H42.0702Z" fill="black"/>
<path d="M45.8032 99.4348V98.1583H48.7336V99.4348H45.8032ZM46.2201 93.4179V92.1352H50.0588V93.4179H46.2201ZM49.2811 90.9764C49.0486 90.9737 48.8243 90.891 48.646 90.7424C48.4677 90.5939 48.3465 90.3885 48.3028 90.161C48.2592 89.9336 48.2958 89.6982 48.4065 89.4946C48.5172 89.291 48.6952 89.1317 48.9103 89.0439C49.1253 88.956 49.3643 88.9449 49.5867 89.0124C49.809 89.0799 50.0011 89.2218 50.1304 89.4143C50.2597 89.6067 50.3183 89.8377 50.2961 90.0682C50.274 90.2987 50.1726 90.5144 50.009 90.679C49.9145 90.7755 49.8012 90.8517 49.676 90.9029C49.5508 90.954 49.4164 90.979 49.2811 90.9764ZM48.5967 99.4348V92.5503H50.0588V99.4348H48.5967ZM49.9219 99.4348V98.1583H52.3172V99.4348H49.9219Z" fill="black"/>
<path d="M56.1681 99.4325L53.5488 92.1328H55.1104L57.0827 98.1931H57.2382L59.2104 92.1328H60.772L58.1528 99.4325H56.1681Z" fill="black"/>
<path d="M66.0789 99.5762C65.5553 99.6099 65.0302 99.5402 64.5337 99.3711C64.0372 99.202 63.5792 98.9369 63.1859 98.5909C62.8287 98.2172 62.5536 97.7735 62.3779 97.2881C62.2022 96.8027 62.1299 96.2862 62.1656 95.7714C62.1019 94.7698 62.4096 93.7797 63.0304 92.9891C63.3363 92.6524 63.7143 92.3885 64.1365 92.2169C64.5586 92.0453 65.0141 91.9704 65.4692 91.9977C65.8949 91.9722 66.321 92.0388 66.7183 92.1928C67.1157 92.3468 67.4749 92.5847 67.7712 92.89C68.3577 93.6288 68.6462 94.5592 68.58 95.4988C68.58 95.8334 68.58 96.1184 68.5427 96.4345H63.3975V95.3191H67.2548C67.293 94.7739 67.1242 94.2343 66.782 93.8071C66.6178 93.6291 66.416 93.4895 66.1912 93.3984C65.9663 93.3073 65.724 93.267 65.4817 93.2804C65.2084 93.2648 64.9352 93.3126 64.6836 93.4201C64.432 93.5277 64.209 93.692 64.0321 93.9C63.6601 94.4207 63.4799 95.0532 63.5219 95.6909C63.4975 96.0437 63.548 96.3977 63.6702 96.7298C63.7924 97.0618 63.9836 97.3645 64.2311 97.618C64.789 98.0907 65.5098 98.3285 66.2407 98.2811C66.5421 98.2803 66.8432 98.2638 67.1428 98.2315C67.4352 98.1943 67.765 98.1447 68.045 98.089L68.2192 99.3655C67.827 99.445 67.4301 99.4989 67.0308 99.5266C66.67 99.5596 66.3527 99.5762 66.0789 99.5762Z" fill="black"/>
</svg>
